<?xml version="1.0" encoding="UTF-8"?>
<!DOCTYPE svg PUBLIC "-//W3C//DTD SVG 1.1//EN" "http://www.w3.org/Graphics/SVG/1.1/DTD/svg11.dtd">
<!-- Creator: CorelDRAW 2020 (64-Bit) -->
<svg xmlns="http://www.w3.org/2000/svg" xml:space="preserve" width="29.6333mm" height="17.0032mm" version="1.1" style="shape-rendering:geometricPrecision; text-rendering:geometricPrecision; image-rendering:optimizeQuality; fill-rule:evenodd; clip-rule:evenodd"
viewBox="0 0 2853.53 1637.32"
 xmlns:xlink="http://www.w3.org/1999/xlink"
 xmlns:xodm="http://www.corel.com/coreldraw/odm/2003">
 <defs>
  <style type="text/css">
   <![CDATA[
    .fil0 {fill:#FEFEFE}
    .fil1 {fill:#FEFEFE;fill-rule:nonzero}
   ]]>
  </style>
 </defs>
 <g id="Capa_x0020_1">
  <metadata id="CorelCorpID_0Corel-Layer"/>
  <g id="_2898188657248">
   <path class="fil0" d="M2853.53 1155.78c-265.32,-153.83 -804.63,-259.13 -1426.77,-259.13 -622.14,0 -1161.45,105.3 -1426.76,259.13 292.69,-126.96 822.17,-211.77 1426.76,-211.77 604.59,0 1134.07,84.81 1426.77,211.77zm-393.03 428.75l21.84 -50.96 22.03 50.96 -43.87 0zm-44.23 50.6l22.94 0 13.11 -30.76 60.24 0 12.92 30.76 23.67 0 -56.06 -128.32 -20.75 0 -56.06 128.32zm-128.19 0l22.39 0 0 -127.41 -22.39 0 0 127.41zm-182.05 -61.16l0 -45.87 26.03 0c16.75,0 27.48,7.83 27.48,22.75l0 0.37c0,13.28 -10.55,22.74 -27.48,22.74l-26.03 0zm-22.39 61.16l22.39 0 0 -40.95 25.3 0c28.03,0 50.97,-14.93 50.97,-43.5l0 -0.37c0,-25.66 -18.75,-42.59 -48.42,-42.59l-50.24 0 0 127.41zm-194.44 -50.6l21.85 -50.96 22.02 50.96 -43.87 0zm-44.23 50.6l22.94 0 13.11 -30.76 60.24 0 12.92 30.76 23.67 0 -56.06 -128.32 -20.75 0 -56.06 128.32zm-191.52 -64.25l0 -42.77 32.59 0c16.56,0 26.38,7.46 26.38,21.12l0 0.36c0,12.92 -10.19,21.3 -26.21,21.3l-32.76 0zm-22.39 64.25l22.39 0 0 -44.41 28.03 0 31.31 44.41 26.39 0 -34.41 -48.23c17.84,-5.09 30.4,-17.65 30.4,-38.59l0 -0.37c0,-11.1 -3.82,-20.56 -10.55,-27.48 -8.19,-8.01 -20.75,-12.74 -36.77,-12.74l-56.78 0 0 127.41zm-201.17 0l95.38 0 0 -20.02 -72.99 0 0 -34.21 63.88 0 0 -20.03 -63.88 0 0 -33.13 72.08 0 0 -20.02 -94.46 0 0 127.41zm-168.77 0l22.57 0 0 -106.66 40.41 0 0 -20.75 -103.38 0 0 20.75 40.41 0 0 106.66zm-212.64 -18.38c-25.3,0 -43.32,-20.57 -43.32,-45.32l0 -0.37c0,-24.76 17.66,-44.96 42.96,-44.96 25.31,0 43.32,20.57 43.32,45.33l0 0.36c0,24.76 -17.65,44.96 -42.96,44.96zm-0.37 20.57c39.13,0 66.8,-30.03 66.8,-65.88l0 -0.37c0,-35.86 -27.3,-65.53 -66.43,-65.53 -39.13,0 -66.8,30.03 -66.8,65.89l0 0.36c0,35.86 27.3,65.53 66.43,65.53zm-194.61 -2.19l22.39 0 0 -127.41 -22.39 0 0 127.41zm-151.3 1.82c26.76,0 45.51,-14.19 45.51,-38.04l0 -0.37c0,-21.12 -14.02,-30.76 -40.95,-37.31 -24.39,-5.83 -30.22,-10.19 -30.22,-20.02l0 -0.37c0,-8.37 7.65,-15.11 20.75,-15.11 11.64,0 23.11,4.55 34.58,13.11l12.02 -16.93c-12.92,-10.37 -27.67,-16.01 -46.23,-16.01 -25.31,0 -43.51,15.11 -43.51,36.95l0 0.37c0,23.48 15.29,31.49 42.41,38.04 23.66,5.46 28.76,10.38 28.76,19.48l0 0.37c0,9.64 -8.74,16.01 -22.57,16.01 -15.84,0 -28.03,-6.01 -40.22,-16.56l-13.47 16.01c15.29,13.65 33.67,20.39 53.14,20.39zm-181.32 -1.82l22.38 0 0 -127.41 -22.38 0 0 127.41zm-200.62 0l22.39 0 0 -51.87 64.25 0 0 -20.39 -64.25 0 0 -34.76 72.43 0 0 -20.39 -94.82 0 0 127.41z"/>
   <path class="fil1" d="M635.38 86c28.69,0 54.67,11.63 73.46,30.43 18.81,18.81 30.43,44.78 30.43,73.46 0,28.69 -11.62,54.67 -30.43,73.46 -18.8,18.8 -44.78,30.43 -73.46,30.43 -28.69,0 -54.66,-11.63 -73.45,-30.43 -18.81,-18.8 -30.43,-44.78 -30.43,-73.46 0,-28.69 11.62,-54.66 30.43,-73.46 18.8,-18.8 44.77,-30.43 73.45,-30.43zm41.6 62.29c-10.64,-10.64 -25.35,-17.23 -41.6,-17.23 -16.24,0 -30.95,6.59 -41.59,17.23 -10.64,10.65 -17.23,25.35 -17.23,41.6 0,16.24 6.59,30.96 17.23,41.6 10.64,10.64 25.34,17.23 41.59,17.23 16.24,0 30.96,-6.59 41.6,-17.23 10.64,-10.64 17.23,-25.35 17.23,-41.6 0,-16.24 -6.59,-30.95 -17.23,-41.6zm-265.51 460.55l0 -62.08c-19.84,13.8 -36.89,31.32 -50.11,51.58 -19.16,29.35 -30.31,64.49 -30.31,102.31 0,51.71 20.96,98.53 54.85,132.41 33.88,33.88 80.69,54.84 132.41,54.84 51.71,0 98.53,-20.96 132.41,-54.84 33.88,-33.89 54.84,-80.7 54.84,-132.41 0,-42.12 -13.85,-80.95 -37.22,-112.17 -2.19,-1.89 -4.01,-4.2 -5.33,-6.8 -21,-25.53 -48.61,-45.39 -80.19,-56.98l0 84.14c0,23.45 -9.61,44.82 -25.09,60.38l-0.14 0.14c-15.56,15.52 -36.96,25.15 -60.43,25.15 -22.8,0 -43.63,-9.08 -59.07,-23.81 -0.5,-0.42 -0.99,-0.87 -1.46,-1.34 -15.51,-15.51 -25.14,-36.94 -25.14,-60.52zm0 -114.45l0 -55.77c0,-13.87 3.35,-27.01 9.29,-38.67 6.11,-12.01 15.03,-22.43 25.88,-30.39 5.33,-3.91 76.81,-35.33 120.98,-54.75 18.52,-8.15 32.19,-14.16 32.85,-14.47 3.16,-1.52 6.49,-2.24 9.77,-2.24l0 -0.05c23.58,0 45.01,9.63 60.52,25.15 0.47,0.47 0.91,0.95 1.33,1.45 14.74,15.44 23.82,36.27 23.82,59.07l0 165.17 139.69 0c0.94,0 1.87,0.06 2.77,0.17 24.22,2.17 43.05,10.62 57.08,24.67 13.84,13.86 22.08,32.43 25.39,55.13l49.77 207.22c5.28,21.05 1.57,42.31 -8.69,59.65 -10.33,17.47 -27.37,31.05 -48.61,36.5 -21.19,5.44 -42.63,1.74 -60.09,-8.58 -17.47,-10.33 -31.05,-27.38 -36.5,-48.61l-43.17 -168.23 -23.04 0c-1.61,61.71 -27.28,117.42 -67.96,158.12 -42.04,42.04 -100.13,68.04 -164.28,68.04 -64.15,0 -122.24,-26 -164.28,-68.04 -42.04,-42.04 -68.05,-100.13 -68.05,-164.28 0,-46.72 13.87,-90.28 37.71,-126.78 21.85,-33.46 52.11,-60.95 87.78,-79.47zm45.07 -55.77l0 170.22c0,11.14 4.57,21.29 11.95,28.66l0.92 0.99c7.23,6.78 17,10.96 27.73,10.96 11.2,0 21.35,-4.55 28.66,-11.86l0.09 -0.09c7.32,-7.31 11.86,-17.46 11.86,-28.66l0 -113.77c0,-12.45 10.09,-22.53 22.53,-22.53 2.31,0 4.55,0.35 6.65,0.99 30.65,6.54 59.06,19.11 83.92,36.41l0 -126.22c0,-10.74 -4.18,-20.49 -10.96,-27.72l-0.99 -0.93c-6.42,-6.42 -14.95,-10.73 -24.42,-11.72 -6.05,2.69 -16.26,7.18 -28.72,12.66 -42.52,18.69 -111.36,48.97 -112.53,49.82 -5.14,3.77 -9.39,8.75 -12.34,14.54 -2.78,5.47 -4.36,11.68 -4.36,18.26zm268.14 155.34c10.86,20.93 18.63,43.74 22.7,67.77l43.6 0 0 0.1c10.02,-0.01 19.15,6.75 21.74,16.9l47.52 185.21c2.33,9.09 8.25,16.45 15.91,20.97 7.66,4.54 16.98,6.17 26.12,3.83 9.08,-2.33 16.44,-8.25 20.96,-15.91 4.49,-7.58 6.14,-16.8 3.89,-25.86l-49.89 -207.66c-0.38,-1.17 -0.65,-2.38 -0.83,-3.62 -1.89,-13.3 -6.05,-23.54 -12.79,-30.28 -6.31,-6.32 -15.79,-10.24 -28.83,-11.46l-110.1 0z"/>
   <path class="fil1" d="M2125.03 595.01l-165.34 255.01c-3.82,5.89 -4.86,12.9 -3.48,19.42 1.31,6.14 4.81,11.82 10.23,15.66 7.29,3.33 15.05,4.37 21.96,2.9 5.85,-1.25 11.1,-4.52 14.63,-9.93l152.96 -235.31 -30.96 -47.74zm-203.01 230.54l176.41 -272.1c-5.16,-8.96 -8.94,-17.44 -11.48,-27.16l-44.31 56.9c-22.11,28.37 -48.39,34.94 -71.86,28.74 -9.84,-2.6 -18.9,-7.51 -26.7,-14.03 -7.45,-6.23 -13.85,-13.99 -18.68,-22.62 -13.72,-24.41 -15.52,-56.26 4.4,-81.41l188.66 -238.16c0.87,-1.1 1.81,-2.09 2.82,-2.98 8.4,-16.6 21.53,-30.17 37.35,-39.16 17.31,-9.84 37.83,-14.27 58.92,-11.3l1.71 0.26c24.77,3.95 45.8,17.4 59.85,36.05 3.84,5.09 7.16,10.59 9.91,16.39 1.97,1.01 3.82,2.33 5.49,3.97l201.79 198.08c5.82,5.71 10.7,12.62 14.45,20.13 5.86,11.74 8.97,25.16 8.57,37.81 -0.45,14.37 -5.29,28.08 -15.42,38.4 -3.34,3.41 -7.16,6.37 -11.48,8.77 -14.57,10.93 -31.94,16.92 -49.05,16.87 -17.82,-0.05 -35.2,-6.44 -48.99,-20.29l-116.25 -116.66 -14.93 106.05 179.89 277.44c10.61,16.38 13.58,35.54 9.81,53.22 -3.78,17.71 -14.31,34 -30.67,44.6l-0.3 0.19c-16.31,10.46 -35.35,13.38 -52.91,9.63 -17.71,-3.77 -34.01,-14.3 -44.61,-30.66l-141.67 -218.51 -142.04 218.51c-10.5,16.15 -25.88,25.83 -42.97,29.47 -16.68,3.56 -34.95,1.14 -51.47,-6.81 -1.16,-0.5 -2.29,-1.11 -3.39,-1.82 -16.36,-10.6 -26.89,-26.9 -30.66,-44.6 -3.77,-17.68 -0.81,-36.84 9.81,-53.22zm276.01 -200.52c3.25,2.83 5.54,6.45 6.73,10.39l157.32 242.65c3.84,5.91 9.78,9.74 16.27,11.11 6.51,1.4 13.51,0.35 19.4,-3.48 5.93,-3.83 9.75,-9.78 11.13,-16.26 1.4,-6.52 0.35,-13.53 -3.48,-19.42l-184.03 -283.84c-3.16,-4.49 -4.69,-10.14 -3.87,-16.01l21.45 -152.42c-1.13,-5.19 -0.4,-10.72 2.19,-15.49l11.36 -80.73c1.86,-13.16 -1.86,-25.91 -9.32,-35.82 -7.26,-9.65 -18.04,-16.62 -30.66,-18.7 -0.78,-0.08 -1.56,-0.18 -2.34,-0.34 -2.86,-0.33 -5.69,-0.4 -8.47,-0.23 5.67,3.41 10.86,7.64 15.35,12.63 7.71,8.57 13.36,19.27 15.83,31.71 4.21,21.02 -0.68,46.97 -20.66,75.18 -4.21,5.89 -8.61,11.32 -13.43,16.72l-67.71 86.95 -1.86 13.3c-1.25,14.31 -0.93,24.01 1.08,31.83 1.96,7.67 5.98,15.04 12.05,24.4l55.67 85.87zm-106.84 -177.24c0.46,-0.66 0.95,-1.3 1.48,-1.91l70.71 -90.79c0.57,-0.84 1.2,-1.66 1.91,-2.44 4.03,-4.51 8.19,-9.49 11.55,-14.51 3.54,-5.18 6.25,-10.05 8.22,-14.62 0.63,-1.42 1.22,-2.95 1.71,-4.41 2.57,-7.5 3.04,-14.04 1.95,-19.54 -0.84,-4.18 -2.65,-7.69 -5.09,-10.41 -2.54,-2.82 -5.79,-4.93 -9.37,-6.2 -0.94,-0.33 -1.91,-0.61 -2.89,-0.83l-0.23 -0.05c-6.29,-1.32 -13.25,-0.2 -19.3,3.87l-0.22 0.14 -186.62 235.57c-7.19,9.08 -5.98,21.57 -0.35,31.59 2.2,3.92 5.04,7.4 8.29,10.12 2.91,2.43 6.07,4.21 9.27,5.05 7.11,1.88 15.99,-1.29 25.04,-12.9l83.94 -107.75zm203.79 -125.39l-8.99 63.88 140.25 140.75c4.82,4.84 10.9,7.08 17.13,7.1 7.41,0.02 15.21,-2.8 22.05,-7.95 0.75,-0.65 1.55,-1.27 2.4,-1.84 0.8,-0.51 1.62,-0.98 2.47,-1.41 0.68,-0.35 1.21,-0.71 1.57,-1.08 1.64,-1.67 2.46,-4.7 2.56,-8.29 0.17,-5.32 -1.21,-11.12 -3.82,-16.33 -1.53,-3.07 -3.51,-5.88 -5.82,-8.16l-169.81 -166.68zm-39.52 -322.39c26.83,0 51.13,10.88 68.72,28.46 17.59,17.58 28.47,41.89 28.47,68.73 0,26.84 -10.88,51.13 -28.47,68.73 -17.58,17.58 -41.89,28.46 -68.72,28.46 -26.84,0 -51.13,-10.88 -68.73,-28.46 -17.58,-17.59 -28.46,-41.89 -28.46,-68.73 0,-26.84 10.88,-51.14 28.46,-68.73 17.59,-17.58 41.89,-28.46 68.73,-28.46zm36.85 60.34c-9.43,-9.44 -22.46,-15.27 -36.85,-15.27 -14.4,0 -27.42,5.84 -36.86,15.27 -9.43,9.43 -15.26,22.46 -15.26,36.85 0,14.4 5.84,27.42 15.26,36.85 9.43,9.44 22.47,15.27 36.86,15.27 14.4,0 27.42,-5.84 36.85,-15.27 9.44,-9.43 15.27,-22.46 15.27,-36.85 0,-14.4 -5.85,-27.42 -15.27,-36.85zm-80.07 305.62l-0.1 0.13 0.1 -0.13z"/>
   <path class="fil1" d="M635.38 86c28.69,0 54.67,11.63 73.46,30.43 18.81,18.81 30.43,44.78 30.43,73.46 0,28.69 -11.62,54.67 -30.43,73.46 -18.8,18.8 -44.78,30.43 -73.46,30.43 -28.69,0 -54.66,-11.63 -73.45,-30.43 -18.81,-18.8 -30.43,-44.78 -30.43,-73.46 0,-28.69 11.62,-54.66 30.43,-73.46 18.8,-18.8 44.77,-30.43 73.45,-30.43zm41.6 62.29c-10.64,-10.64 -25.35,-17.23 -41.6,-17.23 -16.24,0 -30.95,6.59 -41.59,17.23 -10.64,10.65 -17.23,25.35 -17.23,41.6 0,16.24 6.59,30.96 17.23,41.6 10.64,10.64 25.34,17.23 41.59,17.23 16.24,0 30.96,-6.59 41.6,-17.23 10.64,-10.64 17.23,-25.35 17.23,-41.6 0,-16.24 -6.59,-30.95 -17.23,-41.6zm-265.51 460.55l0 -62.08c-19.84,13.8 -36.89,31.32 -50.11,51.58 -19.16,29.35 -30.31,64.49 -30.31,102.31 0,51.71 20.96,98.53 54.85,132.41 33.88,33.88 80.69,54.84 132.41,54.84 51.71,0 98.53,-20.96 132.41,-54.84 33.88,-33.89 54.84,-80.7 54.84,-132.41 0,-42.12 -13.85,-80.95 -37.22,-112.17 -2.19,-1.89 -4.01,-4.2 -5.33,-6.8 -21,-25.53 -48.61,-45.39 -80.19,-56.98l0 84.14c0,23.45 -9.61,44.82 -25.09,60.38l-0.14 0.14c-15.56,15.52 -36.96,25.15 -60.43,25.15 -22.8,0 -43.63,-9.08 -59.07,-23.81 -0.5,-0.42 -0.99,-0.87 -1.46,-1.34 -15.51,-15.51 -25.14,-36.94 -25.14,-60.52zm0 -114.45l0 -55.77c0,-13.87 3.35,-27.01 9.29,-38.67 6.11,-12.01 15.03,-22.43 25.88,-30.39 5.33,-3.91 76.81,-35.33 120.98,-54.75 18.52,-8.15 32.19,-14.16 32.85,-14.47 3.16,-1.52 6.49,-2.24 9.77,-2.24l0 -0.05c23.58,0 45.01,9.63 60.52,25.15 0.47,0.47 0.91,0.95 1.33,1.45 14.74,15.44 23.82,36.27 23.82,59.07l0 165.17 139.69 0c0.94,0 1.87,0.06 2.77,0.17 24.22,2.17 43.05,10.62 57.08,24.67 13.84,13.86 22.08,32.43 25.39,55.13l49.77 207.22c5.28,21.05 1.57,42.31 -8.69,59.65 -10.33,17.47 -27.37,31.05 -48.61,36.5 -21.19,5.44 -42.63,1.74 -60.09,-8.58 -17.47,-10.33 -31.05,-27.38 -36.5,-48.61l-43.17 -168.23 -23.04 0c-1.61,61.71 -27.28,117.42 -67.96,158.12 -42.04,42.04 -100.13,68.04 -164.28,68.04 -64.15,0 -122.24,-26 -164.28,-68.04 -42.04,-42.04 -68.05,-100.13 -68.05,-164.28 0,-46.72 13.87,-90.28 37.71,-126.78 21.85,-33.46 52.11,-60.95 87.78,-79.47zm45.07 -55.77l0 170.22c0,11.14 4.57,21.29 11.95,28.66l0.92 0.99c7.23,6.78 17,10.96 27.73,10.96 11.2,0 21.35,-4.55 28.66,-11.86l0.09 -0.09c7.32,-7.31 11.86,-17.46 11.86,-28.66l0 -113.77c0,-12.45 10.09,-22.53 22.53,-22.53 2.31,0 4.55,0.35 6.65,0.99 30.65,6.54 59.06,19.11 83.92,36.41l0 -126.22c0,-10.74 -4.18,-20.49 -10.96,-27.72l-0.99 -0.93c-6.42,-6.42 -14.95,-10.73 -24.42,-11.72 -6.05,2.69 -16.26,7.18 -28.72,12.66 -42.52,18.69 -111.36,48.97 -112.53,49.82 -5.14,3.77 -9.39,8.75 -12.34,14.54 -2.78,5.47 -4.36,11.68 -4.36,18.26zm268.14 155.34c10.86,20.93 18.63,43.74 22.7,67.77l43.6 0 0 0.1c10.02,-0.01 19.15,6.75 21.74,16.9l47.52 185.21c2.33,9.09 8.25,16.45 15.91,20.97 7.66,4.54 16.98,6.17 26.12,3.83 9.08,-2.33 16.44,-8.25 20.96,-15.91 4.49,-7.58 6.14,-16.8 3.89,-25.86l-49.89 -207.66c-0.38,-1.17 -0.65,-2.38 -0.83,-3.62 -1.89,-13.3 -6.05,-23.54 -12.79,-30.28 -6.31,-6.32 -15.79,-10.24 -28.83,-11.46l-110.1 0z"/>
   <path class="fil1" d="M1500.88 95.07c28.69,0 54.66,11.63 73.46,30.44 18.8,18.8 30.43,44.78 30.43,73.45 0,28.69 -11.63,54.67 -30.43,73.46 -18.81,18.81 -44.78,30.44 -73.46,30.44 -28.69,0 -54.67,-11.63 -73.46,-30.44 -18.8,-18.8 -30.43,-44.78 -30.43,-73.46 0,-28.68 11.63,-54.66 30.43,-73.45 18.8,-18.81 44.78,-30.44 73.46,-30.44zm41.6 62.3c-10.65,-10.65 -25.35,-17.23 -41.6,-17.23 -16.24,0 -30.96,6.58 -41.6,17.23 -10.64,10.64 -17.23,25.34 -17.23,41.59 0,16.24 6.59,30.96 17.23,41.6 10.64,10.64 25.35,17.23 41.6,17.23 16.24,0 30.96,-6.59 41.6,-17.23 10.64,-10.64 17.23,-25.35 17.23,-41.6 0,-16.24 -6.59,-30.95 -17.23,-41.59zm-282.94 732.36c6.32,0 11.95,-2.28 15.95,-5.96 3.49,-3.21 5.65,-7.53 5.65,-12.17l0 -338.64c0,-4.39 1.26,-8.48 3.43,-11.95l72.83 -135.19c5.88,-10.94 19.52,-15.03 30.46,-9.15 3.11,1.67 5.66,3.96 7.59,6.64l153.34 184.19c4.78,5.74 11.04,6.61 16.61,4.61 3,-1.08 6,-2.92 8.77,-5.3 2.72,-2.34 5.07,-5.19 6.86,-8.35 3.74,-6.65 4.29,-14.82 -1.43,-21.56l-197.23 -232.45c-1.26,-1.48 -2.88,-2.58 -4.68,-3.29 -2.47,-0.97 -5.36,-1.37 -8.39,-1.22 -0.71,0.04 -1.42,0.04 -2.11,0l-0.2 0c-3.91,-0.16 -7.64,0.65 -10.75,2.31 -2.67,1.43 -4.93,3.58 -6.42,6.36 -2.48,4.6 -11.98,21.44 -23.99,42.74 -31.92,56.6 -83.2,147.54 -87.46,161.08l-0.51 159.23 0.09 0 0 199.93c0,4.64 2.17,8.96 5.66,12.17 3.99,3.68 9.62,5.96 15.94,5.96zm0 45.08c-17.96,0 -34.4,-6.88 -46.39,-17.94 -12.51,-11.52 -20.27,-27.55 -20.27,-45.27l0 -199.93 0.09 0 0.52 -160.57c-0.1,-1.67 -0.02,-3.37 0.27,-5.08 2.84,-16.78 58.64,-115.74 92.99,-176.66 10.07,-17.85 18.12,-32.13 23.46,-42.03 5.82,-10.79 14.56,-19.13 24.92,-24.67 10.01,-5.35 21.47,-8 33.12,-7.63 8.76,-0.29 17.69,1.14 26,4.43 8.5,3.39 16.25,8.67 22.46,15.98l197.23 232.45c19.93,23.5 18.61,50.8 6.36,72.61l-0.15 0.28c6.36,3.57 12.18,7.99 17.3,13.12 14.28,14.28 23.14,33.99 23.14,55.69l0 262.71c0,12.44 -10.09,22.53 -22.53,22.53 -12.44,0 -22.53,-10.09 -22.53,-22.53l0 -262.71c0,-9.25 -3.8,-17.69 -9.94,-23.82 -6.12,-6.12 -14.56,-9.93 -23.82,-9.93 -9.25,0 -17.7,3.8 -23.82,9.93 -6.12,6.12 -9.93,14.57 -9.93,23.82 0,12.45 -10.09,22.53 -22.54,22.53 -12.44,0 -22.53,-10.08 -22.53,-22.53 0,-18.01 6.11,-34.65 16.34,-47.95 -1.69,-1.67 -3.36,-3.47 -4.98,-5.4l-133.04 -159.82 -55.03 102.16 0 333.04c0,17.72 -7.76,33.74 -20.27,45.27 -12,11.06 -28.44,17.94 -46.39,17.94z"/>
   <path class="fil1" d="M385.69 1208l0 0.43 0 -0.43zm120.25 -54.25c0,10.13 -0.13,20.18 -0.4,30.16 -0.27,9.99 -0.53,20.04 -0.8,30.17l0 -2.61c0,5.79 0,13.96 0,24.53 0,10.56 0,22.49 0,35.8 0,13.31 0,27.27 0,41.88 0,14.62 -0.13,28.72 -0.39,42.32 -0.27,13.6 -0.61,26.18 -1,37.76 -0.4,11.57 -1,20.68 -1.8,27.35l-4 5.63c-2.4,0.88 -4.8,1.31 -7.18,1.31 -6.39,0 -12.99,-1.89 -19.78,-5.64 -6.79,-3.77 -11.92,-8.54 -15.38,-14.33 0.26,-1.16 0.6,-2.46 0.99,-3.9 0.4,-1.44 1.14,-2.47 2.21,-3.04 0,-34.71 -0.2,-69.66 -0.6,-104.81 -0.4,-35.16 0.79,-69.95 3.59,-104.38 -1.6,0.58 -3.79,2.61 -6.6,6.08 -2.79,3.48 -6.12,7.67 -9.99,12.59 -3.93,4.92 -7.99,10.2 -12.25,15.84 -4.27,5.64 -8.52,10.78 -12.79,15.41 -4.26,4.63 -8.32,8.54 -12.18,11.72 -3.93,3.19 -7.32,4.78 -10.26,4.78 -2.13,0 -4.46,-0.37 -6.99,-1.09 -2.53,-0.72 -4.86,-1.81 -6.99,-3.25 -2.13,-1.44 -3.73,-3.18 -4.8,-5.21 -1.06,-2.02 -1.06,-4.33 0,-6.94 -1.6,-2.6 -3.2,-5.21 -4.8,-7.81 -1.59,-2.6 -3.06,-5.35 -4.39,-8.24l0.8 0.87c-3.73,-7.81 -7.66,-15.55 -11.65,-23.22 -4,-7.67 -7.86,-15.26 -11.58,-22.79 -0.27,5.79 -0.46,11.36 -0.6,16.72 -0.13,5.34 -0.2,10.92 -0.2,16.71l0 -2.61c0,5.79 0,13.96 0,24.53 0,10.56 0,22.49 0,35.8 0,13.31 0,27.27 0,41.88 0,14.62 -0.13,28.72 -0.39,42.32 -0.27,13.6 -0.61,26.18 -1,37.76 -0.4,11.57 -1,20.68 -1.8,27.35l-3.93 5.63c-2.4,0.88 -4.73,1.31 -7.13,1.31 -6.32,0 -12.85,-1.89 -19.63,-5.64 -6.73,-3.77 -11.79,-8.54 -15.25,-14.33 0.27,-1.16 0.6,-2.46 1,-3.9 0.39,-1.44 1.14,-2.47 2.2,-3.04 0,-6.37 0,-18.01 0,-34.94 0,-16.93 0.07,-36.31 0.2,-58.16 0.13,-21.84 0.46,-44.7 0.99,-68.57 0.54,-23.87 1.27,-46.14 2.21,-66.83 0.92,-20.69 2.2,-38.34 3.79,-52.95 1.6,-14.61 3.59,-23.37 5.99,-26.26l4.39 -1.3c0,-0.58 0.4,-0.87 1.2,-0.87 0.8,0 1.33,-0.29 1.6,-0.88l4.39 0c1.6,0 3.67,0.65 6.19,1.95 2.53,1.31 4.33,2.68 5.39,4.12l0.4 1.31c1.87,1.44 3.59,3.03 5.19,4.77 1.6,1.74 2.8,3.77 3.6,6.09 1.33,3.18 2.33,6.58 2.99,10.2 0.66,3.61 1.53,7.01 2.59,10.2 9.06,27.19 20.51,53.53 34.36,78.99l-0.8 -0.87c1.34,2.31 2.53,4.7 3.59,7.15 1.07,2.47 2.27,4.85 3.6,7.16 2.66,-3.77 5.12,-7.45 7.39,-11.06 2.26,-3.62 4.6,-7.31 6.99,-11.07 9.86,-15.62 19.32,-31.17 28.37,-46.65 9.05,-15.47 17.71,-31.46 25.97,-47.95 1.06,-2.32 3.19,-3.48 6.38,-3.48l0.4 -0.43c0.26,-1.44 0.8,-2.74 1.6,-3.9 0.8,-1.16 1.6,-2.32 2.4,-3.48l4.39 -1.3c0,-0.58 0.4,-0.87 1.19,-0.87 0.8,0 1.34,-0.29 1.6,-0.88l4.4 0c3.2,0 6.12,1.17 8.78,3.48 2.67,2.31 5,5.07 7,8.25 1.99,3.18 3.52,6.72 4.58,10.63 1.07,3.9 1.61,7.3 1.61,10.2l0 -1.73c0,5.5 0.13,10.92 0.39,16.27 0.27,5.35 0.4,10.78 0.4,16.27zm-194.16 173.17c-0.27,0 -0.39,0.43 -0.39,1.3 0,4.05 0.07,8.25 0.19,12.59 0.13,4.34 0.07,8.4 -0.19,12.15l0.39 0.88 0 0.42c0.27,0 0.4,-0.79 0.4,-2.38 0,-1.59 0,-2.68 0,-3.25 0.53,-2.9 0.79,-5.58 0.79,-8.03 0,-2.46 0,-5.14 0,-8.03l-0.39 -4.34 -0.39 -0.87 0 -0.43 -0.4 0zm4.8 -199.64c-1.87,8.97 -3.2,19.45 -4,31.46 -0.8,12.01 -1.26,24.3 -1.4,36.89 -0.13,12.59 -0.13,24.96 0,37.11 0.13,12.15 0.2,22.85 0.2,32.11l0 39.06 0.39 3.48 0 0.43 0.4 -0.43c0,-26.04 0.53,-51.86 1.6,-77.47 1.06,-25.6 1.6,-51.58 1.6,-77.9 0,-4.05 0.33,-8.25 0.99,-12.59 0.66,-4.34 0.73,-8.4 0.2,-12.15zm4.13 182.71l0 0.87c0,0.59 0.07,1.09 0.26,1.52 0.2,0.43 0.07,0.94 -0.26,1.52l-0.54 0.87c0,1.44 0.13,2.61 0.4,3.48l0.39 0.43 0 0.43 0.4 0 0.39 -1.73 0.4 -2.61c0,-0.58 0,-1.52 0,-2.82 0,-1.3 -0.13,-1.95 -0.4,-1.95l-1.06 0zm2.26 -107.63l0 -1.3 -0.4 0.43c-2.06,10.99 -3.2,23 -3.39,36.02 -0.13,13.02 -0.2,25.03 -0.2,36.01l0 6.51 0.39 3.48 0 0.43 0 -0.43 0 -1.3 0 -4.34 0 -0.87 0.4 -6.51c0,-2.31 0.07,-4.41 0.2,-6.3 0.13,-1.88 0.33,-3.98 0.6,-6.29 0.33,-4.05 0.73,-8.1 1.26,-12.15 0.47,-4.05 0.73,-8.1 0.73,-12.15l0.4 -0.87 0.39 -12.15 0 -15.63 -0.39 -2.6zm66.32 29.51c0,-2.32 -0.74,-4.42 -2.21,-6.3 -1.46,-1.88 -2.73,-3.83 -3.79,-5.85 -3.73,-8.11 -7.19,-16.27 -10.38,-24.53 -3.2,-8.24 -6.53,-16.56 -10,-24.95 -0.26,-0.58 -0.8,-1.89 -1.59,-3.91 -0.8,-2.02 -1.67,-4.12 -2.6,-6.3 -0.93,-2.17 -1.8,-4.12 -2.6,-5.85 -0.8,-1.73 -1.33,-2.6 -1.6,-2.6l0 0.43c2.14,7.52 4.8,15.04 7.99,22.56 3.2,7.53 6.26,15.05 9.19,22.57l0 0.87c3.2,5.5 5.92,11.35 8.19,17.57 2.26,6.22 5.26,11.8 8.98,16.72l0.4 0 0 -0.43zm78.69 -30.38c0,-1.16 -0.07,-3.48 -0.2,-6.94 -0.13,-3.48 -0.33,-5.5 -0.6,-6.08 -1.06,12.73 -1.67,25.24 -1.79,37.54 -0.13,12.3 -0.47,24.82 -1,37.55l0 16.93 0.39 19.96 0 7.81 0.8 11.29 0 5.64 0 0.43 0 -0.43 0.4 -2.61 -0.4 -6.94 0.4 -1.73 0 -10.42 0.8 -21.26 0.39 -17.36c0.27,-7.52 0.47,-14.9 0.6,-22.14 0.13,-7.23 0.2,-14.61 0.2,-22.13l0 -19.1zm1.2 -87.68c-0.8,0.59 -2.8,2.97 -6,7.16 -3.19,4.2 -6.92,9.48 -11.18,15.84 -4.27,6.37 -8.86,13.24 -13.78,20.62 -4.93,7.38 -9.52,14.4 -13.79,21.05 -4.26,6.65 -7.86,12.44 -10.78,17.36 -2.93,4.92 -4.66,8.1 -5.19,9.54l0 0.43c0.8,0 1.19,-0.58 1.19,-1.73l8.4 -13.45c0.8,-1.16 2.59,-3.77 5.39,-7.81 2.79,-4.05 6.12,-8.75 9.99,-14.11 3.86,-5.35 7.93,-11.06 12.18,-17.14 4.27,-6.08 8.13,-11.8 11.58,-17.15 3.47,-5.35 6.39,-9.91 8.79,-13.66 2.4,-3.77 3.59,-6.08 3.59,-6.95l-0.39 0zm5.99 263.01c0,-0.58 -0.27,-2.24 -0.8,-4.99 -0.53,-2.74 -1.19,-4.12 -1.99,-4.12l-0.4 0 -0.39 0.87c0,0.87 0.26,2.31 0.8,4.34 0.53,2.02 1.06,3.61 1.59,4.77 0,0.3 0.07,0.88 0.2,1.74 0.13,0.87 0.34,1.3 0.6,1.3l0.4 0 -0.4 -1.3 0.4 -2.61zm0 -155.8c-0.53,4.05 -1,8.18 -1.4,12.36 -0.4,4.2 -0.6,8.46 -0.6,12.81l0 93.31 0.39 5.21 0 0.43 0.39 -0.43c0,-20.54 0.27,-40.94 0.8,-61.2 0.54,-20.25 0.81,-40.66 0.81,-61.2l0 -1.3 -0.4 0zm58.33 6.51c0,0.29 -0.13,0.43 -0.39,0.43 0.26,0 0.39,-0.14 0.39,-0.43zm82.29 107.2c0,7.53 -0.6,15.41 -1.79,23.66 -1.2,8.24 -3.33,15.84 -6.39,22.78 -3.06,6.94 -7.33,12.73 -12.79,17.36 -5.46,4.63 -12.45,6.94 -20.97,6.94 -19.97,0 -35.55,-6.59 -46.74,-19.75 -11.18,-13.16 -16.77,-30.3 -16.77,-51.43l0 -4.78 0 2.18c0.26,-6.37 0.87,-14.54 1.8,-24.53 0.92,-9.98 2.32,-20.11 4.19,-30.38 1.87,-10.26 4.27,-19.96 7.19,-29.07 2.93,-9.12 6.53,-15.98 10.78,-20.62l-0.8 0.43c1.33,-0.87 2.73,-1.44 4.2,-1.73 1.46,-0.29 2.99,-0.58 4.59,-0.87 0,-0.88 -0.07,-1.81 -0.2,-2.82 -0.13,-1.02 0.07,-1.95 0.6,-2.82 2.67,-2.9 5.33,-4.92 7.99,-6.08 0.8,0 1.53,-0.08 2.2,-0.22 0.66,-0.14 1.4,-0.21 2.2,-0.21 12.25,0 22.37,4.48 30.36,13.45 7.99,8.97 14.18,19.82 18.58,32.55 4.4,12.73 7.46,26.04 9.2,39.92 1.72,13.9 2.59,25.9 2.59,36.02zm-79.5 -50.78c-0.26,0 -0.39,0.22 -0.39,0.65 0,0.43 -0.13,0.79 -0.4,1.08 -2.13,6.08 -2.99,12.15 -2.59,18.23 0.39,6.08 -0.07,12.01 -1.41,17.8l0.4 1.73 0 -0.43 0.39 -2.6c0.54,-3.48 0.88,-7.02 1,-10.63 0.13,-3.62 0.47,-7.16 1,-10.63l0.4 -0.44c-0.27,-2.6 0,-5.13 0.79,-7.59 0.8,-2.47 1.2,-4.85 1.2,-7.16l-0.4 0zm0.8 -40.8c-1.06,2.9 -1.6,5.07 -1.6,6.52 -2.13,5.78 -3.92,12.22 -5.39,19.31 -1.46,7.09 -2.73,14.4 -3.79,21.92 -1.07,7.52 -1.86,15.05 -2.4,22.57 -0.53,7.52 -0.8,14.32 -0.8,20.4 0,7.24 0.34,14.76 1,22.57 0.66,7.81 2.06,15.04 4.2,21.7l0 -0.44c-1.34,-7.23 -2.2,-14.25 -2.6,-21.04 -0.4,-6.81 -0.6,-13.82 -0.6,-21.06 0,-6.65 0.66,-13.6 1.99,-20.83 1.33,-7.23 1.73,-14.03 1.2,-20.4 0,0 0.46,-2.68 1.4,-8.03 0.93,-5.35 1.93,-11.14 2.99,-17.36 1.07,-6.22 2.06,-12.01 2.99,-17.36 0.93,-5.35 1.4,-8.17 1.4,-8.46zm7.99 -26.9c0,0.29 -0.13,0.43 -0.39,0.43 0.26,0 0.39,-0.14 0.39,-0.43zm0.8 -0.43l-0.39 0.43 0.39 -0.43zm36.35 89.84c0,-12.44 -1.4,-24.96 -4.19,-37.55 -2.8,-12.59 -6.73,-24.37 -11.79,-35.37l-3.2 1.3 -5.59 0c0.27,0 0.4,0.29 0.4,0.87l1.6 4.34 0 2.17 -0.4 -0.43c0,14.46 -0.93,28.86 -2.79,43.19 -1.87,14.32 -2.8,28.86 -2.8,43.61 0,8.11 0.2,16.21 0.6,24.3 0.4,8.11 1.54,16.06 3.4,23.87 1.6,-0.58 3.13,-1.52 4.59,-2.82 1.46,-1.3 2.73,-2.68 3.79,-4.12l0.4 0c3.2,-3.77 5.79,-8.32 7.79,-13.67 1.99,-5.35 3.59,-10.84 4.8,-16.5 1.19,-5.63 2.06,-11.35 2.59,-17.14 0.54,-5.79 0.8,-11.14 0.8,-16.05zm13.98 9.11c0,-6.37 -0.66,-13.16 -1.99,-20.4l-1.99 -7.81c-0.27,0 -0.4,-0.15 -0.4,-0.44 0,-0.29 -0.13,-0.43 -0.39,-0.43l0.39 3.48c0.27,-0.58 0.46,-0.58 0.6,0 0.13,0.58 0.27,1.38 0.4,2.39 0.13,1.01 0.26,2.17 0.39,3.47 0.13,1.31 0.2,2.39 0.2,3.25 0.53,2.9 0.8,5.21 0.8,6.95l0 17.79c0,2.03 -0.2,4.49 -0.6,7.39 -0.4,2.89 -0.87,5.34 -1.4,7.38 0.26,1.44 -0.13,4.04 -1.2,7.81 -1.07,3.77 -2.26,7.82 -3.59,12.15 -1.34,4.34 -2.73,8.46 -4.2,12.37 -1.46,3.9 -2.47,6.58 -2.99,8.03l0.39 0c0.27,0 0.67,-0.88 1.2,-2.61 0.53,-1.73 0.92,-2.89 1.19,-3.47 3.47,-10.13 6.53,-19.46 9.2,-27.99 2.66,-8.54 3.99,-18.31 3.99,-29.3zm0.8 39.93c0,0 -0.26,0.58 -0.8,1.73 -0.53,1.16 -1.13,2.53 -1.79,4.12 -0.67,1.59 -1.2,3.11 -1.6,4.55 -0.4,1.44 -0.6,2.32 -0.6,2.61l0.39 0 1.19 -3.04c0.54,-0.87 1.27,-2.31 2.21,-4.34 0.92,-2.02 1.4,-3.32 1.4,-3.9l0 -1.3 -0.4 -0.43zm144.62 -107.2c-7.45,21.13 -14.04,42.47 -19.77,64.02 -5.73,21.56 -12.06,43.04 -18.98,64.45 -1.33,4.63 -3.06,9.33 -5.19,14.11 -2.13,4.78 -4.53,9.19 -7.19,13.24l-4.8 1.3 0 0.43c-0.53,0.87 -1.26,1.44 -2.2,1.73 -0.93,0.29 -1.8,0.43 -2.59,0.43 -2.4,0 -5.33,-0.58 -8.79,-1.73 -3.47,-1.16 -6.8,-2.6 -9.99,-4.34 -3.2,-1.73 -6.19,-3.76 -8.99,-6.08 -2.79,-2.31 -4.73,-4.62 -5.8,-6.94 -4.26,-8.39 -7.98,-19.53 -11.18,-33.41 -3.2,-13.9 -5.85,-28.36 -7.99,-43.4 -2.13,-15.05 -3.86,-29.8 -5.19,-44.28 -1.33,-14.46 -2.13,-26.62 -2.4,-36.46l3.2 -3.9 1.19 0c1.6,0 3.79,0.36 6.6,1.08 2.79,0.73 5.59,1.74 8.39,3.04 2.8,1.3 5.33,2.82 7.59,4.55 2.26,1.73 3.67,3.48 4.2,5.21 4.8,19.67 9.12,40.08 12.98,61.2 3.86,21.12 7.26,41.67 10.19,61.63 0.54,-2.89 1.8,-8.82 3.79,-17.8 2,-8.97 4.4,-19.38 7.19,-31.25 2.8,-11.86 5.86,-24.3 9.19,-37.32 3.33,-13.02 6.65,-25.03 9.99,-36.02 3.33,-11 6.53,-20.04 9.59,-27.13 3.06,-7.09 5.66,-10.63 7.79,-10.63 1.6,0 4.06,0.43 7.4,1.3 3.32,0.87 6.59,2.1 9.78,3.69 3.2,1.6 6.06,3.33 8.59,5.21 2.53,1.88 3.79,3.83 3.79,5.86l-10.39 28.2zm-103.86 46.01c0,3.18 0.27,7.01 0.8,11.5 0.53,4.49 1.07,8.32 1.6,11.5l3.2 15.2c0,0.29 0.13,1.01 0.39,2.17 0.27,1.17 0.53,1.73 0.8,1.73l0 -0.87 -0.39 -2.17 -0.4 -0.43c-0.26,-3.77 -0.73,-7.6 -1.4,-11.5 -0.66,-3.91 -1.26,-7.74 -1.8,-11.51 -0.53,-2.31 -0.87,-4.55 -0.99,-6.72 -0.13,-2.18 -0.34,-4.42 -0.61,-6.73 0,-0.29 -0.07,-1.01 -0.19,-2.17 -0.13,-1.17 -0.34,-1.74 -0.61,-1.74l-0.39 1.74zm14.78 84.19c-2.4,-13.6 -5.53,-26.97 -9.39,-40.15 -3.86,-13.16 -6.72,-26.69 -8.59,-40.58l-5.19 -51.21 -0.4 6.51c0,8.39 0.53,18.44 1.6,30.16 1.07,11.72 2.67,23.52 4.8,35.38 2.13,11.86 4.59,23.22 7.4,34.07 2.79,10.85 6.06,19.6 9.78,26.26l0 -0.44zm61.12 -143.22c-3.2,4.92 -5.92,11.06 -8.19,18.45 -2.26,7.38 -4.33,15.19 -6.19,23.43 -1.87,8.25 -3.66,16.43 -5.39,24.53 -1.73,8.1 -3.53,15.33 -5.39,21.7 -1.34,4.34 -2.47,8.9 -3.4,13.67 -0.93,4.78 -1.94,9.33 -2.99,13.67l-2 10.85 -1.19 5.64 0 0.43 0.39 -0.43 0.4 -2.18c0.53,-3.18 1.2,-6.29 1.99,-9.33 0.8,-3.03 1.6,-6.14 2.4,-9.33l5.2 -20.83c2.4,-9.84 5.06,-19.83 7.98,-29.95 0,-0.29 0.13,-0.58 0.4,-0.87 1.86,-4.63 3.26,-9.41 4.19,-14.33 0.93,-4.91 1.87,-9.83 2.8,-14.75 0.93,-4.92 1.99,-9.76 3.2,-14.54 1.19,-4.78 2.99,-9.62 5.39,-14.54l0.8 -1.3 -0.4 0zm7.6 -18.66c-0.54,0 -1.2,1.3 -2,3.91 -0.8,2.6 -1.19,4.19 -1.19,4.77l0 1.74c0,0.58 0,0.87 0,0.87l0.39 0 0 -0.87 0.4 -1.3c0.53,-1.45 1.06,-2.82 1.6,-4.13 0.53,-1.3 0.8,-2.53 0.8,-3.69l0 -1.3zm34.75 -72.91c0,-5.79 1.07,-11.72 3.2,-17.8 1.4,-1.73 3.13,-2.89 5.26,-3.47 6.19,0 12.52,1.44 18.98,4.33 6.45,2.9 11.18,7.67 14.12,14.33 -0.8,7.52 -1.8,15.76 -3,24.74 -1.26,8.97 -3.46,16.78 -6.65,23.44l-5.26 0.43c-1.6,0 -3.47,-0.51 -5.46,-1.52 -2,-1.01 -4,-2.31 -5.86,-3.91 -1.86,-1.59 -3.59,-3.18 -5.26,-4.78 -1.6,-1.59 -2.8,-2.96 -3.59,-4.12l0.79 0.43c-1.59,-1.16 -2.93,-3.11 -4.05,-5.85 -1.07,-2.74 -1.8,-5.71 -2.2,-8.9 -0.4,-3.19 -0.66,-6.37 -0.8,-9.55 -0.13,-3.18 -0.2,-5.78 -0.2,-7.81zm11.19 7.38l0.39 8.25 0.4 0.87 0.39 0 0 -0.43 0 -1.73c0,-4.05 0.27,-8.03 0.8,-11.94 0.53,-3.91 0.8,-7.89 0.8,-11.93 0,-1.17 -0.13,-1.74 -0.4,-1.74 0,0 0,0.29 0,0.87 -0.53,1.17 -0.79,2.18 -0.79,3.04l-1.6 11.29 0 3.47zm35.15 271.26c-0.53,0.29 -1.46,0.65 -2.79,1.08 -1.33,0.43 -2.26,0.65 -2.79,0.65 -5.33,0 -10.52,-1.16 -15.58,-3.48 -0.54,-0.29 -1.67,-0.93 -3.4,-1.95 -1.73,-1.01 -2.86,-1.37 -3.4,-1.08 -1.86,-1.16 -3.73,-2.39 -5.59,-3.69 -1.87,-1.31 -3.6,-2.68 -5.2,-4.12l-3.2 -5.64c-1.33,-9.84 -1.72,-20.12 -1.19,-30.81 0.53,-10.71 0.8,-21.13 0.8,-31.25 0,-13.03 -0.54,-25.97 -1.6,-38.85 -1.07,-12.88 -1.6,-25.83 -1.6,-38.85l0.8 -5.64 -0.4 2.6c0,-1.73 0.07,-4.55 0.2,-8.46 0.13,-3.9 0.4,-7.95 0.87,-12.15 0.4,-4.19 0.87,-8.02 1.46,-11.5 0.53,-3.47 1.27,-5.93 2.07,-7.38l4.19 3.03 0 -1.73 2.4 -3.47 1.6 0c3.46,0 7.79,1.37 12.98,4.12 5.2,2.74 8.59,5.85 10.19,9.33 2.4,5.21 4.33,13.6 5.8,25.17 1.46,11.57 2.53,24.08 3.2,37.54 0.66,13.46 1.13,26.55 1.4,39.28 0.27,12.73 0.39,22.57 0.39,29.51 0,9.26 0.27,18.74 0.8,28.43 0.54,9.7 0.13,18.88 -1.19,27.56l-1.2 1.74zm-29.96 -40.8c0,-20.54 -0.13,-40.87 -0.4,-60.98 -0.26,-20.11 -0.39,-40.43 -0.39,-60.97l-0.4 -1.73c-1.33,7.52 -2.06,15.12 -2.2,22.78 -0.13,7.67 -0.19,15.26 -0.19,22.78 0,14.46 0.13,29.16 0.39,44.05 0.27,14.9 1.19,29.44 2.79,43.62l0.4 -0.44 0 -9.11zm4.39 -88.54c-0.8,0 -1.19,0.29 -1.19,0.88 0,0.29 0.13,0.43 0.39,0.43 -0.26,1.44 -0.6,2.89 -0.99,4.33 -0.4,1.45 -0.61,2.9 -0.61,4.34l0 7.81 1.6 8.25 0.8 2.6 0.4 0 0 -0.43 -0.4 -1.73c-0.8,-4.34 -0.92,-8.75 -0.39,-13.24 0.53,-4.49 0.8,-8.75 0.8,-12.81l-0.4 -0.43z"/>
   <path class="fil1" d="M1036.06 1293.93c0,16.49 -1.33,32.26 -4,47.31 -2.67,15.04 -5.19,30.67 -7.59,46.87 -1.6,2.32 -3.2,4.05 -4.8,5.21 -1.6,1.16 -3.86,1.73 -6.79,1.73 -1.6,0 -4.2,-0.58 -7.79,-1.73 -3.6,-1.16 -7.19,-2.6 -10.79,-4.34 -3.59,-1.73 -6.72,-3.76 -9.38,-6.08 -2.67,-2.31 -4,-4.62 -4,-6.94 -0.54,-2.89 -0.8,-4.92 -0.8,-6.08 0,-1.44 0.33,-3.11 1,-4.99 0.66,-1.88 1.13,-3.54 1.4,-4.99 2.93,-14.76 5.26,-29.3 6.99,-43.62 1.73,-14.32 2.59,-29 2.59,-44.05l0 -24.74c0,-2.31 -0.13,-4.55 -0.39,-6.72 -0.27,-2.18 -0.27,-4.42 0,-6.73l-0.4 2.6c0,-8.1 -0.92,-15.33 -2.79,-21.7 -5.06,4.63 -9.52,11.29 -13.38,19.96 -3.86,8.69 -7.19,18.45 -9.99,29.29 -2.79,10.85 -5.33,22.36 -7.59,34.5 -2.26,12.15 -4.27,24.16 -5.99,36.02 -1.73,11.86 -3.33,23 -4.8,33.42 -1.46,10.42 -2.99,19.38 -4.59,26.9l-0.8 0.87c0.26,1.45 0.19,2.97 -0.2,4.56 -0.4,1.59 -0.73,3.11 -1,4.55l-1.6 2.17c-1.6,0.87 -3.46,1.3 -5.59,1.3 -5.85,0 -12.32,-1.8 -19.37,-5.42 -7.06,-3.61 -12.18,-8.03 -15.38,-13.24 -0.53,-1.73 -0.8,-3.47 -0.8,-5.2 0,-1.74 0,-3.48 0,-5.21 0,-18.23 1.14,-36.68 3.4,-55.34 2.26,-18.66 3.66,-37.25 4.19,-55.76l0 2.6c0,-4.34 0.27,-8.68 0.8,-13.02 0.54,-4.34 0.8,-8.69 0.8,-13.02 0,-2.9 0.07,-5.86 0.2,-8.9 0.13,-3.04 -0.13,-5.86 -0.87,-8.46 -4.26,6.37 -8.32,15.04 -12.18,26.04 -3.86,11 -7.4,22.78 -10.72,35.37 -3.33,12.59 -6.33,25.47 -8.99,38.63 -2.66,13.16 -5.19,25.24 -7.52,36.24 -2.4,11 -4.53,20.33 -6.39,27.99 -1.87,7.67 -3.47,12.37 -4.8,14.11 -2.4,0.87 -4.8,1.3 -7.19,1.3 -2.66,0 -5.72,-0.58 -9.12,-1.73 -3.46,-1.16 -6.86,-2.6 -10.19,-4.34 -3.32,-1.73 -6.38,-3.83 -9.12,-6.29 -2.79,-2.47 -4.86,-5 -6.19,-7.6 0,-23.15 -0.87,-46.22 -2.6,-69.23 -1.73,-23 -2.59,-46.08 -2.59,-69.23 0,-7.23 0.19,-14.39 0.6,-21.48 0.39,-7.09 1.67,-13.95 3.79,-20.61l0 0.43c1.33,-2.32 2.86,-3.54 4.59,-3.69 1.73,-0.15 3.66,-0.22 5.8,-0.22 2.4,0.87 4.59,1.67 6.59,2.39 1.99,0.72 3.79,1.52 5.39,2.39 1.6,0.87 3.13,2.1 4.59,3.69 1.46,1.59 2.73,3.83 3.8,6.72 0.53,0 0.66,0.14 0.39,0.44 -0.27,0.29 -0.39,0.29 -0.39,0 1.59,2.89 2.99,8.45 4.19,16.71 1.19,8.24 2.2,16.92 2.99,26.04 0.8,9.11 1.4,17.57 1.8,25.39 0.39,7.81 0.6,12.73 0.6,14.75 1.6,-5.5 3.66,-13.67 6.19,-24.53 2.47,-10.84 5.66,-21.7 9.52,-32.55 3.86,-10.85 8.25,-20.33 13.32,-28.43 5.06,-8.1 10.85,-12.15 17.51,-12.15 3.2,0 6.26,0.51 9.13,1.52 2.93,1.01 5.85,2.24 8.78,3.69 0,0.29 0.2,0.43 0.6,0.43 0.4,0 0.47,0.14 0.2,0.43 2.67,1.16 5.46,3.4 8.52,6.73 3.06,3.32 5.93,7.09 8.59,11.29 2.6,4.19 4.73,8.31 6.33,12.36 1.6,4.05 2.26,7.52 2,10.42 1.06,-4.34 2.59,-9.55 4.59,-15.63 2.06,-6.08 4.53,-11.79 7.45,-17.14 2.93,-5.35 6.39,-9.91 10.26,-13.67 3.93,-3.76 8.52,-5.64 13.91,-5.64 1.86,0 3.59,0.14 5.19,0.43 1.6,0.29 3.33,0.72 5.27,1.31 0.8,1.73 2.32,2.74 4.59,3.03 2.25,0.29 4.26,0.87 5.85,1.73 -0.53,-0.29 -1.4,-0.65 -2.47,-1.08 -1.07,-0.43 -1.33,-0.65 -0.8,-0.65 0.8,0 2.07,0.51 3.67,1.52 1.59,1.01 2.66,1.81 3.19,2.39l-1.99 -1.74c2.13,1.45 4.27,3.04 6.39,4.78 2.13,1.73 4.13,3.62 5.99,5.64l-0.4 -0.43c3.74,3.48 6.26,7.09 7.6,10.85l-1.2 -2.61c1.34,2.9 2.67,5.72 4,8.46 1.33,2.75 2.67,5.58 4,8.46l-1.19 -2.6c3.73,8.39 6.06,17.43 6.99,27.13 0.92,9.69 1.4,19.16 1.4,28.43zm-209.33 57.72c0,-13.89 -0.87,-27.92 -2.6,-42.1 -1.72,-14.17 -2.86,-28.35 -3.39,-42.53 0,-4.33 -0.13,-8.75 -0.4,-13.23 -0.26,-4.49 -0.53,-8.9 -0.8,-13.24l-0.39 -6.51 -0.4 -4.34 0 -1.3 -0.39 0 -0.4 16.5c0,18.23 0.8,36.09 2.4,53.6 1.6,17.51 3.59,35.37 6,53.6l0.39 0 0 -0.43zm4 -43.4c0,-2.31 -0.27,-4.84 -0.8,-7.6 -0.53,-2.74 -0.8,-5.57 -0.8,-8.46l0 -6.51 0 -1.73 0 -0.43c-0.27,0 -0.4,0.29 -0.4,0.87 0,0.58 0,1.01 0,1.3l-0.8 6.51 0 3.04c0,2.31 0.27,4.41 0.8,6.29 0.54,1.89 0.93,3.99 1.2,6.3l0.8 0.87 0 -0.43zm53.53 -81.16c-2.93,5.21 -5.46,10.49 -7.59,15.84 -2.13,5.35 -4.27,10.92 -6.39,16.71l0 0.87c-1.07,2.32 -2.2,6.15 -3.4,11.51 -1.19,5.35 -1.79,9.48 -1.79,12.36l0 0.87 0.39 -2.6 0.4 -0.43c0.26,-4.34 1.4,-9.76 3.39,-16.27 2,-6.51 3.93,-11.8 5.8,-15.84l0.39 -0.43 11.19 -26.48 0 -0.43 -2.4 4.34zm33.36 42.1l-0.6 0c-1.87,6.94 -2.53,14.17 -1.99,21.7 0.53,7.52 0.79,14.91 0.79,22.14 0,5.79 -0.39,11.72 -1.26,17.8 -0.87,6.08 -1.8,12.15 -2.79,18.23 -1,6.08 -1.73,12.08 -2.33,18.01 -0.54,5.93 -0.54,11.65 0,17.15 2.26,-11.57 4.26,-23.44 6.06,-35.59 1.79,-12.15 2.73,-24.02 2.73,-35.59l-0.6 -43.83zm10.99 45.57c-0.66,-2.31 -1.2,-4.63 -1.53,-6.94 -0.33,-2.31 -1.07,-4.63 -2.06,-6.94l0 -0.43 -0.4 -0.43 0 0.43c0,0.58 0.07,0.87 0.2,0.87 0.13,0 0.2,0.29 0.2,0.87 1.6,4.05 2.26,8.18 1.99,12.37 -0.26,4.19 -0.39,8.31 -0.39,12.36 0,1.44 0,2.97 0,4.55 0,1.6 -0.54,3.11 -1.6,4.56l0.39 2.17 0 -0.43 0.54 -2.61c0.33,-2.31 0.86,-4.62 1.59,-6.94 0.73,-2.31 1.07,-4.62 1.07,-6.94 0,-1.16 0.07,-2.24 0.2,-3.25 0.13,-1.01 0.07,-2.1 -0.2,-3.25zm43.14 -105.9l0 0.43c-0.53,0.58 -1.26,1.59 -2.2,3.03 -0.93,1.45 -1.93,2.97 -2.99,4.56 -1.06,1.59 -2.06,2.97 -2.99,4.12 -0.93,1.16 -1.53,1.88 -1.79,2.17l-1.61 3.91 -0.39 0.43c-1.6,4.05 -2.4,7.95 -2.4,11.72 0,1.16 0.13,1.73 0.39,1.73l0 -1.73c0.54,-3.19 1.34,-6.08 2.4,-8.69 1.07,-2.6 2.26,-5.2 3.6,-7.81 -0.27,-0.29 -0.2,-0.65 0.2,-1.09 0.39,-0.43 0.73,-0.65 0.99,-0.65 0.27,-1.44 1.53,-3.62 3.79,-6.51 2.26,-2.9 3.4,-4.78 3.4,-5.64l-0.4 0zm42.35 80.72c0,-2.31 -0.07,-4.78 -0.2,-7.38 -0.13,-2.61 -0.33,-5.07 -0.6,-7.38 -0.26,-1.45 -0.39,-2.9 -0.39,-4.34 0,-1.44 -0.13,-2.9 -0.4,-4.34 0,-0.29 -0.07,-0.65 -0.2,-1.08 -0.13,-0.44 -0.33,-0.51 -0.6,-0.22 0.27,2.31 0.47,4.55 0.6,6.73 0.13,2.17 0.2,4.41 0.2,6.72l0 16.06c0,1.16 -0.07,3.03 -0.2,5.64 -0.13,2.6 -0.39,5.35 -0.8,8.24 -0.39,2.89 -0.8,5.71 -1.19,8.46 -0.39,2.74 -0.73,4.7 -1,5.85 0,0.87 -0.46,3.48 -1.4,7.82 -0.93,4.33 -1.99,9.11 -3.2,14.32 -1.19,5.21 -2.33,10.13 -3.39,14.76 -1.07,4.62 -1.73,7.67 -2,9.11 1.87,-3.19 3.66,-8.1 5.39,-14.75 1.73,-6.65 3.33,-13.9 4.8,-21.7 1.46,-7.81 2.6,-15.55 3.4,-23.22 0.8,-7.67 1.19,-14.11 1.19,-19.32zm4.8 17.8l0 1.3 0 4.78 -0.4 12.15 -0.39 6.51 -0.4 3.03 0 2.18 0 1.3 0 0.87 0 0.43 0 0.87 0 -0.43 0.4 -1.73 0 -0.43c0.53,-2.9 0.93,-5.86 1.19,-8.9 0.27,-3.04 0.4,-6.15 0.4,-9.33l0 -9.55c0,-0.29 0,-0.87 0,-1.73 0,-0.87 -0.13,-1.3 -0.4,-1.3l-0.39 0zm-91.09 -90.71c0.27,0.29 0.46,0.58 0.6,0.87 0.13,0.29 0.34,0.58 0.6,0.87l-1.19 -1.3 0 -0.43zm87.09 -0.43l0.8 0.87 -0.8 -0.87zm25.17 -73.35c0,-5.79 1.06,-11.72 3.2,-17.8 1.4,-1.73 3.12,-2.89 5.26,-3.47 6.19,0 12.52,1.44 18.97,4.33 6.46,2.9 11.19,7.67 14.12,14.33 -0.8,7.52 -1.79,15.76 -2.99,24.74 -1.26,8.97 -3.46,16.78 -6.65,23.44l-5.27 0.43c-1.6,0 -3.46,-0.51 -5.46,-1.52 -1.99,-1.01 -3.99,-2.31 -5.85,-3.91 -1.87,-1.59 -3.59,-3.18 -5.26,-4.78 -1.6,-1.59 -2.8,-2.96 -3.6,-4.12l0.8 0.43c-1.59,-1.16 -2.93,-3.11 -4.05,-5.85 -1.07,-2.74 -1.8,-5.71 -2.21,-8.9 -0.39,-3.19 -0.66,-6.37 -0.8,-9.55 -0.13,-3.18 -0.19,-5.78 -0.19,-7.81zm11.18 7.38l0.4 8.25 0.39 0.87 0.4 0 0 -0.43 0 -1.73c0,-4.05 0.26,-8.03 0.8,-11.94 0.53,-3.91 0.8,-7.89 0.8,-11.93 0,-1.17 -0.13,-1.74 -0.4,-1.74 0,0 0,0.29 0,0.87 -0.53,1.17 -0.8,2.18 -0.8,3.04l-1.6 11.29 0 3.47zm35.16 271.26c-0.53,0.29 -1.46,0.65 -2.79,1.08 -1.34,0.43 -2.26,0.65 -2.8,0.65 -5.33,0 -10.52,-1.16 -15.58,-3.48 -0.53,-0.29 -1.66,-0.93 -3.39,-1.95 -1.73,-1.01 -2.86,-1.37 -3.4,-1.08 -1.87,-1.16 -3.73,-2.39 -5.59,-3.69 -1.86,-1.31 -3.59,-2.68 -5.19,-4.12l-3.2 -5.64c-1.33,-9.84 -1.73,-20.12 -1.19,-30.81 0.53,-10.71 0.79,-21.13 0.79,-31.25 0,-13.03 -0.53,-25.97 -1.59,-38.85 -1.07,-12.88 -1.6,-25.83 -1.6,-38.85l0.8 -5.64 -0.4 2.6c0,-1.73 0.07,-4.55 0.2,-8.46 0.13,-3.9 0.39,-7.95 0.87,-12.15 0.39,-4.19 0.87,-8.02 1.46,-11.5 0.53,-3.47 1.26,-5.93 2.06,-7.38l4.2 3.03 0 -1.73 2.4 -3.47 1.6 0c3.46,0 7.79,1.37 12.98,4.12 5.19,2.74 8.59,5.85 10.19,9.33 2.4,5.21 4.32,13.6 5.79,25.17 1.47,11.57 2.53,24.08 3.2,37.54 0.66,13.46 1.14,26.55 1.4,39.28 0.27,12.73 0.4,22.57 0.4,29.51 0,9.26 0.27,18.74 0.8,28.43 0.53,9.7 0.13,18.88 -1.2,27.56l-1.19 1.74zm-29.96 -40.8c0,-20.54 -0.13,-40.87 -0.4,-60.98 -0.27,-20.11 -0.39,-40.43 -0.39,-60.97l-0.4 -1.73c-1.33,7.52 -2.06,15.12 -2.2,22.78 -0.13,7.67 -0.2,15.26 -0.2,22.78 0,14.46 0.13,29.16 0.4,44.05 0.26,14.9 1.19,29.44 2.79,43.62l0.4 -0.44 0 -9.11zm4.39 -88.54c-0.8,0 -1.19,0.29 -1.19,0.88 0,0.29 0.13,0.43 0.39,0.43 -0.27,1.44 -0.6,2.89 -1,4.33 -0.39,1.45 -0.6,2.9 -0.6,4.34l0 7.81 1.6 8.25 0.8 2.6 0.39 0 0 -0.43 -0.39 -1.73c-0.8,-4.34 -0.93,-8.75 -0.39,-13.24 0.53,-4.49 0.79,-8.75 0.79,-12.81l-0.39 -0.43zm156.2 54.25c1.33,0 2.2,0.8 2.6,2.39 0.39,1.6 0.6,2.97 0.6,4.12 0,7.53 -1.73,15.48 -5.19,23.87 -3.47,8.4 -7.99,16.21 -13.59,23.44 -5.59,7.23 -11.91,13.24 -18.97,18.02 -7.06,4.77 -14.18,7.15 -21.38,7.15 -12.25,0 -22.71,-2.24 -31.36,-6.72 -8.71,-4.49 -15.77,-10.64 -21.23,-18.45 -5.53,-7.81 -9.59,-17 -12.19,-27.56 -2.59,-10.56 -3.93,-21.77 -3.93,-33.64 0,-8.39 0.67,-18.58 2,-30.59 1.33,-12.01 3.52,-24.02 6.59,-36.02 3.06,-12.01 7.06,-23.15 11.99,-33.42 4.93,-10.26 10.85,-17.86 17.78,-22.78 4.27,-3.18 8.79,-4.84 13.59,-4.99 4.79,-0.14 9.58,-0.08 14.38,0.21 1.07,-2.02 2.67,-3.03 4.8,-3.03 6.65,0 12.52,1.81 17.57,5.42 5.07,3.62 9.32,8.25 12.79,13.89 3.46,5.64 6.12,11.8 7.99,18.45 1.86,6.65 2.79,13.16 2.79,19.53 0,10.71 -1.46,21.19 -4.46,31.47 -2.94,10.26 -7.33,19.24 -13.12,26.9 -5.8,7.67 -12.92,13.38 -21.44,17.15 -8.45,3.76 -18.37,4.33 -29.7,1.73 -0.26,1.44 -0.39,2.68 -0.39,3.69 0,1.01 0,2.24 0,3.69 0,8.1 0.39,16.27 1.19,24.53 0.8,8.24 2.67,16.13 5.59,23.65 1.33,-0.29 2.73,-0.72 4.2,-1.3 1.46,-0.58 2.86,-1.17 4.19,-1.74l-0.39 0c6.65,-2.31 12.38,-5.93 17.18,-10.84 4.8,-4.92 9.85,-9.41 15.18,-13.46l0 0.43c4.8,-3.76 9.19,-7.52 13.18,-11.29 4,-3.76 8.26,-7.81 12.79,-12.14 1.33,-0.58 2.73,-1.01 4.19,-1.31 1.47,-0.29 2.87,-0.43 4.2,-0.43zm-28.36 -47.3c0,-0.59 0.46,-2.1 1.4,-4.56 0.92,-2.46 1.4,-4.12 1.4,-4.99l0 -3.91 0 -0.87 -0.4 0c-0.26,0 -0.46,0.43 -0.6,1.3 -0.13,0.88 -0.2,1.45 -0.2,1.74 -0.26,1.44 -0.6,3.03 -0.99,4.77 -0.4,1.74 -0.6,3.33 -0.6,4.78l0 0.87 0 0.43 0 0.44 0 0.43 0 -0.43zm-9.59 2.17l0.39 -0.43c0.8,-1.44 1.07,-2.47 0.8,-3.04 1.34,-4.04 2.26,-7.95 2.8,-11.72 0.53,-3.76 1.06,-7.81 1.6,-12.15l0 -7.38c0,-1.16 -0.2,-3.18 -0.61,-6.08 -0.39,-2.89 -0.86,-4.33 -1.4,-4.33l0 1.73 0.4 4.34 0 9.54 -0.8 12.15c0,1.16 -0.13,2.31 -0.4,3.48 -0.26,1.16 -0.53,2.31 -0.8,3.47l-0.8 4.78 -1.19 3.91 0 1.73 0 0.43 0 -0.43zm-41.15 29.95c0.34,0 1.13,-0.14 2.47,-0.43 1.4,-0.29 2.06,-0.58 2.06,-0.87 5.19,-2.03 9.59,-5.07 13.25,-9.12 3.73,-4.05 6.79,-8.68 9.25,-13.89 2.4,-5.21 4.2,-10.71 5.26,-16.5 1.14,-5.79 1.67,-11.43 1.67,-16.93 0,-5.79 -0.39,-11.35 -1.19,-16.71 -0.8,-5.35 -1.73,-10.92 -2.8,-16.71 -4.92,6.08 -9.05,12.81 -12.52,20.18 -3.39,7.38 -6.26,15.04 -8.59,23 -2.33,7.96 -4.32,16.06 -5.92,24.3 -1.67,8.25 -3.06,16.14 -4.13,23.66l1.2 0zm-4.8 68.57c-0.53,-0.58 -1.19,-0.87 -1.99,-0.87l1.59 0.87 0.4 0zm0.39 -147.13c-3.2,3.19 -5.39,6.94 -6.59,11.29 -1.19,4.34 -2.13,8.9 -2.79,13.67 -0.67,4.77 -1.27,9.4 -1.8,13.89 -0.53,4.49 -1.73,8.18 -3.6,11.06 -0.53,6.08 -1.19,12.15 -1.99,18.23 -0.8,6.08 -1.19,12.3 -1.19,18.66l0.39 3.91 0 0.43 0 -0.43 0.39 -1.3 0 -5.21 0 -0.87 0.81 -7.38 1.59 -14.33c0.54,-4.05 1.14,-8.53 1.8,-13.45 0.66,-4.92 1.67,-9.41 2.99,-13.45 -0.26,-0.87 -0.07,-2.68 0.61,-5.43 0.66,-2.74 1.4,-5.64 2.2,-8.68 0.8,-3.04 1.6,-6.01 2.4,-8.9 0.8,-2.9 1.46,-4.92 1.99,-6.08 0.53,-1.16 1.2,-2.1 1.99,-2.82 0.8,-0.72 1.2,-1.67 1.2,-2.82l-0.4 0zm2.8 -25.6c-5.26,2.6 -9.92,8.61 -13.98,18.01 -4.13,9.41 -7.52,19.82 -10.26,31.25 -2.79,11.43 -4.93,22.72 -6.33,33.86 -1.46,11.14 -2.2,19.89 -2.2,26.26 0,5.79 0.39,11.42 1.19,16.93l0.4 -0.44c-1.6,-4.62 -1.93,-11.85 -1,-21.7 0.93,-9.84 2.53,-20.18 4.73,-31.04 2.26,-10.85 4.8,-21.26 7.72,-31.25 2.86,-9.98 5.39,-17.72 7.46,-23.22 1.06,-2.61 2.2,-5.21 3.39,-7.81 1.2,-2.61 2.8,-4.92 4.93,-6.95 0.53,-0.58 1.4,-1.01 2.53,-1.3 1.19,-0.29 1.79,-1.01 1.79,-2.17l-0.39 -0.43zm37.95 196.17l-0.8 0 0.8 0zm11.19 -33.86c-0.8,0.88 -1.6,1.6 -2.4,2.18 -0.54,0.29 -1.07,0.72 -1.6,1.3l-0.8 0.87 -1.2 1.73 0 0.43 0.8 0 3.6 -3.9 1.6 -2.18 0 -0.43zm8.39 -17.8c0,0 0,0.15 0,0.44l-0.8 0.43 -2 1.73 -0.39 0.43 -3.2 3.03 -5.99 6.08 -5.19 4.78c-1.6,1.44 -3.2,2.97 -4.8,4.55 -1.6,1.6 -3.33,3.11 -5.2,4.56 -1.33,1.16 -2.93,2.24 -4.8,3.25 -1.86,1.01 -3.59,1.95 -5.19,2.82l-4.8 1.73 0 0.43 2 -0.87c1.06,0.58 2.73,0.21 4.99,-1.09 2.27,-1.3 4.66,-2.89 7.19,-4.78 2.53,-1.88 4.86,-3.69 6.99,-5.42 2.13,-1.73 3.6,-3.03 4.39,-3.91l0 -0.43c3.2,-2.31 6.07,-5.06 8.59,-8.24 2.53,-3.18 5.27,-6.22 8.19,-9.11l0 -0.44zm183.76 -62.93c0,2.61 0,6.88 0,12.81 0,5.93 -0.06,12.51 -0.19,19.75 -0.13,7.23 -0.47,14.68 -1,22.35 -0.53,7.67 -1.19,14.68 -1.99,21.05 -0.8,6.37 -1.8,11.56 -3,15.62 -1.19,4.05 -2.73,6.08 -4.59,6.08 -6.65,0 -13.31,-1.59 -19.97,-4.78 -6.65,-3.18 -11.85,-7.67 -15.58,-13.45 -0.53,-1.73 -0.87,-3.61 -1,-5.64 -0.13,-2.02 -0.19,-4.04 -0.19,-6.08 0,-14.75 0.6,-29.29 1.79,-43.61 1.2,-14.33 1.8,-28.87 1.8,-43.62 0,-2.31 0,-6.65 0,-13.02 0,-6.37 -0.07,-13.02 -0.2,-19.96 -0.13,-6.95 -0.33,-13.38 -0.6,-19.32 -0.27,-5.93 -0.53,-9.62 -0.8,-11.06 -7.45,3.76 -13.64,9.54 -18.58,17.35 -4.93,7.82 -8.92,16.93 -11.99,27.35 -3.06,10.42 -5.52,21.48 -7.39,33.2 -1.87,11.72 -3.66,23.36 -5.39,34.94 -1.73,11.57 -3.53,22.49 -5.39,32.77 -1.87,10.27 -4.27,19.03 -7.19,26.26 0.8,1.73 1.19,3.47 1.19,5.21 0,2.02 -0.86,3.25 -2.59,3.69 -1.73,0.43 -3.26,0.65 -4.59,0.65 -11.72,0 -20.71,-3.03 -26.97,-9.11 -6.26,-6.08 -10.85,-13.74 -13.78,-23 -2.93,-9.25 -4.59,-19.17 -4.99,-29.73 -0.4,-10.56 -0.61,-20.47 -0.61,-29.74 0,-8.1 0.34,-17.65 1,-28.64 0.66,-11 1.73,-21.99 3.2,-32.99 1.46,-11 3.26,-21.55 5.39,-31.68 2.13,-10.13 4.8,-18.66 7.99,-25.6l4.8 -1.73c2.39,0.29 4.99,0.93 7.79,1.95 2.79,1.02 5.39,2.47 7.78,4.34 2.4,1.88 4.27,4.05 5.59,6.51 1.34,2.47 1.6,5.43 0.8,8.9 0.54,1.44 1.07,3.69 1.6,6.73 0.53,3.03 0.93,6.29 1.2,9.76 0.26,3.47 0.46,6.72 0.6,9.76 0.13,3.03 0.2,5.42 0.2,7.16 0,10.99 -0.4,21.84 -1.2,32.55 -0.8,10.71 -1.6,21.41 -2.4,32.11 1.07,-8.97 2.53,-18.58 4.4,-28.86 1.86,-10.27 4.53,-20.33 7.98,-30.16 3.47,-9.84 7.93,-18.74 13.38,-26.69 5.46,-7.96 12.59,-13.96 21.38,-18.02 0.26,-0.29 1.06,-0.65 2.4,-1.08 1.33,-0.43 2.79,-0.94 4.39,-1.52 1.6,-0.58 2.99,-1.01 4.2,-1.3 1.19,-0.29 2.06,-0.43 2.59,-0.43 1.87,-1.74 4.27,-2.61 7.19,-2.61 1.33,0 3.26,0.43 5.79,1.3 2.53,0.87 5.13,1.95 7.79,3.25 2.67,1.31 4.93,2.75 6.8,4.34 1.86,1.59 2.79,3.11 2.79,4.55 0,0.29 0.13,0.43 0.4,0.43 0.26,0 0.26,0.14 0,0.43 1.06,1.45 1.93,2.97 2.59,4.56 0.66,1.59 1.4,3.11 2.2,4.55l0 -0.43c6.13,12.15 9.86,25.32 11.19,39.49 1.33,14.18 1.99,28.21 1.99,42.1zm-143.82 -40.36c-2.13,8.39 -3.59,17.28 -4.39,26.68 -0.8,9.41 -1.19,18.74 -1.19,27.99l0 13.03c0,5.78 0.46,11.35 1.4,16.71 0.93,5.35 2.06,10.63 3.39,15.84l0 -1.73c0,-5.79 -0.53,-11.72 -1.59,-17.8 -1.07,-6.08 -1.6,-12.15 -1.6,-18.23 0,-9.84 0.86,-20.4 2.59,-31.68 1.73,-11.29 2.2,-21.56 1.4,-30.81zm10.39 105.9c-1.33,-7.81 -2.26,-15.41 -2.79,-22.78 -0.54,-7.38 -0.8,-14.97 -0.8,-22.78 0,-12.74 0.13,-25.25 0.39,-37.55 0.27,-12.3 0.4,-24.82 0.4,-37.55 0,-3.18 0.13,-6.43 0.39,-9.76 0.27,-3.32 0.66,-6.59 1.2,-9.76l0.8 -4.78 0.39 -1.73 0 0.43c-2.13,7.23 -3.66,15.04 -4.59,23.44 -0.93,8.39 -1.46,16.85 -1.6,25.38 -0.13,8.54 -0.07,17.07 0.2,25.61 0.26,8.53 0.39,16.56 0.39,24.08 0,7.81 0.34,15.92 1,24.3 0.66,8.39 2.2,16.35 4.59,23.87l0 -0.43zm65.52 -152.34c0,0 0,0.14 0,0.43l-0.8 0.43 -2 1.73 -0.39 0.44 -2.4 3.03 -5.19 6.51c-1.87,2.31 -3.4,4.41 -4.59,6.3 -1.2,1.88 -2.47,4.12 -3.8,6.72 -1.59,3.19 -2.93,6.44 -3.99,9.76 -1.07,3.33 -1.6,6.73 -1.6,10.2l0 0.43 0.39 -2.17 0.4 -0.43c0.26,-3.18 1.26,-6.8 2.99,-10.85 1.73,-4.04 3.79,-8.1 6.19,-12.15 2.4,-4.04 4.85,-7.81 7.39,-11.29 2.53,-3.47 5,-6.37 7.4,-8.68l0 -0.43zm38.75 80.29c0,-2.02 -0.07,-5.35 -0.2,-9.99 -0.13,-4.62 -0.39,-9.62 -0.8,-14.97 -0.39,-5.34 -0.87,-10.41 -1.4,-15.19 -0.53,-4.78 -1.19,-8.18 -1.99,-10.2 0.8,8.39 1.46,16.71 1.99,24.95 0.53,8.25 0.8,16.57 0.8,24.96 0,10.42 -0.6,20.68 -1.8,30.81 -1.19,10.13 -2.06,20.4 -2.59,30.81 1.6,-10.42 2.99,-20.62 4.19,-30.59 1.2,-9.99 1.8,-20.18 1.8,-30.6zm5.99 -4.34l-0.39 1.31 0 25.17 0.39 0.87 0 -0.43 0 -1.74c0.54,-2.31 0.8,-4.77 0.8,-7.38 0,-2.6 0,-5.07 0,-7.38l-0.39 -8.24c0,-0.29 0.07,-0.8 0.2,-1.52 0.13,-0.72 -0.07,-1.09 -0.61,-1.09l0 0.43z"/>
   <path class="fil1" d="M1371.23 1176.31c0.53,-0.58 1.07,-0.88 1.6,-0.88l-1.6 0.88zm107.46 236.09l-2 0 2 0zm1.99 0l-1.99 0 1.99 0zm42.35 -42.53c0,12.73 -3.6,23.07 -10.79,31.04 -7.18,7.95 -16.64,11.93 -28.36,11.93 -8.52,0 -17.11,-1.88 -25.77,-5.64 -8.66,-3.76 -16.65,-8.82 -23.97,-15.19 -7.33,-6.37 -13.65,-13.67 -18.98,-21.92 -5.33,-8.25 -8.92,-16.86 -10.78,-25.83 -1.6,-7.81 -2.86,-18.37 -3.79,-31.68 -0.93,-13.31 -1.6,-27.35 -1.99,-42.1 -0.4,-14.75 -0.61,-29 -0.61,-42.75 0,-13.74 0,-24.95 0,-33.63 -5.33,1.44 -10.85,2.52 -16.57,3.25 -5.73,0.72 -11.26,1.8 -16.58,3.25 -1.33,0 -3.13,-0.29 -5.39,-0.88 -2.26,-0.58 -4.46,-1.3 -6.6,-2.17 -2.13,-0.87 -4.05,-2.02 -5.79,-3.47 -1.73,-1.45 -2.6,-3.19 -2.6,-5.21 0,-0.87 1.2,-1.89 3.6,-3.04 2.4,-1.16 5.06,-2.39 7.98,-3.69 2.94,-1.3 5.86,-2.53 8.79,-3.69 2.93,-1.16 5.07,-1.88 6.39,-2.17l-0.4 0 3.6 -1.31 -2.4 0.43c4.26,-1.16 8.52,-2.31 12.78,-3.47 4.27,-1.16 8.66,-2.02 13.18,-2.61 0.27,0 0.4,-0.29 0.4,-0.87 0.8,-13.02 1.67,-25.38 2.6,-37.1 0.92,-11.72 3.52,-23.8 7.78,-36.25 1.34,-0.87 2.33,-1.81 3,-2.82 0.66,-1.01 1.4,-1.95 2.2,-2.81 0.8,-0.88 1.8,-1.52 2.99,-1.95 1.19,-0.44 2.99,-0.65 5.39,-0.65 2.93,0 5.73,0.72 8.39,2.17 0,0 0.27,0.14 0.8,0.44l0.4 0 0.8 0.42c4,1.74 6.79,3.25 8.39,4.56 1.6,1.3 3.46,4.27 5.59,8.9 -0.8,3.18 -1.27,7.15 -1.4,11.93 -0.13,4.78 -0.2,8.9 -0.2,12.37l0 -2.61c0,6.65 -0.4,13.45 -1.2,20.4 -0.8,6.94 -1.19,13.74 -1.19,20.4 3.2,0 8.98,0.36 17.37,1.09 8.4,0.72 16.85,2.02 25.37,3.9 8.52,1.89 16.11,4.41 22.76,7.6 6.66,3.18 10,7.38 10,12.59 0,2.02 -0.73,3.19 -2.21,3.48 -1.45,0.29 -2.86,0.43 -4.19,0.43 -8.79,0 -17.57,-0.94 -26.37,-2.82 -8.79,-1.89 -17.71,-2.82 -26.77,-2.82l-16.77 0.43 0 0.43 0 16.05c0,16.5 0.07,32.85 0.2,49.04 0.13,16.21 0.73,32.56 1.79,49.04 0.27,3.48 0.66,9.92 1.2,19.32 0.53,9.41 1.6,19.1 3.2,29.08 1.6,9.99 3.86,18.81 6.79,26.47 2.93,7.67 6.79,11.51 11.58,11.51 4.53,0 8.59,-1.31 12.18,-3.91 3.6,-2.6 6.8,-5.86 9.59,-9.76 2.8,-3.91 5.33,-8.03 7.59,-12.37 2.26,-4.34 4.47,-8.24 6.6,-11.72 0.53,-0.29 1.19,-0.58 1.99,-0.87 0.8,-0.29 1.46,-0.43 2,-0.43 6.65,0 11.98,2.9 15.98,8.68 0,1.45 0.07,3.04 0.2,4.78 0.13,1.74 0.2,3.33 0.2,4.78zm-111.46 -158.85c-0.53,0 -0.8,0.58 -0.8,1.74 -0.53,3.18 -0.93,6.43 -1.2,9.76 -0.26,3.32 -0.39,6.72 -0.39,10.2l0.8 13.02 0.39 4.78 0 -0.43 0.4 -2.61c0,-3.47 -0.07,-6.94 -0.2,-10.42 -0.13,-3.47 -0.07,-6.94 0.2,-10.41l0.39 -0.43 0 -12.15 0.4 -2.18c0,-0.58 0,-0.87 0,-0.87zm0.4 140.62c0,-11 -1,-22.14 -3,-33.41 -1.99,-11.29 -2.99,-22.57 -2.99,-33.86l0 -38.19c0,-18.23 1.07,-36.52 3.2,-54.9 2.13,-18.37 2.8,-36.68 1.99,-54.91 0.27,1.73 0.27,5.21 0,10.42 -0.26,5.21 -0.66,11.57 -1.33,19.1 -0.66,7.52 -1.33,15.62 -2.06,24.3 -0.8,8.68 -1.46,17.22 -2.14,25.6 -0.6,8.39 -1.19,16.27 -1.72,23.65 -0.47,7.39 -0.73,13.38 -0.73,18.02 0,4.92 0.19,11.93 0.6,21.05 0.33,9.11 0.87,18.52 1.53,28.2 0.6,9.7 1.53,18.74 2.67,27.13 1.13,8.4 2.46,14.33 4,17.8l0 0.43 0 -0.43zm78.69 60.33l2.4 -0.87 -2.4 0.87zm15.98 -49.04l0 -0.43c-0.27,0 -0.54,0.37 -0.8,1.09 -0.27,0.72 -0.4,1.22 -0.4,1.51 -1.33,2.32 -3.33,5.5 -5.99,9.55 -2.67,4.05 -5.07,7.09 -7.19,9.11 -0.53,0.59 -1.33,1.17 -2.4,1.74 -1.06,0.58 -1.6,1.3 -1.6,2.17l0.4 0.43c0.27,0 0.46,-0.21 0.6,-0.65 0.13,-0.44 0.33,-0.51 0.6,-0.22 2.14,-1.73 4,-3.48 5.59,-5.21 1.6,-1.73 3.33,-3.76 5.19,-6.08 0,-0.58 0.13,-0.87 0.4,-0.87 1.06,-1.73 1.99,-3.54 2.79,-5.42 0.8,-1.89 1.73,-3.69 2.8,-5.43l0 -1.3zm3.2 10.85c-0.54,0 -1.34,0.5 -2.4,1.52 -1.07,1.01 -1.6,1.8 -1.6,2.38l0 1.31 0.39 0 0 -0.43c0,-0.58 0.13,-1.02 0.4,-1.31l1.19 -1.73 2 -1.3 0 -0.43zm41.15 -146.26c0,0.29 -0.13,0.43 -0.4,0.43 0.27,0 0.4,-0.14 0.4,-0.43zm82.29 107.2c0,7.53 -0.6,15.41 -1.8,23.66 -1.19,8.24 -3.33,15.84 -6.39,22.78 -3.06,6.94 -7.32,12.73 -12.78,17.36 -5.46,4.63 -12.45,6.94 -20.97,6.94 -19.98,0 -35.55,-6.59 -46.74,-19.75 -11.19,-13.16 -16.78,-30.3 -16.78,-51.43l0 -4.78 0 2.18c0.27,-6.37 0.87,-14.54 1.8,-24.53 0.93,-9.98 2.33,-20.11 4.2,-30.38 1.86,-10.26 4.26,-19.96 7.18,-29.07 2.94,-9.12 6.53,-15.98 10.79,-20.62l-0.8 0.43c1.33,-0.87 2.73,-1.44 4.19,-1.73 1.47,-0.29 2.99,-0.58 4.59,-0.87 0,-0.88 -0.06,-1.81 -0.19,-2.82 -0.13,-1.02 0.07,-1.95 0.6,-2.82 2.66,-2.9 5.33,-4.92 7.99,-6.08 0.8,0 1.52,-0.08 2.2,-0.22 0.66,-0.14 1.4,-0.21 2.2,-0.21 12.25,0 22.37,4.48 30.36,13.45 7.99,8.97 14.18,19.82 18.58,32.55 4.39,12.73 7.45,26.04 9.19,39.92 1.73,13.9 2.6,25.9 2.6,36.02zm-79.5 -50.78c-0.26,0 -0.39,0.22 -0.39,0.65 0,0.43 -0.13,0.79 -0.4,1.08 -2.13,6.08 -2.99,12.15 -2.6,18.23 0.4,6.08 -0.07,12.01 -1.4,17.8l0.4 1.73 0 -0.43 0.39 -2.6c0.53,-3.48 0.87,-7.02 1,-10.63 0.13,-3.62 0.46,-7.16 1,-10.63l0.39 -0.44c-0.27,-2.6 0,-5.13 0.8,-7.59 0.8,-2.47 1.19,-4.85 1.19,-7.16l-0.39 0zm0.8 -40.8c-1.06,2.9 -1.6,5.07 -1.6,6.52 -2.13,5.78 -3.93,12.22 -5.39,19.31 -1.46,7.09 -2.73,14.4 -3.79,21.92 -1.07,7.52 -1.87,15.05 -2.4,22.57 -0.53,7.52 -0.8,14.32 -0.8,20.4 0,7.24 0.33,14.76 1,22.57 0.66,7.81 2.06,15.04 4.19,21.7l0 -0.44c-1.33,-7.23 -2.2,-14.25 -2.59,-21.04 -0.4,-6.81 -0.61,-13.82 -0.61,-21.06 0,-6.65 0.67,-13.6 2,-20.83 1.33,-7.23 1.73,-14.03 1.19,-20.4 0,0 0.47,-2.68 1.4,-8.03 0.93,-5.35 1.94,-11.14 3,-17.36 1.06,-6.22 2.06,-12.01 2.99,-17.36 0.93,-5.35 1.4,-8.17 1.4,-8.46zm7.99 -26.9c0,0.29 -0.13,0.43 -0.4,0.43 0.27,0 0.4,-0.14 0.4,-0.43zm0.8 -0.43l-0.4 0.43 0.4 -0.43zm36.35 89.84c0,-12.44 -1.4,-24.96 -4.2,-37.55 -2.79,-12.59 -6.72,-24.37 -11.79,-35.37l-3.19 1.3 -5.59 0c0.27,0 0.39,0.29 0.39,0.87l1.6 4.34 0 2.17 -0.39 -0.43c0,14.46 -0.93,28.86 -2.8,43.19 -1.86,14.32 -2.79,28.86 -2.79,43.61 0,8.11 0.2,16.21 0.6,24.3 0.4,8.11 1.53,16.06 3.4,23.87 1.6,-0.58 3.13,-1.52 4.59,-2.82 1.46,-1.3 2.73,-2.68 3.79,-4.12l0.39 0c3.2,-3.77 5.8,-8.32 7.79,-13.67 2,-5.35 3.6,-10.84 4.8,-16.5 1.2,-5.63 2.07,-11.35 2.6,-17.14 0.53,-5.79 0.8,-11.14 0.8,-16.05zm13.98 9.11c0,-6.37 -0.66,-13.16 -1.99,-20.4l-2 -7.81c-0.27,0 -0.39,-0.15 -0.39,-0.44 0,-0.29 -0.13,-0.43 -0.4,-0.43l0.4 3.48c0.26,-0.58 0.46,-0.58 0.6,0 0.13,0.58 0.27,1.38 0.39,2.39 0.13,1.01 0.27,2.17 0.4,3.47 0.13,1.31 0.2,2.39 0.2,3.25 0.53,2.9 0.8,5.21 0.8,6.95l0 17.79c0,2.03 -0.2,4.49 -0.61,7.39 -0.39,2.89 -0.86,5.34 -1.4,7.38 0.27,1.44 -0.13,4.04 -1.19,7.81 -1.07,3.77 -2.26,7.82 -3.6,12.15 -1.33,4.34 -2.73,8.46 -4.19,12.37 -1.46,3.9 -2.47,6.58 -2.99,8.03l0.39 0c0.27,0 0.66,-0.88 1.2,-2.61 0.53,-1.73 0.92,-2.89 1.19,-3.47 3.47,-10.13 6.53,-19.46 9.19,-27.99 2.67,-8.54 4,-18.31 4,-29.3zm0.8 39.93c0,0 -0.27,0.58 -0.8,1.73 -0.53,1.16 -1.14,2.53 -1.8,4.12 -0.66,1.59 -1.19,3.11 -1.6,4.55 -0.39,1.44 -0.6,2.32 -0.6,2.61l0.4 0 1.19 -3.04c0.53,-0.87 1.26,-2.31 2.2,-4.34 0.93,-2.02 1.4,-3.32 1.4,-3.9l0 -1.3 -0.39 -0.43zm228.1 -8.25c1.34,0 2.21,0.8 2.6,2.39 0.4,1.6 0.6,2.97 0.6,4.12 0,7.53 -1.72,15.48 -5.19,23.87 -3.46,8.4 -7.99,16.21 -13.58,23.44 -5.59,7.23 -11.92,13.24 -18.98,18.02 -7.06,4.77 -14.18,7.15 -21.37,7.15 -12.26,0 -22.71,-2.24 -31.36,-6.72 -8.72,-4.49 -15.78,-10.64 -21.24,-18.45 -5.53,-7.81 -9.59,-17 -12.18,-27.56 -2.6,-10.56 -3.93,-21.77 -3.93,-33.64 0,-8.39 0.66,-18.58 1.99,-30.59 1.33,-12.01 3.53,-24.02 6.6,-36.02 3.06,-12.01 7.06,-23.15 11.98,-33.42 4.93,-10.26 10.85,-17.86 17.78,-22.78 4.27,-3.18 8.79,-4.84 13.59,-4.99 4.8,-0.14 9.59,-0.08 14.39,0.21 1.06,-2.02 2.66,-3.03 4.79,-3.03 6.66,0 12.52,1.81 17.58,5.42 5.06,3.62 9.32,8.25 12.78,13.89 3.47,5.64 6.12,11.8 7.99,18.45 1.87,6.65 2.8,13.16 2.8,19.53 0,10.71 -1.47,21.19 -4.47,31.47 -2.93,10.26 -7.32,19.24 -13.12,26.9 -5.8,7.67 -12.91,13.38 -21.44,17.15 -8.45,3.76 -18.38,4.33 -29.7,1.73 -0.27,1.44 -0.4,2.68 -0.4,3.69 0,1.01 0,2.24 0,3.69 0,8.1 0.4,16.27 1.2,24.53 0.8,8.24 2.67,16.13 5.59,23.65 1.34,-0.29 2.73,-0.72 4.2,-1.3 1.46,-0.58 2.86,-1.17 4.2,-1.74l-0.4 0c6.66,-2.31 12.38,-5.93 17.18,-10.84 4.8,-4.92 9.86,-9.41 15.19,-13.46l0 0.43c4.8,-3.76 9.19,-7.52 13.18,-11.29 4,-3.76 8.25,-7.81 12.78,-12.14 1.34,-0.58 2.73,-1.01 4.2,-1.31 1.46,-0.29 2.86,-0.43 4.19,-0.43zm-28.36 -47.3c0,-0.59 0.46,-2.1 1.4,-4.56 0.93,-2.46 1.4,-4.12 1.4,-4.99l0 -3.91 0 -0.87 -0.39 0c-0.27,0 -0.46,0.43 -0.6,1.3 -0.13,0.88 -0.2,1.45 -0.2,1.74 -0.27,1.44 -0.6,3.03 -1,4.77 -0.39,1.74 -0.6,3.33 -0.6,4.78l0 0.87 0 0.43 0 0.44 0 0.43 0 -0.43zm-9.59 2.17l0.4 -0.43c0.8,-1.44 1.07,-2.47 0.8,-3.04 1.33,-4.04 2.26,-7.95 2.79,-11.72 0.54,-3.76 1.07,-7.81 1.6,-12.15l0 -7.38c0,-1.16 -0.19,-3.18 -0.6,-6.08 -0.39,-2.89 -0.87,-4.33 -1.4,-4.33l0 1.73 0.39 4.34 0 9.54 -0.8 12.15c0,1.16 -0.13,2.31 -0.39,3.48 -0.27,1.16 -0.54,2.31 -0.8,3.47l-0.8 4.78 -1.2 3.91 0 1.73 0 0.43 0 -0.43zm-41.15 29.95c0.34,0 1.14,-0.14 2.47,-0.43 1.4,-0.29 2.06,-0.58 2.06,-0.87 5.2,-2.03 9.59,-5.07 13.26,-9.12 3.73,-4.05 6.79,-8.68 9.25,-13.89 2.39,-5.21 4.19,-10.71 5.26,-16.5 1.13,-5.79 1.67,-11.43 1.67,-16.93 0,-5.79 -0.4,-11.35 -1.2,-16.71 -0.8,-5.35 -1.73,-10.92 -2.79,-16.71 -4.93,6.08 -9.05,12.81 -12.52,20.18 -3.4,7.38 -6.26,15.04 -8.59,23 -2.33,7.96 -4.33,16.06 -5.92,24.3 -1.67,8.25 -3.07,16.14 -4.13,23.66l1.19 0zm-4.79 68.57c-0.54,-0.58 -1.2,-0.87 -2,-0.87l1.6 0.87 0.4 0zm0.39 -147.13c-3.2,3.19 -5.39,6.94 -6.6,11.29 -1.19,4.34 -2.13,8.9 -2.79,13.67 -0.66,4.77 -1.26,9.4 -1.8,13.89 -0.53,4.49 -1.73,8.18 -3.59,11.06 -0.53,6.08 -1.19,12.15 -1.99,18.23 -0.8,6.08 -1.2,12.3 -1.2,18.66l0.4 3.91 0 0.43 0 -0.43 0.39 -1.3 0 -5.21 0 -0.87 0.8 -7.38 1.6 -14.33c0.53,-4.05 1.14,-8.53 1.8,-13.45 0.66,-4.92 1.67,-9.41 2.99,-13.45 -0.27,-0.87 -0.07,-2.68 0.6,-5.43 0.66,-2.74 1.4,-5.64 2.2,-8.68 0.8,-3.04 1.6,-6.01 2.4,-8.9 0.8,-2.9 1.46,-4.92 1.99,-6.08 0.54,-1.16 1.2,-2.1 2,-2.82 0.8,-0.72 1.19,-1.67 1.19,-2.82l-0.39 0zm2.79 -25.6c-5.26,2.6 -9.92,8.61 -13.98,18.01 -4.12,9.41 -7.52,19.82 -10.25,31.25 -2.8,11.43 -4.93,22.72 -6.33,33.86 -1.47,11.14 -2.2,19.89 -2.2,26.26 0,5.79 0.39,11.42 1.19,16.93l0.39 -0.44c-1.59,-4.62 -1.93,-11.85 -0.99,-21.7 0.92,-9.84 2.53,-20.18 4.73,-31.04 2.26,-10.85 4.79,-21.26 7.72,-31.25 2.86,-9.98 5.39,-17.72 7.45,-23.22 1.07,-2.61 2.2,-5.21 3.4,-7.81 1.19,-2.61 2.79,-4.92 4.93,-6.95 0.53,-0.58 1.4,-1.01 2.52,-1.3 1.2,-0.29 1.8,-1.01 1.8,-2.17l-0.4 -0.43zm37.96 196.17l-0.8 0 0.8 0zm11.18 -33.86c-0.8,0.88 -1.6,1.6 -2.4,2.18 -0.53,0.29 -1.06,0.72 -1.6,1.3l-0.8 0.87 -1.19 1.73 0 0.43 0.8 0 3.59 -3.9 1.6 -2.18 0 -0.43zm8.39 -17.8c0,0 0,0.15 0,0.44l-0.8 0.43 -1.99 1.73 -0.39 0.43 -3.2 3.03 -6 6.08 -5.19 4.78c-1.6,1.44 -3.2,2.97 -4.8,4.55 -1.6,1.6 -3.32,3.11 -5.19,4.56 -1.33,1.16 -2.93,2.24 -4.8,3.25 -1.87,1.01 -3.59,1.95 -5.19,2.82l-4.8 1.73 0 0.43 1.99 -0.87c1.07,0.58 2.73,0.21 5,-1.09 2.26,-1.3 4.66,-2.89 7.19,-4.78 2.52,-1.88 4.85,-3.69 6.99,-5.42 2.13,-1.73 3.59,-3.03 4.39,-3.91l0 -0.43c3.2,-2.31 6.06,-5.06 8.59,-8.24 2.53,-3.18 5.26,-6.22 8.19,-9.11l0 -0.44zm69.11 -45.57l0.8 0.87c-0.53,0 -0.8,-0.29 -0.8,-0.87zm48.74 43.4c0,6.08 -1.6,11.57 -4.8,16.5 -3.2,4.92 -7.19,9.11 -11.99,12.59 -4.79,3.47 -9.99,6.14 -15.58,8.03 -5.59,1.88 -10.92,2.82 -15.98,2.82 -1.87,0 -4.93,-0.37 -9.19,-1.09 -4.27,-0.72 -8.66,-1.88 -13.18,-3.48 -4.53,-1.59 -8.52,-3.4 -11.99,-5.42 -3.46,-2.02 -5.19,-4.34 -5.19,-6.94l0.39 -1.3 8.39 -0.87c1.07,0.29 2,0.5 2.8,0.65 0.8,0.14 1.73,0.22 2.79,0.22l-1.6 0 0.8 -0.43c1.33,0.29 2.6,0.29 3.79,0 1.2,-0.29 2.34,-0.73 3.4,-1.31l-0.39 0.43c4,-1.44 7.92,-3.11 11.78,-4.99 3.86,-1.88 7.26,-4.41 10.19,-7.6l-1.19 1.31c6.12,-5.79 9.19,-12.87 9.19,-21.27l0 1.73c0.27,-6.37 -0.8,-12.44 -3.2,-18.23 -2.4,-5.78 -5.19,-11.13 -8.39,-16.05l0.39 1.3c-2.93,-4.92 -6.52,-10.2 -10.78,-15.84 -4.26,-5.64 -8.32,-11.43 -12.18,-17.36 -3.86,-5.93 -7.19,-11.93 -9.99,-18.01 -2.8,-6.08 -4.2,-12.15 -4.2,-18.23 0,-7.24 1.87,-13.75 5.59,-19.54 3.73,-5.78 8.39,-10.63 13.98,-14.53 5.59,-3.91 11.65,-6.88 18.18,-8.9 6.52,-2.03 12.71,-3.04 18.58,-3.04 1.07,0 2.99,0.22 5.79,0.65 2.8,0.43 5.59,1.08 8.4,1.95 2.79,0.87 5.33,1.95 7.59,3.25 2.26,1.3 3.39,2.82 3.39,4.55 0,0.87 -0.33,1.59 -0.99,2.17 -0.66,0.58 -1.27,1.16 -1.8,1.74 -1.07,0.29 -2.66,1.01 -4.8,2.17 -2.13,1.16 -4.26,2.53 -6.39,4.12 -2.13,1.59 -4.19,3.11 -6.18,4.55 -2,1.44 -3.4,2.61 -4.2,3.48l1.19 -1.3c-4,3.76 -7.45,8.17 -10.38,13.23 -2.94,5.07 -4.4,10.63 -4.4,16.71 0,8.69 2.26,16.64 6.8,23.87l-0.4 -0.43c0.53,0 0.87,0.29 1,0.87 0.13,0.59 0.33,1.17 0.6,1.74l-0.39 -0.43 2.39 3.47 -1.6 -2.17c3.2,4.92 6.73,10.49 10.59,16.71 3.86,6.22 7.52,12.59 10.99,19.1 3.46,6.51 6.39,13.1 8.78,19.75 2.4,6.65 3.6,13.02 3.6,19.1zm-68.31 20.4c-0.27,0.29 -0.8,0.44 -1.6,0.44 0.8,0 1.33,-0.15 1.6,-0.44zm-8.4 1.31l0.4 0 -0.4 0zm0.8 0l0.4 0 -0.4 0zm2 0.43l0.39 0.43 -0.39 -0.43zm1.6 0.87l4 0.87 -4 -0.87zm9.99 -154.07c-0.8,0 -1.67,0.87 -2.6,2.6 -0.93,1.73 -1.79,3.69 -2.59,5.86 -0.8,2.17 -1.54,4.27 -2.21,6.29 -0.66,2.02 -0.99,3.48 -0.99,4.34l0.6 0.87 0 -0.43 0.6 -1.3c0.53,-2.03 1.14,-3.83 1.8,-5.43 0.66,-1.59 1.26,-3.25 1.79,-4.99 -0.26,-0.58 0.34,-1.81 1.8,-3.69 1.46,-1.88 2.2,-3.11 2.2,-3.69l-0.39 -0.43zm29.16 -18.23l-2.39 -0.87c-0.54,-0.29 -1.47,-0.37 -2.8,-0.22 -1.33,0.14 -2.4,0.22 -3.2,0.22 -4.53,0 -8.98,1.08 -13.38,3.25 -4.39,2.17 -8.25,5.06 -11.58,8.68 -3.33,3.62 -6.06,7.74 -8.19,12.37 -2.13,4.62 -3.2,9.4 -3.2,14.32l0.39 1.3 0.4 -1.3 0.39 -3.48c0.27,-2.31 1.07,-4.84 2.4,-7.59 1.33,-2.75 2.67,-5.14 4,-7.16 1.87,-2.31 4.46,-4.63 7.79,-6.94 3.33,-2.32 5.53,-4.34 6.6,-6.08 2.4,-1.16 4.73,-2.1 6.99,-2.82 2.26,-0.72 4.72,-1.38 7.39,-1.95l7.59 -0.87 1.2 -0.43 -0.4 -0.43zm4.8 141.49c-0.26,0 -0.46,0.36 -0.6,1.09 -0.13,0.71 -0.2,1.22 -0.2,1.51 -2.4,4.92 -4.59,8.69 -6.59,11.29 -2,2.61 -4.86,5.64 -8.59,9.12 -0.53,0 -1.07,0.29 -1.6,0.87l-0.8 0.43 0 0.43c1.87,0 3.93,-0.87 6.19,-2.61 2.26,-1.73 4.26,-3.9 5.99,-6.51 1.73,-2.6 3.2,-5.28 4.4,-8.02 1.19,-2.75 1.79,-5.14 1.79,-7.16l0 -0.43zm14.78 -18.23l0 -0.43 -1.19 -3.04 0 -0.43c-0.8,-1.73 -2.47,-5.07 -5,-9.99 -2.53,-4.91 -5.33,-10.12 -8.39,-15.62 -3.06,-5.5 -6.06,-10.56 -8.99,-15.2 -2.93,-4.62 -5.06,-7.52 -6.38,-8.68l0.8 2.17c0.53,0.29 2.2,2.97 4.99,8.03 2.8,5.07 5.86,10.63 9.2,16.71 3.32,6.08 6.45,11.87 9.38,17.36 2.94,5.5 4.8,8.83 5.59,9.99l0.4 0 -0.4 -0.87zm-21.17 -49.91c0,-0.58 -0.13,-0.88 -0.4,-0.88 -0.27,0 -0.39,-0.29 -0.39,-0.87 0,0.58 0.26,1.17 0.8,1.74zm-41.55 97.22c0.26,0.29 0.66,0.43 1.19,0.43l-1.19 0 0 -0.43zm286.43 -143.23c-7.45,21.13 -14.04,42.47 -19.77,64.02 -5.73,21.56 -12.06,43.04 -18.98,64.45 -1.33,4.63 -3.06,9.33 -5.19,14.11 -2.13,4.78 -4.53,9.19 -7.19,13.24l-4.8 1.3 0 0.43c-0.53,0.87 -1.26,1.44 -2.2,1.73 -0.93,0.29 -1.8,0.43 -2.59,0.43 -2.4,0 -5.33,-0.58 -8.79,-1.73 -3.47,-1.16 -6.79,-2.6 -9.99,-4.34 -3.2,-1.73 -6.19,-3.76 -8.99,-6.08 -2.79,-2.31 -4.73,-4.62 -5.79,-6.94 -4.27,-8.39 -7.99,-19.53 -11.19,-33.41 -3.2,-13.9 -5.85,-28.36 -7.99,-43.4 -2.13,-15.05 -3.86,-29.8 -5.19,-44.28 -1.33,-14.46 -2.13,-26.62 -2.4,-36.46l3.2 -3.9 1.19 0c1.6,0 3.8,0.36 6.6,1.08 2.79,0.73 5.59,1.74 8.39,3.04 2.8,1.3 5.33,2.82 7.6,4.55 2.25,1.73 3.66,3.48 4.19,5.21 4.8,19.67 9.12,40.08 12.98,61.2 3.86,21.12 7.26,41.67 10.19,61.63 0.54,-2.89 1.8,-8.82 3.79,-17.8 2,-8.97 4.4,-19.38 7.19,-31.25 2.8,-11.86 5.86,-24.3 9.19,-37.32 3.33,-13.02 6.66,-25.03 10,-36.02 3.32,-11 6.52,-20.04 9.58,-27.13 3.06,-7.09 5.66,-10.63 7.79,-10.63 1.6,0 4.06,0.43 7.4,1.3 3.32,0.87 6.59,2.1 9.78,3.69 3.2,1.6 6.06,3.33 8.59,5.21 2.53,1.88 3.79,3.83 3.79,5.86l-10.39 28.2zm-103.86 46.01c0,3.18 0.27,7.01 0.8,11.5 0.53,4.49 1.07,8.32 1.6,11.5l3.2 15.2c0,0.29 0.13,1.01 0.39,2.17 0.27,1.17 0.54,1.73 0.8,1.73l0 -0.87 -0.39 -2.17 -0.4 -0.43c-0.26,-3.77 -0.73,-7.6 -1.4,-11.5 -0.66,-3.91 -1.26,-7.74 -1.79,-11.51 -0.54,-2.31 -0.87,-4.55 -1,-6.72 -0.13,-2.18 -0.34,-4.42 -0.61,-6.73 0,-0.29 -0.07,-1.01 -0.19,-2.17 -0.13,-1.17 -0.34,-1.74 -0.6,-1.74l-0.4 1.74zm14.78 84.19c-2.4,-13.6 -5.53,-26.97 -9.39,-40.15 -3.86,-13.16 -6.72,-26.69 -8.59,-40.58l-5.19 -51.21 -0.39 6.51c0,8.39 0.53,18.44 1.59,30.16 1.07,11.72 2.67,23.52 4.8,35.38 2.13,11.86 4.59,23.22 7.4,34.07 2.79,10.85 6.06,19.6 9.78,26.26l0 -0.44zm61.12 -143.22c-3.2,4.92 -5.92,11.06 -8.19,18.45 -2.26,7.38 -4.32,15.19 -6.19,23.43 -1.87,8.25 -3.66,16.43 -5.39,24.53 -1.73,8.1 -3.53,15.33 -5.39,21.7 -1.33,4.34 -2.47,8.9 -3.4,13.67 -0.93,4.78 -1.93,9.33 -2.99,13.67l-1.99 10.85 -1.2 5.64 0 0.43 0.4 -0.43 0.39 -2.18c0.54,-3.18 1.2,-6.29 1.99,-9.33 0.8,-3.03 1.6,-6.14 2.4,-9.33l5.2 -20.83c2.4,-9.84 5.06,-19.83 7.99,-29.95 0,-0.29 0.13,-0.58 0.39,-0.87 1.86,-4.63 3.26,-9.41 4.2,-14.33 0.92,-4.91 1.86,-9.83 2.79,-14.75 0.93,-4.92 1.99,-9.76 3.2,-14.54 1.19,-4.78 2.99,-9.62 5.39,-14.54l0.8 -1.3 -0.4 0zm7.6 -18.66c-0.54,0 -1.2,1.3 -2,3.91 -0.8,2.6 -1.19,4.19 -1.19,4.77l0 1.74c0,0.58 0,0.87 0,0.87l0.39 0 0 -0.87 0.4 -1.3c0.53,-1.45 1.06,-2.82 1.6,-4.13 0.53,-1.3 0.8,-2.53 0.8,-3.69l0 -1.3zm34.75 -72.91c0,-5.79 1.07,-11.72 3.2,-17.8 1.4,-1.73 3.13,-2.89 5.26,-3.47 6.19,0 12.52,1.44 18.98,4.33 6.45,2.9 11.18,7.67 14.12,14.33 -0.8,7.52 -1.8,15.76 -2.99,24.74 -1.27,8.97 -3.47,16.78 -6.66,23.44l-5.26 0.43c-1.6,0 -3.47,-0.51 -5.46,-1.52 -2,-1.01 -4,-2.31 -5.86,-3.91 -1.86,-1.59 -3.59,-3.18 -5.26,-4.78 -1.6,-1.59 -2.79,-2.96 -3.59,-4.12l0.8 0.43c-1.6,-1.16 -2.93,-3.11 -4.06,-5.85 -1.07,-2.74 -1.8,-5.71 -2.2,-8.9 -0.4,-3.19 -0.66,-6.37 -0.8,-9.55 -0.13,-3.18 -0.2,-5.78 -0.2,-7.81zm11.19 7.38l0.39 8.25 0.4 0.87 0.39 0 0 -0.43 0 -1.73c0,-4.05 0.27,-8.03 0.8,-11.94 0.54,-3.91 0.8,-7.89 0.8,-11.93 0,-1.17 -0.13,-1.74 -0.39,-1.74 0,0 0,0.29 0,0.87 -0.54,1.17 -0.8,2.18 -0.8,3.04l-1.6 11.29 0 3.47zm35.16 271.26c-0.54,0.29 -1.47,0.65 -2.8,1.08 -1.33,0.43 -2.26,0.65 -2.79,0.65 -5.33,0 -10.52,-1.16 -15.58,-3.48 -0.54,-0.29 -1.67,-0.93 -3.4,-1.95 -1.73,-1.01 -2.86,-1.37 -3.4,-1.08 -1.86,-1.16 -3.73,-2.39 -5.59,-3.69 -1.87,-1.31 -3.6,-2.68 -5.2,-4.12l-3.2 -5.64c-1.33,-9.84 -1.72,-20.12 -1.19,-30.81 0.53,-10.71 0.8,-21.13 0.8,-31.25 0,-13.03 -0.53,-25.97 -1.6,-38.85 -1.07,-12.88 -1.6,-25.83 -1.6,-38.85l0.8 -5.64 -0.39 2.6c0,-1.73 0.06,-4.55 0.19,-8.46 0.13,-3.9 0.4,-7.95 0.87,-12.15 0.4,-4.19 0.87,-8.02 1.46,-11.5 0.54,-3.47 1.27,-5.93 2.07,-7.38l4.19 3.03 0 -1.73 2.4 -3.47 1.6 0c3.47,0 7.79,1.37 12.98,4.12 5.2,2.74 8.59,5.85 10.19,9.33 2.4,5.21 4.33,13.6 5.8,25.17 1.46,11.57 2.53,24.08 3.2,37.54 0.66,13.46 1.13,26.55 1.4,39.28 0.27,12.73 0.39,22.57 0.39,29.51 0,9.26 0.27,18.74 0.8,28.43 0.54,9.7 0.13,18.88 -1.19,27.56l-1.19 1.74zm-29.97 -40.8c0,-20.54 -0.13,-40.87 -0.4,-60.98 -0.26,-20.11 -0.39,-40.43 -0.39,-60.97l-0.4 -1.73c-1.33,7.52 -2.06,15.12 -2.2,22.78 -0.13,7.67 -0.19,15.26 -0.19,22.78 0,14.46 0.13,29.16 0.39,44.05 0.27,14.9 1.2,29.44 2.79,43.62l0.4 -0.44 0 -9.11zm4.39 -88.54c-0.8,0 -1.19,0.29 -1.19,0.88 0,0.29 0.13,0.43 0.39,0.43 -0.26,1.44 -0.6,2.89 -0.99,4.33 -0.4,1.45 -0.61,2.9 -0.61,4.34l0 7.81 1.6 8.25 0.8 2.6 0.4 0 0 -0.43 -0.4 -1.73c-0.8,-4.34 -0.92,-8.75 -0.39,-13.24 0.53,-4.49 0.8,-8.75 0.8,-12.81l-0.4 -0.43z"/>
   <path class="fil1" d="M2380.75 1402.87c-0.81,1.16 -2.26,2.89 -4.4,5.2 -2.13,0.58 -3.93,0.88 -5.53,0.88 -3.2,0 -6.59,-0.73 -10.31,-2.18 -3.67,-1.44 -7.13,-3.4 -10.46,-5.85 -3.26,-2.47 -6.12,-5.29 -8.52,-8.46 -2.33,-3.19 -3.79,-6.65 -4.33,-10.42 -2.26,-17.36 -3.86,-34.94 -4.85,-52.73 -1,-17.8 -1.67,-35.51 -1.94,-53.16 -0.8,4.34 -1.93,10.2 -3.39,17.57 -1.47,7.38 -3.26,15.48 -5.4,24.3 -2.13,8.83 -4.53,17.87 -7.18,27.13 -2.67,9.26 -5.53,17.8 -8.59,25.6 -3.06,7.82 -6.33,14.47 -9.79,19.97 -3.46,5.49 -7.06,8.82 -10.78,9.98l0.4 -0.43c-2.13,1.44 -3.6,2.32 -4.4,2.61 -0.79,0.29 -2.4,0.72 -4.79,1.3l1.6 0c0,0.29 -0.67,0.43 -2,0.43 -1.33,0 -2.13,0 -2.4,0 -7.72,0 -15.18,-1.52 -22.37,-4.55 -7.19,-3.04 -13.52,-7.24 -18.98,-12.59 -5.46,-5.35 -9.85,-11.72 -13.18,-19.1 -3.32,-7.38 -4.99,-15.26 -4.99,-23.65 0,-11.86 1.99,-25.1 5.99,-39.71 4,-14.61 9.66,-28.28 16.98,-41.01 7.33,-12.73 16.18,-23.36 26.57,-31.9 10.39,-8.53 21.84,-12.8 34.36,-12.8l0.8 -0.43 2.79 0c2.93,0 6.33,0.43 10.19,1.3 3.86,0.87 7.13,1.88 9.78,3.03 1.34,-0.58 2.73,-0.58 4.2,0 1.46,0.58 2.86,1.16 4.2,1.74l0.39 0c0,-10.13 0.07,-21.34 0.2,-33.64 0.13,-12.3 0.73,-24.74 1.8,-37.33 1.06,-12.59 2.52,-24.88 4.39,-36.89 1.87,-12 4.39,-22.78 7.59,-32.33 1.34,-1.17 2.6,-2.1 3.79,-2.82 1.2,-0.72 2.6,-1.09 4.2,-1.09 6.92,0 12.06,1.52 15.38,4.55 3.33,3.04 7.4,6.59 12.18,10.64l1.2 3.47 0.39 10.42c0,24.59 -1.26,49.54 -3.79,74.86 -2.52,25.33 -3.79,50.71 -3.79,76.17 0,14.76 0.13,29.66 0.4,44.71 0.26,15.04 1.06,29.94 2.4,44.7 0.53,7.52 1.4,15.48 2.59,23.87 1.2,8.39 1.8,16.35 1.8,23.87l-0.39 4.78zm-134.83 -128.91c2.13,-5.78 5.73,-11.28 10.72,-16.49 5,-5.21 9.78,-9.55 14.25,-13.02 0.26,-0.29 1,-0.87 2.2,-1.74 1.19,-0.87 1.8,-1.44 1.8,-1.73l-0.4 0 -3.59 1.73c0,0.29 -0.13,0.43 -0.4,0.43 -0.26,0 -0.39,0.14 -0.39,0.44l-4.32 3.03c-1.87,1.44 -3.6,2.97 -5.13,4.55 -1.6,1.6 -3.2,3.11 -4.8,4.56 -4.46,4.33 -8.45,9.83 -11.92,16.49 -3.39,6.65 -6.32,12.87 -8.71,18.66l-0.8 0.87c-2.87,8.11 -5.66,16.5 -8.33,25.17 -2.59,8.69 -4.59,17.36 -5.92,26.05l0.4 0c0.26,-2.9 1.4,-7.74 3.39,-14.54 1.94,-6.8 4.2,-13.89 6.72,-21.27 2.53,-7.38 5.13,-14.24 7.93,-20.61 2.8,-6.37 5.2,-10.56 7.33,-12.6zm9.78 20.4l0.4 0 0 -0.43 0.39 -0.87 1.2 -3.48c0.26,-0.58 0.87,-1.52 1.8,-2.82 0.92,-1.3 1.4,-2.1 1.4,-2.39 0,-0.29 -0.27,-0.43 -0.8,-0.43 -0.54,0 -1.4,1.23 -2.6,3.69 -1.2,2.47 -1.8,4.12 -1.8,4.99l0 1.74zm4.8 -30.38c-3.46,2.6 -6.46,6.29 -8.98,11.06 -2.53,4.78 -4.73,9.19 -6.6,13.24l0 0.43c-1.86,2.89 -3.26,6.58 -4.19,11.06 -0.93,4.49 -1.67,8.46 -2.21,11.94 0.27,-0.29 0.87,-1.81 1.8,-4.56 0.93,-2.74 1.94,-5.71 2.99,-8.9 1.07,-3.18 2.2,-6.37 3.4,-9.54 1.19,-3.19 2.2,-5.64 2.99,-7.38l0.39 -0.43c1.07,-2.32 2.27,-4.42 3.6,-6.3 1.33,-1.88 2.67,-3.98 4,-6.29l2.4 -3.48 0.39 -0.43 0 -0.43zm1.2 124.12l-4.8 -0.87c0,0 -0.13,-0.14 -0.4,-0.43l-1.99 -0.87c-0.54,-0.29 -1.14,-0.8 -1.8,-1.52 -0.66,-0.72 -1.26,-1.09 -1.79,-1.09l0 0.43c0,1.45 1.19,2.75 3.59,3.91 2.4,1.16 4,1.88 4.8,2.17l2.4 0c0.53,0 1.6,-0.36 3.19,-1.08 1.6,-0.72 2.4,-1.38 2.4,-1.95 0,0 -0.26,0 -0.8,0 -0.53,0.29 -0.86,0.43 -0.99,0.43 -0.13,0 -0.47,0.29 -1,0.87l-2.79 0zm50.33 -143.22c-6.92,4.04 -13.59,10.7 -19.97,19.96 -6.39,9.25 -12.12,19.46 -17.18,30.59 -5.07,11.14 -9.12,22.43 -12.19,33.86 -3.06,11.43 -4.59,21.34 -4.59,29.73 0,7.24 0.93,13.75 2.8,19.54 4.26,-1.17 8.39,-4.85 12.38,-11.07 4,-6.22 7.72,-13.81 11.18,-22.78 3.47,-8.97 6.66,-18.74 9.59,-29.29 2.93,-10.56 5.59,-20.62 7.99,-30.17 2.39,-9.54 4.46,-17.94 6.19,-25.17 1.73,-7.23 2.99,-12.3 3.79,-15.19zm34.36 -110.67c-0.27,2.02 -0.93,4.33 -2,6.94l0.4 0c-2.73,16.78 -4.33,33.85 -4.66,51.21 -0.4,17.36 -0.8,34.58 -1.34,51.65 -0.26,4.04 -0.33,8.17 -0.19,12.36 0.13,4.2 0.19,8.32 0.19,12.37 0,8.68 0.07,18.23 0.2,28.64 0.07,10.42 0.73,19.97 1.94,28.65l1.06 8.24 0 0.43 0.4 -0.43c-0.4,-4.92 -0.66,-10.2 -0.87,-15.84 -0.2,-5.64 -0.34,-10.92 -0.34,-15.84 0,-22.28 0.47,-44.49 1.41,-66.62 0.92,-22.14 1.4,-44.34 1.4,-66.63 0,-5.78 0.46,-11.71 1.4,-17.79 0.93,-6.08 1.4,-12.01 1.4,-17.8l-0.39 0.43zm6.79 184.89c0,-3.19 0,-8.32 0,-15.41 0,-7.09 -0.07,-14.97 -0.2,-23.66 -0.13,-8.68 -0.26,-17.72 -0.39,-27.12 -0.13,-9.41 -0.34,-18.08 -0.6,-26.05 -0.27,-7.95 -0.54,-14.61 -0.81,-19.96 -0.26,-5.35 -0.53,-8.46 -0.8,-9.33l-0.39 15.63 0 26.9c0,11 0.34,21.99 1,32.98 0.66,11 1.13,21.99 1.4,32.99l0.39 9.98 0 5.21 0 0.43 0.4 -0.43 0 -2.17zm2.4 27.77c0,-1.16 -0.13,-2.31 -0.4,-3.47 -0.26,-1.16 -0.39,-2.31 -0.39,-3.48l-0.4 -2.6 0 -1.74 -0.39 0c-0.27,0 -0.47,0.3 -0.6,0.88 -0.13,0.58 -0.2,1.01 -0.2,1.3l0 5.21 0.39 1.73 1.2 5.64c0,1.16 0.13,1.73 0.39,1.73l0.4 0 0 -1.73 0 -3.48zm-59.53 -127.59l0.8 0 -0.8 0zm0.8 0c0.27,-0.29 0.67,-0.43 1.2,-0.43 -0.27,0 -0.53,0.14 -0.8,0.43l-0.4 0zm172.18 0c0.27,-0.29 0.66,-0.43 1.19,-0.43 -0.26,0 -0.53,0.14 -0.8,0.43l-0.39 0zm60.72 11.28l0.39 0 -0.39 0zm-61.52 -11.28l0.8 0 -0.8 0zm88.28 191.4c0,1.73 -0.87,2.82 -2.59,3.25 -1.73,0.43 -3.26,0.65 -4.59,0.65 -11.72,0 -21.18,-2.52 -28.37,-7.59 -7.19,-5.07 -12.85,-11.65 -16.98,-19.75 -4.13,-8.1 -7.06,-17.14 -8.79,-27.13 -1.72,-9.99 -3.13,-19.89 -4.19,-29.73 -1.07,4.04 -2.73,9.76 -5,17.14 -2.26,7.38 -5,14.83 -8.19,22.35 -3.2,7.52 -6.53,14.25 -9.99,20.18 -3.47,5.93 -6.93,9.48 -10.39,10.63l0.39 -0.43c-2.13,1.44 -3.59,2.32 -4.39,2.61 -0.8,0.29 -2.4,0.72 -4.8,1.3l1.6 0c0,0.29 -0.66,0.43 -1.99,0.43 -1.34,0 -2.14,0 -2.4,0 -7.72,0 -15.19,-1.52 -22.38,-4.55 -7.18,-3.04 -13.51,-7.24 -18.97,-12.59 -5.46,-5.35 -9.86,-11.72 -13.18,-19.1 -3.33,-7.38 -5,-15.26 -5,-23.65 0,-11.86 2,-25.1 6,-39.71 3.99,-14.61 9.65,-28.28 16.98,-41.01 7.32,-12.73 16.18,-23.36 26.56,-31.9 10.39,-8.53 21.85,-12.8 34.36,-12.8l0.8 -0.43 2.8 0c2.93,0 6.33,0.36 10.19,1.08 3.86,0.72 7.12,1.81 9.78,3.25l4 0 1.6 -4.33 3.2 -3.91c-0.54,-0.58 0.07,-1.09 1.79,-1.52 1.73,-0.43 2.73,-0.65 3,-0.65 4.53,0 8.71,1.22 12.58,3.69 3.86,2.46 6.87,5.71 8.99,9.76l-1.2 -1.74 2 6.08 0 -0.43 0.39 1.74 0 -0.43 0 -0.44c1.34,11 2.2,22.14 2.6,33.42 0.39,11.29 0.66,22.57 0.8,33.85 0.13,11.29 0.39,22.5 0.8,33.65 0.39,11.13 1.4,22.34 2.99,33.63 0.8,4.92 1.87,10.56 3.2,16.93 1.33,6.37 3.2,11.72 5.59,16.06 0.26,0.58 0.93,1.23 1.99,1.95 1.07,0.72 2.2,1.59 3.4,2.6 1.19,1.01 2.33,2.17 3.39,3.48 1.07,1.3 1.6,2.68 1.6,4.12zm-135.42 -144.96c0,-1.73 1.13,-3.98 3.39,-6.72 2.26,-2.75 4.8,-5.43 7.6,-8.03 2.79,-2.61 5.59,-5.07 8.39,-7.38 2.79,-2.32 4.73,-4.05 5.79,-5.21l0.8 -1.31 -0.39 -0.43c-5.39,1.74 -10.12,4.56 -14.32,8.46 -4.13,3.91 -7.93,8.25 -11.25,13.02 -3.33,4.78 -6.39,9.84 -9.06,15.2 -2.66,5.35 -5.12,10.63 -7.26,15.84 -1.33,3.18 -2.46,6.51 -3.39,9.99 -0.93,3.47 -2.06,6.94 -3.47,10.41 -0.53,1.44 -0.99,2.82 -1.4,4.12 -0.39,1.31 -0.73,2.68 -1,4.13l-0.8 4.33 0 0.43c0.4,0 0.74,-0.29 0.93,-0.87 0.2,-0.58 0.27,-1.01 0.27,-1.3 0.53,-2.31 1.26,-4.63 2.2,-6.94 0.93,-2.32 1.8,-4.63 2.6,-6.94 0.8,-2.03 2.06,-5.07 3.79,-9.12 1.73,-4.04 3.59,-8.18 5.59,-12.36 1.99,-4.2 4,-8.11 5.99,-11.72 1.99,-3.62 3.66,-6.15 5,-7.6zm27.56 -18.66c0.27,0 0.53,-0.14 0.8,-0.43 0.27,-0.29 0.27,-0.58 0,-0.87 -3.73,0.29 -7.32,1.95 -10.78,4.99 -3.46,3.04 -6.72,6.65 -9.78,10.85 -3.06,4.2 -5.8,8.61 -8.19,13.24 -2.4,4.62 -4.26,8.68 -5.59,12.15l-6.39 16.05c-1.06,2.9 -1.72,5.07 -1.99,6.51l-0.8 3.48 0 0.43c1.33,0 1.99,-0.8 1.99,-2.39 0,-1.59 0.27,-2.97 0.8,-4.12 1.34,-3.19 2.67,-6.15 4,-8.9 1.34,-2.75 2.67,-5.72 4,-8.9 1.34,-3.19 3.2,-7.02 5.59,-11.5 2.4,-4.49 5,-8.83 7.79,-13.03 2.79,-4.19 5.79,-7.95 8.99,-11.28 3.19,-3.33 6.38,-5.43 9.58,-6.3zm-11.58 20.83c-1.6,0 -3.26,1.6 -4.99,4.78 -1.73,3.19 -2.87,5.5 -3.4,6.94 -0.27,0.58 -0.47,1.31 -0.6,2.18 -0.13,0.87 -0.34,1.59 -0.61,2.17 0,0.87 0,1.3 0,1.3 0.27,0 0.54,-0.36 0.8,-1.08 0.27,-0.72 0.4,-1.23 0.4,-1.52 0.53,-1.44 1.46,-3.04 2.79,-4.78 1.33,-1.73 2.4,-3.32 3.2,-4.78l3.2 -3.9 0.4 -1.31 -1.2 0zm0 118.92c0,-0.29 -0.27,-0.43 -0.8,-0.43 -0.53,0 -0.93,0 -1.19,0 -1.07,-0.58 -2.07,-1.01 -2.99,-1.3 -0.93,-0.29 -1.8,-0.72 -2.6,-1.31l-0.4 -0.87c-1.33,-0.87 -2.13,-2.39 -2.4,-4.55 -0.26,-2.17 -1.06,-3.25 -2.4,-3.25l-0.39 0.87c0,3.77 1.46,6.94 4.39,9.55 0.27,0 1.27,0.29 3,0.87 1.72,0.58 2.86,0.87 3.39,0.87l1.99 0 0.4 -0.43zm47.14 -141.92c-6.92,4.04 -13.58,10.7 -19.97,19.96 -6.39,9.25 -12.11,19.46 -17.18,30.59 -5.06,11.14 -9.12,22.43 -12.18,33.86 -3.06,11.43 -4.59,21.34 -4.59,29.73 0,7.24 0.93,13.75 2.79,19.54 4.27,-1.17 8.39,-4.85 12.38,-11.07 4,-6.22 7.72,-13.81 11.19,-22.78 3.46,-8.97 6.65,-18.74 9.58,-29.29 2.94,-10.56 5.59,-20.62 7.99,-30.17 2.4,-9.54 4.47,-17.94 6.19,-25.17 1.73,-7.23 2.99,-12.3 3.79,-15.19zm23.57 61.2c-1.07,-6.08 -1.4,-12.59 -0.99,-19.53 0.39,-6.95 0.6,-13.61 0.6,-19.97l-0.4 -0.87 0 -0.43 -0.39 0 0 0.43 -0.4 1.3c-0.27,1.45 -0.53,3.04 -0.8,4.78 -0.27,1.73 -0.39,3.33 -0.39,4.78l0 13.89c0,1.73 0.13,3.83 0.39,6.3 0.27,2.46 0.66,4.55 1.2,6.29 0.26,0.58 0.33,1.3 0.2,2.18 -0.13,0.87 0.06,1.3 0.6,1.3l0.39 0 0 -0.43zm0 -72.05c-2.93,8.68 -5.12,17.22 -6.59,25.6 -1.46,8.4 -2.21,17.22 -2.21,26.47 0,2.32 -0.07,4.56 -0.19,6.73 -0.13,2.17 -0.07,4.41 0.19,6.73 0.54,6.37 1,12.59 1.41,18.66 0.39,6.08 0.99,12.3 1.79,18.66l0.8 9.54 0.8 4.78 0 0.43c0.54,0 0.73,-0.29 0.6,-0.87 -0.13,-0.58 -0.19,-1.01 -0.19,-1.3l-0.4 -7.82c-0.53,-6.64 -0.92,-13.52 -1.19,-20.61 -0.27,-7.1 -0.4,-13.96 -0.4,-20.62l0 -20.84c0,-7.23 0.61,-14.68 1.8,-22.35 1.19,-7.67 2.47,-14.97 3.79,-21.92 0.27,0 0.4,-0.43 0.4,-1.3l-0.4 0zm10.39 17.36l-0.4 -1.3 0 0.43 -0.39 1.3 -0.73 2.6c-0.47,4.05 -1,8.32 -1.6,12.81 -0.6,4.49 -0.87,8.9 -0.87,13.24l0 9.98c0,2.61 0.07,6.22 0.2,10.85 0.13,4.63 0.33,9.4 0.73,14.32 0.33,4.92 0.87,9.55 1.46,13.89 0.6,4.34 1.26,7.53 1.99,9.55l0 -1.73 -0.39 -85.93z"/>
  </g>
 </g>
</svg>
