<?xml version="1.0" encoding="UTF-8"?>
<!DOCTYPE svg PUBLIC "-//W3C//DTD SVG 1.1//EN" "http://www.w3.org/Graphics/SVG/1.1/DTD/svg11.dtd">
<!-- Creator: CorelDRAW 2020 (64-Bit) -->
<svg xmlns="http://www.w3.org/2000/svg" xml:space="preserve" width="33.8666mm" height="18.834mm" version="1.1" style="shape-rendering:geometricPrecision; text-rendering:geometricPrecision; image-rendering:optimizeQuality; fill-rule:evenodd; clip-rule:evenodd"
viewBox="0 0 441.84 245.72"
 xmlns:xlink="http://www.w3.org/1999/xlink"
 xmlns:xodm="http://www.corel.com/coreldraw/odm/2003">
 <defs>
  <style type="text/css">
   <![CDATA[
    .fil0 {fill:#00AFEF}
    .fil4 {fill:#00AFEF;fill-rule:nonzero}
    .fil1 {fill:#3E4095;fill-rule:nonzero}
    .fil2 {fill:url(#id0);fill-rule:nonzero}
    .fil5 {fill:url(#id1);fill-rule:nonzero}
    .fil3 {fill:url(#id2);fill-rule:nonzero}
   ]]>
  </style>
  <linearGradient id="id0" gradientUnits="userSpaceOnUse" x1="365.15" y1="91.09" x2="333.99" y2="56.54">
   <stop offset="0" style="stop-opacity:1; stop-color:#3E4095"/>
   <stop offset="1" style="stop-opacity:1; stop-color:#00AFEF"/>
  </linearGradient>
  <radialGradient id="id1" gradientUnits="userSpaceOnUse" gradientTransform="matrix(0.281465 -0 -0 1.04166 160 -3)" cx="222.36" cy="77.13" r="205.83" fx="222.36" fy="77.13">
   <stop offset="0" style="stop-opacity:1; stop-color:#00AFEF"/>
   <stop offset="1" style="stop-opacity:1; stop-color:#3E4095"/>
  </radialGradient>
  <radialGradient id="id2" gradientUnits="userSpaceOnUse" gradientTransform="matrix(0.919897 -0 -0 1.13636 8 -11)" xlink:href="#id1" cx="104.92" cy="80.34" r="190.69" fx="104.92" fy="80.34">
  </radialGradient>
 </defs>
 <g id="Capa_x0020_1">
  <metadata id="CorelCorpID_0Corel-Layer"/>
  <g id="_2069273698176">
   <path class="fil0" d="M441.84 178.96c-41.08,-23.82 -124.59,-40.12 -220.92,-40.12 -96.33,0 -179.84,16.3 -220.92,40.12 45.32,-19.66 127.31,-32.79 220.92,-32.79 93.62,0 175.6,13.13 220.92,32.79z"/>
   <path class="fil1" d="M98.38 13.32c4.44,0 8.46,1.8 11.37,4.71 2.91,2.91 4.71,6.93 4.71,11.38 0,4.44 -1.8,8.46 -4.71,11.37 -2.91,2.91 -6.93,4.71 -11.37,4.71 -4.44,0 -8.46,-1.8 -11.38,-4.71 -2.91,-2.91 -4.71,-6.93 -4.71,-11.37 0,-4.44 1.8,-8.46 4.71,-11.38 2.91,-2.91 6.93,-4.71 11.38,-4.71zm6.44 9.65c-1.65,-1.65 -3.92,-2.67 -6.44,-2.67 -2.52,0 -4.79,1.02 -6.44,2.67 -1.65,1.65 -2.67,3.93 -2.67,6.44 0,2.52 1.02,4.79 2.67,6.44 1.65,1.65 3.93,2.67 6.44,2.67 2.52,0 4.79,-1.02 6.44,-2.67 1.65,-1.65 2.67,-3.93 2.67,-6.44 0,-2.52 -1.02,-4.79 -2.67,-6.44zm-41.11 71.31l0 -9.61c-3.07,2.14 -5.71,4.85 -7.76,7.99 -2.97,4.55 -4.69,9.99 -4.69,15.84 0,8.01 3.25,15.26 8.49,20.5 5.25,5.25 12.5,8.49 20.5,8.49 8.01,0 15.26,-3.25 20.5,-8.49 5.25,-5.25 8.49,-12.5 8.49,-20.5 0,-6.52 -2.14,-12.53 -5.76,-17.37 -0.34,-0.29 -0.62,-0.65 -0.83,-1.05 -3.25,-3.95 -7.53,-7.03 -12.42,-8.82l0 13.03c0,3.63 -1.49,6.94 -3.89,9.35l-0.02 0.02c-2.41,2.4 -5.72,3.89 -9.36,3.89 -3.53,0 -6.76,-1.41 -9.15,-3.69 -0.08,-0.07 -0.15,-0.13 -0.23,-0.21 -2.4,-2.4 -3.89,-5.72 -3.89,-9.37zm0 -17.72l0 -8.64c0,-2.15 0.52,-4.18 1.44,-5.99 0.95,-1.86 2.33,-3.47 4.01,-4.7 0.82,-0.61 11.89,-5.47 18.73,-8.48 2.87,-1.26 4.98,-2.19 5.09,-2.24 0.49,-0.24 1,-0.35 1.51,-0.35l0 -0.01c3.65,0 6.97,1.49 9.37,3.89 0.07,0.07 0.14,0.15 0.21,0.22 2.28,2.39 3.69,5.62 3.69,9.15l0 25.58 21.63 0c0.15,0 0.29,0.01 0.43,0.03 3.75,0.34 6.67,1.65 8.84,3.82 2.14,2.15 3.42,5.02 3.93,8.54l7.71 32.09c0.82,3.26 0.24,6.55 -1.35,9.24 -1.6,2.71 -4.24,4.81 -7.53,5.65 -3.28,0.84 -6.6,0.27 -9.31,-1.33 -2.7,-1.6 -4.81,-4.24 -5.65,-7.53l-6.68 -26.05 -3.57 0c-0.25,9.55 -4.22,18.18 -10.52,24.48 -6.51,6.51 -15.5,10.54 -25.44,10.54 -9.93,0 -18.93,-4.03 -25.44,-10.54 -6.51,-6.51 -10.54,-15.5 -10.54,-25.44 0,-7.23 2.15,-13.98 5.84,-19.63 3.38,-5.18 8.07,-9.44 13.59,-12.31zm6.98 -8.64l0 26.36c0,1.73 0.71,3.3 1.85,4.44l0.14 0.15c1.12,1.05 2.63,1.7 4.29,1.7 1.74,0 3.31,-0.7 4.44,-1.84l0.01 -0.01c1.13,-1.13 1.84,-2.7 1.84,-4.44l0 -17.62c0,-1.93 1.56,-3.49 3.49,-3.49 0.36,0 0.7,0.05 1.03,0.16 4.75,1.01 9.15,2.96 13,5.64l0 -19.55c0,-1.66 -0.65,-3.17 -1.7,-4.29l-0.15 -0.14c-1,-1 -2.32,-1.66 -3.78,-1.82 -0.94,0.42 -2.52,1.11 -4.45,1.96 -6.58,2.9 -17.24,7.58 -17.43,7.71 -0.79,0.58 -1.45,1.36 -1.91,2.25 -0.43,0.85 -0.68,1.81 -0.68,2.83zm41.52 24.05c1.68,3.24 2.88,6.77 3.51,10.49l6.75 0 0 0.01c1.55,-0 2.97,1.05 3.37,2.62l7.36 28.68c0.36,1.41 1.28,2.55 2.46,3.25 1.19,0.7 2.63,0.96 4.04,0.59 1.41,-0.36 2.55,-1.28 3.25,-2.46 0.7,-1.17 0.95,-2.6 0.6,-4l-7.73 -32.15c-0.06,-0.18 -0.1,-0.37 -0.13,-0.56 -0.29,-2.06 -0.94,-3.65 -1.98,-4.69 -0.98,-0.98 -2.44,-1.58 -4.46,-1.77l-17.05 0z"/>
   <path class="fil2" d="M329.04 92.13l-25.6 39.49c-0.59,0.91 -0.75,2 -0.54,3.01 0.2,0.95 0.75,1.83 1.58,2.42 1.13,0.52 2.33,0.68 3.4,0.45 0.91,-0.19 1.72,-0.7 2.26,-1.54l23.68 -36.44 -4.79 -7.39zm-31.43 35.7l27.32 -42.13c-0.8,-1.39 -1.38,-2.7 -1.78,-4.21l-6.86 8.81c-3.42,4.39 -7.49,5.41 -11.13,4.45 -1.52,-0.4 -2.93,-1.16 -4.13,-2.17 -1.15,-0.96 -2.14,-2.17 -2.89,-3.5 -2.12,-3.78 -2.4,-8.71 0.68,-12.61l29.21 -36.88c0.13,-0.17 0.28,-0.32 0.44,-0.46 1.3,-2.57 3.33,-4.67 5.78,-6.07 2.68,-1.52 5.86,-2.21 9.12,-1.75l0.26 0.04c3.83,0.61 7.09,2.7 9.27,5.58 0.59,0.79 1.11,1.64 1.53,2.54 0.31,0.16 0.59,0.36 0.85,0.61l31.25 30.67c0.9,0.88 1.66,1.95 2.24,3.12 0.91,1.82 1.39,3.89 1.33,5.85 -0.07,2.22 -0.82,4.35 -2.39,5.95 -0.52,0.53 -1.11,0.99 -1.78,1.36 -2.26,1.69 -4.95,2.62 -7.6,2.61 -2.76,-0.01 -5.45,-1 -7.59,-3.14l-18 -18.06 -2.31 16.42 27.85 42.96c1.64,2.54 2.1,5.5 1.52,8.24 -0.58,2.74 -2.22,5.27 -4.75,6.91l-0.05 0.03c-2.53,1.62 -5.47,2.07 -8.19,1.49 -2.74,-0.58 -5.27,-2.22 -6.91,-4.75l-21.94 -33.84 -21.99 33.84c-1.63,2.5 -4.01,4 -6.65,4.56 -2.58,0.55 -5.41,0.17 -7.97,-1.06 -0.18,-0.08 -0.36,-0.17 -0.53,-0.28 -2.53,-1.64 -4.16,-4.17 -4.75,-6.91 -0.58,-2.74 -0.12,-5.7 1.52,-8.24zm42.74 -31.05c0.5,0.44 0.86,1 1.04,1.61l24.36 37.57c0.59,0.92 1.51,1.51 2.52,1.72 1.01,0.21 2.09,0.05 3.01,-0.54 0.92,-0.59 1.51,-1.52 1.72,-2.52 0.22,-1.01 0.05,-2.09 -0.54,-3.01l-28.5 -43.95c-0.49,-0.7 -0.73,-1.57 -0.6,-2.48l3.32 -23.6c-0.18,-0.8 -0.06,-1.66 0.34,-2.4l1.76 -12.5c0.29,-2.04 -0.29,-4.01 -1.44,-5.55 -1.13,-1.49 -2.79,-2.57 -4.75,-2.9 -0.12,-0.01 -0.24,-0.03 -0.36,-0.05 -0.44,-0.05 -0.88,-0.06 -1.31,-0.04 0.88,0.53 1.68,1.18 2.38,1.96 1.19,1.33 2.07,2.99 2.45,4.91 0.65,3.26 -0.11,7.27 -3.2,11.64 -0.65,0.91 -1.33,1.75 -2.08,2.59l-10.49 13.46 -0.29 2.06c-0.19,2.22 -0.14,3.72 0.17,4.93 0.3,1.19 0.93,2.33 1.86,3.78l8.62 13.3zm-16.54 -27.44c0.07,-0.1 0.15,-0.2 0.23,-0.29l10.95 -14.06c0.09,-0.13 0.19,-0.26 0.3,-0.38 0.62,-0.7 1.27,-1.47 1.79,-2.25 0.55,-0.8 0.97,-1.56 1.27,-2.26 0.1,-0.22 0.19,-0.46 0.26,-0.68 0.4,-1.16 0.47,-2.17 0.3,-3.02 -0.13,-0.65 -0.41,-1.19 -0.79,-1.61 -0.39,-0.44 -0.89,-0.76 -1.45,-0.96 -0.15,-0.05 -0.3,-0.1 -0.45,-0.13l-0.04 -0.01c-0.97,-0.2 -2.05,-0.03 -2.99,0.6l-0.03 0.02 -28.9 36.48c-1.11,1.41 -0.93,3.34 -0.05,4.89 0.34,0.61 0.78,1.15 1.28,1.57 0.45,0.38 0.94,0.65 1.44,0.78 1.1,0.29 2.48,-0.2 3.88,-2l13 -16.69zm31.56 -19.42l-1.39 9.89 21.72 21.79c0.75,0.75 1.69,1.1 2.65,1.1 1.15,0 2.36,-0.43 3.42,-1.23 0.11,-0.1 0.24,-0.2 0.37,-0.28 0.12,-0.08 0.25,-0.15 0.38,-0.22 0.11,-0.05 0.19,-0.11 0.24,-0.17 0.25,-0.26 0.38,-0.73 0.4,-1.29 0.03,-0.82 -0.19,-1.72 -0.59,-2.53 -0.24,-0.48 -0.54,-0.91 -0.9,-1.26l-26.29 -25.81zm-6.12 -49.92c4.16,0 7.92,1.69 10.64,4.41 2.72,2.72 4.41,6.49 4.41,10.64 0,4.16 -1.68,7.92 -4.41,10.64 -2.72,2.72 -6.49,4.41 -10.64,4.41 -4.16,0 -7.92,-1.68 -10.64,-4.41 -2.72,-2.72 -4.41,-6.49 -4.41,-10.64 0,-4.16 1.69,-7.92 4.41,-10.64 2.72,-2.72 6.49,-4.41 10.64,-4.41zm5.71 9.34c-1.46,-1.46 -3.48,-2.36 -5.71,-2.36 -2.23,0 -4.25,0.9 -5.71,2.36 -1.46,1.46 -2.36,3.48 -2.36,5.71 0,2.23 0.9,4.25 2.36,5.71 1.46,1.46 3.48,2.36 5.71,2.36 2.23,0 4.25,-0.9 5.71,-2.36 1.46,-1.46 2.36,-3.48 2.36,-5.71 0,-2.23 -0.9,-4.25 -2.36,-5.71zm-12.4 47.32l-0.01 0.02 0.01 -0.02z"/>
   <path class="fil3" d="M98.38 13.32c4.44,0 8.46,1.8 11.37,4.71 2.91,2.91 4.71,6.93 4.71,11.38 0,4.44 -1.8,8.46 -4.71,11.37 -2.91,2.91 -6.93,4.71 -11.37,4.71 -4.44,0 -8.46,-1.8 -11.38,-4.71 -2.91,-2.91 -4.71,-6.93 -4.71,-11.37 0,-4.44 1.8,-8.46 4.71,-11.38 2.91,-2.91 6.93,-4.71 11.38,-4.71zm6.44 9.65c-1.65,-1.65 -3.92,-2.67 -6.44,-2.67 -2.52,0 -4.79,1.02 -6.44,2.67 -1.65,1.65 -2.67,3.93 -2.67,6.44 0,2.52 1.02,4.79 2.67,6.44 1.65,1.65 3.93,2.67 6.44,2.67 2.52,0 4.79,-1.02 6.44,-2.67 1.65,-1.65 2.67,-3.93 2.67,-6.44 0,-2.52 -1.02,-4.79 -2.67,-6.44zm-41.11 71.31l0 -9.61c-3.07,2.14 -5.71,4.85 -7.76,7.99 -2.97,4.55 -4.69,9.99 -4.69,15.84 0,8.01 3.25,15.26 8.49,20.5 5.25,5.25 12.5,8.49 20.5,8.49 8.01,0 15.26,-3.25 20.5,-8.49 5.25,-5.25 8.49,-12.5 8.49,-20.5 0,-6.52 -2.14,-12.53 -5.76,-17.37 -0.34,-0.29 -0.62,-0.65 -0.83,-1.05 -3.25,-3.95 -7.53,-7.03 -12.42,-8.82l0 13.03c0,3.63 -1.49,6.94 -3.89,9.35l-0.02 0.02c-2.41,2.4 -5.72,3.89 -9.36,3.89 -3.53,0 -6.76,-1.41 -9.15,-3.69 -0.08,-0.07 -0.15,-0.13 -0.23,-0.21 -2.4,-2.4 -3.89,-5.72 -3.89,-9.37zm0 -17.72l0 -8.64c0,-2.15 0.52,-4.18 1.44,-5.99 0.95,-1.86 2.33,-3.47 4.01,-4.7 0.82,-0.61 11.89,-5.47 18.73,-8.48 2.87,-1.26 4.98,-2.19 5.09,-2.24 0.49,-0.24 1,-0.35 1.51,-0.35l0 -0.01c3.65,0 6.97,1.49 9.37,3.89 0.07,0.07 0.14,0.15 0.21,0.22 2.28,2.39 3.69,5.62 3.69,9.15l0 25.58 21.63 0c0.15,0 0.29,0.01 0.43,0.03 3.75,0.34 6.67,1.65 8.84,3.82 2.14,2.15 3.42,5.02 3.93,8.54l7.71 32.09c0.82,3.26 0.24,6.55 -1.35,9.24 -1.6,2.71 -4.24,4.81 -7.53,5.65 -3.28,0.84 -6.6,0.27 -9.31,-1.33 -2.7,-1.6 -4.81,-4.24 -5.65,-7.53l-6.68 -26.05 -3.57 0c-0.25,9.55 -4.22,18.18 -10.52,24.48 -6.51,6.51 -15.5,10.54 -25.44,10.54 -9.93,0 -18.93,-4.03 -25.44,-10.54 -6.51,-6.51 -10.54,-15.5 -10.54,-25.44 0,-7.23 2.15,-13.98 5.84,-19.63 3.38,-5.18 8.07,-9.44 13.59,-12.31zm6.98 -8.64l0 26.36c0,1.73 0.71,3.3 1.85,4.44l0.14 0.15c1.12,1.05 2.63,1.7 4.29,1.7 1.74,0 3.31,-0.7 4.44,-1.84l0.01 -0.01c1.13,-1.13 1.84,-2.7 1.84,-4.44l0 -17.62c0,-1.93 1.56,-3.49 3.49,-3.49 0.36,0 0.7,0.05 1.03,0.16 4.75,1.01 9.15,2.96 13,5.64l0 -19.55c0,-1.66 -0.65,-3.17 -1.7,-4.29l-0.15 -0.14c-1,-1 -2.32,-1.66 -3.78,-1.82 -0.94,0.42 -2.52,1.11 -4.45,1.96 -6.58,2.9 -17.24,7.58 -17.43,7.71 -0.79,0.58 -1.45,1.36 -1.91,2.25 -0.43,0.85 -0.68,1.81 -0.68,2.83zm41.52 24.05c1.68,3.24 2.88,6.77 3.51,10.49l6.75 0 0 0.01c1.55,-0 2.97,1.05 3.37,2.62l7.36 28.68c0.36,1.41 1.28,2.55 2.46,3.25 1.19,0.7 2.63,0.96 4.04,0.59 1.41,-0.36 2.55,-1.28 3.25,-2.46 0.7,-1.17 0.95,-2.6 0.6,-4l-7.73 -32.15c-0.06,-0.18 -0.1,-0.37 -0.13,-0.56 -0.29,-2.06 -0.94,-3.65 -1.98,-4.69 -0.98,-0.98 -2.44,-1.58 -4.46,-1.77l-17.05 0z"/>
   <path class="fil4" d="M48.74 245.5l2.23 0 0 -5.16 6.39 0 0 -2.03 -6.39 0 0 -3.46 7.21 0 0 -2.03 -9.44 0 0 12.68zm31.41 0l2.23 0 0 -12.68 -2.23 0 0 12.68zm29.46 0.18c2.66,0 4.53,-1.41 4.53,-3.78l0 -0.04c0,-2.1 -1.39,-3.06 -4.07,-3.71 -2.43,-0.58 -3.01,-1.01 -3.01,-1.99l0 -0.04c0,-0.83 0.76,-1.5 2.06,-1.5 1.16,0 2.3,0.45 3.44,1.3l1.2 -1.68c-1.29,-1.03 -2.75,-1.59 -4.6,-1.59 -2.52,0 -4.33,1.5 -4.33,3.68l0 0.04c0,2.34 1.52,3.13 4.22,3.78 2.35,0.54 2.86,1.03 2.86,1.94l0 0.04c0,0.96 -0.87,1.59 -2.25,1.59 -1.58,0 -2.79,-0.6 -4,-1.65l-1.34 1.59c1.52,1.36 3.35,2.03 5.29,2.03zm26.69 -0.18l2.23 0 0 -12.68 -2.23 0 0 12.68zm31.07 0.22c3.89,0 6.65,-2.99 6.65,-6.56l0 -0.04c0,-3.57 -2.72,-6.52 -6.61,-6.52 -3.89,0 -6.65,2.99 -6.65,6.56l0 0.04c0,3.57 2.72,6.52 6.61,6.52zm0.04 -2.05c-2.52,0 -4.31,-2.05 -4.31,-4.51l0 -0.04c0,-2.46 1.76,-4.47 4.27,-4.47 2.52,0 4.31,2.05 4.31,4.51l0 0.04c0,2.46 -1.76,4.47 -4.27,4.47zm31.14 1.83l2.25 0 0 -10.61 4.02 0 0 -2.06 -10.29 0 0 2.06 4.02 0 0 10.61zm28.03 0l9.49 0 0 -1.99 -7.26 0 0 -3.41 6.36 0 0 -1.99 -6.36 0 0 -3.3 7.17 0 0 -1.99 -9.4 0 0 12.68zm31.54 0l2.23 0 0 -4.42 2.79 0 3.12 4.42 2.63 0 -3.42 -4.8c1.77,-0.51 3.02,-1.76 3.02,-3.84l0 -0.04c0,-1.11 -0.38,-2.05 -1.05,-2.73 -0.82,-0.8 -2.06,-1.27 -3.66,-1.27l-5.65 0 0 12.68zm2.23 -6.39l0 -4.26 3.24 0c1.65,0 2.63,0.74 2.63,2.1l0 0.04c0,1.29 -1.01,2.12 -2.61,2.12l-3.26 0zm29.19 6.39l2.28 0 1.3 -3.06 5.99 0 1.29 3.06 2.35 0 -5.58 -12.77 -2.06 0 -5.58 12.77zm4.4 -5.03l2.17 -5.07 2.19 5.07 -4.36 0zm30.4 5.03l2.23 0 0 -4.08 2.52 0c2.79,0 5.07,-1.48 5.07,-4.33l0 -0.04c0,-2.55 -1.86,-4.24 -4.82,-4.24l-5 0 0 12.68zm2.23 -6.08l0 -4.56 2.59 0c1.67,0 2.73,0.78 2.73,2.26l0 0.04c0,1.32 -1.05,2.26 -2.73,2.26l-2.59 0zm29.4 6.08l2.23 0 0 -12.68 -2.23 0 0 12.68zm23.93 0l2.28 0 1.3 -3.06 5.99 0 1.29 3.06 2.35 0 -5.58 -12.77 -2.07 0 -5.58 12.77zm4.4 -5.03l2.17 -5.07 2.19 5.07 -4.36 0z"/>
   <path class="fil5" d="M232.4 14.72c4.44,0 8.46,1.8 11.38,4.71 2.91,2.91 4.71,6.93 4.71,11.37 0,4.44 -1.8,8.46 -4.71,11.38 -2.91,2.91 -6.93,4.71 -11.38,4.71 -4.44,0 -8.46,-1.8 -11.37,-4.71 -2.91,-2.91 -4.71,-6.93 -4.71,-11.38 0,-4.44 1.8,-8.46 4.71,-11.37 2.91,-2.91 6.93,-4.71 11.37,-4.71zm6.44 9.65c-1.65,-1.65 -3.93,-2.67 -6.44,-2.67 -2.52,0 -4.79,1.02 -6.44,2.67 -1.65,1.65 -2.67,3.92 -2.67,6.44 0,2.52 1.02,4.79 2.67,6.44 1.65,1.65 3.92,2.67 6.44,2.67 2.52,0 4.79,-1.02 6.44,-2.67 1.65,-1.65 2.67,-3.93 2.67,-6.44 0,-2.52 -1.02,-4.79 -2.67,-6.44zm-43.81 113.4c0.98,0 1.85,-0.35 2.47,-0.92 0.54,-0.5 0.88,-1.17 0.88,-1.89l0 -52.44c0,-0.68 0.19,-1.31 0.53,-1.85l11.28 -20.93c0.91,-1.69 3.02,-2.33 4.72,-1.42 0.48,0.26 0.88,0.61 1.18,1.03l23.74 28.52c0.74,0.89 1.71,1.02 2.57,0.71 0.46,-0.17 0.93,-0.45 1.36,-0.82 0.42,-0.36 0.79,-0.8 1.06,-1.29 0.58,-1.03 0.67,-2.29 -0.22,-3.34l-30.54 -35.99c-0.2,-0.23 -0.45,-0.4 -0.72,-0.51 -0.38,-0.15 -0.83,-0.21 -1.3,-0.19 -0.11,0.01 -0.22,0 -0.33,0l-0.03 -0c-0.61,-0.02 -1.18,0.1 -1.66,0.36 -0.41,0.22 -0.76,0.55 -1,0.98 -0.38,0.71 -1.85,3.32 -3.71,6.62 -4.94,8.76 -12.88,22.85 -13.54,24.94l-0.08 24.66 0.01 0 0 30.96c0,0.72 0.34,1.39 0.88,1.89 0.62,0.57 1.49,0.92 2.47,0.92zm0 6.98c-2.78,0 -5.33,-1.06 -7.18,-2.78 -1.94,-1.78 -3.14,-4.26 -3.14,-7.01l0 -30.96 0.01 0 0.08 -24.86c-0.02,-0.26 -0,-0.52 0.04,-0.79 0.44,-2.6 9.08,-17.92 14.4,-27.36 1.56,-2.76 2.81,-4.98 3.63,-6.51 0.9,-1.67 2.25,-2.96 3.86,-3.82 1.55,-0.83 3.33,-1.24 5.13,-1.18 1.36,-0.05 2.74,0.17 4.03,0.69 1.32,0.52 2.52,1.34 3.48,2.47l30.54 35.99c3.09,3.64 2.88,7.87 0.98,11.24l-0.02 0.04c0.99,0.55 1.89,1.24 2.68,2.03 2.21,2.21 3.58,5.26 3.58,8.62l0 40.68c0,1.93 -1.56,3.49 -3.49,3.49 -1.93,0 -3.49,-1.56 -3.49,-3.49l0 -40.68c0,-1.43 -0.59,-2.74 -1.54,-3.69 -0.95,-0.95 -2.26,-1.54 -3.69,-1.54 -1.43,0 -2.74,0.59 -3.69,1.54 -0.95,0.95 -1.54,2.25 -1.54,3.69 0,1.93 -1.56,3.49 -3.49,3.49 -1.93,0 -3.49,-1.56 -3.49,-3.49 0,-2.79 0.95,-5.36 2.53,-7.42 -0.26,-0.26 -0.52,-0.53 -0.77,-0.84l-20.6 -24.75 -8.52 15.82 0 51.57c0,2.74 -1.2,5.23 -3.14,7.01 -1.86,1.71 -4.4,2.78 -7.18,2.78z"/>
   <g>
    <path class="fil1" d="M59.72 187.05l0 0.07 0 -0.07zm18.62 -8.4c0,1.57 -0.02,3.12 -0.06,4.67 -0.04,1.54 -0.08,3.1 -0.12,4.67l0 -0.4c0,0.89 0,2.16 0,3.8 0,1.63 0,3.48 0,5.54 0,2.06 0,4.22 0,6.48 0,2.26 -0.02,4.45 -0.06,6.55 -0.04,2.11 -0.09,4.05 -0.16,5.85 -0.06,1.79 -0.15,3.2 -0.28,4.23l-0.62 0.87c-0.37,0.13 -0.74,0.2 -1.11,0.2 -0.99,0 -2.01,-0.29 -3.06,-0.87 -1.05,-0.58 -1.85,-1.32 -2.38,-2.22 0.04,-0.18 0.09,-0.38 0.16,-0.61 0.06,-0.22 0.17,-0.38 0.34,-0.47 0,-5.38 -0.03,-10.79 -0.09,-16.23 -0.06,-5.44 0.12,-10.83 0.56,-16.16 -0.25,0.09 -0.59,0.4 -1.02,0.94 -0.43,0.54 -0.95,1.19 -1.55,1.95 -0.61,0.76 -1.24,1.58 -1.9,2.45 -0.66,0.87 -1.32,1.67 -1.98,2.38 -0.66,0.72 -1.29,1.32 -1.89,1.81 -0.61,0.49 -1.13,0.74 -1.59,0.74 -0.33,0 -0.69,-0.06 -1.08,-0.17 -0.39,-0.11 -0.75,-0.28 -1.08,-0.5 -0.33,-0.22 -0.58,-0.49 -0.74,-0.81 -0.17,-0.31 -0.17,-0.67 0,-1.08 -0.25,-0.4 -0.5,-0.81 -0.74,-1.21 -0.25,-0.4 -0.47,-0.83 -0.68,-1.28l0.12 0.13c-0.58,-1.21 -1.19,-2.41 -1.8,-3.6 -0.62,-1.19 -1.22,-2.36 -1.79,-3.53 -0.04,0.89 -0.07,1.76 -0.09,2.59 -0.02,0.83 -0.03,1.69 -0.03,2.59l0 -0.4c0,0.89 0,2.16 0,3.8 0,1.63 0,3.48 0,5.54 0,2.06 0,4.22 0,6.48 0,2.26 -0.02,4.45 -0.06,6.55 -0.04,2.11 -0.09,4.05 -0.16,5.85 -0.06,1.79 -0.15,3.2 -0.28,4.23l-0.61 0.87c-0.37,0.13 -0.73,0.2 -1.1,0.2 -0.98,0 -1.99,-0.29 -3.04,-0.87 -1.04,-0.58 -1.83,-1.32 -2.36,-2.22 0.04,-0.18 0.09,-0.38 0.15,-0.61 0.06,-0.22 0.18,-0.38 0.34,-0.47 0,-0.99 0,-2.79 0,-5.41 0,-2.62 0.01,-5.62 0.03,-9 0.02,-3.38 0.07,-6.92 0.15,-10.62 0.08,-3.7 0.2,-7.15 0.34,-10.35 0.14,-3.2 0.34,-5.94 0.59,-8.2 0.25,-2.26 0.56,-3.62 0.93,-4.07l0.68 -0.2c0,-0.09 0.06,-0.14 0.19,-0.14 0.12,0 0.21,-0.04 0.25,-0.13l0.68 0c0.25,0 0.57,0.1 0.96,0.3 0.39,0.2 0.67,0.41 0.83,0.64l0.06 0.2c0.29,0.22 0.56,0.47 0.8,0.74 0.25,0.27 0.43,0.58 0.56,0.94 0.21,0.49 0.36,1.02 0.46,1.58 0.1,0.56 0.24,1.09 0.4,1.58 1.4,4.21 3.18,8.29 5.32,12.23l-0.12 -0.13c0.21,0.36 0.39,0.73 0.56,1.11 0.17,0.38 0.35,0.75 0.56,1.11 0.41,-0.58 0.79,-1.15 1.14,-1.71 0.35,-0.56 0.71,-1.13 1.08,-1.71 1.53,-2.42 2.99,-4.83 4.39,-7.22 1.4,-2.4 2.74,-4.87 4.02,-7.43 0.16,-0.36 0.49,-0.54 0.99,-0.54l0.06 -0.07c0.04,-0.22 0.12,-0.43 0.25,-0.61 0.12,-0.18 0.25,-0.36 0.37,-0.54l0.68 -0.2c0,-0.09 0.06,-0.14 0.19,-0.14 0.12,0 0.21,-0.04 0.25,-0.13l0.68 0c0.49,0 0.95,0.18 1.36,0.54 0.41,0.36 0.77,0.78 1.08,1.28 0.31,0.49 0.55,1.04 0.71,1.65 0.16,0.61 0.25,1.13 0.25,1.58l0 -0.27c0,0.85 0.02,1.69 0.06,2.52 0.04,0.83 0.06,1.67 0.06,2.52zm-30.06 26.81c-0.04,0 -0.06,0.07 -0.06,0.2 0,0.63 0.01,1.28 0.03,1.95 0.02,0.67 0.01,1.3 -0.03,1.88l0.06 0.13 0 0.07c0.04,0 0.06,-0.12 0.06,-0.37 0,-0.25 0,-0.41 0,-0.5 0.08,-0.45 0.12,-0.86 0.12,-1.24 0,-0.38 0,-0.8 0,-1.24l-0.06 -0.67 -0.06 -0.13 0 -0.07 -0.06 0zm0.74 -30.91c-0.29,1.39 -0.49,3.01 -0.62,4.87 -0.12,1.86 -0.2,3.76 -0.22,5.71 -0.02,1.95 -0.02,3.86 0,5.75 0.02,1.88 0.03,3.54 0.03,4.97l0 6.05 0.06 0.54 0 0.07 0.06 -0.07c0,-4.03 0.08,-8.03 0.25,-12 0.16,-3.96 0.25,-7.99 0.25,-12.06 0,-0.63 0.05,-1.28 0.15,-1.95 0.1,-0.67 0.11,-1.3 0.03,-1.88zm0.64 28.29l0 0.13c0,0.09 0.01,0.17 0.04,0.24 0.03,0.07 0.01,0.14 -0.04,0.23l-0.08 0.13c0,0.22 0.02,0.4 0.06,0.54l0.06 0.07 0 0.07 0.06 0 0.06 -0.27 0.06 -0.4c0,-0.09 0,-0.23 0,-0.44 0,-0.2 -0.02,-0.3 -0.06,-0.3l-0.16 0zm0.35 -16.67l0 -0.2 -0.06 0.07c-0.32,1.7 -0.49,3.56 -0.53,5.58 -0.02,2.02 -0.03,3.88 -0.03,5.58l0 1.01 0.06 0.54 0 0.07 0 -0.07 0 -0.2 0 -0.67 0 -0.13 0.06 -1.01c0,-0.36 0.01,-0.68 0.03,-0.97 0.02,-0.29 0.05,-0.62 0.09,-0.97 0.05,-0.63 0.11,-1.25 0.2,-1.88 0.07,-0.63 0.11,-1.26 0.11,-1.88l0.06 -0.13 0.06 -1.88 0 -2.42 -0.06 -0.4zm10.27 4.57c0,-0.36 -0.11,-0.68 -0.34,-0.97 -0.23,-0.29 -0.42,-0.59 -0.59,-0.91 -0.58,-1.25 -1.11,-2.52 -1.61,-3.8 -0.49,-1.28 -1.01,-2.56 -1.55,-3.86 -0.04,-0.09 -0.12,-0.29 -0.25,-0.6 -0.12,-0.31 -0.26,-0.64 -0.4,-0.97 -0.14,-0.34 -0.28,-0.64 -0.4,-0.91 -0.12,-0.27 -0.21,-0.4 -0.25,-0.4l0 0.07c0.33,1.17 0.74,2.33 1.24,3.49 0.49,1.17 0.97,2.33 1.42,3.5l0 0.13c0.49,0.85 0.92,1.76 1.27,2.72 0.35,0.96 0.81,1.83 1.39,2.59l0.06 0 0 -0.07zm12.19 -4.7c0,-0.18 -0.01,-0.54 -0.03,-1.08 -0.02,-0.54 -0.05,-0.85 -0.09,-0.94 -0.16,1.97 -0.26,3.91 -0.28,5.81 -0.02,1.9 -0.07,3.84 -0.16,5.81l0 2.62 0.06 3.09 0 1.21 0.12 1.75 0 0.87 0 0.07 0 -0.07 0.06 -0.4 -0.06 -1.08 0.06 -0.27 0 -1.61 0.12 -3.29 0.06 -2.69c0.04,-1.16 0.07,-2.31 0.09,-3.43 0.02,-1.12 0.03,-2.26 0.03,-3.43l0 -2.96zm0.19 -13.57c-0.12,0.09 -0.43,0.46 -0.93,1.11 -0.49,0.65 -1.07,1.47 -1.73,2.45 -0.66,0.99 -1.37,2.05 -2.13,3.19 -0.76,1.14 -1.47,2.23 -2.13,3.26 -0.66,1.03 -1.22,1.93 -1.67,2.69 -0.45,0.76 -0.72,1.26 -0.8,1.48l0 0.07c0.12,0 0.19,-0.09 0.19,-0.27l1.3 -2.08c0.12,-0.18 0.4,-0.58 0.83,-1.21 0.43,-0.63 0.95,-1.36 1.55,-2.18 0.6,-0.83 1.23,-1.71 1.89,-2.65 0.66,-0.94 1.26,-1.83 1.79,-2.65 0.54,-0.83 0.99,-1.53 1.36,-2.12 0.37,-0.58 0.56,-0.94 0.56,-1.08l-0.06 0zm0.93 40.72c0,-0.09 -0.04,-0.35 -0.12,-0.77 -0.08,-0.43 -0.19,-0.64 -0.31,-0.64l-0.06 0 -0.06 0.13c0,0.13 0.04,0.36 0.12,0.67 0.08,0.31 0.16,0.56 0.25,0.74 0,0.04 0.01,0.13 0.03,0.27 0.02,0.13 0.05,0.2 0.09,0.2l0.06 0 -0.06 -0.2 0.06 -0.4zm0 -24.13c-0.08,0.63 -0.16,1.27 -0.22,1.92 -0.06,0.65 -0.09,1.31 -0.09,1.98l0 14.45 0.06 0.81 0 0.07 0.06 -0.07c0,-3.18 0.04,-6.34 0.12,-9.48 0.08,-3.14 0.12,-6.29 0.12,-9.48l0 -0.2 -0.06 0zm9.03 1.01c0,0.04 -0.02,0.07 -0.06,0.07 0.04,0 0.06,-0.02 0.06,-0.07zm12.74 16.6c0,1.16 -0.09,2.38 -0.28,3.66 -0.19,1.28 -0.52,2.45 -0.99,3.53 -0.47,1.08 -1.13,1.97 -1.98,2.69 -0.85,0.72 -1.93,1.08 -3.25,1.08 -3.09,0 -5.51,-1.02 -7.24,-3.06 -1.73,-2.04 -2.6,-4.69 -2.6,-7.96l0 -0.74 0 0.34c0.04,-0.99 0.13,-2.25 0.28,-3.8 0.14,-1.55 0.36,-3.11 0.65,-4.7 0.29,-1.59 0.66,-3.09 1.11,-4.5 0.45,-1.41 1.01,-2.47 1.67,-3.19l-0.12 0.07c0.21,-0.13 0.42,-0.22 0.65,-0.27 0.23,-0.05 0.46,-0.09 0.71,-0.13 0,-0.14 -0.01,-0.28 -0.03,-0.44 -0.02,-0.16 0.01,-0.3 0.09,-0.44 0.41,-0.45 0.83,-0.76 1.24,-0.94 0.12,0 0.24,-0.01 0.34,-0.03 0.1,-0.02 0.22,-0.03 0.34,-0.03 1.9,0 3.46,0.69 4.7,2.08 1.24,1.39 2.2,3.07 2.88,5.04 0.68,1.97 1.15,4.03 1.42,6.18 0.27,2.15 0.4,4.01 0.4,5.58zm-12.31 -7.86c-0.04,0 -0.06,0.03 -0.06,0.1 0,0.07 -0.02,0.12 -0.06,0.17 -0.33,0.94 -0.46,1.88 -0.4,2.82 0.06,0.94 -0.01,1.86 -0.22,2.76l0.06 0.27 0 -0.07 0.06 -0.4c0.08,-0.54 0.13,-1.09 0.15,-1.65 0.02,-0.56 0.07,-1.11 0.16,-1.65l0.06 -0.07c-0.04,-0.4 0,-0.79 0.12,-1.18 0.12,-0.38 0.19,-0.75 0.19,-1.11l-0.06 0zm0.12 -6.32c-0.17,0.45 -0.25,0.78 -0.25,1.01 -0.33,0.89 -0.61,1.89 -0.83,2.99 -0.23,1.1 -0.42,2.23 -0.59,3.39 -0.17,1.17 -0.29,2.33 -0.37,3.5 -0.08,1.16 -0.12,2.22 -0.12,3.16 0,1.12 0.05,2.28 0.16,3.49 0.1,1.21 0.32,2.33 0.65,3.36l0 -0.07c-0.21,-1.12 -0.34,-2.21 -0.4,-3.26 -0.06,-1.05 -0.09,-2.14 -0.09,-3.26 0,-1.03 0.1,-2.1 0.31,-3.23 0.21,-1.12 0.27,-2.17 0.19,-3.16 0,0 0.07,-0.41 0.22,-1.24 0.14,-0.83 0.3,-1.72 0.46,-2.69 0.17,-0.96 0.32,-1.86 0.46,-2.69 0.14,-0.83 0.22,-1.27 0.22,-1.31zm1.24 -4.17c0,0.05 -0.02,0.07 -0.06,0.07 0.04,0 0.06,-0.02 0.06,-0.07zm0.12 -0.07l-0.06 0.07 0.06 -0.07zm5.63 13.91c0,-1.93 -0.22,-3.86 -0.65,-5.81 -0.43,-1.95 -1.04,-3.77 -1.83,-5.48l-0.49 0.2 -0.87 0c0.04,0 0.06,0.05 0.06,0.13l0.25 0.67 0 0.34 -0.06 -0.07c0,2.24 -0.14,4.47 -0.43,6.69 -0.29,2.22 -0.43,4.47 -0.43,6.75 0,1.26 0.03,2.51 0.09,3.76 0.06,1.25 0.24,2.49 0.53,3.7 0.25,-0.09 0.48,-0.23 0.71,-0.44 0.23,-0.2 0.42,-0.41 0.59,-0.64l0.06 0c0.49,-0.58 0.9,-1.29 1.21,-2.12 0.31,-0.83 0.56,-1.68 0.74,-2.55 0.19,-0.87 0.32,-1.76 0.4,-2.65 0.08,-0.9 0.12,-1.72 0.12,-2.49zm2.17 1.41c0,-0.99 -0.1,-2.04 -0.31,-3.16l-0.31 -1.21c-0.04,0 -0.06,-0.02 -0.06,-0.07 0,-0.04 -0.02,-0.07 -0.06,-0.07l0.06 0.54c0.04,-0.09 0.07,-0.09 0.09,0 0.02,0.09 0.04,0.21 0.06,0.37 0.02,0.16 0.04,0.34 0.06,0.54 0.02,0.2 0.03,0.37 0.03,0.5 0.08,0.45 0.12,0.81 0.12,1.08l0 2.76c0,0.31 -0.03,0.69 -0.09,1.14 -0.06,0.45 -0.13,0.83 -0.22,1.14 0.04,0.22 -0.02,0.63 -0.19,1.21 -0.16,0.58 -0.35,1.21 -0.56,1.88 -0.21,0.67 -0.42,1.31 -0.65,1.91 -0.23,0.61 -0.38,1.02 -0.46,1.24l0.06 0c0.04,0 0.1,-0.14 0.19,-0.4 0.08,-0.27 0.14,-0.45 0.19,-0.54 0.54,-1.57 1.01,-3.01 1.42,-4.33 0.41,-1.32 0.62,-2.83 0.62,-4.54zm0.12 6.18c0,0 -0.04,0.09 -0.12,0.27 -0.08,0.18 -0.17,0.39 -0.28,0.64 -0.1,0.25 -0.19,0.48 -0.25,0.71 -0.06,0.22 -0.09,0.36 -0.09,0.4l0.06 0 0.19 -0.47c0.08,-0.13 0.2,-0.36 0.34,-0.67 0.14,-0.31 0.22,-0.51 0.22,-0.6l0 -0.2 -0.06 -0.07zm22.39 -16.6c-1.15,3.27 -2.17,6.57 -3.06,9.91 -0.89,3.34 -1.87,6.66 -2.94,9.98 -0.21,0.72 -0.47,1.44 -0.8,2.18 -0.33,0.74 -0.7,1.42 -1.11,2.05l-0.74 0.2 0 0.07c-0.08,0.13 -0.2,0.22 -0.34,0.27 -0.14,0.04 -0.28,0.07 -0.4,0.07 -0.37,0 -0.83,-0.09 -1.36,-0.27 -0.54,-0.18 -1.05,-0.4 -1.55,-0.67 -0.49,-0.27 -0.96,-0.58 -1.39,-0.94 -0.43,-0.36 -0.73,-0.72 -0.9,-1.08 -0.66,-1.3 -1.24,-3.02 -1.73,-5.17 -0.49,-2.15 -0.91,-4.39 -1.24,-6.72 -0.33,-2.33 -0.6,-4.61 -0.8,-6.85 -0.21,-2.24 -0.33,-4.12 -0.37,-5.65l0.49 -0.6 0.19 0c0.25,0 0.59,0.05 1.02,0.17 0.43,0.11 0.87,0.27 1.3,0.47 0.43,0.2 0.83,0.44 1.18,0.71 0.35,0.27 0.57,0.54 0.65,0.81 0.74,3.05 1.41,6.2 2.01,9.48 0.6,3.27 1.12,6.45 1.58,9.54 0.08,-0.45 0.28,-1.37 0.59,-2.76 0.31,-1.39 0.68,-3 1.11,-4.84 0.43,-1.84 0.91,-3.76 1.42,-5.78 0.51,-2.02 1.03,-3.88 1.55,-5.58 0.52,-1.7 1.01,-3.1 1.48,-4.2 0.47,-1.1 0.88,-1.65 1.21,-1.65 0.25,0 0.63,0.07 1.14,0.2 0.52,0.13 1.02,0.32 1.52,0.57 0.49,0.25 0.94,0.52 1.33,0.81 0.39,0.29 0.59,0.59 0.59,0.91l-1.61 4.37zm-16.08 7.12c0,0.49 0.04,1.09 0.12,1.78 0.08,0.69 0.16,1.29 0.25,1.78l0.49 2.35c0,0.04 0.02,0.16 0.06,0.34 0.04,0.18 0.08,0.27 0.12,0.27l0 -0.13 -0.06 -0.34 -0.06 -0.07c-0.04,-0.58 -0.11,-1.18 -0.22,-1.78 -0.1,-0.6 -0.2,-1.2 -0.28,-1.78 -0.08,-0.36 -0.13,-0.7 -0.16,-1.04 -0.02,-0.34 -0.05,-0.68 -0.09,-1.04 0,-0.05 -0.01,-0.16 -0.03,-0.34 -0.02,-0.18 -0.05,-0.27 -0.09,-0.27l-0.06 0.27zm2.29 13.04c-0.37,-2.11 -0.86,-4.18 -1.45,-6.22 -0.6,-2.04 -1.04,-4.13 -1.33,-6.28l-0.8 -7.93 -0.06 1.01c0,1.3 0.08,2.86 0.25,4.67 0.17,1.81 0.41,3.64 0.74,5.48 0.33,1.84 0.71,3.59 1.14,5.27 0.43,1.68 0.94,3.04 1.52,4.07l0 -0.07zm9.46 -22.18c-0.49,0.76 -0.92,1.71 -1.27,2.86 -0.35,1.14 -0.67,2.35 -0.96,3.63 -0.29,1.28 -0.57,2.54 -0.83,3.8 -0.27,1.25 -0.55,2.37 -0.83,3.36 -0.21,0.67 -0.38,1.38 -0.53,2.12 -0.14,0.74 -0.3,1.44 -0.46,2.12l-0.31 1.68 -0.19 0.87 0 0.07 0.06 -0.07 0.06 -0.34c0.08,-0.49 0.19,-0.97 0.31,-1.44 0.12,-0.47 0.25,-0.95 0.37,-1.45l0.8 -3.23c0.37,-1.52 0.78,-3.07 1.24,-4.64 0,-0.05 0.02,-0.09 0.06,-0.13 0.29,-0.72 0.5,-1.46 0.65,-2.22 0.14,-0.76 0.29,-1.52 0.43,-2.29 0.14,-0.76 0.31,-1.51 0.5,-2.25 0.19,-0.74 0.46,-1.49 0.83,-2.25l0.12 -0.2 -0.06 0zm1.18 -2.89c-0.08,0 -0.19,0.2 -0.31,0.6 -0.12,0.4 -0.19,0.65 -0.19,0.74l0 0.27c0,0.09 0,0.13 0,0.13l0.06 0 0 -0.13 0.06 -0.2c0.08,-0.22 0.16,-0.44 0.25,-0.64 0.08,-0.2 0.12,-0.39 0.12,-0.57l0 -0.2zm5.38 -11.29c0,-0.9 0.17,-1.81 0.49,-2.76 0.22,-0.27 0.49,-0.45 0.82,-0.54 0.96,0 1.94,0.22 2.94,0.67 1,0.45 1.73,1.19 2.19,2.22 -0.12,1.17 -0.28,2.44 -0.46,3.83 -0.2,1.39 -0.53,2.6 -1.03,3.63l-0.81 0.07c-0.25,0 -0.54,-0.08 -0.85,-0.23 -0.31,-0.16 -0.62,-0.36 -0.91,-0.61 -0.29,-0.25 -0.56,-0.49 -0.82,-0.74 -0.25,-0.25 -0.43,-0.46 -0.56,-0.64l0.12 0.07c-0.25,-0.18 -0.45,-0.48 -0.63,-0.91 -0.16,-0.43 -0.28,-0.88 -0.34,-1.38 -0.06,-0.49 -0.1,-0.99 -0.12,-1.48 -0.02,-0.49 -0.03,-0.89 -0.03,-1.21zm1.73 1.14l0.06 1.28 0.06 0.13 0.06 0 0 -0.07 0 -0.27c0,-0.63 0.04,-1.24 0.12,-1.85 0.08,-0.6 0.12,-1.22 0.12,-1.85 0,-0.18 -0.02,-0.27 -0.06,-0.27 0,0 0,0.04 0,0.13 -0.08,0.18 -0.12,0.34 -0.12,0.47l-0.25 1.75 0 0.54zm5.44 42c-0.08,0.05 -0.23,0.1 -0.43,0.17 -0.21,0.07 -0.35,0.1 -0.43,0.1 -0.82,0 -1.63,-0.18 -2.41,-0.54 -0.08,-0.04 -0.26,-0.14 -0.53,-0.3 -0.27,-0.16 -0.44,-0.21 -0.53,-0.17 -0.29,-0.18 -0.58,-0.37 -0.87,-0.57 -0.29,-0.2 -0.56,-0.41 -0.8,-0.64l-0.49 -0.87c-0.21,-1.52 -0.27,-3.11 -0.19,-4.77 0.08,-1.66 0.12,-3.27 0.12,-4.84 0,-2.02 -0.08,-4.02 -0.25,-6.01 -0.17,-1.99 -0.25,-4 -0.25,-6.01l0.12 -0.87 -0.06 0.4c0,-0.27 0.01,-0.7 0.03,-1.31 0.02,-0.61 0.06,-1.23 0.13,-1.88 0.06,-0.65 0.13,-1.24 0.23,-1.78 0.08,-0.54 0.2,-0.92 0.32,-1.14l0.65 0.47 0 -0.27 0.37 -0.54 0.25 0c0.53,0 1.21,0.21 2.01,0.64 0.8,0.43 1.33,0.91 1.58,1.44 0.37,0.81 0.67,2.11 0.9,3.9 0.23,1.79 0.39,3.73 0.49,5.81 0.1,2.08 0.18,4.11 0.22,6.08 0.04,1.97 0.06,3.49 0.06,4.57 0,1.43 0.04,2.9 0.12,4.4 0.08,1.5 0.02,2.92 -0.19,4.27l-0.19 0.27zm-4.64 -6.32c0,-3.18 -0.02,-6.33 -0.06,-9.44 -0.04,-3.11 -0.06,-6.26 -0.06,-9.44l-0.06 -0.27c-0.21,1.17 -0.32,2.34 -0.34,3.53 -0.02,1.19 -0.03,2.36 -0.03,3.53 0,2.24 0.02,4.51 0.06,6.82 0.04,2.31 0.19,4.56 0.43,6.75l0.06 -0.07 0 -1.41zm0.68 -13.71c-0.12,0 -0.19,0.05 -0.19,0.14 0,0.04 0.02,0.07 0.06,0.07 -0.04,0.22 -0.09,0.45 -0.16,0.67 -0.06,0.22 -0.09,0.45 -0.09,0.67l0 1.21 0.25 1.28 0.12 0.4 0.06 0 0 -0.07 -0.06 -0.27c-0.12,-0.67 -0.14,-1.36 -0.06,-2.05 0.08,-0.7 0.12,-1.36 0.12,-1.98l-0.06 -0.07z"/>
    <path class="fil1" d="M160.43 200.36c0,2.55 -0.21,4.99 -0.62,7.32 -0.41,2.33 -0.8,4.75 -1.17,7.26 -0.25,0.36 -0.5,0.63 -0.74,0.81 -0.25,0.18 -0.6,0.27 -1.05,0.27 -0.25,0 -0.65,-0.09 -1.21,-0.27 -0.56,-0.18 -1.11,-0.4 -1.67,-0.67 -0.56,-0.27 -1.04,-0.58 -1.45,-0.94 -0.41,-0.36 -0.62,-0.72 -0.62,-1.08 -0.08,-0.45 -0.12,-0.76 -0.12,-0.94 0,-0.22 0.05,-0.48 0.15,-0.77 0.1,-0.29 0.18,-0.55 0.22,-0.77 0.45,-2.28 0.82,-4.54 1.08,-6.75 0.27,-2.22 0.4,-4.49 0.4,-6.82l0 -3.83c0,-0.36 -0.02,-0.71 -0.06,-1.04 -0.04,-0.34 -0.04,-0.68 0,-1.04l-0.06 0.4c0,-1.25 -0.14,-2.37 -0.43,-3.36 -0.78,0.72 -1.47,1.75 -2.07,3.09 -0.6,1.34 -1.11,2.86 -1.55,4.54 -0.43,1.68 -0.83,3.46 -1.18,5.34 -0.35,1.88 -0.66,3.74 -0.93,5.58 -0.27,1.84 -0.52,3.56 -0.74,5.17 -0.23,1.61 -0.46,3 -0.71,4.17l-0.12 0.13c0.04,0.22 0.03,0.46 -0.03,0.71 -0.06,0.25 -0.11,0.48 -0.16,0.71l-0.25 0.34c-0.25,0.13 -0.54,0.2 -0.87,0.2 -0.91,0 -1.91,-0.28 -3,-0.84 -1.09,-0.56 -1.89,-1.24 -2.38,-2.05 -0.08,-0.27 -0.12,-0.54 -0.12,-0.81 0,-0.27 0,-0.54 0,-0.81 0,-2.82 0.18,-5.68 0.53,-8.57 0.35,-2.89 0.57,-5.77 0.65,-8.64l0 0.4c0,-0.67 0.04,-1.35 0.12,-2.02 0.08,-0.67 0.12,-1.34 0.12,-2.02 0,-0.45 0.01,-0.91 0.03,-1.38 0.02,-0.47 -0.02,-0.91 -0.13,-1.31 -0.66,0.99 -1.29,2.33 -1.89,4.03 -0.6,1.7 -1.14,3.53 -1.66,5.48 -0.52,1.95 -0.98,3.94 -1.39,5.98 -0.41,2.04 -0.8,3.91 -1.17,5.61 -0.37,1.7 -0.7,3.15 -0.99,4.33 -0.29,1.19 -0.54,1.92 -0.74,2.18 -0.37,0.13 -0.74,0.2 -1.11,0.2 -0.41,0 -0.89,-0.09 -1.41,-0.27 -0.54,-0.18 -1.06,-0.4 -1.58,-0.67 -0.52,-0.27 -0.99,-0.59 -1.41,-0.97 -0.43,-0.38 -0.75,-0.77 -0.96,-1.18 0,-3.58 -0.13,-7.16 -0.4,-10.72 -0.27,-3.56 -0.4,-7.13 -0.4,-10.72 0,-1.12 0.03,-2.23 0.09,-3.33 0.06,-1.1 0.26,-2.16 0.59,-3.19l0 0.07c0.21,-0.36 0.44,-0.55 0.71,-0.57 0.27,-0.02 0.57,-0.03 0.9,-0.03 0.37,0.13 0.71,0.26 1.02,0.37 0.31,0.11 0.59,0.24 0.83,0.37 0.25,0.13 0.48,0.32 0.71,0.57 0.23,0.25 0.42,0.59 0.59,1.04 0.08,0 0.1,0.02 0.06,0.07 -0.04,0.05 -0.06,0.05 -0.06,0 0.25,0.45 0.46,1.31 0.65,2.59 0.19,1.28 0.34,2.62 0.46,4.03 0.12,1.41 0.22,2.72 0.28,3.93 0.06,1.21 0.09,1.97 0.09,2.29 0.25,-0.85 0.57,-2.12 0.96,-3.8 0.38,-1.68 0.88,-3.36 1.47,-5.04 0.6,-1.68 1.28,-3.15 2.06,-4.4 0.78,-1.25 1.68,-1.88 2.71,-1.88 0.49,0 0.97,0.08 1.41,0.23 0.45,0.16 0.91,0.35 1.36,0.57 0,0.04 0.03,0.07 0.09,0.07 0.06,0 0.07,0.02 0.03,0.07 0.41,0.18 0.84,0.53 1.32,1.04 0.47,0.51 0.92,1.1 1.33,1.75 0.4,0.65 0.73,1.29 0.98,1.92 0.25,0.63 0.35,1.17 0.31,1.61 0.17,-0.67 0.4,-1.48 0.71,-2.42 0.32,-0.94 0.7,-1.83 1.15,-2.65 0.45,-0.83 0.99,-1.53 1.59,-2.12 0.61,-0.58 1.32,-0.87 2.16,-0.87 0.29,0 0.56,0.02 0.8,0.07 0.25,0.05 0.52,0.11 0.82,0.2 0.12,0.27 0.36,0.43 0.71,0.47 0.35,0.05 0.66,0.14 0.91,0.27 -0.08,-0.05 -0.22,-0.1 -0.38,-0.17 -0.17,-0.07 -0.21,-0.1 -0.12,-0.1 0.12,0 0.32,0.08 0.57,0.24 0.25,0.16 0.41,0.28 0.49,0.37l-0.31 -0.27c0.33,0.22 0.66,0.47 0.99,0.74 0.33,0.27 0.64,0.56 0.93,0.87l-0.06 -0.07c0.58,0.54 0.97,1.1 1.18,1.68l-0.19 -0.4c0.21,0.45 0.41,0.89 0.62,1.31 0.21,0.43 0.41,0.86 0.62,1.31l-0.19 -0.4c0.58,1.3 0.94,2.7 1.08,4.2 0.14,1.5 0.22,2.97 0.22,4.4zm-32.41 8.94c0,-2.15 -0.13,-4.32 -0.4,-6.52 -0.27,-2.2 -0.44,-4.39 -0.53,-6.59 0,-0.67 -0.02,-1.36 -0.06,-2.05 -0.04,-0.69 -0.08,-1.38 -0.12,-2.05l-0.06 -1.01 -0.06 -0.67 0 -0.2 -0.06 0 -0.06 2.55c0,2.82 0.12,5.59 0.37,8.3 0.25,2.71 0.56,5.48 0.93,8.3l0.06 0 0 -0.07zm0.62 -6.72c0,-0.36 -0.04,-0.75 -0.12,-1.18 -0.08,-0.43 -0.12,-0.86 -0.12,-1.31l0 -1.01 0 -0.27 0 -0.07c-0.04,0 -0.06,0.05 -0.06,0.13 0,0.09 0,0.16 0,0.2l-0.12 1.01 0 0.47c0,0.36 0.04,0.68 0.12,0.97 0.08,0.29 0.14,0.62 0.19,0.97l0.12 0.13 0 -0.07zm8.29 -12.57c-0.45,0.81 -0.85,1.62 -1.18,2.45 -0.33,0.83 -0.66,1.69 -0.99,2.59l0 0.13c-0.16,0.36 -0.34,0.95 -0.53,1.78 -0.19,0.83 -0.28,1.47 -0.28,1.92l0 0.13 0.06 -0.4 0.06 -0.07c0.04,-0.67 0.22,-1.51 0.53,-2.52 0.31,-1.01 0.61,-1.83 0.9,-2.45l0.06 -0.07 1.73 -4.1 0 -0.07 -0.37 0.67zm5.17 6.52l-0.09 0c-0.29,1.08 -0.39,2.19 -0.31,3.36 0.08,1.17 0.12,2.31 0.12,3.43 0,0.9 -0.06,1.81 -0.2,2.76 -0.13,0.94 -0.28,1.88 -0.43,2.82 -0.15,0.94 -0.27,1.87 -0.36,2.79 -0.08,0.92 -0.08,1.8 0,2.65 0.35,-1.79 0.66,-3.63 0.94,-5.51 0.28,-1.88 0.42,-3.72 0.42,-5.51l-0.09 -6.79zm1.7 7.06c-0.1,-0.36 -0.19,-0.72 -0.24,-1.08 -0.05,-0.36 -0.17,-0.72 -0.32,-1.08l0 -0.07 -0.06 -0.07 0 0.07c0,0.09 0.01,0.13 0.03,0.13 0.02,0 0.03,0.05 0.03,0.13 0.25,0.63 0.35,1.27 0.31,1.92 -0.04,0.65 -0.06,1.29 -0.06,1.92 0,0.22 0,0.46 0,0.71 0,0.25 -0.08,0.48 -0.25,0.71l0.06 0.34 0 -0.07 0.08 -0.4c0.05,-0.36 0.13,-0.72 0.25,-1.08 0.11,-0.36 0.16,-0.72 0.16,-1.08 0,-0.18 0.01,-0.35 0.03,-0.5 0.02,-0.16 0.01,-0.32 -0.03,-0.5zm6.68 -16.4l0 0.07c-0.08,0.09 -0.2,0.25 -0.34,0.47 -0.14,0.22 -0.3,0.46 -0.46,0.71 -0.17,0.25 -0.32,0.46 -0.46,0.64 -0.14,0.18 -0.24,0.29 -0.28,0.34l-0.25 0.61 -0.06 0.07c-0.25,0.63 -0.37,1.23 -0.37,1.81 0,0.18 0.02,0.27 0.06,0.27l0 -0.27c0.08,-0.49 0.21,-0.94 0.37,-1.34 0.17,-0.4 0.35,-0.81 0.56,-1.21 -0.04,-0.04 -0.03,-0.1 0.03,-0.17 0.06,-0.07 0.11,-0.1 0.15,-0.1 0.04,-0.22 0.24,-0.56 0.59,-1.01 0.35,-0.45 0.53,-0.74 0.53,-0.87l-0.06 0zm6.56 12.5c0,-0.36 -0.01,-0.74 -0.03,-1.14 -0.02,-0.4 -0.05,-0.78 -0.09,-1.14 -0.04,-0.22 -0.06,-0.45 -0.06,-0.67 0,-0.22 -0.02,-0.45 -0.06,-0.67 0,-0.04 -0.01,-0.1 -0.03,-0.17 -0.02,-0.07 -0.05,-0.08 -0.09,-0.03 0.04,0.36 0.07,0.71 0.09,1.04 0.02,0.34 0.03,0.68 0.03,1.04l0 2.49c0,0.18 -0.01,0.47 -0.03,0.87 -0.02,0.4 -0.06,0.83 -0.13,1.28 -0.06,0.45 -0.12,0.89 -0.19,1.31 -0.06,0.43 -0.11,0.73 -0.15,0.91 0,0.13 -0.07,0.54 -0.22,1.21 -0.14,0.67 -0.31,1.41 -0.49,2.22 -0.19,0.81 -0.36,1.57 -0.53,2.29 -0.17,0.72 -0.27,1.19 -0.31,1.41 0.29,-0.49 0.57,-1.25 0.83,-2.28 0.27,-1.03 0.52,-2.15 0.74,-3.36 0.23,-1.21 0.4,-2.41 0.53,-3.59 0.12,-1.19 0.19,-2.18 0.19,-2.99zm0.74 2.75l0 0.2 0 0.74 -0.06 1.88 -0.06 1.01 -0.06 0.47 0 0.34 0 0.2 0 0.13 0 0.07 0 0.13 0 -0.07 0.06 -0.27 0 -0.07c0.08,-0.45 0.14,-0.91 0.19,-1.38 0.04,-0.47 0.06,-0.95 0.06,-1.45l0 -1.48c0,-0.05 0,-0.13 0,-0.27 0,-0.13 -0.02,-0.2 -0.06,-0.2l-0.06 0zm-14.1 -14.04c0.04,0.04 0.07,0.09 0.09,0.13 0.02,0.04 0.05,0.09 0.09,0.13l-0.19 -0.2 0 -0.07zm13.48 -0.07l0.12 0.13 -0.12 -0.13zm3.9 -11.36c0,-0.9 0.16,-1.81 0.49,-2.76 0.22,-0.27 0.48,-0.45 0.81,-0.54 0.96,0 1.94,0.22 2.94,0.67 1,0.45 1.73,1.19 2.19,2.22 -0.12,1.17 -0.28,2.44 -0.46,3.83 -0.2,1.39 -0.54,2.6 -1.03,3.63l-0.81 0.07c-0.25,0 -0.54,-0.08 -0.85,-0.23 -0.31,-0.16 -0.62,-0.36 -0.91,-0.61 -0.29,-0.25 -0.56,-0.49 -0.81,-0.74 -0.25,-0.25 -0.43,-0.46 -0.56,-0.64l0.12 0.07c-0.25,-0.18 -0.45,-0.48 -0.63,-0.91 -0.16,-0.43 -0.28,-0.88 -0.34,-1.38 -0.06,-0.49 -0.1,-0.99 -0.12,-1.48 -0.02,-0.49 -0.03,-0.89 -0.03,-1.21zm1.73 1.14l0.06 1.28 0.06 0.13 0.06 0 0 -0.07 0 -0.27c0,-0.63 0.04,-1.24 0.12,-1.85 0.08,-0.6 0.12,-1.22 0.12,-1.85 0,-0.18 -0.02,-0.27 -0.06,-0.27 0,0 0,0.04 0,0.13 -0.08,0.18 -0.12,0.34 -0.12,0.47l-0.25 1.75 0 0.54zm5.44 42c-0.08,0.05 -0.23,0.1 -0.43,0.17 -0.21,0.07 -0.35,0.1 -0.43,0.1 -0.82,0 -1.63,-0.18 -2.41,-0.54 -0.08,-0.04 -0.26,-0.14 -0.53,-0.3 -0.27,-0.16 -0.44,-0.21 -0.53,-0.17 -0.29,-0.18 -0.58,-0.37 -0.87,-0.57 -0.29,-0.2 -0.56,-0.41 -0.8,-0.64l-0.5 -0.87c-0.21,-1.52 -0.27,-3.11 -0.19,-4.77 0.08,-1.66 0.12,-3.27 0.12,-4.84 0,-2.02 -0.08,-4.02 -0.25,-6.01 -0.16,-1.99 -0.25,-4 -0.25,-6.01l0.12 -0.87 -0.06 0.4c0,-0.27 0.01,-0.7 0.03,-1.31 0.02,-0.61 0.06,-1.23 0.13,-1.88 0.06,-0.65 0.13,-1.24 0.23,-1.78 0.08,-0.54 0.2,-0.92 0.32,-1.14l0.65 0.47 0 -0.27 0.37 -0.54 0.25 0c0.54,0 1.21,0.21 2.01,0.64 0.8,0.43 1.33,0.91 1.58,1.44 0.37,0.81 0.67,2.11 0.9,3.9 0.23,1.79 0.39,3.73 0.49,5.81 0.1,2.08 0.17,4.11 0.22,6.08 0.04,1.97 0.06,3.49 0.06,4.57 0,1.43 0.04,2.9 0.12,4.4 0.08,1.5 0.02,2.92 -0.19,4.27l-0.19 0.27zm-4.64 -6.32c0,-3.18 -0.02,-6.33 -0.06,-9.44 -0.04,-3.11 -0.06,-6.26 -0.06,-9.44l-0.06 -0.27c-0.21,1.17 -0.32,2.34 -0.34,3.53 -0.02,1.19 -0.03,2.36 -0.03,3.53 0,2.24 0.02,4.51 0.06,6.82 0.04,2.31 0.19,4.56 0.43,6.75l0.06 -0.07 0 -1.41zm0.68 -13.71c-0.12,0 -0.19,0.05 -0.19,0.14 0,0.04 0.02,0.07 0.06,0.07 -0.04,0.22 -0.09,0.45 -0.15,0.67 -0.06,0.22 -0.09,0.45 -0.09,0.67l0 1.21 0.25 1.28 0.12 0.4 0.06 0 0 -0.07 -0.06 -0.27c-0.12,-0.67 -0.14,-1.36 -0.06,-2.05 0.08,-0.7 0.12,-1.36 0.12,-1.98l-0.06 -0.07zm24.19 8.4c0.21,0 0.34,0.12 0.4,0.37 0.06,0.25 0.09,0.46 0.09,0.64 0,1.17 -0.27,2.4 -0.8,3.7 -0.54,1.3 -1.24,2.51 -2.1,3.63 -0.86,1.12 -1.84,2.05 -2.94,2.79 -1.09,0.74 -2.2,1.11 -3.31,1.11 -1.9,0 -3.52,-0.35 -4.86,-1.04 -1.35,-0.7 -2.44,-1.65 -3.29,-2.86 -0.86,-1.21 -1.48,-2.63 -1.89,-4.27 -0.4,-1.64 -0.61,-3.37 -0.61,-5.21 0,-1.3 0.1,-2.88 0.31,-4.74 0.21,-1.86 0.55,-3.72 1.02,-5.58 0.47,-1.86 1.09,-3.58 1.86,-5.17 0.76,-1.59 1.68,-2.77 2.75,-3.53 0.66,-0.49 1.36,-0.75 2.1,-0.77 0.74,-0.02 1.48,-0.01 2.23,0.03 0.17,-0.31 0.41,-0.47 0.74,-0.47 1.03,0 1.94,0.28 2.72,0.84 0.78,0.56 1.44,1.28 1.98,2.15 0.54,0.87 0.95,1.83 1.24,2.86 0.29,1.03 0.43,2.04 0.43,3.02 0,1.66 -0.23,3.28 -0.69,4.87 -0.45,1.59 -1.13,2.98 -2.03,4.17 -0.9,1.19 -2,2.07 -3.32,2.65 -1.31,0.58 -2.85,0.67 -4.6,0.27 -0.04,0.22 -0.06,0.41 -0.06,0.57 0,0.16 0,0.35 0,0.57 0,1.25 0.06,2.52 0.19,3.8 0.12,1.28 0.41,2.5 0.86,3.66 0.21,-0.04 0.42,-0.11 0.65,-0.2 0.23,-0.09 0.44,-0.18 0.65,-0.27l-0.06 0c1.03,-0.36 1.92,-0.92 2.66,-1.68 0.74,-0.76 1.53,-1.46 2.35,-2.08l0 0.07c0.74,-0.58 1.42,-1.17 2.04,-1.75 0.62,-0.58 1.28,-1.21 1.98,-1.88 0.21,-0.09 0.42,-0.16 0.65,-0.2 0.23,-0.05 0.44,-0.07 0.65,-0.07zm-4.39 -7.32c0,-0.09 0.07,-0.32 0.22,-0.71 0.14,-0.38 0.22,-0.64 0.22,-0.77l0 -0.61 0 -0.13 -0.06 0c-0.04,0 -0.07,0.07 -0.09,0.2 -0.02,0.13 -0.03,0.22 -0.03,0.27 -0.04,0.22 -0.09,0.47 -0.15,0.74 -0.06,0.27 -0.09,0.52 -0.09,0.74l0 0.13 0 0.07 0 0.07 0 0.07 0 -0.07zm-1.48 0.34l0.06 -0.07c0.12,-0.22 0.16,-0.38 0.12,-0.47 0.21,-0.63 0.35,-1.23 0.43,-1.81 0.08,-0.58 0.17,-1.21 0.25,-1.88l0 -1.14c0,-0.18 -0.03,-0.49 -0.09,-0.94 -0.06,-0.45 -0.13,-0.67 -0.22,-0.67l0 0.27 0.06 0.67 0 1.48 -0.12 1.88c0,0.18 -0.02,0.36 -0.06,0.54 -0.04,0.18 -0.08,0.36 -0.12,0.54l-0.12 0.74 -0.19 0.6 0 0.27 0 0.07 0 -0.07zm-6.37 4.64c0.05,0 0.17,-0.02 0.38,-0.07 0.22,-0.05 0.32,-0.09 0.32,-0.13 0.8,-0.31 1.48,-0.78 2.05,-1.41 0.58,-0.63 1.05,-1.34 1.43,-2.15 0.37,-0.81 0.65,-1.66 0.81,-2.55 0.18,-0.9 0.26,-1.77 0.26,-2.62 0,-0.9 -0.06,-1.76 -0.19,-2.59 -0.12,-0.83 -0.27,-1.69 -0.43,-2.59 -0.76,0.94 -1.4,1.98 -1.94,3.13 -0.53,1.14 -0.97,2.33 -1.33,3.56 -0.36,1.23 -0.67,2.49 -0.92,3.76 -0.26,1.28 -0.47,2.5 -0.64,3.66l0.19 0zm-0.74 10.62c-0.08,-0.09 -0.19,-0.13 -0.31,-0.13l0.25 0.13 0.06 0zm0.06 -22.78c-0.49,0.49 -0.83,1.08 -1.02,1.75 -0.19,0.67 -0.33,1.38 -0.43,2.12 -0.1,0.74 -0.2,1.46 -0.28,2.15 -0.08,0.69 -0.27,1.27 -0.56,1.71 -0.08,0.94 -0.19,1.88 -0.31,2.82 -0.12,0.94 -0.19,1.9 -0.19,2.89l0.06 0.61 0 0.07 0 -0.07 0.06 -0.2 0 -0.81 0 -0.13 0.13 -1.14 0.25 -2.22c0.08,-0.63 0.17,-1.32 0.28,-2.08 0.1,-0.76 0.26,-1.46 0.46,-2.08 -0.04,-0.13 -0.01,-0.41 0.09,-0.84 0.1,-0.43 0.22,-0.87 0.34,-1.34 0.12,-0.47 0.25,-0.93 0.37,-1.38 0.12,-0.45 0.23,-0.76 0.31,-0.94 0.08,-0.18 0.19,-0.32 0.31,-0.44 0.12,-0.11 0.19,-0.26 0.19,-0.44l-0.06 0zm0.43 -3.96c-0.81,0.4 -1.54,1.33 -2.16,2.79 -0.64,1.46 -1.17,3.07 -1.59,4.84 -0.43,1.77 -0.76,3.52 -0.98,5.24 -0.23,1.72 -0.34,3.08 -0.34,4.07 0,0.9 0.06,1.77 0.19,2.62l0.06 -0.07c-0.25,-0.72 -0.3,-1.84 -0.16,-3.36 0.14,-1.52 0.39,-3.12 0.73,-4.8 0.35,-1.68 0.74,-3.29 1.2,-4.84 0.44,-1.55 0.83,-2.75 1.15,-3.6 0.17,-0.4 0.34,-0.81 0.53,-1.21 0.19,-0.4 0.43,-0.76 0.76,-1.08 0.08,-0.09 0.22,-0.16 0.39,-0.2 0.19,-0.04 0.28,-0.16 0.28,-0.34l-0.06 -0.07zm5.88 30.38l-0.12 0 0.12 0zm1.73 -5.24c-0.12,0.13 -0.25,0.25 -0.37,0.34 -0.08,0.04 -0.16,0.11 -0.25,0.2l-0.12 0.13 -0.19 0.27 0 0.07 0.12 0 0.56 -0.6 0.25 -0.34 0 -0.07zm1.3 -2.76c0,0 0,0.02 0,0.07l-0.12 0.07 -0.31 0.27 -0.06 0.07 -0.49 0.47 -0.93 0.94 -0.8 0.74c-0.25,0.22 -0.5,0.46 -0.74,0.71 -0.25,0.25 -0.52,0.48 -0.8,0.7 -0.21,0.18 -0.45,0.35 -0.74,0.5 -0.29,0.16 -0.56,0.3 -0.8,0.44l-0.74 0.27 0 0.07 0.31 -0.13c0.16,0.09 0.42,0.03 0.77,-0.17 0.35,-0.2 0.72,-0.45 1.11,-0.74 0.39,-0.29 0.75,-0.57 1.08,-0.84 0.33,-0.27 0.56,-0.47 0.68,-0.61l0 -0.07c0.5,-0.36 0.94,-0.78 1.33,-1.28 0.39,-0.49 0.81,-0.96 1.27,-1.41l0 -0.07zm28.45 -9.74c0,0.4 0,1.06 0,1.98 0,0.92 -0.01,1.94 -0.03,3.06 -0.02,1.12 -0.07,2.27 -0.16,3.46 -0.08,1.19 -0.19,2.27 -0.31,3.26 -0.12,0.99 -0.28,1.79 -0.46,2.42 -0.19,0.63 -0.42,0.94 -0.71,0.94 -1.03,0 -2.06,-0.25 -3.09,-0.74 -1.03,-0.49 -1.84,-1.19 -2.41,-2.08 -0.08,-0.27 -0.13,-0.56 -0.16,-0.87 -0.02,-0.31 -0.03,-0.63 -0.03,-0.94 0,-2.28 0.09,-4.54 0.28,-6.75 0.19,-2.22 0.28,-4.47 0.28,-6.75 0,-0.36 0,-1.03 0,-2.02 0,-0.99 -0.01,-2.02 -0.03,-3.09 -0.02,-1.08 -0.05,-2.07 -0.09,-2.99 -0.04,-0.92 -0.08,-1.49 -0.12,-1.71 -1.15,0.58 -2.11,1.48 -2.88,2.69 -0.76,1.21 -1.38,2.62 -1.86,4.23 -0.47,1.61 -0.85,3.33 -1.14,5.14 -0.29,1.81 -0.57,3.62 -0.83,5.41 -0.27,1.79 -0.55,3.48 -0.83,5.07 -0.29,1.59 -0.66,2.95 -1.11,4.07 0.12,0.27 0.19,0.54 0.19,0.81 0,0.31 -0.13,0.5 -0.4,0.57 -0.27,0.07 -0.5,0.1 -0.71,0.1 -1.81,0 -3.21,-0.47 -4.17,-1.41 -0.97,-0.94 -1.68,-2.13 -2.13,-3.56 -0.45,-1.43 -0.71,-2.97 -0.77,-4.6 -0.06,-1.63 -0.09,-3.17 -0.09,-4.6 0,-1.25 0.05,-2.73 0.15,-4.44 0.1,-1.7 0.27,-3.4 0.49,-5.11 0.23,-1.7 0.51,-3.34 0.83,-4.91 0.33,-1.57 0.74,-2.89 1.24,-3.96l0.74 -0.27c0.37,0.05 0.77,0.15 1.21,0.3 0.43,0.16 0.83,0.38 1.21,0.67 0.37,0.29 0.66,0.63 0.86,1.01 0.21,0.38 0.25,0.84 0.12,1.38 0.08,0.22 0.17,0.57 0.25,1.04 0.08,0.47 0.14,0.97 0.19,1.51 0.04,0.54 0.07,1.04 0.09,1.51 0.02,0.47 0.03,0.84 0.03,1.11 0,1.7 -0.06,3.38 -0.19,5.04 -0.12,1.66 -0.25,3.32 -0.37,4.97 0.17,-1.39 0.39,-2.88 0.68,-4.47 0.29,-1.59 0.7,-3.15 1.24,-4.67 0.54,-1.52 1.23,-2.9 2.07,-4.13 0.84,-1.23 1.95,-2.16 3.31,-2.79 0.04,-0.04 0.17,-0.1 0.37,-0.17 0.21,-0.07 0.43,-0.14 0.68,-0.23 0.25,-0.09 0.46,-0.16 0.65,-0.2 0.19,-0.05 0.32,-0.07 0.4,-0.07 0.29,-0.27 0.66,-0.4 1.11,-0.4 0.21,0 0.5,0.07 0.9,0.2 0.39,0.13 0.79,0.3 1.21,0.5 0.41,0.2 0.76,0.43 1.05,0.67 0.29,0.25 0.43,0.48 0.43,0.71 0,0.04 0.02,0.07 0.06,0.07 0.04,0 0.04,0.02 0,0.07 0.16,0.22 0.3,0.46 0.4,0.71 0.1,0.25 0.22,0.48 0.34,0.71l0 -0.07c0.95,1.88 1.53,3.92 1.73,6.11 0.21,2.2 0.31,4.37 0.31,6.52zm-22.27 -6.25c-0.33,1.3 -0.56,2.68 -0.68,4.13 -0.12,1.46 -0.19,2.9 -0.19,4.34l0 2.02c0,0.9 0.07,1.76 0.22,2.59 0.14,0.83 0.32,1.65 0.53,2.45l0 -0.27c0,-0.9 -0.08,-1.81 -0.25,-2.76 -0.16,-0.94 -0.25,-1.88 -0.25,-2.82 0,-1.52 0.13,-3.16 0.4,-4.91 0.27,-1.75 0.34,-3.34 0.22,-4.77zm1.61 16.4c-0.21,-1.21 -0.35,-2.39 -0.43,-3.53 -0.08,-1.14 -0.12,-2.32 -0.12,-3.53 0,-1.97 0.02,-3.91 0.06,-5.81 0.04,-1.9 0.06,-3.84 0.06,-5.81 0,-0.49 0.02,-1 0.06,-1.51 0.04,-0.52 0.1,-1.02 0.19,-1.51l0.12 -0.74 0.06 -0.27 0 0.07c-0.33,1.12 -0.57,2.33 -0.71,3.63 -0.14,1.3 -0.23,2.61 -0.25,3.93 -0.02,1.32 -0.01,2.64 0.03,3.96 0.04,1.32 0.06,2.56 0.06,3.73 0,1.21 0.05,2.46 0.16,3.76 0.1,1.3 0.34,2.53 0.71,3.7l0 -0.07zm10.14 -23.59c0,0 0,0.02 0,0.07l-0.12 0.07 -0.31 0.27 -0.06 0.07 -0.37 0.47 -0.8 1.01c-0.29,0.36 -0.53,0.68 -0.71,0.97 -0.19,0.29 -0.38,0.64 -0.59,1.04 -0.25,0.49 -0.45,1 -0.62,1.51 -0.16,0.52 -0.25,1.04 -0.25,1.58l0 0.07 0.06 -0.34 0.06 -0.07c0.04,-0.49 0.2,-1.05 0.46,-1.68 0.27,-0.63 0.59,-1.25 0.96,-1.88 0.37,-0.63 0.75,-1.21 1.14,-1.75 0.39,-0.54 0.77,-0.99 1.14,-1.35l0 -0.07zm6 12.43c0,-0.31 -0.01,-0.83 -0.03,-1.55 -0.02,-0.72 -0.06,-1.49 -0.12,-2.32 -0.06,-0.83 -0.13,-1.61 -0.22,-2.35 -0.08,-0.74 -0.19,-1.27 -0.31,-1.58 0.12,1.3 0.23,2.59 0.31,3.86 0.08,1.28 0.12,2.56 0.12,3.86 0,1.61 -0.09,3.2 -0.28,4.77 -0.19,1.57 -0.32,3.16 -0.4,4.77 0.25,-1.61 0.46,-3.19 0.65,-4.74 0.19,-1.55 0.28,-3.13 0.28,-4.74zm0.93 -0.67l-0.06 0.2 0 3.9 0.06 0.13 0 -0.07 0 -0.27c0.08,-0.36 0.12,-0.74 0.12,-1.14 0,-0.4 0,-0.78 0,-1.14l-0.06 -1.28c0,-0.05 0.01,-0.12 0.03,-0.24 0.02,-0.11 -0.01,-0.17 -0.09,-0.17l0 0.07z"/>
    <path class="fil1" d="M212.32 182.14c0.08,-0.09 0.17,-0.14 0.25,-0.14l-0.25 0.14zm16.64 36.56l-0.31 0 0.31 0zm0.31 0l-0.31 0 0.31 0zm6.56 -6.59c0,1.97 -0.56,3.57 -1.67,4.81 -1.11,1.23 -2.58,1.85 -4.39,1.85 -1.32,0 -2.65,-0.29 -3.99,-0.87 -1.34,-0.58 -2.58,-1.37 -3.71,-2.35 -1.14,-0.99 -2.11,-2.12 -2.94,-3.39 -0.82,-1.28 -1.38,-2.61 -1.67,-4 -0.25,-1.21 -0.44,-2.85 -0.59,-4.91 -0.14,-2.06 -0.25,-4.23 -0.31,-6.52 -0.06,-2.28 -0.09,-4.49 -0.09,-6.62 0,-2.13 0,-3.86 0,-5.21 -0.83,0.22 -1.68,0.39 -2.57,0.5 -0.89,0.11 -1.74,0.28 -2.57,0.5 -0.21,0 -0.48,-0.04 -0.83,-0.13 -0.35,-0.09 -0.69,-0.2 -1.02,-0.34 -0.33,-0.13 -0.63,-0.31 -0.9,-0.54 -0.27,-0.22 -0.4,-0.49 -0.4,-0.81 0,-0.13 0.19,-0.29 0.56,-0.47 0.37,-0.18 0.78,-0.37 1.24,-0.57 0.45,-0.2 0.91,-0.39 1.36,-0.57 0.45,-0.18 0.78,-0.29 0.99,-0.34l-0.06 0 0.56 -0.2 -0.37 0.07c0.66,-0.18 1.32,-0.36 1.98,-0.54 0.66,-0.18 1.34,-0.31 2.04,-0.4 0.04,0 0.06,-0.04 0.06,-0.13 0.12,-2.02 0.26,-3.93 0.4,-5.75 0.14,-1.81 0.55,-3.68 1.21,-5.61 0.21,-0.13 0.36,-0.28 0.46,-0.44 0.1,-0.16 0.22,-0.3 0.34,-0.44 0.12,-0.13 0.28,-0.24 0.46,-0.3 0.19,-0.07 0.46,-0.1 0.83,-0.1 0.45,0 0.89,0.11 1.3,0.34 0,0 0.04,0.02 0.12,0.07l0.06 0 0.12 0.07c0.62,0.27 1.05,0.5 1.3,0.71 0.25,0.2 0.54,0.66 0.87,1.38 -0.12,0.49 -0.2,1.11 -0.22,1.85 -0.02,0.74 -0.03,1.38 -0.03,1.92l0 -0.4c0,1.03 -0.06,2.08 -0.19,3.16 -0.12,1.08 -0.19,2.13 -0.19,3.16 0.49,0 1.39,0.06 2.69,0.17 1.3,0.11 2.61,0.31 3.93,0.61 1.32,0.29 2.49,0.68 3.53,1.18 1.03,0.49 1.55,1.14 1.55,1.95 0,0.31 -0.11,0.49 -0.34,0.54 -0.23,0.04 -0.44,0.07 -0.65,0.07 -1.36,0 -2.72,-0.14 -4.08,-0.44 -1.36,-0.29 -2.74,-0.44 -4.14,-0.44l-2.6 0.07 0 0.07 0 2.49c0,2.55 0.01,5.08 0.03,7.59 0.02,2.51 0.11,5.04 0.28,7.59 0.04,0.54 0.1,1.53 0.19,2.99 0.08,1.46 0.25,2.96 0.5,4.5 0.25,1.55 0.6,2.91 1.05,4.1 0.45,1.19 1.05,1.78 1.79,1.78 0.7,0 1.33,-0.2 1.89,-0.6 0.56,-0.4 1.05,-0.91 1.48,-1.51 0.43,-0.61 0.82,-1.24 1.18,-1.92 0.35,-0.67 0.69,-1.28 1.02,-1.81 0.08,-0.04 0.19,-0.09 0.31,-0.13 0.12,-0.04 0.23,-0.07 0.31,-0.07 1.03,0 1.86,0.45 2.47,1.34 0,0.22 0.01,0.47 0.03,0.74 0.02,0.27 0.03,0.52 0.03,0.74zm-17.26 -24.6c-0.08,0 -0.12,0.09 -0.12,0.27 -0.08,0.49 -0.14,1 -0.19,1.51 -0.04,0.52 -0.06,1.04 -0.06,1.58l0.12 2.02 0.06 0.74 0 -0.07 0.06 -0.4c0,-0.54 -0.01,-1.08 -0.03,-1.61 -0.02,-0.54 -0.01,-1.08 0.03,-1.61l0.06 -0.07 0 -1.88 0.06 -0.34c0,-0.09 0,-0.13 0,-0.13zm0.06 21.77c0,-1.7 -0.16,-3.43 -0.46,-5.17 -0.31,-1.75 -0.46,-3.49 -0.46,-5.24l0 -5.91c0,-2.82 0.16,-5.66 0.49,-8.5 0.33,-2.85 0.43,-5.68 0.31,-8.5 0.04,0.27 0.04,0.81 0,1.61 -0.04,0.81 -0.1,1.79 -0.21,2.96 -0.1,1.17 -0.21,2.42 -0.32,3.76 -0.12,1.34 -0.23,2.67 -0.33,3.96 -0.09,1.3 -0.19,2.52 -0.27,3.66 -0.07,1.14 -0.11,2.07 -0.11,2.79 0,0.76 0.03,1.85 0.09,3.26 0.05,1.41 0.13,2.87 0.24,4.37 0.09,1.5 0.24,2.9 0.41,4.2 0.17,1.3 0.38,2.22 0.62,2.75l0 0.07 0 -0.07zm12.19 9.34l0.37 -0.13 -0.37 0.13zm2.47 -7.59l0 -0.07c-0.04,0 -0.08,0.06 -0.12,0.17 -0.04,0.11 -0.06,0.19 -0.06,0.23 -0.21,0.36 -0.52,0.85 -0.93,1.48 -0.41,0.63 -0.78,1.1 -1.11,1.41 -0.08,0.09 -0.21,0.18 -0.37,0.27 -0.17,0.09 -0.25,0.2 -0.25,0.34l0.06 0.07c0.04,0 0.07,-0.03 0.09,-0.1 0.02,-0.07 0.05,-0.08 0.09,-0.03 0.33,-0.27 0.62,-0.54 0.86,-0.81 0.25,-0.27 0.52,-0.58 0.8,-0.94 0,-0.09 0.02,-0.13 0.06,-0.13 0.17,-0.27 0.31,-0.55 0.43,-0.84 0.12,-0.29 0.27,-0.57 0.43,-0.84l0 -0.2zm0.49 1.68c-0.08,0 -0.21,0.08 -0.37,0.24 -0.16,0.16 -0.25,0.28 -0.25,0.37l0 0.2 0.06 0 0 -0.07c0,-0.09 0.02,-0.16 0.06,-0.2l0.19 -0.27 0.31 -0.2 0 -0.07zm6.37 -22.65c0,0.04 -0.02,0.07 -0.06,0.07 0.04,0 0.06,-0.02 0.06,-0.07zm12.74 16.6c0,1.16 -0.09,2.38 -0.28,3.66 -0.19,1.28 -0.52,2.45 -0.99,3.53 -0.47,1.08 -1.13,1.97 -1.98,2.69 -0.85,0.72 -1.93,1.08 -3.25,1.08 -3.09,0 -5.51,-1.02 -7.24,-3.06 -1.73,-2.04 -2.6,-4.69 -2.6,-7.96l0 -0.74 0 0.34c0.04,-0.99 0.13,-2.25 0.28,-3.8 0.14,-1.55 0.36,-3.11 0.65,-4.7 0.29,-1.59 0.66,-3.09 1.11,-4.5 0.45,-1.41 1.01,-2.47 1.67,-3.19l-0.12 0.07c0.21,-0.13 0.42,-0.22 0.65,-0.27 0.23,-0.05 0.46,-0.09 0.71,-0.13 0,-0.14 -0.01,-0.28 -0.03,-0.44 -0.02,-0.16 0.01,-0.3 0.09,-0.44 0.41,-0.45 0.82,-0.76 1.24,-0.94 0.12,0 0.24,-0.01 0.34,-0.03 0.1,-0.02 0.22,-0.03 0.34,-0.03 1.9,0 3.46,0.69 4.7,2.08 1.24,1.39 2.2,3.07 2.88,5.04 0.68,1.97 1.15,4.03 1.42,6.18 0.27,2.15 0.4,4.01 0.4,5.58zm-12.31 -7.86c-0.04,0 -0.06,0.03 -0.06,0.1 0,0.07 -0.02,0.12 -0.06,0.17 -0.33,0.94 -0.46,1.88 -0.4,2.82 0.06,0.94 -0.01,1.86 -0.22,2.76l0.06 0.27 0 -0.07 0.06 -0.4c0.08,-0.54 0.13,-1.09 0.15,-1.65 0.02,-0.56 0.07,-1.11 0.16,-1.65l0.06 -0.07c-0.04,-0.4 0,-0.79 0.12,-1.18 0.12,-0.38 0.19,-0.75 0.19,-1.11l-0.06 0zm0.12 -6.32c-0.17,0.45 -0.25,0.78 -0.25,1.01 -0.33,0.89 -0.61,1.89 -0.83,2.99 -0.23,1.1 -0.42,2.23 -0.59,3.39 -0.16,1.17 -0.29,2.33 -0.37,3.5 -0.08,1.16 -0.12,2.22 -0.12,3.16 0,1.12 0.05,2.28 0.16,3.49 0.1,1.21 0.32,2.33 0.65,3.36l0 -0.07c-0.21,-1.12 -0.34,-2.21 -0.4,-3.26 -0.06,-1.05 -0.09,-2.14 -0.09,-3.26 0,-1.03 0.1,-2.1 0.31,-3.23 0.21,-1.12 0.27,-2.17 0.19,-3.16 0,0 0.07,-0.41 0.22,-1.24 0.14,-0.83 0.3,-1.72 0.46,-2.69 0.16,-0.96 0.32,-1.86 0.46,-2.69 0.14,-0.83 0.22,-1.27 0.22,-1.31zm1.24 -4.17c0,0.05 -0.02,0.07 -0.06,0.07 0.04,0 0.06,-0.02 0.06,-0.07zm0.12 -0.07l-0.06 0.07 0.06 -0.07zm5.63 13.91c0,-1.93 -0.22,-3.86 -0.65,-5.81 -0.43,-1.95 -1.04,-3.77 -1.83,-5.48l-0.5 0.2 -0.86 0c0.04,0 0.06,0.05 0.06,0.13l0.25 0.67 0 0.34 -0.06 -0.07c0,2.24 -0.14,4.47 -0.43,6.69 -0.29,2.22 -0.43,4.47 -0.43,6.75 0,1.26 0.03,2.51 0.09,3.76 0.06,1.25 0.24,2.49 0.53,3.7 0.25,-0.09 0.48,-0.23 0.71,-0.44 0.23,-0.2 0.42,-0.41 0.59,-0.64l0.06 0c0.49,-0.58 0.9,-1.29 1.21,-2.12 0.31,-0.83 0.56,-1.68 0.74,-2.55 0.19,-0.87 0.32,-1.76 0.4,-2.65 0.08,-0.9 0.12,-1.72 0.12,-2.49zm2.17 1.41c0,-0.99 -0.1,-2.04 -0.31,-3.16l-0.31 -1.21c-0.04,0 -0.06,-0.02 -0.06,-0.07 0,-0.04 -0.02,-0.07 -0.06,-0.07l0.06 0.54c0.04,-0.09 0.07,-0.09 0.09,0 0.02,0.09 0.04,0.21 0.06,0.37 0.02,0.16 0.04,0.34 0.06,0.54 0.02,0.2 0.03,0.37 0.03,0.5 0.08,0.45 0.12,0.81 0.12,1.08l0 2.76c0,0.31 -0.03,0.69 -0.09,1.14 -0.06,0.45 -0.13,0.83 -0.22,1.14 0.04,0.22 -0.02,0.63 -0.19,1.21 -0.16,0.58 -0.35,1.21 -0.56,1.88 -0.21,0.67 -0.42,1.31 -0.65,1.91 -0.23,0.61 -0.38,1.02 -0.46,1.24l0.06 0c0.04,0 0.1,-0.14 0.19,-0.4 0.08,-0.27 0.14,-0.45 0.19,-0.54 0.54,-1.57 1.01,-3.01 1.42,-4.33 0.41,-1.32 0.62,-2.83 0.62,-4.54zm0.12 6.18c0,0 -0.04,0.09 -0.12,0.27 -0.08,0.18 -0.18,0.39 -0.28,0.64 -0.1,0.25 -0.19,0.48 -0.25,0.71 -0.06,0.22 -0.09,0.36 -0.09,0.4l0.06 0 0.19 -0.47c0.08,-0.13 0.2,-0.36 0.34,-0.67 0.14,-0.31 0.22,-0.51 0.22,-0.6l0 -0.2 -0.06 -0.07zm35.32 -1.28c0.21,0 0.34,0.12 0.4,0.37 0.06,0.25 0.09,0.46 0.09,0.64 0,1.17 -0.27,2.4 -0.8,3.7 -0.54,1.3 -1.24,2.51 -2.1,3.63 -0.87,1.12 -1.84,2.05 -2.94,2.79 -1.09,0.74 -2.2,1.11 -3.31,1.11 -1.9,0 -3.52,-0.35 -4.86,-1.04 -1.35,-0.7 -2.44,-1.65 -3.29,-2.86 -0.86,-1.21 -1.48,-2.63 -1.89,-4.27 -0.4,-1.64 -0.61,-3.37 -0.61,-5.21 0,-1.3 0.1,-2.88 0.31,-4.74 0.2,-1.86 0.55,-3.72 1.02,-5.58 0.47,-1.86 1.09,-3.58 1.86,-5.17 0.76,-1.59 1.68,-2.77 2.75,-3.53 0.66,-0.49 1.36,-0.75 2.1,-0.77 0.74,-0.02 1.48,-0.01 2.23,0.03 0.16,-0.31 0.41,-0.47 0.74,-0.47 1.03,0 1.94,0.28 2.72,0.84 0.78,0.56 1.44,1.28 1.98,2.15 0.54,0.87 0.95,1.83 1.24,2.86 0.29,1.03 0.43,2.04 0.43,3.02 0,1.66 -0.23,3.28 -0.69,4.87 -0.45,1.59 -1.13,2.98 -2.03,4.17 -0.9,1.19 -2,2.07 -3.32,2.65 -1.31,0.58 -2.85,0.67 -4.6,0.27 -0.04,0.22 -0.06,0.41 -0.06,0.57 0,0.16 0,0.35 0,0.57 0,1.25 0.06,2.52 0.19,3.8 0.12,1.28 0.41,2.5 0.87,3.66 0.21,-0.04 0.42,-0.11 0.65,-0.2 0.23,-0.09 0.44,-0.18 0.65,-0.27l-0.06 0c1.03,-0.36 1.92,-0.92 2.66,-1.68 0.74,-0.76 1.53,-1.46 2.35,-2.08l0 0.07c0.74,-0.58 1.42,-1.17 2.04,-1.75 0.62,-0.58 1.28,-1.21 1.98,-1.88 0.21,-0.09 0.42,-0.16 0.65,-0.2 0.23,-0.05 0.44,-0.07 0.65,-0.07zm-4.39 -7.32c0,-0.09 0.07,-0.32 0.22,-0.71 0.14,-0.38 0.22,-0.64 0.22,-0.77l0 -0.61 0 -0.13 -0.06 0c-0.04,0 -0.07,0.07 -0.09,0.2 -0.02,0.13 -0.03,0.22 -0.03,0.27 -0.04,0.22 -0.09,0.47 -0.16,0.74 -0.06,0.27 -0.09,0.52 -0.09,0.74l0 0.13 0 0.07 0 0.07 0 0.07 0 -0.07zm-1.48 0.34l0.06 -0.07c0.12,-0.22 0.16,-0.38 0.12,-0.47 0.21,-0.63 0.35,-1.23 0.43,-1.81 0.08,-0.58 0.17,-1.21 0.25,-1.88l0 -1.14c0,-0.18 -0.03,-0.49 -0.09,-0.94 -0.06,-0.45 -0.13,-0.67 -0.22,-0.67l0 0.27 0.06 0.67 0 1.48 -0.12 1.88c0,0.18 -0.02,0.36 -0.06,0.54 -0.04,0.18 -0.08,0.36 -0.12,0.54l-0.12 0.74 -0.19 0.6 0 0.27 0 0.07 0 -0.07zm-6.37 4.64c0.05,0 0.17,-0.02 0.38,-0.07 0.22,-0.05 0.32,-0.09 0.32,-0.13 0.8,-0.31 1.48,-0.78 2.05,-1.41 0.58,-0.63 1.05,-1.34 1.43,-2.15 0.37,-0.81 0.65,-1.66 0.81,-2.55 0.17,-0.9 0.26,-1.77 0.26,-2.62 0,-0.9 -0.06,-1.76 -0.19,-2.59 -0.12,-0.83 -0.27,-1.69 -0.43,-2.59 -0.76,0.94 -1.4,1.98 -1.94,3.13 -0.53,1.14 -0.97,2.33 -1.33,3.56 -0.36,1.23 -0.67,2.49 -0.92,3.76 -0.26,1.28 -0.47,2.5 -0.64,3.66l0.19 0zm-0.74 10.62c-0.08,-0.09 -0.19,-0.13 -0.31,-0.13l0.25 0.13 0.06 0zm0.06 -22.78c-0.49,0.49 -0.83,1.08 -1.02,1.75 -0.19,0.67 -0.33,1.38 -0.43,2.12 -0.1,0.74 -0.2,1.46 -0.28,2.15 -0.08,0.69 -0.27,1.27 -0.56,1.71 -0.08,0.94 -0.19,1.88 -0.31,2.82 -0.12,0.94 -0.19,1.9 -0.19,2.89l0.06 0.61 0 0.07 0 -0.07 0.06 -0.2 0 -0.81 0 -0.13 0.12 -1.14 0.25 -2.22c0.08,-0.63 0.17,-1.32 0.28,-2.08 0.1,-0.76 0.26,-1.46 0.46,-2.08 -0.04,-0.13 -0.01,-0.41 0.09,-0.84 0.1,-0.43 0.22,-0.87 0.34,-1.34 0.12,-0.47 0.25,-0.93 0.37,-1.38 0.12,-0.45 0.23,-0.76 0.31,-0.94 0.08,-0.18 0.19,-0.32 0.31,-0.44 0.12,-0.11 0.19,-0.26 0.19,-0.44l-0.06 0zm0.43 -3.96c-0.81,0.4 -1.54,1.33 -2.16,2.79 -0.64,1.46 -1.17,3.07 -1.59,4.84 -0.43,1.77 -0.76,3.52 -0.98,5.24 -0.23,1.72 -0.34,3.08 -0.34,4.07 0,0.9 0.06,1.77 0.19,2.62l0.06 -0.07c-0.25,-0.72 -0.3,-1.84 -0.16,-3.36 0.14,-1.52 0.39,-3.12 0.73,-4.8 0.35,-1.68 0.74,-3.29 1.2,-4.84 0.44,-1.55 0.83,-2.75 1.15,-3.6 0.16,-0.4 0.34,-0.81 0.53,-1.21 0.19,-0.4 0.43,-0.76 0.76,-1.08 0.08,-0.09 0.22,-0.16 0.39,-0.2 0.19,-0.04 0.28,-0.16 0.28,-0.34l-0.06 -0.07zm5.88 30.38l-0.12 0 0.12 0zm1.73 -5.24c-0.12,0.13 -0.25,0.25 -0.37,0.34 -0.08,0.04 -0.16,0.11 -0.25,0.2l-0.12 0.13 -0.19 0.27 0 0.07 0.12 0 0.56 -0.6 0.25 -0.34 0 -0.07zm1.3 -2.76c0,0 0,0.02 0,0.07l-0.12 0.07 -0.31 0.27 -0.06 0.07 -0.49 0.47 -0.93 0.94 -0.8 0.74c-0.25,0.22 -0.49,0.46 -0.74,0.71 -0.25,0.25 -0.52,0.48 -0.8,0.7 -0.21,0.18 -0.45,0.35 -0.74,0.5 -0.29,0.16 -0.56,0.3 -0.8,0.44l-0.74 0.27 0 0.07 0.31 -0.13c0.16,0.09 0.42,0.03 0.77,-0.17 0.35,-0.2 0.72,-0.45 1.11,-0.74 0.39,-0.29 0.75,-0.57 1.08,-0.84 0.33,-0.27 0.56,-0.47 0.68,-0.61l0 -0.07c0.49,-0.36 0.94,-0.78 1.33,-1.28 0.39,-0.49 0.82,-0.96 1.27,-1.41l0 -0.07zm10.7 -7.06l0.12 0.13c-0.08,0 -0.12,-0.04 -0.12,-0.13zm7.55 6.72c0,0.94 -0.25,1.79 -0.74,2.55 -0.49,0.76 -1.11,1.41 -1.86,1.95 -0.74,0.54 -1.55,0.95 -2.41,1.24 -0.87,0.29 -1.69,0.44 -2.47,0.44 -0.29,0 -0.76,-0.06 -1.42,-0.17 -0.66,-0.11 -1.34,-0.29 -2.04,-0.54 -0.7,-0.25 -1.32,-0.53 -1.86,-0.84 -0.54,-0.31 -0.8,-0.67 -0.8,-1.08l0.06 -0.2 1.3 -0.13c0.17,0.04 0.31,0.08 0.43,0.1 0.12,0.02 0.27,0.03 0.43,0.03l-0.25 0 0.12 -0.07c0.21,0.05 0.4,0.05 0.59,0 0.19,-0.04 0.36,-0.11 0.53,-0.2l-0.06 0.07c0.62,-0.22 1.23,-0.48 1.83,-0.77 0.6,-0.29 1.12,-0.68 1.58,-1.18l-0.19 0.2c0.95,-0.9 1.42,-1.99 1.42,-3.29l0 0.27c0.04,-0.99 -0.12,-1.93 -0.49,-2.82 -0.37,-0.9 -0.8,-1.73 -1.3,-2.49l0.06 0.2c-0.45,-0.76 -1.01,-1.58 -1.67,-2.45 -0.66,-0.87 -1.29,-1.77 -1.89,-2.69 -0.6,-0.92 -1.11,-1.85 -1.55,-2.79 -0.43,-0.94 -0.65,-1.88 -0.65,-2.82 0,-1.12 0.29,-2.13 0.86,-3.02 0.58,-0.9 1.3,-1.65 2.17,-2.25 0.86,-0.6 1.8,-1.06 2.81,-1.38 1.01,-0.31 1.97,-0.47 2.88,-0.47 0.16,0 0.46,0.03 0.9,0.1 0.43,0.07 0.87,0.17 1.3,0.3 0.43,0.13 0.82,0.3 1.18,0.5 0.35,0.2 0.53,0.44 0.53,0.71 0,0.13 -0.05,0.25 -0.16,0.34 -0.1,0.09 -0.2,0.18 -0.28,0.27 -0.17,0.04 -0.41,0.16 -0.74,0.34 -0.33,0.18 -0.66,0.39 -0.99,0.64 -0.33,0.25 -0.65,0.48 -0.96,0.7 -0.31,0.22 -0.53,0.4 -0.65,0.54l0.19 -0.2c-0.62,0.58 -1.15,1.27 -1.61,2.05 -0.45,0.78 -0.68,1.65 -0.68,2.59 0,1.34 0.35,2.58 1.05,3.7l-0.06 -0.07c0.08,0 0.13,0.05 0.15,0.13 0.02,0.09 0.05,0.18 0.09,0.27l-0.06 -0.07 0.37 0.54 -0.25 -0.34c0.49,0.76 1.04,1.62 1.64,2.59 0.6,0.96 1.17,1.95 1.7,2.96 0.54,1.01 0.99,2.03 1.36,3.06 0.37,1.03 0.56,2.02 0.56,2.96zm-10.58 3.16c-0.04,0.05 -0.12,0.07 -0.25,0.07 0.12,0 0.21,-0.02 0.25,-0.07zm-1.3 0.2l0.06 0 -0.06 0zm0.12 0l0.06 0 -0.06 0zm0.31 0.07l0.06 0.07 -0.06 -0.07zm0.25 0.13l0.62 0.13 -0.62 -0.13zm1.55 -23.86c-0.12,0 -0.26,0.13 -0.4,0.4 -0.14,0.27 -0.28,0.57 -0.4,0.91 -0.12,0.34 -0.24,0.66 -0.34,0.97 -0.1,0.31 -0.15,0.54 -0.15,0.67l0.09 0.13 0 -0.07 0.09 -0.2c0.08,-0.31 0.17,-0.59 0.28,-0.84 0.1,-0.25 0.2,-0.5 0.28,-0.77 -0.04,-0.09 0.05,-0.28 0.28,-0.57 0.23,-0.29 0.34,-0.48 0.34,-0.57l-0.06 -0.07zm4.52 -2.82l-0.37 -0.13c-0.08,-0.04 -0.23,-0.06 -0.43,-0.03 -0.21,0.02 -0.37,0.03 -0.49,0.03 -0.7,0 -1.39,0.17 -2.07,0.5 -0.68,0.34 -1.28,0.78 -1.79,1.35 -0.52,0.56 -0.94,1.2 -1.27,1.91 -0.33,0.72 -0.49,1.46 -0.49,2.22l0.06 0.2 0.06 -0.2 0.06 -0.54c0.04,-0.36 0.16,-0.75 0.37,-1.18 0.21,-0.43 0.41,-0.8 0.62,-1.11 0.29,-0.36 0.69,-0.72 1.21,-1.08 0.52,-0.36 0.86,-0.67 1.02,-0.94 0.37,-0.18 0.73,-0.32 1.08,-0.44 0.35,-0.11 0.73,-0.21 1.14,-0.3l1.18 -0.13 0.19 -0.07 -0.06 -0.07zm0.74 21.91c-0.04,0 -0.07,0.06 -0.09,0.17 -0.02,0.11 -0.03,0.19 -0.03,0.23 -0.37,0.76 -0.71,1.34 -1.02,1.75 -0.31,0.4 -0.75,0.87 -1.33,1.41 -0.08,0 -0.16,0.05 -0.25,0.13l-0.12 0.07 0 0.07c0.29,0 0.61,-0.13 0.96,-0.4 0.35,-0.27 0.66,-0.61 0.93,-1.01 0.27,-0.4 0.49,-0.82 0.68,-1.24 0.19,-0.43 0.28,-0.8 0.28,-1.11l0 -0.07zm2.29 -2.82l0 -0.07 -0.19 -0.47 0 -0.07c-0.12,-0.27 -0.38,-0.78 -0.77,-1.55 -0.39,-0.76 -0.82,-1.57 -1.3,-2.42 -0.47,-0.85 -0.94,-1.63 -1.39,-2.35 -0.45,-0.72 -0.78,-1.17 -0.99,-1.34l0.12 0.34c0.08,0.05 0.34,0.46 0.77,1.24 0.43,0.78 0.91,1.65 1.42,2.59 0.52,0.94 1,1.84 1.45,2.69 0.45,0.85 0.74,1.37 0.87,1.55l0.06 0 -0.06 -0.13zm-3.28 -7.73c0,-0.09 -0.02,-0.13 -0.06,-0.13 -0.04,0 -0.06,-0.04 -0.06,-0.13 0,0.09 0.04,0.18 0.12,0.27zm-6.43 15.05c0.04,0.05 0.1,0.07 0.19,0.07l-0.19 0 0 -0.07zm44.35 -22.18c-1.15,3.27 -2.17,6.57 -3.06,9.91 -0.89,3.34 -1.87,6.66 -2.94,9.98 -0.21,0.72 -0.47,1.44 -0.8,2.18 -0.33,0.74 -0.7,1.42 -1.11,2.05l-0.74 0.2 0 0.07c-0.08,0.13 -0.2,0.22 -0.34,0.27 -0.14,0.04 -0.28,0.07 -0.4,0.07 -0.37,0 -0.83,-0.09 -1.36,-0.27 -0.54,-0.18 -1.05,-0.4 -1.55,-0.67 -0.49,-0.27 -0.96,-0.58 -1.39,-0.94 -0.43,-0.36 -0.73,-0.72 -0.9,-1.08 -0.66,-1.3 -1.24,-3.02 -1.73,-5.17 -0.49,-2.15 -0.91,-4.39 -1.24,-6.72 -0.33,-2.33 -0.6,-4.61 -0.8,-6.85 -0.21,-2.24 -0.33,-4.12 -0.37,-5.65l0.49 -0.6 0.19 0c0.25,0 0.59,0.05 1.02,0.17 0.43,0.11 0.87,0.27 1.3,0.47 0.43,0.2 0.82,0.44 1.18,0.71 0.35,0.27 0.57,0.54 0.65,0.81 0.74,3.05 1.41,6.2 2.01,9.48 0.6,3.27 1.12,6.45 1.58,9.54 0.08,-0.45 0.28,-1.37 0.59,-2.76 0.31,-1.39 0.68,-3 1.11,-4.84 0.43,-1.84 0.91,-3.76 1.42,-5.78 0.52,-2.02 1.03,-3.88 1.55,-5.58 0.52,-1.7 1.01,-3.1 1.48,-4.2 0.47,-1.1 0.88,-1.65 1.21,-1.65 0.25,0 0.63,0.07 1.15,0.2 0.52,0.13 1.02,0.32 1.51,0.57 0.5,0.25 0.94,0.52 1.33,0.81 0.39,0.29 0.59,0.59 0.59,0.91l-1.61 4.37zm-16.08 7.12c0,0.49 0.04,1.09 0.12,1.78 0.08,0.69 0.16,1.29 0.25,1.78l0.49 2.35c0,0.04 0.02,0.16 0.06,0.34 0.04,0.18 0.08,0.27 0.12,0.27l0 -0.13 -0.06 -0.34 -0.06 -0.07c-0.04,-0.58 -0.11,-1.18 -0.22,-1.78 -0.1,-0.6 -0.2,-1.2 -0.28,-1.78 -0.08,-0.36 -0.13,-0.7 -0.16,-1.04 -0.02,-0.34 -0.05,-0.68 -0.09,-1.04 0,-0.05 -0.01,-0.16 -0.03,-0.34 -0.02,-0.18 -0.05,-0.27 -0.09,-0.27l-0.06 0.27zm2.29 13.04c-0.37,-2.11 -0.86,-4.18 -1.45,-6.22 -0.6,-2.04 -1.04,-4.13 -1.33,-6.28l-0.8 -7.93 -0.06 1.01c0,1.3 0.08,2.86 0.25,4.67 0.17,1.81 0.41,3.64 0.74,5.48 0.33,1.84 0.71,3.59 1.15,5.27 0.43,1.68 0.94,3.04 1.51,4.07l0 -0.07zm9.46 -22.18c-0.49,0.76 -0.92,1.71 -1.27,2.86 -0.35,1.14 -0.67,2.35 -0.96,3.63 -0.29,1.28 -0.57,2.54 -0.83,3.8 -0.27,1.25 -0.55,2.37 -0.84,3.36 -0.21,0.67 -0.38,1.38 -0.53,2.12 -0.14,0.74 -0.3,1.44 -0.46,2.12l-0.31 1.68 -0.19 0.87 0 0.07 0.06 -0.07 0.06 -0.34c0.08,-0.49 0.19,-0.97 0.31,-1.44 0.12,-0.47 0.25,-0.95 0.37,-1.45l0.8 -3.23c0.37,-1.52 0.78,-3.07 1.24,-4.64 0,-0.05 0.02,-0.09 0.06,-0.13 0.29,-0.72 0.5,-1.46 0.65,-2.22 0.14,-0.76 0.29,-1.52 0.43,-2.29 0.14,-0.76 0.31,-1.51 0.49,-2.25 0.19,-0.74 0.46,-1.49 0.83,-2.25l0.12 -0.2 -0.06 0zm1.18 -2.89c-0.08,0 -0.19,0.2 -0.31,0.6 -0.12,0.4 -0.19,0.65 -0.19,0.74l0 0.27c0,0.09 0,0.13 0,0.13l0.06 0 0 -0.13 0.06 -0.2c0.08,-0.22 0.16,-0.44 0.25,-0.64 0.08,-0.2 0.12,-0.39 0.12,-0.57l0 -0.2zm5.38 -11.29c0,-0.9 0.17,-1.81 0.5,-2.76 0.22,-0.27 0.48,-0.45 0.81,-0.54 0.96,0 1.94,0.22 2.94,0.67 1,0.45 1.73,1.19 2.19,2.22 -0.12,1.17 -0.28,2.44 -0.46,3.83 -0.2,1.39 -0.54,2.6 -1.03,3.63l-0.81 0.07c-0.25,0 -0.54,-0.08 -0.85,-0.23 -0.31,-0.16 -0.62,-0.36 -0.91,-0.61 -0.29,-0.25 -0.56,-0.49 -0.81,-0.74 -0.25,-0.25 -0.43,-0.46 -0.56,-0.64l0.12 0.07c-0.25,-0.18 -0.45,-0.48 -0.63,-0.91 -0.17,-0.43 -0.28,-0.88 -0.34,-1.38 -0.06,-0.49 -0.1,-0.99 -0.12,-1.48 -0.02,-0.49 -0.03,-0.89 -0.03,-1.21zm1.73 1.14l0.06 1.28 0.06 0.13 0.06 0 0 -0.07 0 -0.27c0,-0.63 0.04,-1.24 0.12,-1.85 0.08,-0.6 0.12,-1.22 0.12,-1.85 0,-0.18 -0.02,-0.27 -0.06,-0.27 0,0 0,0.04 0,0.13 -0.08,0.18 -0.12,0.34 -0.12,0.47l-0.25 1.75 0 0.54zm5.44 42c-0.08,0.05 -0.23,0.1 -0.43,0.17 -0.21,0.07 -0.35,0.1 -0.43,0.1 -0.82,0 -1.63,-0.18 -2.41,-0.54 -0.08,-0.04 -0.26,-0.14 -0.53,-0.3 -0.27,-0.16 -0.44,-0.21 -0.53,-0.17 -0.29,-0.18 -0.58,-0.37 -0.87,-0.57 -0.29,-0.2 -0.56,-0.41 -0.8,-0.64l-0.49 -0.87c-0.21,-1.52 -0.27,-3.11 -0.19,-4.77 0.08,-1.66 0.12,-3.27 0.12,-4.84 0,-2.02 -0.08,-4.02 -0.25,-6.01 -0.17,-1.99 -0.25,-4 -0.25,-6.01l0.12 -0.87 -0.06 0.4c0,-0.27 0.01,-0.7 0.03,-1.31 0.02,-0.61 0.06,-1.23 0.13,-1.88 0.06,-0.65 0.13,-1.24 0.23,-1.78 0.08,-0.54 0.2,-0.92 0.32,-1.14l0.65 0.47 0 -0.27 0.37 -0.54 0.25 0c0.54,0 1.21,0.21 2.01,0.64 0.8,0.43 1.33,0.91 1.58,1.44 0.37,0.81 0.67,2.11 0.9,3.9 0.23,1.79 0.39,3.73 0.5,5.81 0.1,2.08 0.17,4.11 0.22,6.08 0.04,1.97 0.06,3.49 0.06,4.57 0,1.43 0.04,2.9 0.12,4.4 0.08,1.5 0.02,2.92 -0.19,4.27l-0.19 0.27zm-4.64 -6.32c0,-3.18 -0.02,-6.33 -0.06,-9.44 -0.04,-3.11 -0.06,-6.26 -0.06,-9.44l-0.06 -0.27c-0.21,1.17 -0.32,2.34 -0.34,3.53 -0.02,1.19 -0.03,2.36 -0.03,3.53 0,2.24 0.02,4.51 0.06,6.82 0.04,2.31 0.19,4.56 0.43,6.75l0.06 -0.07 0 -1.41zm0.68 -13.71c-0.12,0 -0.19,0.05 -0.19,0.14 0,0.04 0.02,0.07 0.06,0.07 -0.04,0.22 -0.09,0.45 -0.16,0.67 -0.06,0.22 -0.09,0.45 -0.09,0.67l0 1.21 0.25 1.28 0.12 0.4 0.06 0 0 -0.07 -0.06 -0.27c-0.12,-0.67 -0.14,-1.36 -0.06,-2.05 0.08,-0.7 0.12,-1.36 0.12,-1.98l-0.06 -0.07z"/>
    <path class="fil1" d="M368.64 217.22c-0.12,0.18 -0.35,0.45 -0.68,0.81 -0.33,0.09 -0.61,0.13 -0.86,0.13 -0.49,0 -1.02,-0.11 -1.6,-0.34 -0.57,-0.22 -1.1,-0.53 -1.62,-0.91 -0.51,-0.38 -0.95,-0.82 -1.32,-1.31 -0.36,-0.49 -0.59,-1.03 -0.67,-1.61 -0.35,-2.69 -0.6,-5.41 -0.75,-8.16 -0.16,-2.76 -0.26,-5.5 -0.3,-8.23 -0.12,0.67 -0.3,1.58 -0.53,2.72 -0.23,1.14 -0.51,2.4 -0.84,3.76 -0.33,1.37 -0.7,2.77 -1.11,4.2 -0.41,1.43 -0.86,2.76 -1.33,3.96 -0.47,1.21 -0.98,2.24 -1.52,3.09 -0.54,0.85 -1.09,1.37 -1.67,1.55l0.06 -0.07c-0.33,0.22 -0.56,0.36 -0.68,0.4 -0.12,0.04 -0.37,0.11 -0.74,0.2l0.25 0c0,0.04 -0.1,0.07 -0.31,0.07 -0.21,0 -0.33,0 -0.37,0 -1.2,0 -2.35,-0.23 -3.46,-0.7 -1.11,-0.47 -2.09,-1.12 -2.94,-1.95 -0.84,-0.83 -1.53,-1.81 -2.04,-2.96 -0.52,-1.14 -0.77,-2.36 -0.77,-3.66 0,-1.84 0.31,-3.89 0.93,-6.15 0.62,-2.26 1.49,-4.38 2.63,-6.35 1.13,-1.97 2.5,-3.62 4.11,-4.94 1.61,-1.32 3.38,-1.98 5.32,-1.98l0.12 -0.07 0.43 0c0.45,0 0.98,0.07 1.58,0.2 0.6,0.13 1.1,0.29 1.51,0.47 0.21,-0.09 0.42,-0.09 0.65,0 0.23,0.09 0.44,0.18 0.65,0.27l0.06 0c0,-1.57 0.01,-3.3 0.03,-5.21 0.02,-1.9 0.11,-3.83 0.28,-5.78 0.16,-1.95 0.39,-3.85 0.68,-5.71 0.29,-1.86 0.68,-3.53 1.18,-5.01 0.21,-0.18 0.4,-0.32 0.59,-0.44 0.19,-0.11 0.4,-0.17 0.65,-0.17 1.07,0 1.87,0.24 2.38,0.71 0.52,0.47 1.14,1.02 1.89,1.65l0.19 0.54 0.06 1.61c0,3.81 -0.2,7.67 -0.59,11.59 -0.39,3.92 -0.59,7.85 -0.59,11.79 0,2.28 0.02,4.59 0.06,6.92 0.04,2.33 0.16,4.64 0.37,6.92 0.08,1.17 0.22,2.4 0.4,3.7 0.19,1.3 0.28,2.53 0.28,3.7l-0.06 0.74zm-20.88 -19.96c0.33,-0.9 0.89,-1.75 1.66,-2.55 0.77,-0.81 1.51,-1.48 2.21,-2.02 0.04,-0.04 0.16,-0.13 0.34,-0.27 0.19,-0.13 0.28,-0.22 0.28,-0.27l-0.06 0 -0.56 0.27c0,0.05 -0.02,0.07 -0.06,0.07 -0.04,0 -0.06,0.02 -0.06,0.07l-0.67 0.47c-0.29,0.22 -0.56,0.46 -0.79,0.71 -0.25,0.25 -0.49,0.48 -0.74,0.71 -0.69,0.67 -1.31,1.52 -1.84,2.55 -0.53,1.03 -0.98,1.99 -1.35,2.89l-0.12 0.13c-0.44,1.26 -0.88,2.55 -1.29,3.9 -0.4,1.35 -0.71,2.69 -0.92,4.03l0.06 0c0.04,-0.45 0.22,-1.2 0.53,-2.25 0.3,-1.05 0.65,-2.15 1.04,-3.29 0.39,-1.14 0.79,-2.21 1.23,-3.19 0.43,-0.99 0.8,-1.63 1.14,-1.95zm1.51 3.16l0.06 0 0 -0.07 0.06 -0.13 0.19 -0.54c0.04,-0.09 0.13,-0.24 0.28,-0.44 0.14,-0.2 0.22,-0.32 0.22,-0.37 0,-0.04 -0.04,-0.07 -0.12,-0.07 -0.08,0 -0.22,0.19 -0.4,0.57 -0.19,0.38 -0.28,0.64 -0.28,0.77l0 0.27zm0.74 -4.7c-0.54,0.4 -1,0.97 -1.39,1.71 -0.39,0.74 -0.73,1.42 -1.02,2.05l0 0.07c-0.29,0.45 -0.5,1.02 -0.65,1.71 -0.14,0.69 -0.26,1.31 -0.34,1.85 0.04,-0.04 0.13,-0.28 0.28,-0.7 0.14,-0.43 0.3,-0.89 0.46,-1.38 0.17,-0.49 0.34,-0.99 0.53,-1.48 0.19,-0.49 0.34,-0.87 0.46,-1.14l0.06 -0.07c0.17,-0.36 0.35,-0.68 0.56,-0.97 0.21,-0.29 0.41,-0.62 0.62,-0.97l0.37 -0.54 0.06 -0.07 0 -0.07zm0.19 19.22l-0.74 -0.13c0,0 -0.02,-0.02 -0.06,-0.07l-0.31 -0.13c-0.08,-0.05 -0.17,-0.12 -0.28,-0.24 -0.1,-0.11 -0.2,-0.17 -0.28,-0.17l0 0.07c0,0.22 0.18,0.43 0.56,0.61 0.37,0.18 0.62,0.29 0.74,0.34l0.37 0c0.08,0 0.25,-0.06 0.49,-0.17 0.25,-0.11 0.37,-0.21 0.37,-0.3 0,0 -0.04,0 -0.12,0 -0.08,0.04 -0.13,0.07 -0.15,0.07 -0.02,0 -0.07,0.04 -0.16,0.13l-0.43 0zm7.79 -22.18c-1.07,0.63 -2.1,1.66 -3.09,3.09 -0.99,1.43 -1.88,3.01 -2.66,4.74 -0.78,1.72 -1.41,3.47 -1.89,5.24 -0.47,1.77 -0.71,3.3 -0.71,4.6 0,1.12 0.14,2.13 0.43,3.02 0.66,-0.18 1.3,-0.75 1.92,-1.71 0.62,-0.96 1.2,-2.14 1.73,-3.53 0.54,-1.39 1.03,-2.9 1.48,-4.54 0.45,-1.63 0.87,-3.19 1.24,-4.67 0.37,-1.48 0.69,-2.78 0.96,-3.9 0.27,-1.12 0.46,-1.9 0.59,-2.35zm5.32 -17.14c-0.04,0.31 -0.14,0.67 -0.31,1.08l0.06 0c-0.42,2.6 -0.67,5.24 -0.72,7.93 -0.06,2.69 -0.12,5.35 -0.21,8 -0.04,0.63 -0.05,1.27 -0.03,1.92 0.02,0.65 0.03,1.29 0.03,1.92 0,1.34 0.01,2.82 0.03,4.44 0.01,1.61 0.11,3.09 0.3,4.43l0.17 1.28 0 0.07 0.06 -0.07c-0.06,-0.76 -0.1,-1.58 -0.13,-2.45 -0.03,-0.87 -0.05,-1.69 -0.05,-2.45 0,-3.45 0.07,-6.89 0.22,-10.32 0.14,-3.43 0.22,-6.87 0.22,-10.32 0,-0.89 0.07,-1.81 0.22,-2.76 0.14,-0.94 0.22,-1.86 0.22,-2.75l-0.06 0.07zm1.05 28.63c0,-0.49 0,-1.29 0,-2.38 0,-1.1 -0.01,-2.32 -0.03,-3.66 -0.02,-1.34 -0.04,-2.74 -0.06,-4.2 -0.02,-1.46 -0.05,-2.8 -0.09,-4.03 -0.04,-1.23 -0.08,-2.26 -0.12,-3.09 -0.04,-0.83 -0.08,-1.31 -0.12,-1.45l-0.06 2.42 0 4.17c0,1.7 0.05,3.41 0.15,5.11 0.1,1.7 0.18,3.41 0.22,5.11l0.06 1.55 0 0.81 0 0.07 0.06 -0.07 0 -0.34zm0.37 4.3c0,-0.18 -0.02,-0.36 -0.06,-0.54 -0.04,-0.18 -0.06,-0.36 -0.06,-0.54l-0.06 -0.4 0 -0.27 -0.06 0c-0.04,0 -0.07,0.05 -0.09,0.13 -0.02,0.09 -0.03,0.16 -0.03,0.2l0 0.81 0.06 0.27 0.19 0.87c0,0.18 0.02,0.27 0.06,0.27l0.06 0 0 -0.27 0 -0.54zm-9.22 -19.76l0.12 0 -0.12 0zm0.12 0c0.04,-0.04 0.1,-0.07 0.19,-0.07 -0.04,0 -0.08,0.02 -0.12,0.07l-0.06 0zm26.66 0c0.04,-0.04 0.1,-0.07 0.19,-0.07 -0.04,0 -0.08,0.02 -0.12,0.07l-0.06 0zm9.4 1.75l0.06 0 -0.06 0zm-9.53 -1.75l0.12 0 -0.12 0zm13.67 29.64c0,0.27 -0.13,0.44 -0.4,0.5 -0.27,0.07 -0.5,0.1 -0.71,0.1 -1.81,0 -3.28,-0.39 -4.39,-1.18 -1.11,-0.78 -1.99,-1.8 -2.63,-3.06 -0.64,-1.25 -1.09,-2.65 -1.36,-4.2 -0.27,-1.55 -0.48,-3.08 -0.65,-4.6 -0.16,0.63 -0.42,1.51 -0.77,2.65 -0.35,1.14 -0.77,2.3 -1.27,3.46 -0.49,1.17 -1.01,2.21 -1.55,3.12 -0.54,0.92 -1.07,1.47 -1.61,1.65l0.06 -0.07c-0.33,0.22 -0.56,0.36 -0.68,0.4 -0.12,0.04 -0.37,0.11 -0.74,0.2l0.25 0c0,0.04 -0.1,0.07 -0.31,0.07 -0.21,0 -0.33,0 -0.37,0 -1.2,0 -2.35,-0.23 -3.46,-0.7 -1.11,-0.47 -2.09,-1.12 -2.94,-1.95 -0.84,-0.83 -1.53,-1.81 -2.04,-2.96 -0.52,-1.14 -0.77,-2.36 -0.77,-3.66 0,-1.84 0.31,-3.89 0.93,-6.15 0.62,-2.26 1.49,-4.38 2.63,-6.35 1.13,-1.97 2.5,-3.62 4.11,-4.94 1.61,-1.32 3.38,-1.98 5.32,-1.98l0.12 -0.07 0.43 0c0.45,0 0.98,0.06 1.58,0.17 0.6,0.11 1.1,0.28 1.51,0.5l0.62 0 0.25 -0.67 0.49 -0.6c-0.08,-0.09 0.01,-0.17 0.28,-0.24 0.27,-0.07 0.42,-0.1 0.46,-0.1 0.7,0 1.35,0.19 1.95,0.57 0.6,0.38 1.06,0.88 1.39,1.51l-0.19 -0.27 0.31 0.94 0 -0.07 0.06 0.27 0 -0.07 0 -0.07c0.21,1.7 0.34,3.43 0.4,5.17 0.06,1.75 0.1,3.49 0.12,5.24 0.02,1.75 0.06,3.48 0.12,5.21 0.06,1.72 0.22,3.46 0.46,5.21 0.12,0.76 0.29,1.63 0.5,2.62 0.21,0.99 0.49,1.81 0.86,2.49 0.04,0.09 0.14,0.19 0.31,0.3 0.17,0.11 0.34,0.25 0.53,0.4 0.19,0.16 0.36,0.34 0.53,0.54 0.16,0.2 0.25,0.41 0.25,0.64zm-20.97 -22.45c0,-0.27 0.17,-0.62 0.53,-1.04 0.35,-0.43 0.74,-0.84 1.18,-1.24 0.43,-0.4 0.87,-0.78 1.3,-1.14 0.43,-0.36 0.73,-0.63 0.9,-0.81l0.12 -0.2 -0.06 -0.07c-0.84,0.27 -1.57,0.71 -2.22,1.31 -0.64,0.6 -1.23,1.28 -1.74,2.02 -0.52,0.74 -0.99,1.52 -1.4,2.35 -0.41,0.83 -0.79,1.65 -1.12,2.45 -0.21,0.49 -0.38,1.01 -0.53,1.55 -0.14,0.54 -0.32,1.08 -0.54,1.61 -0.08,0.22 -0.15,0.44 -0.22,0.64 -0.06,0.2 -0.11,0.41 -0.15,0.64l-0.12 0.67 0 0.07c0.06,0 0.11,-0.04 0.14,-0.13 0.03,-0.09 0.04,-0.16 0.04,-0.2 0.08,-0.36 0.2,-0.72 0.34,-1.08 0.14,-0.36 0.28,-0.72 0.4,-1.08 0.12,-0.31 0.32,-0.78 0.59,-1.41 0.27,-0.63 0.56,-1.27 0.87,-1.92 0.31,-0.65 0.62,-1.26 0.93,-1.81 0.31,-0.56 0.57,-0.95 0.77,-1.18zm4.27 -2.89c0.04,0 0.08,-0.02 0.12,-0.07 0.04,-0.04 0.04,-0.09 0,-0.13 -0.58,0.04 -1.14,0.3 -1.67,0.77 -0.53,0.47 -1.04,1.03 -1.51,1.68 -0.47,0.65 -0.9,1.33 -1.27,2.05 -0.37,0.72 -0.66,1.34 -0.87,1.88l-0.99 2.49c-0.16,0.45 -0.27,0.78 -0.31,1.01l-0.12 0.54 0 0.07c0.2,0 0.31,-0.12 0.31,-0.37 0,-0.25 0.04,-0.46 0.12,-0.64 0.21,-0.49 0.41,-0.95 0.62,-1.38 0.21,-0.43 0.41,-0.88 0.62,-1.38 0.21,-0.49 0.49,-1.09 0.86,-1.78 0.37,-0.69 0.77,-1.37 1.21,-2.02 0.43,-0.65 0.9,-1.23 1.39,-1.75 0.49,-0.51 0.99,-0.84 1.48,-0.97zm-1.79 3.23c-0.25,0 -0.51,0.25 -0.77,0.74 -0.27,0.49 -0.44,0.85 -0.53,1.08 -0.04,0.09 -0.07,0.2 -0.09,0.34 -0.02,0.13 -0.05,0.25 -0.09,0.34 0,0.13 0,0.2 0,0.2 0.04,0 0.08,-0.06 0.12,-0.17 0.04,-0.11 0.06,-0.19 0.06,-0.24 0.08,-0.22 0.23,-0.47 0.43,-0.74 0.21,-0.27 0.37,-0.52 0.49,-0.74l0.49 -0.6 0.06 -0.2 -0.19 0zm0 18.41c0,-0.05 -0.04,-0.07 -0.12,-0.07 -0.08,0 -0.14,0 -0.19,0 -0.17,-0.09 -0.32,-0.16 -0.46,-0.2 -0.14,-0.05 -0.28,-0.11 -0.4,-0.2l-0.06 -0.13c-0.21,-0.13 -0.33,-0.37 -0.37,-0.71 -0.04,-0.34 -0.17,-0.5 -0.37,-0.5l-0.06 0.13c0,0.58 0.23,1.08 0.68,1.48 0.04,0 0.2,0.04 0.46,0.13 0.27,0.09 0.44,0.13 0.53,0.13l0.31 0 0.06 -0.07zm7.3 -21.98c-1.07,0.63 -2.1,1.66 -3.09,3.09 -0.99,1.43 -1.88,3.01 -2.66,4.74 -0.78,1.72 -1.41,3.47 -1.89,5.24 -0.47,1.77 -0.71,3.3 -0.71,4.6 0,1.12 0.14,2.13 0.43,3.02 0.66,-0.18 1.3,-0.75 1.92,-1.71 0.62,-0.96 1.2,-2.14 1.73,-3.53 0.54,-1.39 1.03,-2.9 1.48,-4.54 0.45,-1.63 0.87,-3.19 1.24,-4.67 0.37,-1.48 0.69,-2.78 0.96,-3.9 0.27,-1.12 0.46,-1.9 0.59,-2.35zm3.65 9.48c-0.17,-0.94 -0.22,-1.95 -0.16,-3.02 0.06,-1.08 0.09,-2.11 0.09,-3.09l-0.06 -0.13 0 -0.07 -0.06 0 0 0.07 -0.06 0.2c-0.04,0.22 -0.08,0.47 -0.12,0.74 -0.04,0.27 -0.06,0.51 -0.06,0.74l0 2.15c0,0.27 0.02,0.59 0.06,0.97 0.04,0.38 0.1,0.71 0.19,0.97 0.04,0.09 0.05,0.2 0.03,0.34 -0.02,0.13 0.01,0.2 0.09,0.2l0.06 0 0 -0.07zm0 -11.16c-0.45,1.34 -0.79,2.67 -1.02,3.96 -0.23,1.3 -0.34,2.67 -0.34,4.1 0,0.36 -0.01,0.71 -0.03,1.04 -0.02,0.34 -0.01,0.68 0.03,1.04 0.08,0.99 0.15,1.95 0.22,2.89 0.06,0.94 0.15,1.9 0.28,2.89l0.12 1.48 0.12 0.74 0 0.07c0.08,0 0.11,-0.04 0.09,-0.13 -0.02,-0.09 -0.03,-0.16 -0.03,-0.2l-0.06 -1.21c-0.08,-1.03 -0.14,-2.1 -0.19,-3.19 -0.04,-1.1 -0.06,-2.16 -0.06,-3.19l0 -3.23c0,-1.12 0.09,-2.27 0.28,-3.46 0.19,-1.19 0.38,-2.32 0.59,-3.39 0.04,0 0.06,-0.07 0.06,-0.2l-0.06 0zm1.61 2.69l-0.06 -0.2 0 0.07 -0.06 0.2 -0.11 0.4c-0.07,0.63 -0.16,1.29 -0.25,1.98 -0.09,0.69 -0.13,1.38 -0.13,2.05l0 1.55c0,0.4 0.01,0.96 0.03,1.68 0.02,0.72 0.05,1.46 0.11,2.22 0.05,0.76 0.13,1.48 0.23,2.15 0.09,0.67 0.2,1.17 0.31,1.48l0 -0.27 -0.06 -13.3z"/>
   </g>
  </g>
 </g>
</svg>
