<?xml version="1.0" encoding="UTF-8"?>
<!DOCTYPE svg PUBLIC "-//W3C//DTD SVG 1.1//EN" "http://www.w3.org/Graphics/SVG/1.1/DTD/svg11.dtd">
<!-- Creator: CorelDRAW 2020 (64-Bit) -->
<svg xmlns="http://www.w3.org/2000/svg" xml:space="preserve" width="76.4273mm" height="13.7172mm" version="1.1" style="shape-rendering:geometricPrecision; text-rendering:geometricPrecision; image-rendering:optimizeQuality; fill-rule:evenodd; clip-rule:evenodd"
viewBox="0 0 7628.91 1369.24"
 xmlns:xlink="http://www.w3.org/1999/xlink"
 xmlns:xodm="http://www.corel.com/coreldraw/odm/2003">
 <defs>
  <style type="text/css">
   <![CDATA[
    .fil1 {fill:#00AFEF}
    .fil0 {fill:#00AFEF;fill-rule:nonzero}
    .fil2 {fill:#3E4095;fill-rule:nonzero}
    .fil3 {fill:url(#id0);fill-rule:nonzero}
    .fil5 {fill:url(#id1);fill-rule:nonzero}
    .fil4 {fill:url(#id2);fill-rule:nonzero}
   ]]>
  </style>
  <linearGradient id="id0" gradientUnits="userSpaceOnUse" x1="2793.88" y1="695.14" x2="2553.95" y2="428.78">
   <stop offset="0" style="stop-opacity:1; stop-color:#3E4095"/>
   <stop offset="1" style="stop-opacity:1; stop-color:#00AFEF"/>
  </linearGradient>
  <radialGradient id="id1" gradientUnits="userSpaceOnUse" gradientTransform="matrix(0.889852 -0 -0 3.29321 187 -1353)" cx="1695.74" cy="590.15" r="497.42" fx="1695.74" fy="590.15">
   <stop offset="0" style="stop-opacity:1; stop-color:#00AFEF"/>
   <stop offset="1" style="stop-opacity:1; stop-color:#3E4095"/>
  </radialGradient>
  <radialGradient id="id2" gradientUnits="userSpaceOnUse" gradientTransform="matrix(2.6578 -0 -0 3.2856 -1317 -1382)" xlink:href="#id1" cx="794.52" cy="604.63" r="502.75" fx="794.52" fy="604.63">
  </radialGradient>
 </defs>
 <g id="Capa_x0020_1">
  <metadata id="CorelCorpID_0Corel-Layer"/>
  <g id="_2822240542192">
   <path class="fil0" d="M7466.29 1142.08l32.45 -79.21 32.46 79.21 -64.91 0zm-96.32 102.24l54.8 0 22.32 -54.79 103.29 0 22.33 54.79 56.19 0 -104.69 -246.01 -49.55 0 -104.69 246.01zm-242.33 0l53.74 0 0 -244.27 -53.74 0 0 244.27zm-328.08 -121.09l0 -74.67 41.52 0c26.87,0 43.62,12.91 43.62,36.99l0 0.7c0,20.93 -15.7,36.98 -42.57,36.98l-42.57 0zm-53.75 121.09l53.75 0 0 -73.29 40.83 0c54.79,0 98.75,-29.31 98.75,-85.84l0 -0.7c0,-49.9 -35.24,-84.44 -93.51,-84.44l-99.82 0 0 244.27zm-351.1 -102.24l32.46 -79.21 32.45 79.21 -64.91 0zm-96.32 102.24l54.8 0 22.33 -54.79 103.29 0 22.32 54.79 56.19 0 -104.68 -246.01 -49.56 0 -104.69 246.01zm-345.87 -125.63l0 -70.13 53.39 0c26.16,0 42.22,11.86 42.22,34.9l0 0.69c0,20.6 -15.01,34.55 -41.18,34.55l-54.44 0zm-53.75 125.63l53.75 0 0 -78.17 42.21 0 52.36 78.17 62.82 0 -59.66 -87.23c31.04,-11.52 52.34,-36.29 52.34,-75.73l0 -0.7c0,-23.03 -7.34,-42.23 -20.94,-55.84 -16.06,-16.04 -40.13,-24.77 -71.19,-24.77l-111.68 0 0 244.27zm-374.48 0l185.99 0 0 -47.81 -132.61 0 0 -51.29 115.16 0 0 -47.81 -115.16 0 0 -49.55 130.87 0 0 -47.8 -184.26 0 0 244.27zm-316.58 0l53.74 0 0 -194.72 74.33 0 0 -49.55 -202.39 0 0 49.55 74.33 0 0 194.72zm-392.29 -45.37c-43.26,0 -73.99,-34.9 -73.99,-76.77l0 -0.7c0,-41.86 30.03,-76.06 73.29,-76.06 43.28,0 73.98,34.89 73.98,76.76l0 0.71c0,41.86 -30.01,76.06 -73.28,76.06zm-0.7 49.56c75.37,0 130.17,-56.89 130.17,-126.33l0 -0.7c0,-69.43 -54.1,-125.62 -129.48,-125.62 -75.37,0 -130.15,56.88 -130.15,126.32l0 0.71c0,69.43 54.09,125.62 129.46,125.62zm-371.7 -4.19l53.73 0 0 -244.27 -53.73 0 0 244.27zm-278.18 3.48c52.68,0 89.69,-27.21 89.69,-75.71l0 -0.71c0,-42.57 -27.92,-60.36 -77.48,-73.27 -42.22,-10.83 -52.69,-16.05 -52.69,-32.12l0 -0.69c0,-11.87 10.82,-21.29 31.41,-21.29 20.59,0 41.87,9.07 63.51,24.09l27.9 -40.48c-24.77,-19.89 -55.13,-31.06 -90.72,-31.06 -49.91,0 -85.5,29.31 -85.5,73.63l0 0.7c0,48.5 31.75,62.12 80.95,74.68 40.83,10.47 49.19,17.45 49.19,31.04l0 0.7c0,14.31 -13.25,23.03 -35.23,23.03 -27.93,0 -50.96,-11.51 -72.94,-29.66l-31.75 38.04c29.31,26.17 66.65,39.08 103.64,39.08zm-345.86 -3.48l53.73 0 0 -244.27 -53.73 0 0 244.27zm-374.5 0l53.74 0 0 -94.57 116.56 0 0 -48.85 -116.56 0 0 -52.01 132.25 0 0 -48.84 -185.99 0 0 244.27z"/>
   <path class="fil1" d="M3380.51 1369.24c-314.32,-182.26 -953.22,-306.99 -1690.26,-306.99 -737.03,0 -1375.97,124.73 -1690.26,306.99 346.75,-150.42 973.99,-250.9 1690.26,-250.9 716.26,0 1343.51,100.48 1690.26,250.9z"/>
   <path class="fil2" d="M752.69 101.89c33.99,0 64.76,13.78 87.03,36.04 22.27,22.27 36.04,53.03 36.04,87.03 0,33.99 -13.78,64.76 -36.04,87.03 -22.27,22.27 -53.03,36.04 -87.03,36.04 -33.99,0 -64.76,-13.78 -87.03,-36.04 -22.27,-22.27 -36.04,-53.03 -36.04,-87.03 0,-33.99 13.78,-64.76 36.04,-87.03 22.27,-22.27 53.03,-36.04 87.03,-36.04zm49.26 73.81c-12.6,-12.64 -30.02,-20.41 -49.26,-20.41 -19.25,0 -36.66,7.82 -49.29,20.41 -12.6,12.6 -20.41,30.06 -20.41,49.29 0,19.25 7.79,36.66 20.41,49.29 12.6,12.6 30.06,20.41 49.29,20.41 19.25,0 36.66,-7.82 49.26,-20.41 12.64,-12.64 20.41,-30.06 20.41,-49.29 0,-19.25 -7.79,-36.66 -20.41,-49.29zm-314.55 545.59l0 -73.55c-23.51,16.34 -43.69,37.11 -59.35,61.11 -22.69,34.78 -35.91,76.41 -35.91,121.22 0,61.24 24.84,116.73 64.99,156.87 40.15,40.15 95.6,64.99 156.87,64.99 61.28,0 116.73,-24.84 156.87,-64.99 40.15,-40.15 64.95,-95.6 64.95,-156.87 0,-49.91 -16.41,-95.89 -44.08,-132.91 -2.61,-2.25 -4.75,-4.98 -6.32,-8.05 -24.9,-30.25 -57.6,-53.78 -95.01,-67.5l0 99.7c0,27.81 -11.4,53.1 -29.73,71.53l-0.16 0.16c-18.43,18.4 -43.79,29.8 -71.6,29.8 -27.02,0 -51.67,-10.74 -69.97,-28.23 -0.59,-0.49 -1.17,-1.01 -1.73,-1.57 -18.4,-18.4 -29.8,-43.76 -29.8,-71.69l-0.02 -0.03zm0 -135.57l0 -66.06c0,-16.44 3.97,-32 11,-45.85 7.26,-14.22 17.81,-26.57 30.67,-36.01 6.32,-4.62 91.01,-41.87 143.32,-64.85 21.94,-9.63 38.13,-16.77 38.91,-17.13 3.74,-1.79 7.69,-2.67 11.56,-2.67l0 -0.07c27.94,0 53.33,11.4 71.69,29.8 0.55,0.55 1.08,1.14 1.57,1.73 17.45,18.3 28.23,42.98 28.23,69.97l0 195.68 165.5 0c1.11,0 2.22,0.07 3.28,0.2 28.69,2.58 51.02,12.6 67.63,29.24 16.41,16.41 26.14,38.42 30.09,65.31l58.96 245.5c6.25,24.94 1.86,50.14 -10.29,70.68 -12.24,20.7 -32.43,36.79 -57.57,43.24 -25.1,6.45 -50.53,2.05 -71.21,-10.16 -20.7,-12.24 -36.76,-32.43 -43.24,-57.6l-51.15 -199.29 -27.28 0c-1.92,73.1 -32.3,139.13 -80.51,187.31 -49.82,49.82 -118.62,80.61 -194.61,80.61 -75.99,0 -144.82,-30.8 -194.61,-80.61 -49.82,-49.82 -80.61,-118.62 -80.61,-194.61 0,-55.35 16.41,-106.96 44.67,-150.2 25.88,-39.66 61.73,-72.22 103.99,-94.16l0.01 0zm53.39 -66.06l0 201.63c0,13.22 5.4,25.23 14.16,33.96l1.11 1.17c8.56,8.05 20.12,12.99 32.85,12.99 13.29,0 25.29,-5.37 33.96,-14.03l0.1 -0.1c8.66,-8.66 14.06,-20.67 14.06,-33.96l0 -134.77c0,-14.75 11.95,-26.7 26.7,-26.7 2.74,0 5.4,0.42 7.88,1.17 36.33,7.75 69.97,22.63 99.43,43.14l0 -149.54c0,-12.73 -4.95,-24.29 -12.99,-32.85l-1.17 -1.11c-7.62,-7.62 -17.71,-12.7 -28.95,-13.9 -7.17,3.19 -19.28,8.53 -34.03,15.01 -50.37,22.14 -131.93,58.02 -133.33,59.03 -6.09,4.46 -11.14,10.39 -14.62,17.22 -3.28,6.48 -5.18,13.83 -5.18,21.62l0.01 0.02zm317.67 184.02c12.86,24.81 22.07,51.81 26.89,80.29l51.67 0 0 0.1c11.89,0 22.69,8.01 25.75,20.02l56.3 219.41c2.76,10.74 9.77,19.47 18.86,24.84 9.08,5.37 20.12,7.3 30.93,4.52 10.74,-2.76 19.47,-9.77 24.84,-18.86 5.31,-8.98 7.26,-19.92 4.62,-30.63l-59.12 -246.01c-0.42,-1.37 -0.78,-2.8 -0.98,-4.3 -2.25,-15.76 -7.17,-27.9 -15.14,-35.87 -7.46,-7.49 -18.73,-12.11 -34.16,-13.58l-130.43 0 -0.03 0.06z"/>
   <path class="fil3" d="M2517.44 704.9l-195.88 302.11c-4.52,7 -5.76,15.27 -4.13,23.02 1.57,7.3 5.7,14 12.11,18.56 8.62,3.94 17.84,5.18 26.01,3.41 6.94,-1.47 13.16,-5.34 17.32,-11.76l181.22 -278.76 -36.66 -56.56 0.01 -0.02zm-240.51 273.14l208.99 -322.34c-6.09,-10.61 -10.58,-20.67 -13.61,-32.17l-52.48 67.4c-26.17,33.6 -57.34,41.39 -85.15,34.06 -11.66,-3.06 -22.4,-8.88 -31.64,-16.61 -8.82,-7.39 -16.41,-16.57 -22.14,-26.79 -16.25,-28.91 -18.4,-66.65 5.21,-96.44l223.51 -282.12c1.01,-1.3 2.15,-2.48 3.32,-3.51 9.96,-19.66 25.52,-35.75 44.25,-46.4 20.51,-11.66 44.83,-16.9 69.8,-13.39l2.05 0.33c29.34,4.65 54.24,20.61 70.88,42.71 4.56,6.06 8.49,12.57 11.76,19.43 2.35,1.21 4.52,2.76 6.51,4.69l239.08 234.65c6.9,6.77 12.67,14.94 17.09,23.84 6.97,13.9 10.65,29.8 10.16,44.77 -0.55,17.03 -6.25,33.28 -18.27,45.49 -3.97,4.03 -8.49,7.56 -13.61,10.39 -17.26,12.96 -37.83,20.05 -58.11,19.99 -21.1,-0.07 -41.7,-7.66 -58.05,-24.06l-137.72 -138.21 -17.68 125.61 213.09 328.68c12.57,19.4 16.08,42.09 11.62,63.04 -4.46,20.97 -16.96,40.31 -36.33,52.84l-0.36 0.23c-19.34,12.37 -41.87,15.82 -62.68,11.4 -20.97,-4.46 -40.28,-16.96 -52.84,-36.33l-167.85 -258.87 -168.27 258.87c-12.44,19.15 -30.67,30.6 -50.92,34.91 -19.76,4.2 -41.41,1.34 -60.98,-8.08 -1.37,-0.59 -2.74,-1.3 -4.03,-2.15 -19.37,-12.57 -31.84,-31.87 -36.33,-52.84 -4.46,-20.93 -0.95,-43.63 11.62,-63.04l0.1 -0.01zm326.99 -237.55c3.87,3.35 6.55,7.66 7.98,12.31l186.36 287.46c4.56,7 11.59,11.53 19.28,13.19 7.72,1.63 16.02,0.39 22.99,-4.13 7.04,-4.56 11.56,-11.59 13.19,-19.28 1.66,-7.72 0.42,-16.02 -4.13,-23.02l-218.01 -336.27c-3.74,-5.31 -5.57,-12.02 -4.59,-18.99l25.42 -180.57c-1.34,-6.15 -0.49,-12.7 2.58,-18.33l13.48 -95.66c2.19,-15.59 -2.19,-30.7 -11.04,-42.45 -8.62,-11.43 -21.39,-19.69 -36.33,-22.17 -0.95,-0.07 -1.86,-0.2 -2.8,-0.39 -3.38,-0.39 -6.74,-0.49 -10.03,-0.29 6.71,4.03 12.86,9.05 18.17,14.97 9.15,10.16 15.82,22.83 18.76,37.57 4.98,24.9 -0.82,55.64 -24.49,89.08 -4.98,6.97 -10.19,13.42 -15.92,19.79l-80.22 103.01 -2.22 15.76c-1.47,16.96 -1.11,28.43 1.3,37.7 2.32,9.08 7.07,17.81 14.26,28.91l65.96 101.72 0.09 0.07zm-126.55 -209.97c0.55,-0.78 1.14,-1.53 1.76,-2.25l83.78 -107.55c0.68,-1.01 1.44,-1.96 2.28,-2.89 4.78,-5.34 9.7,-11.23 13.68,-17.19 4.2,-6.15 7.39,-11.92 9.73,-17.32 0.75,-1.7 1.44,-3.48 2.02,-5.24 3.06,-8.88 3.61,-16.64 2.32,-23.15 -0.98,-4.95 -3.12,-9.11 -6.02,-12.34 -2.99,-3.35 -6.84,-5.83 -11.1,-7.33 -1.11,-0.39 -2.28,-0.72 -3.41,-0.98l-0.26 -0.07c-7.46,-1.57 -15.69,-0.26 -22.86,4.56l-0.26 0.2 -221.08 279.09c-8.53,10.74 -7.1,25.56 -0.42,37.44 2.61,4.65 5.96,8.75 9.83,11.98 3.45,2.89 7.2,4.98 11,5.99 8.4,2.22 18.95,-1.53 29.66,-15.27l99.43 -127.66 -0.06 -0.04zm241.42 -148.57l-10.65 75.66 166.15 166.74c5.7,5.73 12.9,8.4 20.28,8.4 8.75,0.03 18.04,-3.32 26.14,-9.41 0.88,-0.78 1.83,-1.5 2.83,-2.19 0.95,-0.59 1.92,-1.17 2.93,-1.66 0.82,-0.42 1.44,-0.85 1.86,-1.27 1.96,-1.99 2.93,-5.57 3.06,-9.83 0.2,-6.29 -1.44,-13.16 -4.52,-19.34 -1.83,-3.64 -4.17,-6.97 -6.9,-9.63l-201.19 -197.47 -0.01 0zm-46.82 -381.95c31.78,0 60.59,12.9 81.39,33.73 20.84,20.84 33.73,49.62 33.73,81.39 0,31.78 -12.9,60.59 -33.73,81.39 -20.84,20.84 -49.62,33.73 -81.39,33.73 -31.78,0 -60.59,-12.9 -81.39,-33.73 -20.84,-20.84 -33.73,-49.62 -33.73,-81.39 0,-31.78 12.9,-60.59 33.73,-81.39 20.84,-20.84 49.62,-33.73 81.39,-33.73zm43.66 71.47c-11.17,-11.17 -26.6,-18.11 -43.66,-18.11 -17.06,0 -32.49,6.9 -43.66,18.11 -11.17,11.17 -18.11,26.6 -18.11,43.66 0,17.06 6.9,32.49 18.11,43.66 11.17,11.17 26.6,18.11 43.66,18.11 17.06,0 32.49,-6.9 43.66,-18.11 11.17,-11.17 18.11,-26.6 18.11,-43.66 0,-17.06 -6.9,-32.49 -18.11,-43.66zm-94.85 362.08l-0.1 0.16 0.1 -0.16z"/>
   <path class="fil4" d="M752.69 101.89c33.99,0 64.76,13.78 87.03,36.04 22.27,22.27 36.04,53.03 36.04,87.03 0,33.99 -13.78,64.76 -36.04,87.03 -22.27,22.27 -53.03,36.04 -87.03,36.04 -33.99,0 -64.76,-13.78 -87.03,-36.04 -22.27,-22.27 -36.04,-53.03 -36.04,-87.03 0,-33.99 13.78,-64.76 36.04,-87.03 22.27,-22.27 53.03,-36.04 87.03,-36.04zm49.26 73.81c-12.6,-12.64 -30.02,-20.41 -49.26,-20.41 -19.25,0 -36.66,7.82 -49.29,20.41 -12.6,12.6 -20.41,30.06 -20.41,49.29 0,19.25 7.79,36.66 20.41,49.29 12.6,12.6 30.06,20.41 49.29,20.41 19.25,0 36.66,-7.82 49.26,-20.41 12.64,-12.64 20.41,-30.06 20.41,-49.29 0,-19.25 -7.79,-36.66 -20.41,-49.29zm-314.55 545.59l0 -73.55c-23.51,16.34 -43.69,37.11 -59.35,61.11 -22.69,34.78 -35.91,76.41 -35.91,121.22 0,61.24 24.84,116.73 64.99,156.87 40.15,40.15 95.6,64.99 156.87,64.99 61.28,0 116.73,-24.84 156.87,-64.99 40.15,-40.15 64.95,-95.6 64.95,-156.87 0,-49.91 -16.41,-95.89 -44.08,-132.91 -2.61,-2.25 -4.75,-4.98 -6.32,-8.05 -24.9,-30.25 -57.6,-53.78 -95.01,-67.5l0 99.7c0,27.81 -11.4,53.1 -29.73,71.53l-0.16 0.16c-18.43,18.4 -43.79,29.8 -71.6,29.8 -27.02,0 -51.67,-10.74 -69.97,-28.23 -0.59,-0.49 -1.17,-1.01 -1.73,-1.57 -18.4,-18.4 -29.8,-43.76 -29.8,-71.69l-0.02 -0.03zm0 -135.57l0 -66.06c0,-16.44 3.97,-32 11,-45.85 7.26,-14.22 17.81,-26.57 30.67,-36.01 6.32,-4.62 91.01,-41.87 143.32,-64.85 21.94,-9.63 38.13,-16.77 38.91,-17.13 3.74,-1.79 7.69,-2.67 11.56,-2.67l0 -0.07c27.94,0 53.33,11.4 71.69,29.8 0.55,0.55 1.08,1.14 1.57,1.73 17.45,18.3 28.23,42.98 28.23,69.97l0 195.68 165.5 0c1.11,0 2.22,0.07 3.28,0.2 28.69,2.58 51.02,12.6 67.63,29.24 16.41,16.41 26.14,38.42 30.09,65.31l58.96 245.5c6.25,24.94 1.86,50.14 -10.29,70.68 -12.24,20.7 -32.43,36.79 -57.57,43.24 -25.1,6.45 -50.53,2.05 -71.21,-10.16 -20.7,-12.24 -36.76,-32.43 -43.24,-57.6l-51.15 -199.29 -27.28 0c-1.92,73.1 -32.3,139.13 -80.51,187.31 -49.82,49.82 -118.62,80.61 -194.61,80.61 -75.99,0 -144.82,-30.8 -194.61,-80.61 -49.82,-49.82 -80.61,-118.62 -80.61,-194.61 0,-55.35 16.41,-106.96 44.67,-150.2 25.88,-39.66 61.73,-72.22 103.99,-94.16l0.01 0zm53.39 -66.06l0 201.63c0,13.22 5.4,25.23 14.16,33.96l1.11 1.17c8.56,8.05 20.12,12.99 32.85,12.99 13.29,0 25.29,-5.37 33.96,-14.03l0.1 -0.1c8.66,-8.66 14.06,-20.67 14.06,-33.96l0 -134.77c0,-14.75 11.95,-26.7 26.7,-26.7 2.74,0 5.4,0.42 7.88,1.17 36.33,7.75 69.97,22.63 99.43,43.14l0 -149.54c0,-12.73 -4.95,-24.29 -12.99,-32.85l-1.17 -1.11c-7.62,-7.62 -17.71,-12.7 -28.95,-13.9 -7.17,3.19 -19.28,8.53 -34.03,15.01 -50.37,22.14 -131.93,58.02 -133.33,59.03 -6.09,4.46 -11.14,10.39 -14.62,17.22 -3.28,6.48 -5.18,13.83 -5.18,21.62l0.01 0.02zm317.67 184.02c12.86,24.81 22.07,51.81 26.89,80.29l51.67 0 0 0.1c11.89,0 22.69,8.01 25.75,20.02l56.3 219.41c2.76,10.74 9.77,19.47 18.86,24.84 9.08,5.37 20.12,7.3 30.93,4.52 10.74,-2.76 19.47,-9.77 24.84,-18.86 5.31,-8.98 7.26,-19.92 4.62,-30.63l-59.12 -246.01c-0.42,-1.37 -0.78,-2.8 -0.98,-4.3 -2.25,-15.76 -7.17,-27.9 -15.14,-35.87 -7.46,-7.49 -18.73,-12.11 -34.16,-13.58l-130.43 0 -0.03 0.06z"/>
   <path class="fil5" d="M1778.03 112.63c33.99,0 64.76,13.78 87.03,36.04 22.27,22.27 36.04,53.03 36.04,87.03 0,33.99 -13.78,64.76 -36.04,87.03 -22.27,22.27 -53.03,36.04 -87.03,36.04 -33.99,0 -64.76,-13.78 -87.03,-36.04 -22.27,-22.27 -36.04,-53.03 -36.04,-87.03 0,-33.99 13.78,-64.76 36.04,-87.03 22.27,-22.27 53.03,-36.04 87.03,-36.04zm49.29 73.81c-12.6,-12.64 -30.06,-20.41 -49.29,-20.41 -19.25,0 -36.66,7.79 -49.26,20.41 -12.6,12.6 -20.41,30.02 -20.41,49.26 0,19.25 7.82,36.66 20.41,49.29 12.6,12.6 30.02,20.41 49.26,20.41 19.25,0 36.66,-7.82 49.29,-20.41 12.64,-12.6 20.41,-30.06 20.41,-49.29 0,-19.25 -7.79,-36.66 -20.41,-49.26zm-335.19 867.63c7.49,0 14.16,-2.71 18.89,-7.07 4.13,-3.81 6.71,-8.92 6.71,-14.42l0 -401.19c0,-5.21 1.5,-10.06 4.07,-14.16l86.28 -160.16c6.97,-12.96 23.12,-17.81 36.07,-10.84 3.68,1.99 6.71,4.69 8.98,7.88l181.65 218.2c5.67,6.81 13.09,7.82 19.66,5.47 3.55,-1.27 7.1,-3.45 10.39,-6.29 3.22,-2.76 6.02,-6.15 8.11,-9.9 4.43,-7.88 5.11,-17.55 -1.7,-25.52l-233.68 -275.38c-1.5,-1.76 -3.41,-3.06 -5.54,-3.9 -2.93,-1.17 -6.35,-1.63 -9.93,-1.44 -0.85,0.03 -1.66,0.03 -2.51,0l-0.23 0c-4.62,-0.2 -9.05,0.78 -12.73,2.74 -3.15,1.7 -5.86,4.23 -7.62,7.52 -2.93,5.44 -14.19,25.39 -28.43,50.63 -37.8,67.04 -98.55,174.81 -103.6,190.82l-0.62 188.65 0.1 0 0 236.86c0,5.5 2.58,10.61 6.71,14.42 4.72,4.36 11.4,7.07 18.89,7.07l0.06 0.03zm0 53.4c-21.29,0 -40.73,-8.14 -54.96,-21.26 -14.81,-13.65 -24.03,-32.62 -24.03,-53.62l0 -236.86 0.1 0 0.62 -190.25c-0.13,-1.96 -0.03,-4 0.33,-6.02 3.35,-19.89 69.48,-137.1 110.18,-209.29 11.92,-21.13 21.46,-38.06 27.81,-49.82 6.9,-12.77 17.26,-22.66 29.53,-29.21 11.85,-6.35 25.42,-9.47 39.23,-9.02 10.39,-0.36 20.97,1.34 30.8,5.24 10.09,4 19.25,10.25 26.6,18.92l233.68 275.38c23.61,27.84 22.04,60.17 7.52,86.02l-0.2 0.33c7.52,4.23 14.45,9.47 20.51,15.53 16.93,16.9 27.41,40.28 27.41,65.96l0 311.23c0,14.75 -11.95,26.7 -26.7,26.7 -14.75,0 -26.7,-11.95 -26.7,-26.7l0 -311.23c0,-10.97 -4.52,-20.97 -11.76,-28.23 -7.26,-7.26 -17.26,-11.76 -28.23,-11.76 -10.97,0 -20.97,4.52 -28.23,11.76 -7.26,7.26 -11.76,17.26 -11.76,28.23 0,14.75 -11.95,26.7 -26.7,26.7 -14.75,0 -26.7,-11.95 -26.7,-26.7 0,-21.32 7.23,-41.06 19.37,-56.82 -2.02,-1.96 -3.97,-4.1 -5.89,-6.42l-157.61 -189.33 -65.18 121.02 0 394.55c0,21 -9.21,39.98 -24.03,53.62 -14.22,13.13 -33.7,21.26 -54.96,21.26l-0.05 0.08z"/>
   <path class="fil2" d="M3608.78 452.21l0 0.82 0 -0.82zm222.71 -100.48c0,18.76 -0.26,37.38 -0.75,55.87 -0.49,18.5 -0.98,37.11 -1.5,55.87l0 -4.82c0,10.71 0,25.85 0,45.42 0,19.56 0,41.67 0,66.32 0,24.65 0,50.5 0,77.56 0,27.06 -0.23,53.16 -0.75,78.37 -0.49,25.2 -1.11,48.48 -1.86,69.93 -0.75,21.42 -1.86,38.32 -3.32,50.63l-7.39 10.45c-4.43,1.6 -8.88,2.41 -13.32,2.41 -11.85,0 -24.06,-3.48 -36.63,-10.45 -12.6,-6.97 -22.07,-15.82 -28.49,-26.53 0.49,-2.15 1.11,-4.56 1.86,-7.23 0.75,-2.67 2.09,-4.56 4.07,-5.63 0,-64.3 -0.36,-129 -1.11,-194.12 -0.75,-65.08 1.47,-129.52 6.64,-193.3 -2.96,1.08 -7.04,4.82 -12.21,11.27 -5.18,6.42 -11.36,14.19 -18.5,23.31 -7.26,9.11 -14.78,18.89 -22.69,29.34 -7.92,10.45 -15.79,19.95 -23.67,28.52 -7.88,8.56 -15.4,15.82 -22.56,21.72 -7.26,5.89 -13.58,8.85 -18.99,8.85 -3.94,0 -8.27,-0.68 -12.96,-2.02 -4.69,-1.34 -9.02,-3.35 -12.96,-6.02 -3.94,-2.67 -6.9,-5.89 -8.88,-9.63 -1.96,-3.74 -1.96,-8.05 0,-12.86 -2.96,-4.82 -5.93,-9.63 -8.88,-14.45 -2.96,-4.82 -5.67,-9.9 -8.14,-15.27l1.5 1.6c-6.9,-14.45 -14.19,-28.78 -21.59,-43.01 -7.39,-14.19 -14.55,-28.26 -21.46,-42.19 -0.49,10.71 -0.88,21.03 -1.11,30.93 -0.26,9.9 -0.36,20.22 -0.36,30.93l0 -4.82c0,10.71 0,25.85 0,45.42 0,19.56 0,41.67 0,66.32 0,24.65 0,50.5 0,77.56 0,27.06 -0.26,53.16 -0.75,78.37 -0.49,25.2 -1.11,48.48 -1.86,69.93 -0.75,21.42 -1.86,38.32 -3.32,50.63l-7.26 10.45c-4.43,1.6 -8.75,2.41 -13.19,2.41 -11.72,0 -23.8,-3.48 -36.36,-10.45 -12.47,-6.97 -21.81,-15.82 -28.23,-26.53 0.49,-2.15 1.11,-4.56 1.86,-7.23 0.75,-2.67 2.12,-4.56 4.07,-5.63 0,-11.79 0,-33.37 0,-64.69 0,-31.35 0.13,-67.24 0.36,-107.7 0.26,-40.44 0.88,-82.76 1.86,-126.98 0.98,-44.22 2.35,-85.47 4.07,-123.76 1.73,-38.32 4.07,-71.01 7.04,-98.07 2.96,-27.06 6.64,-43.27 11.1,-48.61l8.14 -2.41c0,-1.08 0.75,-1.6 2.22,-1.6 1.5,0 2.48,-0.55 2.96,-1.6l8.14 0c2.96,0 6.77,1.21 11.46,3.61 4.69,2.41 8.01,4.95 9.99,7.62l0.75 2.41c3.45,2.67 6.64,5.63 9.6,8.82 2.96,3.22 5.18,6.97 6.68,11.27 2.45,5.89 4.3,12.18 5.54,18.89 1.24,6.71 2.83,12.99 4.82,18.89 16.77,50.37 38,99.14 63.62,146.28l-1.47 -1.6c2.48,4.3 4.69,8.69 6.64,13.26 1.99,4.56 4.2,8.98 6.68,13.26 4.92,-6.97 9.5,-13.8 13.68,-20.48 4.2,-6.71 8.49,-13.55 12.96,-20.51 18.24,-28.91 35.75,-57.73 52.51,-86.38 16.77,-28.65 32.79,-58.28 48.09,-88.82 1.96,-4.3 5.89,-6.42 11.82,-6.42l0.75 -0.82c0.49,-2.67 1.47,-5.11 2.96,-7.23 1.47,-2.15 2.96,-4.3 4.43,-6.42l8.14 -2.41c0,-1.08 0.75,-1.6 2.22,-1.6 1.5,0 2.48,-0.55 2.96,-1.6l8.14 0c5.93,0 11.33,2.15 16.28,6.42 4.95,4.3 9.24,9.37 12.96,15.27 3.68,5.89 6.55,12.47 8.49,19.69 1.99,7.23 2.96,13.52 2.96,18.89l0 -3.22c0,10.19 0.26,20.22 0.75,30.15 0.49,9.93 0.75,19.95 0.75,30.15l-0.02 -0.12zm-359.55 320.71c-0.49,0 -0.72,0.82 -0.72,2.41 0,7.49 0.13,15.27 0.36,23.31 0.26,8.05 0.13,15.53 -0.36,22.5l0.72 1.6 0 0.82c0.49,0 0.75,-1.47 0.75,-4.43 0,-2.93 0,-4.95 0,-6.02 0.98,-5.37 1.5,-10.32 1.5,-14.88 0,-4.56 0,-9.5 0,-14.84l-0.75 -8.05 -0.75 -1.6 0 -0.82 -0.75 0 0 0.01zm8.88 -369.7c-3.45,16.61 -5.93,36.04 -7.39,58.28 -1.5,22.24 -2.35,45 -2.61,68.31 -0.23,23.31 -0.23,46.2 0,68.7 0.26,22.5 0.39,42.32 0.39,59.48l0 72.31 0.72 6.45 0 0.82 0.75 -0.82c0,-48.22 0.98,-96.05 2.96,-143.45 1.99,-47.43 2.96,-95.53 2.96,-144.27 0,-7.52 0.62,-15.27 1.86,-23.31 1.24,-8.05 1.37,-15.53 0.36,-22.5l-0.01 0zm7.66 338.38l0 1.6c0,1.08 0.13,2.02 0.49,2.8 0.36,0.82 0.13,1.73 -0.49,2.8l-0.98 1.6c0,2.67 0.23,4.82 0.75,6.42l0.75 0.82 0 0.82 0.75 0 0.75 -3.22 0.75 -4.82c0,-1.08 0,-2.8 0,-5.24 0,-2.41 -0.26,-3.61 -0.75,-3.61l-1.99 0 -0.03 0.04zm4.19 -199.32l0 -2.41 -0.75 0.82c-3.81,20.35 -5.93,42.58 -6.29,66.71 -0.26,24.13 -0.39,46.34 -0.39,66.71l0 12.05 0.75 6.42 0 0.82 0 -0.82 0 -2.41 0 -8.05 0 -1.63 0.75 -12.05c0,-4.3 0.13,-8.18 0.36,-11.66 0.26,-3.48 0.62,-7.36 1.11,-11.66 0.62,-7.52 1.37,-15.01 2.35,-22.5 0.85,-7.52 1.37,-15.01 1.37,-22.5l0.75 -1.63 0.75 -22.5 0 -28.95 -0.75 -4.82 0 0.04zm122.82 54.66c0,-4.3 -1.37,-8.18 -4.07,-11.66 -2.71,-3.48 -5.05,-7.1 -7.04,-10.84 -6.9,-15.01 -13.32,-30.15 -19.25,-45.42 -5.93,-15.27 -12.08,-30.67 -18.5,-46.2 -0.49,-1.08 -1.47,-3.48 -2.96,-7.23 -1.47,-3.74 -3.09,-7.66 -4.82,-11.66 -1.73,-4 -3.32,-7.66 -4.82,-10.84 -1.47,-3.22 -2.48,-4.82 -2.96,-4.82l0 0.82c3.94,13.93 8.88,27.87 14.78,41.8 5.93,13.93 11.59,27.87 17.03,41.8l0 1.6c5.93,10.19 10.97,21.03 15.17,32.56 4.2,11.53 9.73,21.81 16.64,30.93l0.75 0 0 -0.82 0.05 -0.04zm145.74 -56.26c0,-2.15 -0.13,-6.42 -0.39,-12.86 -0.23,-6.45 -0.62,-10.19 -1.11,-11.27 -1.96,23.58 -3.06,46.76 -3.32,69.51 -0.26,22.79 -0.85,45.94 -1.86,69.51l0 31.35 0.75 36.98 0 14.48 1.47 20.9 0 10.45 0 0.82 0 -0.82 0.75 -4.82 -0.75 -12.86 0.75 -3.22 0 -19.31 1.47 -39.37 0.75 -32.13c0.49,-13.93 0.88,-27.61 1.11,-41 0.26,-13.39 0.39,-27.06 0.39,-41l0 -35.36 0 -0.02zm2.21 -162.38c-1.47,1.08 -5.18,5.5 -11.1,13.26 -5.93,7.79 -12.83,17.55 -20.7,29.34 -7.88,11.79 -16.41,24.52 -25.52,38.16 -9.11,13.68 -17.62,26.66 -25.52,38.97 -7.88,12.34 -14.55,23.05 -19.95,32.13 -5.44,9.11 -8.62,15.01 -9.6,17.68l0 0.82c1.47,0 2.22,-1.08 2.22,-3.22l15.53 -24.9c1.5,-2.15 4.82,-6.97 9.99,-14.45 5.18,-7.52 11.33,-16.21 18.5,-26.11 7.17,-9.9 14.68,-20.48 22.56,-31.74 7.92,-11.27 15.04,-21.81 21.46,-31.74 6.42,-9.9 11.82,-18.37 16.28,-25.29 4.43,-6.97 6.64,-11.27 6.64,-12.86l-0.75 0 -0.02 -0.02zm11.11 487.09c0,-1.08 -0.49,-4.17 -1.47,-9.24 -0.98,-5.08 -2.22,-7.66 -3.68,-7.66l-0.75 0 -0.75 1.6c0,1.6 0.49,4.3 1.47,8.05 0.98,3.74 1.99,6.71 2.96,8.85 0,0.55 0.13,1.6 0.36,3.22 0.26,1.6 0.62,2.41 1.11,2.41l0.75 0 -0.75 -2.41 0.75 -4.82zm0 -288.54c-0.98,7.49 -1.86,15.14 -2.58,22.89 -0.75,7.79 -1.11,15.66 -1.11,23.71l0 172.79 0.75 9.63 0 0.82 0.75 -0.82c0,-38.03 0.49,-75.79 1.47,-113.33 1.01,-37.51 1.5,-75.27 1.5,-113.33l0 -2.41 -0.75 0 -0.03 0.06zm108.02 12.04c0,0.55 -0.26,0.82 -0.75,0.82 0.49,0 0.75,-0.26 0.75,-0.82zm152.41 198.55c0,13.93 -1.11,28.52 -3.32,43.79 -2.22,15.27 -6.15,29.34 -11.85,42.19 -5.67,12.86 -13.58,23.58 -23.67,32.13 -10.12,8.56 -23.05,12.86 -38.84,12.86 -36.98,0 -65.83,-12.18 -86.54,-36.56 -20.7,-24.39 -31.06,-56.13 -31.06,-95.24l0 -8.85 0 4.03c0.49,-11.79 1.6,-26.92 3.32,-45.42 1.73,-18.46 4.3,-37.24 7.79,-56.26 3.45,-19.02 7.88,-36.98 13.32,-53.85 5.4,-16.87 12.08,-29.6 19.95,-38.16l-1.47 0.82c2.48,-1.6 5.05,-2.67 7.79,-3.22 2.71,-0.55 5.54,-1.08 8.49,-1.6 0,-1.6 -0.13,-3.35 -0.36,-5.21 -0.26,-1.89 0.13,-3.61 1.11,-5.24 4.92,-5.37 9.86,-9.11 14.78,-11.27 1.5,0 2.83,-0.13 4.07,-0.39 1.24,-0.26 2.58,-0.39 4.07,-0.39 22.69,0 41.41,8.3 56.23,24.9 14.78,16.61 26.27,36.69 34.38,60.27 8.14,23.58 13.8,48.22 17.03,73.95 3.19,25.72 4.82,47.96 4.82,66.71l-0.04 0.01zm-147.23 -94.03c-0.49,0 -0.75,0.39 -0.75,1.21 0,0.82 -0.23,1.47 -0.75,2.02 -3.94,11.27 -5.54,22.5 -4.82,33.76 0.75,11.27 -0.13,22.24 -2.58,32.95l0.75 3.22 0 -0.82 0.75 -4.82c0.98,-6.42 1.6,-12.99 1.86,-19.69 0.23,-6.71 0.85,-13.26 1.86,-19.69l0.75 -0.82c-0.49,-4.82 0,-9.5 1.47,-14.06 1.47,-4.56 2.22,-8.98 2.22,-13.26l-0.75 0 0 0.01zm1.5 -75.57c-1.99,5.37 -2.96,9.37 -2.96,12.05 -3.94,10.71 -7.26,22.63 -9.99,35.75 -2.71,13.13 -5.05,26.66 -7.04,40.6 -1.96,13.93 -3.45,27.87 -4.43,41.8 -0.98,13.93 -1.47,26.53 -1.47,37.77 0,13.39 0.62,27.32 1.86,41.77 1.24,14.48 3.81,27.87 7.79,40.21l0 -0.82c-2.48,-13.39 -4.07,-26.4 -4.78,-38.97 -0.75,-12.6 -1.11,-25.59 -1.11,-39.01 0,-12.31 1.24,-25.16 3.71,-38.58 2.48,-13.39 3.19,-25.98 2.22,-37.77 0,0 0.85,-4.95 2.61,-14.84 1.73,-9.9 3.55,-20.64 5.54,-32.13 1.99,-11.53 3.81,-22.24 5.54,-32.13 1.73,-9.9 2.61,-15.14 2.61,-15.66l-0.08 -0.03zm14.78 -49.81c0,0.52 -0.26,0.82 -0.75,0.82 0.49,0 0.75,-0.26 0.75,-0.82zm1.47 -0.82l-0.75 0.82 0.75 -0.82zm67.33 166.38c0,-23.05 -2.61,-46.2 -7.79,-69.51 -5.18,-23.31 -12.44,-45.16 -21.81,-65.51l-5.93 2.41 -10.35 0c0.49,0 0.75,0.55 0.75,1.6l2.96 8.05 0 4.03 -0.75 -0.82c0,26.79 -1.73,53.46 -5.18,79.97 -3.45,26.53 -5.18,53.43 -5.18,80.77 0,15.01 0.36,30.02 1.11,45 0.75,15.01 2.83,29.73 6.29,44.22 2.96,-1.08 5.8,-2.8 8.53,-5.24 2.71,-2.41 5.05,-4.95 7.04,-7.66l0.75 0c5.93,-6.97 10.74,-15.4 14.42,-25.29 3.71,-9.9 6.64,-20.09 8.88,-30.54 2.22,-10.45 3.81,-21.03 4.82,-31.74 0.98,-10.71 1.47,-20.64 1.47,-29.73l-0.04 0.01zm25.88 16.86c0,-11.79 -1.24,-24.39 -3.71,-37.77l-3.68 -14.45c-0.49,0 -0.75,-0.26 -0.75,-0.82 0,-0.55 -0.23,-0.82 -0.75,-0.82l0.75 6.42c0.49,-1.08 0.88,-1.08 1.11,0 0.26,1.08 0.49,2.54 0.75,4.43 0.23,1.89 0.49,4.03 0.75,6.42 0.23,2.41 0.36,4.43 0.36,6.02 0.98,5.37 1.47,9.63 1.47,12.86l0 32.95c0,3.74 -0.36,8.3 -1.11,13.68 -0.75,5.37 -1.6,9.9 -2.58,13.68 0.49,2.67 -0.26,7.49 -2.22,14.48 -1.99,6.97 -4.2,14.45 -6.64,22.5 -2.48,8.05 -5.05,15.66 -7.79,22.92 -2.71,7.23 -4.56,12.18 -5.54,14.88l0.75 0c0.49,0 1.24,-1.63 2.22,-4.82 0.98,-3.22 1.73,-5.34 2.22,-6.42 6.42,-18.76 12.08,-36.04 17.03,-51.84 4.92,-15.82 7.39,-33.9 7.39,-54.24l-0.02 -0.05zm1.47 73.95c0,0 -0.49,1.08 -1.47,3.22 -0.98,2.15 -2.09,4.69 -3.32,7.66 -1.24,2.96 -2.22,5.76 -2.96,8.43 -0.75,2.67 -1.11,4.3 -1.11,4.82l0.75 0 2.22 -5.63c0.98,-1.6 2.35,-4.3 4.07,-8.05 1.73,-3.74 2.58,-6.15 2.58,-7.23l0 -2.41 -0.75 -0.82 0 -0.01zm267.82 -198.51c-13.8,39.1 -26.01,78.63 -36.63,118.55 -10.61,39.92 -22.34,79.71 -35.13,119.36 -2.48,8.56 -5.67,17.29 -9.63,26.11 -3.94,8.85 -8.4,17 -13.32,24.52l-8.88 2.41 0 0.82c-0.98,1.63 -2.35,2.67 -4.07,3.22 -1.73,0.52 -3.32,0.82 -4.82,0.82 -4.43,0 -9.86,-1.08 -16.28,-3.22 -6.42,-2.15 -12.6,-4.82 -18.5,-8.05 -5.93,-3.22 -11.46,-6.97 -16.64,-11.27 -5.18,-4.3 -8.75,-8.56 -10.74,-12.86 -7.88,-15.53 -14.78,-36.17 -20.7,-61.9 -5.93,-25.72 -10.84,-52.51 -14.78,-80.38 -3.94,-27.87 -7.17,-55.19 -9.63,-81.98 -2.48,-26.79 -3.94,-49.29 -4.43,-67.5l5.93 -7.23 2.22 0c2.96,0 7.04,0.68 12.21,2.02 5.18,1.34 10.35,3.22 15.53,5.63 5.18,2.41 9.86,5.24 14.06,8.43 4.2,3.22 6.77,6.45 7.79,9.63 8.88,36.43 16.9,74.21 24.03,113.33 7.17,39.1 13.45,77.16 18.89,114.12 0.98,-5.37 3.32,-16.34 7.04,-32.95 3.71,-16.61 8.14,-35.91 13.32,-57.89 5.18,-21.98 10.84,-45 17.03,-69.12 6.15,-24.1 12.31,-46.34 18.5,-66.71 6.15,-20.35 12.08,-37.11 17.75,-50.24 5.67,-13.13 10.48,-19.69 14.42,-19.69 2.96,0 7.52,0.82 13.68,2.41 6.15,1.6 12.21,3.87 18.14,6.84 5.93,2.93 11.23,6.15 15.89,9.63 4.69,3.48 7.04,7.1 7.04,10.84l-19.21 52.26 -0.04 0.04zm-192.35 85.21c0,5.89 0.49,12.99 1.47,21.29 0.98,8.3 1.99,15.4 2.96,21.29l5.93 28.13c0,0.55 0.26,1.89 0.75,4.03 0.49,2.15 0.98,3.19 1.5,3.19l0 -1.6 -0.75 -4.03 -0.75 -0.82c-0.49,-6.97 -1.34,-14.06 -2.58,-21.29 -1.24,-7.23 -2.35,-14.32 -3.32,-21.29 -0.98,-4.3 -1.6,-8.43 -1.86,-12.47 -0.26,-4.03 -0.62,-8.18 -1.11,-12.47 0,-0.55 -0.13,-1.89 -0.36,-4.03 -0.26,-2.15 -0.62,-3.22 -1.11,-3.22l-0.75 3.22 -0.03 0.06zm27.38 155.93c-4.43,-25.2 -10.22,-49.98 -17.39,-74.34 -7.17,-24.39 -12.47,-49.42 -15.89,-75.14l-9.63 -94.85 -0.75 12.05c0,15.53 0.98,34.16 2.96,55.87 1.96,21.72 4.92,43.53 8.88,65.51 3.94,21.98 8.49,43.01 13.68,63.1 5.18,20.09 11.23,36.3 18.14,48.64l0 -0.82 0 -0.02zm113.2 -265.23c-5.93,9.11 -10.97,20.51 -15.17,34.16 -4.2,13.65 -8.01,28.13 -11.46,43.4 -3.45,15.27 -6.77,30.41 -9.99,45.42 -3.19,15.01 -6.55,28.39 -9.99,40.18 -2.48,8.05 -4.56,16.47 -6.29,25.29 -1.73,8.85 -3.58,17.29 -5.54,25.33l-3.68 20.09 -2.22 10.45 0 0.82 0.75 -0.82 0.75 -4.03c0.98,-5.89 2.22,-11.66 3.68,-17.29 1.47,-5.63 2.96,-11.4 4.43,-17.29l9.63 -38.58c4.43,-18.2 9.37,-36.69 14.78,-55.45 0,-0.55 0.26,-1.08 0.75,-1.6 3.45,-8.56 6.02,-17.42 7.79,-26.53 1.73,-9.11 3.45,-18.24 5.18,-27.32 1.73,-9.11 3.71,-18.11 5.93,-26.92 2.22,-8.82 5.54,-17.81 9.99,-26.92l1.47 -2.41 -0.75 0 -0.04 0.01zm14.06 -34.55c-0.98,0 -2.22,2.41 -3.71,7.23 -1.47,4.82 -2.22,7.79 -2.22,8.85l0 3.22c0,1.08 0,1.6 0,1.6l0.75 0 0 -1.6 0.75 -2.41c0.98,-2.67 1.99,-5.21 2.96,-7.66 0.98,-2.41 1.47,-4.69 1.47,-6.84l0 -2.41zm64.37 -135.02c0,-10.71 1.99,-21.72 5.93,-32.95 2.61,-3.22 5.8,-5.37 9.73,-6.45 11.46,0 23.18,2.67 35.13,8.05 11.98,5.34 20.7,14.19 26.14,26.53 -1.47,13.93 -3.32,29.21 -5.54,45.81 -2.35,16.61 -6.42,31.06 -12.34,43.4l-9.73 0.82c-2.96,0 -6.42,-0.95 -10.12,-2.8 -3.68,-1.89 -7.39,-4.3 -10.84,-7.23 -3.45,-2.93 -6.64,-5.89 -9.73,-8.82 -2.96,-2.96 -5.18,-5.5 -6.64,-7.66l1.47 0.82c-2.96,-2.15 -5.4,-5.76 -7.52,-10.84 -1.99,-5.08 -3.32,-10.58 -4.07,-16.47 -0.75,-5.89 -1.24,-11.79 -1.47,-17.68 -0.26,-5.89 -0.36,-10.71 -0.36,-14.45l-0.04 -0.07zm20.7 13.68l0.75 15.27 0.75 1.6 0.75 0 0 -0.82 0 -3.22c0,-7.52 0.49,-14.84 1.47,-22.11 0.98,-7.23 1.47,-14.62 1.47,-22.11 0,-2.15 -0.26,-3.22 -0.75,-3.22 0,0 0,0.55 0,1.63 -0.98,2.15 -1.47,4 -1.47,5.63l-2.96 20.9 0 6.45 0 0.01zm65.12 502.32c-0.98,0.55 -2.71,1.21 -5.18,2.02 -2.48,0.82 -4.2,1.21 -5.18,1.21 -9.86,0 -19.47,-2.15 -28.85,-6.42 -0.98,-0.52 -3.06,-1.73 -6.29,-3.61 -3.19,-1.89 -5.31,-2.54 -6.29,-2.02 -3.45,-2.15 -6.9,-4.43 -10.35,-6.84 -3.45,-2.41 -6.64,-4.95 -9.63,-7.66l-5.93 -10.45c-2.48,-18.24 -3.19,-37.24 -2.22,-57.08 0.98,-19.82 1.47,-39.1 1.47,-57.89 0,-24.1 -0.98,-48.09 -2.96,-71.92 -1.99,-23.84 -2.96,-47.83 -2.96,-71.96l1.5 -10.45 -0.75 4.82c0,-3.22 0.13,-8.43 0.36,-15.69 0.26,-7.23 0.75,-14.75 1.6,-22.5 0.75,-7.79 1.6,-14.88 2.71,-21.29 1.01,-6.42 2.35,-10.97 3.84,-13.65l7.79 5.63 0 -3.22 4.43 -6.42 2.96 0c6.42,0 14.42,2.54 24.06,7.66 9.6,5.08 15.89,10.84 18.86,17.29 4.43,9.63 8.01,25.2 10.71,46.63 2.71,21.42 4.69,44.61 5.93,69.51 1.24,24.9 2.12,49.16 2.61,72.74 0.49,23.58 0.75,41.8 0.75,54.67 0,17.16 0.49,34.71 1.47,52.64 0.98,17.94 0.26,34.97 -2.22,51.05l-2.22 3.22 0 -0.03zm-55.48 -75.57c0,-38.03 -0.26,-75.66 -0.75,-112.92 -0.49,-37.24 -0.75,-74.88 -0.75,-112.92l-0.75 -3.22c-2.48,13.93 -3.81,28 -4.07,42.19 -0.26,14.19 -0.36,28.26 -0.36,42.19 0,26.79 0.23,53.98 0.75,81.59 0.49,27.58 2.22,54.53 5.18,80.77l0.75 -0.82 0 -16.87 0 -0.01zm8.14 -163.96c-1.47,0 -2.22,0.55 -2.22,1.63 0,0.52 0.26,0.82 0.75,0.82 -0.49,2.67 -1.11,5.37 -1.86,8.05 -0.75,2.67 -1.11,5.37 -1.11,8.05l0 14.45 2.96 15.27 1.47 4.82 0.75 0 0 -0.82 -0.75 -3.22c-1.47,-8.05 -1.73,-16.21 -0.75,-24.52 0.98,-8.3 1.47,-16.21 1.47,-23.71l-0.75 -0.82 0.03 0zm480.05 3.15c0,30.54 -2.48,59.74 -7.39,87.61 -4.92,27.87 -9.63,56.79 -14.06,86.8 -2.96,4.3 -5.93,7.52 -8.88,9.63 -2.96,2.15 -7.17,3.22 -12.6,3.22 -2.96,0 -7.79,-1.08 -14.42,-3.22 -6.64,-2.15 -13.32,-4.82 -19.95,-8.05 -6.64,-3.22 -12.47,-6.97 -17.39,-11.27 -4.92,-4.3 -7.39,-8.56 -7.39,-12.86 -0.98,-5.37 -1.47,-9.11 -1.47,-11.27 0,-2.67 0.62,-5.76 1.86,-9.24 1.24,-3.48 2.09,-6.55 2.58,-9.24 5.44,-27.32 9.77,-54.24 12.96,-80.77 3.22,-26.53 4.82,-53.72 4.82,-81.59l0 -45.81c0,-4.3 -0.26,-8.43 -0.75,-12.47 -0.49,-4.03 -0.49,-8.18 0,-12.47l-0.75 4.82c0,-15.01 -1.73,-28.39 -5.18,-40.18 -9.37,8.56 -17.62,20.9 -24.78,36.98 -7.17,16.08 -13.32,34.16 -18.5,54.24 -5.18,20.09 -9.86,41.39 -14.06,63.88 -4.2,22.5 -7.92,44.74 -11.1,66.71 -3.22,21.94 -6.15,42.58 -8.88,61.86 -2.71,19.31 -5.54,35.91 -8.49,49.85l-1.47 1.6c0.49,2.67 0.36,5.5 -0.36,8.43 -0.75,2.93 -1.37,5.76 -1.86,8.43l-2.96 4.03c-2.96,1.6 -6.42,2.41 -10.35,2.41 -10.84,0 -22.83,-3.35 -35.87,-10.06 -13.06,-6.71 -22.56,-14.84 -28.49,-24.52 -0.98,-3.22 -1.47,-6.42 -1.47,-9.63 0,-3.22 0,-6.42 0,-9.63 0,-33.76 2.09,-67.92 6.29,-102.46 4.2,-34.55 6.77,-68.99 7.79,-103.27l0 4.82c0,-8.05 0.49,-16.08 1.47,-24.1 0.98,-8.05 1.47,-16.08 1.47,-24.13 0,-5.37 0.13,-10.84 0.36,-16.47 0.26,-5.63 -0.23,-10.84 -1.6,-15.66 -7.88,11.79 -15.4,27.87 -22.56,48.22 -7.17,20.35 -13.68,42.19 -19.86,65.51 -6.15,23.31 -11.72,47.14 -16.64,71.53 -4.92,24.39 -9.6,46.76 -13.93,67.11 -4.43,20.35 -8.4,37.64 -11.85,51.84 -3.45,14.19 -6.42,22.92 -8.88,26.11 -4.43,1.6 -8.88,2.41 -13.32,2.41 -4.92,0 -10.61,-1.08 -16.9,-3.22 -6.42,-2.15 -12.7,-4.82 -18.86,-8.05 -6.15,-3.22 -11.85,-7.1 -16.9,-11.66 -5.18,-4.56 -9.02,-9.24 -11.49,-14.06 0,-42.85 -1.6,-85.59 -4.78,-128.19 -3.19,-42.58 -4.82,-85.34 -4.82,-128.19 0,-13.42 0.36,-26.66 1.11,-39.79 0.75,-13.13 3.09,-25.85 7.04,-38.19l0 0.82c2.48,-4.3 5.31,-6.58 8.53,-6.84 3.19,-0.26 6.77,-0.39 10.71,-0.39 4.43,1.6 8.53,3.09 12.21,4.43 3.71,1.34 7.04,2.8 9.99,4.43 2.96,1.6 5.8,3.87 8.49,6.84 2.71,2.93 5.05,7.1 7.04,12.47 0.98,0 1.24,0.26 0.75,0.82 -0.49,0.52 -0.75,0.52 -0.75,0 2.96,5.37 5.54,15.66 7.79,30.93 2.22,15.27 4.07,31.35 5.54,48.22 1.47,16.87 2.58,32.56 3.32,47.01 0.75,14.48 1.11,23.58 1.11,27.32 2.96,-10.19 6.77,-25.33 11.46,-45.42 4.56,-20.09 10.48,-40.18 17.65,-60.27 7.17,-20.09 15.27,-37.64 24.65,-52.64 9.37,-15.01 20.09,-22.5 32.43,-22.5 5.89,0 11.59,0.95 16.9,2.8 5.4,1.89 10.84,4.17 16.28,6.84 0,0.55 0.36,0.82 1.11,0.82 0.75,0 0.85,0.26 0.36,0.82 4.92,2.15 10.09,6.29 15.79,12.47 5.67,6.15 10.97,13.13 15.89,20.9 4.82,7.79 8.75,15.4 11.72,22.92 2.96,7.49 4.2,13.93 3.71,19.28 1.96,-8.05 4.78,-17.68 8.49,-28.95 3.81,-11.27 8.4,-21.81 13.8,-31.74 5.44,-9.9 11.85,-18.33 18.99,-25.29 7.26,-6.97 15.79,-10.45 25.78,-10.45 3.45,0 6.64,0.26 9.6,0.82 2.96,0.55 6.15,1.34 9.77,2.41 1.47,3.22 4.3,5.08 8.49,5.63 4.17,0.55 7.88,1.63 10.84,3.22 -0.98,-0.55 -2.61,-1.21 -4.56,-2.02 -1.99,-0.82 -2.48,-1.21 -1.47,-1.21 1.47,0 3.81,0.95 6.77,2.83 2.96,1.86 4.92,3.35 5.93,4.43l-3.71 -3.22c3.94,2.67 7.92,5.63 11.85,8.85 3.94,3.22 7.66,6.71 11.1,10.45l-0.75 -0.82c6.9,6.42 11.59,13.13 14.06,20.09l-2.22 -4.82c2.48,5.37 4.95,10.58 7.39,15.66 2.45,5.08 4.92,10.32 7.39,15.66l-2.22 -4.82c6.9,15.53 11.23,32.26 12.93,50.24 1.73,17.94 2.61,35.49 2.61,52.64l-0.01 -0.04zm-387.68 106.89c0,-25.72 -1.6,-51.71 -4.78,-77.98 -3.19,-26.24 -5.31,-52.51 -6.29,-78.76 0,-8.05 -0.26,-16.21 -0.75,-24.52 -0.49,-8.3 -0.98,-16.47 -1.5,-24.52l-0.75 -12.05 -0.75 -8.05 0 -2.41 -0.75 0 -0.75 30.54c0,33.76 1.47,66.84 4.43,99.27 2.96,32.43 6.64,65.51 11.1,99.27l0.75 0 0 -0.82 0.03 0zm7.39 -80.38c0,-4.3 -0.49,-8.98 -1.47,-14.06 -0.98,-5.08 -1.47,-10.32 -1.47,-15.69l0 -12.05 0 -3.22 0 -0.82c-0.49,0 -0.75,0.55 -0.75,1.6 0,1.08 0,1.89 0,2.41l-1.47 12.05 0 5.63c0,4.3 0.49,8.18 1.47,11.66 0.98,3.48 1.73,7.36 2.22,11.66l1.47 1.6 0 -0.82 0 0.07zm99.14 -150.29c-5.44,9.63 -10.12,19.43 -14.06,29.34 -3.94,9.9 -7.92,20.22 -11.85,30.93l0 1.63c-1.99,4.3 -4.07,11.4 -6.29,21.29 -2.22,9.9 -3.32,17.55 -3.32,22.92l0 1.6 0.75 -4.82 0.75 -0.82c0.49,-8.05 2.58,-18.11 6.29,-30.15 3.68,-12.05 7.26,-21.81 10.71,-29.34l0.75 -0.82 20.7 -49.03 0 -0.82 -4.43 8.05 0.01 0.04zm61.77 77.94l-1.11 0c-3.45,12.86 -4.69,26.24 -3.68,40.18 0.98,13.93 1.47,27.58 1.47,41 0,10.71 -0.75,21.72 -2.35,32.95 -1.6,11.27 -3.32,22.5 -5.18,33.76 -1.86,11.27 -3.22,22.37 -4.3,33.37 -0.98,11 -0.98,21.59 0,31.74 4.17,-21.42 7.88,-43.4 11.23,-65.9 3.32,-22.5 5.05,-44.48 5.05,-65.9l-1.11 -81.17 -0.02 -0.02zm20.35 84.4c-1.24,-4.3 -2.22,-8.56 -2.83,-12.86 -0.62,-4.3 -1.99,-8.56 -3.81,-12.86l0 -0.82 -0.75 -0.82 0 0.82c0,1.08 0.13,1.63 0.36,1.63 0.23,0 0.36,0.52 0.36,1.6 2.96,7.49 4.2,15.14 3.71,22.89 -0.49,7.79 -0.75,15.4 -0.75,22.92 0,2.67 0,5.5 0,8.43 0,2.93 -0.98,5.76 -2.96,8.43l0.75 4.03 0 -0.82 0.98 -4.82c0.62,-4.3 1.6,-8.56 2.96,-12.86 1.37,-4.3 1.99,-8.56 1.99,-12.86 0,-2.15 0.13,-4.13 0.36,-6.02 0.26,-1.89 0.13,-3.9 -0.36,-6.02l0 -0.01zm79.9 -196.1l0 0.82c-0.98,1.08 -2.35,2.96 -4.07,5.63 -1.73,2.67 -3.58,5.5 -5.54,8.43 -1.99,2.93 -3.81,5.5 -5.54,7.66 -1.73,2.15 -2.83,3.48 -3.32,4l-2.96 7.23 -0.75 0.82c-2.96,7.52 -4.43,14.75 -4.43,21.72 0,2.15 0.26,3.22 0.75,3.22l0 -3.22c0.98,-5.89 2.48,-11.27 4.43,-16.08 1.99,-4.82 4.2,-9.63 6.64,-14.48 -0.49,-0.52 -0.36,-1.21 0.36,-2.02 0.75,-0.82 1.37,-1.21 1.86,-1.21 0.49,-2.67 2.83,-6.71 7.04,-12.05 4.2,-5.37 6.29,-8.85 6.29,-10.45l-0.75 0 0.01 -0.02zm78.4 149.51c0,-4.3 -0.13,-8.85 -0.36,-13.68 -0.26,-4.82 -0.62,-9.37 -1.11,-13.68 -0.49,-2.67 -0.75,-5.37 -0.75,-8.05 0,-2.67 -0.23,-5.37 -0.75,-8.05 0,-0.52 -0.13,-1.21 -0.36,-2.02 -0.26,-0.82 -0.62,-0.95 -1.11,-0.39 0.49,4.3 0.85,8.43 1.11,12.47 0.26,4.03 0.36,8.18 0.36,12.47l0 29.73c0,2.15 -0.13,5.63 -0.36,10.45 -0.26,4.82 -0.75,9.9 -1.47,15.27 -0.75,5.34 -1.47,10.58 -2.22,15.66 -0.75,5.08 -1.37,8.69 -1.86,10.84 0,1.6 -0.85,6.42 -2.58,14.45 -1.73,8.05 -3.71,16.87 -5.93,26.53 -2.22,9.63 -4.33,18.76 -6.29,27.32 -1.99,8.56 -3.19,14.19 -3.71,16.87 3.45,-5.89 6.77,-15.01 9.99,-27.32 3.19,-12.31 6.15,-25.72 8.88,-40.18 2.71,-14.45 4.82,-28.78 6.29,-43.01 1.5,-14.19 2.22,-26.11 2.22,-35.75l-0.01 0.04zm8.89 32.95l0 2.41 0 8.85 -0.75 22.5 -0.75 12.05 -0.75 5.63 0 4.03 0 2.41 0 1.6 0 0.82 0 1.6 0 -0.82 0.75 -3.22 0 -0.82c0.98,-5.37 1.73,-10.87 2.22,-16.47 0.49,-5.63 0.75,-11.4 0.75,-17.29l0 -17.68c0,-0.52 0,-1.6 0,-3.22 0,-1.6 -0.26,-2.41 -0.75,-2.41l-0.75 0 0.03 0.04zm-168.68 -167.97c0.49,0.55 0.88,1.08 1.11,1.6 0.26,0.55 0.62,1.08 1.11,1.6l-2.22 -2.41 0 -0.82 0 0.03zm161.3 -0.82l1.47 1.6 -1.47 -1.6zm46.59 -135.83c0,-10.71 1.99,-21.72 5.93,-32.95 2.61,-3.22 5.8,-5.37 9.73,-6.45 11.46,0 23.18,2.67 35.13,8.05 11.98,5.34 20.7,14.19 26.14,26.53 -1.47,13.93 -3.32,29.21 -5.54,45.81 -2.35,16.61 -6.42,31.06 -12.34,43.4l-9.73 0.82c-2.96,0 -6.42,-0.95 -10.12,-2.8 -3.68,-1.89 -7.39,-4.3 -10.84,-7.23 -3.45,-2.93 -6.64,-5.89 -9.73,-8.82 -2.96,-2.96 -5.18,-5.5 -6.64,-7.66l1.47 0.82c-2.96,-2.15 -5.4,-5.76 -7.52,-10.84 -1.96,-5.08 -3.32,-10.58 -4.07,-16.47 -0.75,-5.89 -1.24,-11.79 -1.47,-17.68 -0.23,-5.89 -0.36,-10.71 -0.36,-14.45l-0.04 -0.07zm20.71 13.68l0.75 15.27 0.75 1.6 0.75 0 0 -0.82 0 -3.22c0,-7.52 0.49,-14.84 1.47,-22.11 0.98,-7.23 1.47,-14.62 1.47,-22.11 0,-2.15 -0.23,-3.22 -0.75,-3.22 0,0 0,0.55 0,1.63 -0.98,2.15 -1.47,4 -1.47,5.63l-2.96 20.9 0 6.45 0 0.01zm65.11 502.32c-0.98,0.55 -2.71,1.21 -5.18,2.02 -2.48,0.82 -4.2,1.21 -5.18,1.21 -9.86,0 -19.47,-2.15 -28.85,-6.42 -0.98,-0.52 -3.06,-1.73 -6.29,-3.61 -3.19,-1.89 -5.27,-2.54 -6.29,-2.02 -3.45,-2.15 -6.9,-4.43 -10.35,-6.84 -3.45,-2.41 -6.64,-4.95 -9.63,-7.66l-5.93 -10.45c-2.48,-18.24 -3.19,-37.24 -2.22,-57.08 0.98,-19.82 1.47,-39.1 1.47,-57.89 0,-24.1 -0.98,-48.09 -2.96,-71.92 -1.99,-23.84 -2.96,-47.83 -2.96,-71.96l1.47 -10.45 -0.75 4.82c0,-3.22 0.13,-8.43 0.36,-15.69 0.23,-7.23 0.75,-14.75 1.6,-22.5 0.75,-7.79 1.6,-14.88 2.71,-21.29 0.98,-6.42 2.35,-10.97 3.81,-13.65l7.79 5.63 0 -3.22 4.43 -6.42 2.96 0c6.42,0 14.42,2.54 24.06,7.66 9.6,5.08 15.89,10.84 18.86,17.29 4.43,9.63 8.01,25.2 10.71,46.63 2.71,21.42 4.69,44.61 5.93,69.51 1.24,24.9 2.09,49.16 2.58,72.74 0.49,23.58 0.75,41.8 0.75,54.67 0,17.16 0.49,34.71 1.47,52.64 0.98,17.94 0.26,34.97 -2.22,51.05l-2.22 3.22 0.09 -0.03zm-55.48 -75.57c0,-38.03 -0.26,-75.66 -0.75,-112.92 -0.49,-37.24 -0.75,-74.88 -0.75,-112.92l-0.75 -3.22c-2.48,13.93 -3.81,28 -4.07,42.19 -0.26,14.19 -0.36,28.26 -0.36,42.19 0,26.79 0.26,53.98 0.75,81.59 0.49,27.58 2.22,54.53 5.18,80.77l0.75 -0.82 0 -16.87 0 -0.01zm8.15 -163.96c-1.47,0 -2.22,0.55 -2.22,1.63 0,0.52 0.26,0.82 0.75,0.82 -0.49,2.67 -1.11,5.37 -1.86,8.05 -0.75,2.67 -1.11,5.37 -1.11,8.05l0 14.45 2.96 15.27 1.47 4.82 0.75 0 0 -0.82 -0.75 -3.22c-1.47,-8.05 -1.73,-16.21 -0.75,-24.52 0.98,-8.3 1.47,-16.21 1.47,-23.71l-0.75 -0.82 0.03 0zm289.25 100.48c2.48,0 4.07,1.47 4.82,4.43 0.75,2.96 1.11,5.5 1.11,7.66 0,13.93 -3.19,28.65 -9.6,44.22 -6.42,15.53 -14.81,30.02 -25.16,43.4 -10.35,13.39 -22.07,24.52 -35.13,33.37 -13.06,8.82 -26.27,13.26 -39.59,13.26 -22.69,0 -42.03,-4.17 -58.08,-12.47 -16.15,-8.3 -29.24,-19.69 -39.33,-34.16 -10.22,-14.48 -17.75,-31.48 -22.56,-51.05 -4.82,-19.56 -7.26,-40.31 -7.26,-62.29 0,-15.53 1.24,-34.42 3.71,-56.66 2.48,-22.24 6.55,-44.48 12.21,-66.71 5.67,-22.24 13.06,-42.85 22.21,-61.9 9.11,-19.02 20.09,-33.08 32.92,-42.19 7.92,-5.89 16.28,-8.98 25.16,-9.24 8.88,-0.26 17.75,-0.13 26.63,0.39 1.96,-3.74 4.92,-5.63 8.88,-5.63 12.34,0 23.18,3.35 32.56,10.06 9.37,6.71 17.26,15.27 23.67,25.72 6.42,10.45 11.36,21.85 14.81,34.16 3.45,12.31 5.18,24.39 5.18,36.17 0,19.82 -2.71,39.23 -8.27,58.28 -5.44,19.02 -13.58,35.62 -24.29,49.82 -10.74,14.19 -23.93,24.78 -39.72,31.74 -15.66,6.97 -34.03,8.05 -54.99,3.22 -0.49,2.67 -0.75,4.95 -0.75,6.84 0,1.89 0,4.17 0,6.84 0,15.01 0.75,30.15 2.22,45.42 1.47,15.27 4.92,29.86 10.35,43.79 2.48,-0.55 5.05,-1.34 7.79,-2.41 2.71,-1.08 5.31,-2.15 7.79,-3.22l-0.75 0c12.34,-4.3 22.96,-10.97 31.81,-20.09 8.88,-9.11 18.24,-17.42 28.1,-24.9l0 0.82c8.88,-6.97 17.03,-13.93 24.42,-20.9 7.39,-6.97 15.3,-14.45 23.67,-22.5 2.48,-1.08 5.05,-1.86 7.79,-2.41 2.71,-0.55 5.31,-0.82 7.79,-0.82l-0.12 -0.07zm-52.51 -87.62c0,-1.08 0.88,-3.87 2.61,-8.43 1.73,-4.56 2.58,-7.62 2.58,-9.24l0 -7.23 0 -1.6 -0.75 0c-0.49,0 -0.88,0.82 -1.11,2.41 -0.26,1.6 -0.36,2.67 -0.36,3.22 -0.49,2.67 -1.11,5.63 -1.86,8.85 -0.75,3.22 -1.11,6.15 -1.11,8.85l0 1.6 0 0.82 0 0.82 0 0.82 0 -0.82 0 -0.07zm-17.75 4.04l0.75 -0.82c1.5,-2.67 1.99,-4.56 1.5,-5.63 2.48,-7.49 4.2,-14.75 5.18,-21.72 0.98,-6.97 1.99,-14.45 2.96,-22.5l0 -13.68c0,-2.15 -0.36,-5.89 -1.11,-11.27 -0.75,-5.37 -1.6,-8.05 -2.61,-8.05l0 3.22 0.75 8.05 0 17.68 -1.47 22.5c0,2.15 -0.26,4.3 -0.75,6.42 -0.49,2.15 -0.98,4.3 -1.47,6.42l-1.47 8.85 -2.22 7.23 0 3.22 0 0.82 0 -0.82 -0.06 0.07zm-76.18 55.44c0.62,0 2.09,-0.26 4.56,-0.82 2.61,-0.55 3.81,-1.08 3.81,-1.6 9.63,-3.74 17.75,-9.37 24.55,-16.87 6.9,-7.52 12.57,-16.08 17.13,-25.72 4.43,-9.63 7.79,-19.82 9.73,-30.54 2.09,-10.71 3.09,-21.16 3.09,-31.35 0,-10.71 -0.75,-21.03 -2.22,-30.93 -1.47,-9.9 -3.19,-20.22 -5.18,-30.93 -9.11,11.27 -16.77,23.71 -23.18,37.38 -6.29,13.68 -11.59,27.87 -15.92,42.58 -4.3,14.75 -8.01,29.73 -10.97,45 -3.09,15.27 -5.67,29.89 -7.66,43.79l2.22 0 0.03 0.02zm-8.89 126.98c-0.98,-1.08 -2.22,-1.6 -3.71,-1.6l2.96 1.6 0.75 0zm0.75 -272.45c-5.93,5.89 -9.99,12.86 -12.21,20.9 -2.22,8.05 -3.94,16.47 -5.18,25.29 -1.24,8.85 -2.35,17.42 -3.32,25.72 -0.98,8.3 -3.19,15.14 -6.64,20.48 -0.98,11.27 -2.22,22.5 -3.68,33.76 -1.5,11.27 -2.22,22.76 -2.22,34.55l0.75 7.23 0 0.82 0 -0.82 0.75 -2.41 0 -9.63 0 -1.6 1.5 -13.68 2.96 -26.53c0.98,-7.52 2.09,-15.82 3.32,-24.9 1.24,-9.11 3.06,-17.42 5.54,-24.9 -0.49,-1.6 -0.13,-4.95 1.11,-10.06 1.24,-5.08 2.58,-10.45 4.07,-16.08 1.47,-5.63 2.96,-11.14 4.43,-16.47 1.47,-5.37 2.71,-9.11 3.68,-11.27 0.98,-2.15 2.22,-3.87 3.71,-5.21 1.47,-1.34 2.22,-3.09 2.22,-5.24l-0.75 0 -0.05 0.05zm5.18 -47.4c-9.73,4.82 -18.37,15.95 -25.88,33.34 -7.66,17.42 -13.93,36.69 -18.99,57.86 -5.18,21.16 -9.15,42.06 -11.72,62.71 -2.71,20.64 -4.07,36.82 -4.07,48.61 0,10.71 0.75,21.16 2.22,31.35l0.75 -0.82c-2.96,-8.56 -3.58,-21.94 -1.86,-40.18 1.73,-18.24 4.69,-37.38 8.75,-57.47 4.2,-20.09 8.88,-39.37 14.32,-57.86 5.31,-18.5 9.99,-32.82 13.8,-43.01 1.99,-4.82 4.07,-9.63 6.29,-14.45 2.22,-4.82 5.18,-9.11 9.11,-12.86 0.98,-1.08 2.58,-1.89 4.69,-2.41 2.22,-0.55 3.32,-1.89 3.32,-4.03l-0.75 -0.82 0 0.03zm70.29 363.29l-1.47 0 1.47 0zm20.71 -62.68c-1.47,1.6 -2.96,2.93 -4.43,4.03 -0.98,0.52 -1.96,1.34 -2.96,2.41l-1.47 1.6 -2.22 3.22 0 0.82 1.5 0 6.64 -7.23 2.96 -4.03 0 -0.82 -0.02 0zm15.52 -32.95c0,0 0,0.26 0,0.82l-1.47 0.82 -3.71 3.22 -0.75 0.82 -5.93 5.63 -11.1 11.27 -9.6 8.85c-2.96,2.67 -5.93,5.5 -8.88,8.43 -2.96,2.96 -6.15,5.76 -9.63,8.43 -2.48,2.15 -5.4,4.17 -8.88,6.02 -3.45,1.86 -6.64,3.61 -9.6,5.21l-8.88 3.22 0 0.82 3.71 -1.63c1.96,1.08 5.05,0.42 9.24,-2.02 4.2,-2.41 8.62,-5.34 13.32,-8.82 4.69,-3.48 9.02,-6.84 12.96,-10.06 3.94,-3.22 6.68,-5.63 8.14,-7.23l0 -0.82c5.93,-4.3 11.23,-9.37 15.92,-15.27 4.69,-5.89 9.73,-11.53 15.17,-16.87l0 -0.82 -0.01 -0.04zm340.31 -116.56c0,4.82 0,12.73 0,23.71 0,10.97 -0.13,23.18 -0.36,36.56 -0.26,13.39 -0.88,27.19 -1.86,41.39 -0.98,14.19 -2.22,27.19 -3.68,38.97 -1.5,11.79 -3.32,21.42 -5.54,28.95 -2.22,7.49 -5.05,11.27 -8.53,11.27 -12.34,0 -24.65,-2.93 -36.98,-8.85 -12.34,-5.89 -21.94,-14.19 -28.85,-24.9 -0.98,-3.22 -1.6,-6.71 -1.86,-10.45 -0.26,-3.74 -0.36,-7.52 -0.36,-11.27 0,-27.32 1.11,-54.24 3.32,-80.77 2.22,-26.53 3.32,-53.46 3.32,-80.77 0,-4.3 0,-12.34 0,-24.13 0,-11.79 -0.13,-24.1 -0.36,-36.98 -0.26,-12.86 -0.62,-24.78 -1.11,-35.75 -0.49,-10.97 -0.98,-17.81 -1.5,-20.48 -13.8,6.97 -25.26,17.68 -34.38,32.13 -9.11,14.45 -16.51,31.35 -22.21,50.63 -5.67,19.28 -10.25,39.79 -13.68,61.47 -3.45,21.72 -6.77,43.27 -9.99,64.69 -3.19,21.42 -6.55,41.67 -9.99,60.69 -3.45,19.02 -7.88,35.23 -13.32,48.64 1.5,3.22 2.22,6.42 2.22,9.63 0,3.74 -1.6,6.02 -4.82,6.84 -3.19,0.82 -6.02,1.21 -8.53,1.21 -21.72,0 -38.35,-5.63 -49.95,-16.87 -11.59,-11.27 -20.09,-25.42 -25.52,-42.58 -5.44,-17.16 -8.53,-35.49 -9.24,-55.06 -0.75,-19.56 -1.11,-37.9 -1.11,-55.06 0,-15.01 0.62,-32.69 1.86,-53.03 1.24,-20.35 3.22,-40.73 5.93,-61.08 2.71,-20.35 6.06,-39.92 9.99,-58.67 3.94,-18.76 8.88,-34.58 14.78,-47.43l8.88 -3.22c4.43,0.55 9.24,1.76 14.42,3.61 5.18,1.86 9.99,4.56 14.42,8.05 4.43,3.48 7.92,7.49 10.35,12.05 2.48,4.56 2.96,10.06 1.5,16.47 0.98,2.67 1.99,6.84 2.96,12.47 0.98,5.63 1.73,11.66 2.22,18.11 0.49,6.42 0.85,12.47 1.11,18.11 0.26,5.63 0.36,10.03 0.36,13.26 0,20.35 -0.75,40.47 -2.22,60.27 -1.5,19.82 -2.96,39.66 -4.43,59.48 1.99,-16.61 4.69,-34.42 8.14,-53.46 3.45,-19.02 8.4,-37.64 14.78,-55.87 6.42,-18.24 14.68,-34.71 24.78,-49.42 10.12,-14.75 23.31,-25.85 39.59,-33.37 0.49,-0.52 1.96,-1.21 4.43,-2.02 2.48,-0.82 5.18,-1.73 8.14,-2.8 2.96,-1.08 5.54,-1.86 7.79,-2.41 2.22,-0.55 3.81,-0.82 4.82,-0.82 3.45,-3.22 7.88,-4.82 13.32,-4.82 2.48,0 6.02,0.82 10.71,2.41 4.69,1.6 9.5,3.61 14.42,6.02 4.95,2.41 9.15,5.08 12.57,8.05 3.45,2.93 5.18,5.76 5.18,8.43 0,0.55 0.26,0.82 0.75,0.82 0.49,0 0.49,0.26 0,0.82 1.96,2.67 3.58,5.5 4.78,8.43 1.24,2.93 2.61,5.76 4.07,8.43l0 -0.82c11.33,22.5 18.24,46.89 20.7,73.13 2.48,26.24 3.68,52.26 3.68,77.95l0.08 0.06zm-266.34 -74.75c-3.94,15.53 -6.64,32 -8.14,49.42 -1.47,17.42 -2.22,34.71 -2.22,51.84l0 24.13c0,10.71 0.88,21.03 2.61,30.93 1.73,9.9 3.81,19.69 6.29,29.34l0 -3.22c0,-10.71 -0.98,-21.72 -2.96,-32.95 -1.96,-11.27 -2.96,-22.5 -2.96,-33.76 0,-18.24 1.6,-37.77 4.82,-58.67 3.19,-20.9 4.07,-39.92 2.58,-57.08l-0.01 0.03zm19.25 196.09c-2.48,-14.45 -4.2,-28.56 -5.18,-42.19 -0.98,-13.65 -1.47,-27.74 -1.47,-42.19 0,-23.58 0.26,-46.76 0.75,-69.51 0.49,-22.76 0.75,-45.94 0.75,-69.51 0,-5.89 0.26,-11.92 0.75,-18.07 0.49,-6.15 1.24,-12.21 2.22,-18.11l1.47 -8.85 0.75 -3.22 0 0.82c-3.94,13.39 -6.77,27.87 -8.49,43.4 -1.73,15.53 -2.71,31.22 -2.96,47.01 -0.26,15.82 -0.13,31.61 0.36,47.43 0.49,15.79 0.75,30.67 0.75,44.61 0,14.45 0.62,29.47 1.86,45 1.24,15.53 4.07,30.28 8.49,44.22l0 -0.82 -0.03 -0.01zm121.31 -282.12c0,0 0,0.26 0,0.82l-1.47 0.82 -3.71 3.22 -0.75 0.82 -4.43 5.63 -9.6 12.05c-3.45,4.3 -6.29,8.18 -8.53,11.66 -2.22,3.48 -4.56,7.66 -7.04,12.47 -2.96,5.89 -5.4,11.92 -7.39,18.11 -1.99,6.15 -2.96,12.47 -2.96,18.89l0 0.82 0.75 -4 0.75 -0.82c0.49,-5.89 2.35,-12.6 5.54,-20.09 3.19,-7.49 7.04,-15.01 11.46,-22.5 4.43,-7.52 8.98,-14.48 13.68,-20.9 4.69,-6.42 9.24,-11.79 13.68,-16.08l0 -0.82 0.04 -0.08zm71.76 148.69c0,-3.74 -0.13,-9.9 -0.36,-18.5 -0.26,-8.56 -0.75,-17.81 -1.47,-27.71 -0.75,-9.9 -1.6,-19.31 -2.61,-28.13 -0.98,-8.85 -2.22,-15.14 -3.68,-18.89 1.47,15.53 2.71,30.93 3.68,46.2 0.98,15.27 1.5,30.67 1.5,46.2 0,19.28 -1.11,38.32 -3.32,57.08 -2.22,18.76 -3.81,37.77 -4.78,57.08 2.96,-19.31 5.54,-38.19 7.75,-56.66 2.22,-18.5 3.32,-37.38 3.32,-56.66l-0.03 -0.01zm11.11 -8.04l-0.75 2.41 0 46.63 0.75 1.6 0 -0.82 0 -3.22c0.98,-4.3 1.47,-8.82 1.47,-13.65 0,-4.82 0,-9.37 0,-13.68l-0.75 -15.27c0,-0.55 0.13,-1.47 0.36,-2.8 0.26,-1.34 -0.13,-2.02 -1.11,-2.02l0 0.82 0.03 0.01zm31.09 -225.01c0.98,-1.08 1.99,-1.6 2.96,-1.6l-2.96 1.6zm199 437.23l-3.68 0 3.68 0zm3.71 0l-3.71 0 3.71 0zm78.4 -78.76c0,23.58 -6.68,42.71 -19.95,57.47 -13.32,14.75 -30.83,22.11 -52.55,22.11 -15.79,0 -31.68,-3.48 -47.7,-10.45 -16.02,-6.97 -30.83,-16.34 -44.38,-28.13 -13.58,-11.79 -25.26,-25.29 -35.13,-40.6 -9.86,-15.27 -16.51,-31.22 -19.95,-47.83 -2.96,-14.48 -5.31,-34.03 -7.04,-58.67 -1.73,-24.65 -2.96,-50.63 -3.68,-77.95 -0.75,-27.32 -1.11,-53.72 -1.11,-79.19 0,-25.42 0,-46.2 0,-62.29 -9.86,2.67 -20.09,4.69 -30.7,6.02 -10.61,1.34 -20.84,3.35 -30.7,6.02 -2.48,0 -5.8,-0.55 -9.99,-1.6 -4.2,-1.08 -8.27,-2.41 -12.21,-4.03 -3.94,-1.6 -7.52,-3.74 -10.71,-6.42 -3.19,-2.67 -4.82,-5.89 -4.82,-9.63 0,-1.6 2.22,-3.48 6.64,-5.63 4.43,-2.15 9.37,-4.43 14.78,-6.84 5.44,-2.41 10.84,-4.69 16.28,-6.84 5.4,-2.15 9.37,-3.48 11.85,-4l-0.75 0 6.64 -2.41 -4.43 0.82c7.92,-2.15 15.79,-4.3 23.67,-6.42 7.88,-2.15 16.02,-3.74 24.42,-4.82 0.49,0 0.75,-0.55 0.75,-1.6 1.47,-24.13 3.06,-47.01 4.82,-68.74 1.73,-21.72 6.55,-44.08 14.42,-67.11 2.48,-1.6 4.3,-3.35 5.54,-5.21 1.24,-1.89 2.58,-3.61 4.07,-5.24 1.47,-1.6 3.32,-2.8 5.54,-3.61 2.22,-0.82 5.54,-1.21 9.99,-1.21 5.44,0 10.61,1.34 15.53,4.03 0,0 0.49,0.26 1.47,0.82l0.75 0 1.47 0.82c7.39,3.22 12.6,6.02 15.53,8.43 2.96,2.41 6.42,7.92 10.35,16.47 -1.5,5.89 -2.35,13.26 -2.58,22.11 -0.26,8.85 -0.39,16.47 -0.39,22.92l0 -4.82c0,12.31 -0.75,24.9 -2.22,37.77 -1.5,12.86 -2.22,25.46 -2.22,37.77 5.89,0 16.64,0.68 32.17,2.02 15.53,1.34 31.19,3.74 46.98,7.23 15.79,3.48 29.83,8.18 42.16,14.06 12.34,5.89 18.5,13.68 18.5,23.31 0,3.74 -1.37,5.89 -4.07,6.45 -2.71,0.52 -5.27,0.82 -7.75,0.82 -16.28,0 -32.56,-1.73 -48.84,-5.21 -16.28,-3.48 -32.79,-5.21 -49.55,-5.21l-31.06 0.82 0 0.82 0 29.73c0,30.54 0.13,60.82 0.36,90.81 0.26,30.02 1.37,60.27 3.32,90.84 0.49,6.42 1.24,18.37 2.22,35.75 0.98,17.42 2.96,35.36 5.93,53.85 2.96,18.5 7.17,34.84 12.57,49.03 5.44,14.19 12.57,21.29 21.46,21.29 8.4,0 15.92,-2.41 22.56,-7.23 6.64,-4.82 12.57,-10.84 17.75,-18.11 5.18,-7.23 9.86,-14.88 14.06,-22.92 4.2,-8.05 8.27,-15.27 12.21,-21.72 0.98,-0.52 2.22,-1.08 3.68,-1.6 1.5,-0.52 2.71,-0.82 3.71,-0.82 12.34,0 22.21,5.34 29.6,16.08 0,2.67 0.13,5.63 0.36,8.85 0.26,3.22 0.39,6.15 0.39,8.85l-0.01 -0.09zm-206.43 -294.17c-0.98,0 -1.47,1.08 -1.47,3.22 -0.98,5.89 -1.73,11.92 -2.22,18.07 -0.49,6.15 -0.75,12.47 -0.75,18.89l1.47 24.13 0.75 8.85 0 -0.82 0.75 -4.82c0,-6.42 -0.13,-12.86 -0.36,-19.28 -0.23,-6.42 -0.13,-12.86 0.36,-19.31l0.75 -0.82 0 -22.5 0.75 -4.03c0,-1.08 0,-1.6 0,-1.6l-0.03 0.01zm0.75 260.4c0,-20.35 -1.86,-41 -5.54,-61.9 -3.71,-20.9 -5.54,-41.8 -5.54,-62.71l0 -70.72c0,-33.76 1.99,-67.66 5.93,-101.69 3.94,-34.03 5.18,-67.92 3.68,-101.69 0.49,3.22 0.49,9.63 0,19.28 -0.49,9.63 -1.24,21.46 -2.48,35.36 -1.24,13.93 -2.48,28.95 -3.81,45.03 -1.47,16.08 -2.71,31.87 -3.94,47.4 -1.11,15.53 -2.22,30.15 -3.19,43.79 -0.88,13.68 -1.37,24.78 -1.37,33.37 0,9.11 0.36,22.11 1.11,38.97 0.62,16.87 1.6,34.29 2.83,52.26 1.11,17.94 2.83,34.71 4.92,50.24 2.12,15.53 4.56,26.5 7.39,32.95l0 0.82 0 -0.82 0.01 0.06zm145.74 111.72l4.43 -1.6 -4.43 1.6zm29.6 -90.85l0 -0.82c-0.49,0 -0.98,0.68 -1.47,2.02 -0.49,1.34 -0.75,2.28 -0.75,2.8 -2.48,4.3 -6.15,10.19 -11.1,17.68 -4.92,7.52 -9.37,13.13 -13.32,16.87 -0.98,1.08 -2.48,2.15 -4.43,3.22 -1.96,1.08 -2.96,2.41 -2.96,4.03l0.75 0.82c0.49,0 0.85,-0.39 1.11,-1.21 0.26,-0.82 0.62,-0.95 1.11,-0.42 3.94,-3.22 7.39,-6.42 10.35,-9.63 2.96,-3.22 6.15,-6.97 9.6,-11.27 0,-1.08 0.26,-1.6 0.75,-1.6 1.99,-3.22 3.71,-6.58 5.18,-10.06 1.47,-3.48 3.22,-6.84 5.18,-10.03l0 -2.41zm5.93 20.09c-0.98,0 -2.48,0.95 -4.43,2.8 -1.96,1.89 -2.96,3.35 -2.96,4.43l0 2.41 0.75 0 0 -0.82c0,-1.08 0.26,-1.89 0.75,-2.41l2.22 -3.22 3.71 -2.41 0 -0.82 -0.03 0.03zm76.18 -270.86c0,0.55 -0.26,0.82 -0.75,0.82 0.49,0 0.75,-0.26 0.75,-0.82zm152.41 198.54c0,13.93 -1.11,28.52 -3.32,43.79 -2.22,15.27 -6.15,29.34 -11.82,42.19 -5.67,12.86 -13.58,23.58 -23.67,32.13 -10.12,8.56 -23.05,12.86 -38.84,12.86 -36.98,0 -65.83,-12.18 -86.54,-36.56 -20.7,-24.39 -31.06,-56.13 -31.06,-95.24l0 -8.85 0 4.03c0.49,-11.79 1.6,-26.92 3.32,-45.42 1.73,-18.46 4.3,-37.24 7.79,-56.26 3.45,-19.02 7.92,-36.98 13.32,-53.85 5.4,-16.87 12.08,-29.6 19.95,-38.16l-1.47 0.82c2.48,-1.6 5.05,-2.67 7.79,-3.22 2.71,-0.55 5.54,-1.08 8.49,-1.6 0,-1.6 -0.13,-3.35 -0.36,-5.21 -0.26,-1.89 0.13,-3.61 1.11,-5.24 4.95,-5.37 9.86,-9.11 14.81,-11.27 1.47,0 2.83,-0.13 4.07,-0.39 1.24,-0.26 2.58,-0.39 4.07,-0.39 22.69,0 41.41,8.3 56.23,24.9 14.78,16.61 26.27,36.69 34.38,60.27 8.14,23.58 13.8,48.22 17.03,73.95 3.19,25.72 4.82,47.96 4.82,66.71l-0.1 0.01zm-147.23 -94.03c-0.49,0 -0.75,0.39 -0.75,1.21 0,0.82 -0.26,1.47 -0.75,2.02 -3.94,11.27 -5.54,22.5 -4.82,33.76 0.75,11.27 -0.13,22.24 -2.61,32.95l0.75 3.22 0 -0.82 0.75 -4.82c0.98,-6.42 1.6,-12.99 1.86,-19.69 0.26,-6.71 0.85,-13.26 1.86,-19.69l0.75 -0.82c-0.49,-4.82 0,-9.5 1.5,-14.06 1.47,-4.56 2.22,-8.98 2.22,-13.26l-0.75 0 0 0.01zm1.47 -75.56c-1.99,5.37 -2.96,9.37 -2.96,12.05 -3.94,10.71 -7.26,22.63 -9.99,35.75 -2.71,13.13 -5.05,26.66 -7.04,40.6 -1.99,13.93 -3.45,27.87 -4.43,41.8 -0.98,13.93 -1.47,26.53 -1.47,37.77 0,13.39 0.62,27.32 1.86,41.77 1.24,14.48 3.81,27.87 7.79,40.21l0 -0.82c-2.48,-13.39 -4.07,-26.4 -4.82,-38.97 -0.75,-12.6 -1.11,-25.59 -1.11,-39.01 0,-12.31 1.24,-25.16 3.71,-38.58 2.48,-13.39 3.19,-25.98 2.22,-37.77 0,0 0.85,-4.95 2.58,-14.84 1.73,-9.9 3.58,-20.64 5.54,-32.13 1.96,-11.53 3.81,-22.24 5.54,-32.13 1.73,-9.9 2.58,-15.14 2.58,-15.66l0.02 -0.03zm14.77 -49.82c0,0.52 -0.26,0.82 -0.75,0.82 0.49,0 0.75,-0.26 0.75,-0.82zm1.5 -0.81l-0.75 0.82 0.75 -0.82zm67.34 166.37c0,-23.05 -2.61,-46.2 -7.79,-69.51 -5.18,-23.31 -12.47,-45.16 -21.81,-65.51l-5.93 2.41 -10.35 0c0.49,0 0.75,0.55 0.75,1.6l2.96 8.05 0 4.03 -0.75 -0.82c0,26.79 -1.73,53.46 -5.18,79.97 -3.45,26.53 -5.18,53.43 -5.18,80.77 0,15.01 0.36,30.02 1.11,45 0.75,15.01 2.83,29.73 6.29,44.22 2.96,-1.08 5.8,-2.8 8.49,-5.24 2.71,-2.41 5.05,-4.95 7.04,-7.66l0.75 0c5.93,-6.97 10.74,-15.4 14.42,-25.29 3.71,-9.9 6.68,-20.09 8.88,-30.54 2.22,-10.45 3.81,-21.03 4.82,-31.74 0.98,-10.71 1.47,-20.64 1.47,-29.73l0 0.01zm25.88 16.87c0,-11.79 -1.24,-24.39 -3.68,-37.77l-3.71 -14.45c-0.49,0 -0.75,-0.26 -0.75,-0.82 0,-0.55 -0.26,-0.82 -0.75,-0.82l0.75 6.42c0.49,-1.08 0.85,-1.08 1.11,0 0.26,1.08 0.49,2.54 0.75,4.43 0.26,1.89 0.49,4.03 0.75,6.42 0.26,2.41 0.36,4.43 0.36,6.02 0.98,5.37 1.5,9.63 1.5,12.86l0 32.95c0,3.74 -0.39,8.3 -1.11,13.68 -0.75,5.37 -1.6,9.9 -2.58,13.68 0.49,2.67 -0.26,7.49 -2.22,14.48 -1.96,6.97 -4.17,14.45 -6.64,22.5 -2.48,8.05 -5.05,15.66 -7.79,22.92 -2.71,7.23 -4.56,12.18 -5.54,14.88l0.75 0c0.49,0 1.24,-1.63 2.22,-4.82 0.98,-3.22 1.73,-5.34 2.22,-6.42 6.42,-18.76 12.08,-36.04 17.03,-51.84 4.92,-15.82 7.39,-33.9 7.39,-54.24l-0.05 -0.05zm1.47 73.94c0,0 -0.49,1.08 -1.47,3.22 -0.98,2.15 -2.09,4.69 -3.32,7.66 -1.24,2.96 -2.22,5.76 -2.96,8.43 -0.75,2.67 -1.11,4.3 -1.11,4.82l0.75 0 2.22 -5.63c0.98,-1.6 2.35,-4.3 4.07,-8.05 1.73,-3.74 2.58,-6.15 2.58,-7.23l0 -2.41 -0.75 -0.82 0 -0.01zm422.41 -15.26c2.48,0 4.07,1.47 4.82,4.43 0.75,2.96 1.11,5.5 1.11,7.66 0,13.93 -3.19,28.65 -9.6,44.22 -6.42,15.53 -14.81,30.02 -25.16,43.4 -10.35,13.39 -22.07,24.52 -35.13,33.37 -13.06,8.82 -26.27,13.26 -39.59,13.26 -22.69,0 -42.03,-4.17 -58.08,-12.47 -16.15,-8.3 -29.24,-19.69 -39.33,-34.16 -10.22,-14.48 -17.75,-31.48 -22.56,-51.05 -4.82,-19.56 -7.26,-40.31 -7.26,-62.29 0,-15.53 1.24,-34.42 3.71,-56.66 2.45,-22.24 6.55,-44.48 12.21,-66.71 5.67,-22.24 13.06,-42.85 22.21,-61.9 9.11,-19.02 20.09,-33.08 32.92,-42.19 7.92,-5.89 16.28,-8.98 25.16,-9.24 8.88,-0.26 17.75,-0.13 26.63,0.39 1.99,-3.74 4.92,-5.63 8.88,-5.63 12.34,0 23.18,3.35 32.56,10.06 9.37,6.71 17.26,15.27 23.67,25.72 6.42,10.45 11.36,21.85 14.81,34.16 3.45,12.31 5.18,24.39 5.18,36.17 0,19.82 -2.71,39.23 -8.27,58.28 -5.44,19.02 -13.58,35.62 -24.29,49.82 -10.74,14.19 -23.93,24.78 -39.72,31.74 -15.66,6.97 -34.03,8.05 -54.99,3.22 -0.49,2.67 -0.75,4.95 -0.75,6.84 0,1.89 0,4.17 0,6.84 0,15.01 0.75,30.15 2.22,45.42 1.47,15.27 4.92,29.86 10.35,43.79 2.48,-0.55 5.05,-1.34 7.79,-2.41 2.71,-1.08 5.31,-2.15 7.79,-3.22l-0.75 0c12.34,-4.3 22.92,-10.97 31.81,-20.09 8.88,-9.11 18.24,-17.42 28.1,-24.9l0 0.82c8.88,-6.97 17.03,-13.93 24.42,-20.9 7.39,-6.97 15.3,-14.45 23.67,-22.5 2.48,-1.08 5.05,-1.86 7.79,-2.41 2.71,-0.55 5.31,-0.82 7.79,-0.82l-0.12 -0.07zm-52.51 -87.62c0,-1.08 0.85,-3.87 2.61,-8.43 1.73,-4.56 2.58,-7.62 2.58,-9.24l0 -7.23 0 -1.6 -0.75 0c-0.49,0 -0.88,0.82 -1.11,2.41 -0.26,1.6 -0.39,2.67 -0.39,3.22 -0.49,2.67 -1.11,5.63 -1.86,8.85 -0.75,3.22 -1.11,6.15 -1.11,8.85l0 1.6 0 0.82 0 0.82 0 0.82 0 -0.82 0.03 -0.07zm-17.75 4.04l0.75 -0.82c1.5,-2.67 1.99,-4.56 1.5,-5.63 2.48,-7.49 4.17,-14.75 5.18,-21.72 0.98,-6.97 1.99,-14.45 2.96,-22.5l0 -13.68c0,-2.15 -0.36,-5.89 -1.11,-11.27 -0.75,-5.37 -1.6,-8.05 -2.61,-8.05l0 3.22 0.75 8.05 0 17.68 -1.47 22.5c0,2.15 -0.26,4.3 -0.75,6.42 -0.49,2.15 -0.98,4.3 -1.47,6.42l-1.47 8.85 -2.22 7.23 0 3.22 0 0.82 0 -0.82 -0.06 0.07zm-76.18 55.44c0.62,0 2.09,-0.26 4.56,-0.82 2.58,-0.55 3.81,-1.08 3.81,-1.6 9.63,-3.74 17.75,-9.37 24.55,-16.87 6.9,-7.52 12.57,-16.08 17.13,-25.72 4.43,-9.63 7.79,-19.82 9.73,-30.54 2.09,-10.71 3.09,-21.16 3.09,-31.35 0,-10.71 -0.75,-21.03 -2.22,-30.93 -1.47,-9.9 -3.19,-20.22 -5.18,-30.93 -9.11,11.27 -16.77,23.71 -23.18,37.38 -6.29,13.68 -11.59,27.87 -15.92,42.58 -4.3,14.75 -8.01,29.73 -10.97,45 -3.09,15.27 -5.67,29.89 -7.66,43.79l2.22 0 0.03 0.02zm-8.89 126.98c-0.98,-1.08 -2.22,-1.6 -3.71,-1.6l2.96 1.6 0.75 0zm0.75 -272.45c-5.93,5.89 -9.99,12.86 -12.21,20.9 -2.22,8.05 -3.94,16.47 -5.18,25.29 -1.24,8.85 -2.35,17.42 -3.32,25.72 -0.98,8.3 -3.22,15.14 -6.64,20.48 -0.98,11.27 -2.22,22.5 -3.71,33.76 -1.47,11.27 -2.22,22.76 -2.22,34.55l0.75 7.23 0 0.82 0 -0.82 0.75 -2.41 0 -9.63 0 -1.6 1.47 -13.68 2.96 -26.53c0.98,-7.52 2.09,-15.82 3.32,-24.9 1.24,-9.11 3.09,-17.42 5.54,-24.9 -0.49,-1.6 -0.13,-4.95 1.11,-10.06 1.24,-5.08 2.61,-10.45 4.07,-16.08 1.47,-5.63 2.96,-11.14 4.43,-16.47 1.47,-5.37 2.71,-9.11 3.68,-11.27 0.98,-2.15 2.22,-3.87 3.71,-5.21 1.47,-1.34 2.22,-3.09 2.22,-5.24l-0.75 0 0.01 0.05zm5.18 -47.4c-9.73,4.82 -18.37,15.95 -25.88,33.34 -7.66,17.42 -13.93,36.69 -18.99,57.86 -5.18,21.16 -9.15,42.06 -11.72,62.71 -2.71,20.64 -4.07,36.82 -4.07,48.61 0,10.71 0.75,21.16 2.22,31.35l0.75 -0.82c-2.96,-8.56 -3.58,-21.94 -1.86,-40.18 1.73,-18.24 4.69,-37.38 8.75,-57.47 4.2,-20.09 8.88,-39.37 14.29,-57.86 5.31,-18.5 9.99,-32.82 13.8,-43.01 1.99,-4.82 4.07,-9.63 6.29,-14.45 2.22,-4.82 5.18,-9.11 9.11,-12.86 0.98,-1.08 2.58,-1.89 4.69,-2.41 2.22,-0.55 3.32,-1.89 3.32,-4.03l-0.75 -0.82 0.03 0.03zm70.29 363.29l-1.47 0 1.47 0zm20.71 -62.68c-1.47,1.6 -2.96,2.93 -4.43,4.03 -0.98,0.52 -1.96,1.34 -2.96,2.41l-1.47 1.6 -2.22 3.22 0 0.82 1.5 0 6.64 -7.23 2.96 -4.03 0 -0.82 -0.02 0zm15.52 -32.95c0,0 0,0.26 0,0.82l-1.47 0.82 -3.68 3.22 -0.75 0.82 -5.93 5.63 -11.1 11.27 -9.6 8.85c-2.96,2.67 -5.93,5.5 -8.88,8.43 -2.96,2.96 -6.15,5.76 -9.63,8.43 -2.48,2.15 -5.4,4.17 -8.88,6.02 -3.45,1.86 -6.64,3.61 -9.63,5.21l-8.88 3.22 0 0.82 3.71 -1.63c1.96,1.08 5.05,0.42 9.24,-2.02 4.2,-2.41 8.62,-5.34 13.32,-8.82 4.69,-3.48 9.02,-6.84 12.96,-10.06 3.94,-3.22 6.68,-5.63 8.14,-7.23l0 -0.82c5.93,-4.3 11.23,-9.37 15.92,-15.27 4.69,-5.89 9.73,-11.53 15.17,-16.87l0 -0.82 -0.01 -0.04zm127.99 -84.4l1.47 1.6c-0.98,0 -1.47,-0.55 -1.47,-1.6zm90.26 80.39c0,11.27 -2.96,21.42 -8.88,30.54 -5.93,9.11 -13.32,16.87 -22.21,23.31 -8.88,6.42 -18.5,11.4 -28.85,14.88 -10.35,3.48 -20.22,5.21 -29.6,5.21 -3.45,0 -9.11,-0.68 -17,-2.02 -7.92,-1.34 -16.02,-3.48 -24.42,-6.42 -8.4,-2.93 -15.79,-6.29 -22.21,-10.03 -6.42,-3.74 -9.63,-8.05 -9.63,-12.86l0.75 -2.41 15.53 -1.6c1.96,0.55 3.68,0.95 5.18,1.21 1.47,0.26 3.22,0.39 5.18,0.39l-2.96 0 1.47 -0.82c2.48,0.52 4.82,0.52 7.04,0 2.22,-0.55 4.33,-1.34 6.29,-2.41l-0.75 0.82c7.39,-2.67 14.68,-5.76 21.81,-9.24 7.17,-3.48 13.45,-8.18 18.86,-14.06l-2.22 2.41c11.33,-10.71 17,-23.84 17,-39.4l0 3.22c0.49,-11.79 -1.47,-23.05 -5.89,-33.76 -4.43,-10.71 -9.63,-20.64 -15.53,-29.76l0.75 2.41c-5.4,-9.11 -12.08,-18.89 -19.95,-29.34 -7.88,-10.45 -15.4,-21.16 -22.56,-32.13 -7.17,-10.97 -13.32,-22.11 -18.5,-33.34 -5.18,-11.27 -7.79,-22.5 -7.79,-33.76 0,-13.39 3.45,-25.46 10.35,-36.17 6.9,-10.71 15.53,-19.69 25.88,-26.92 10.35,-7.23 21.59,-12.73 33.67,-16.47 12.08,-3.74 23.54,-5.63 34.38,-5.63 1.99,0 5.54,0.39 10.71,1.21 5.18,0.82 10.35,2.02 15.53,3.61 5.18,1.6 9.86,3.61 14.06,6.02 4.2,2.41 6.29,5.21 6.29,8.43 0,1.6 -0.62,2.93 -1.86,4 -1.24,1.08 -2.35,2.15 -3.32,3.22 -1.96,0.55 -4.92,1.89 -8.88,4.03 -3.94,2.15 -7.88,4.69 -11.85,7.66 -3.94,2.93 -7.79,5.76 -11.46,8.43 -3.71,2.67 -6.29,4.82 -7.79,6.42l2.22 -2.41c-7.39,6.97 -13.8,15.14 -19.25,24.52 -5.4,9.37 -8.14,19.69 -8.14,30.93 0,16.08 4.2,30.8 12.57,44.22l-0.75 -0.82c0.98,0 1.6,0.55 1.86,1.6 0.26,1.08 0.62,2.15 1.11,3.22l-0.75 -0.82 4.43 6.42 -2.96 -4c5.89,9.11 12.44,19.43 19.6,30.93 7.17,11.53 13.93,23.31 20.35,35.36 6.42,12.05 11.85,24.23 16.28,36.56 4.43,12.34 6.64,24.13 6.64,35.36l0.16 0.02zm-126.49 37.76c-0.49,0.55 -1.5,0.82 -2.96,0.82 1.47,0 2.48,-0.26 2.96,-0.82zm-15.53 2.42l0.75 0 -0.75 0zm1.47 0l0.75 0 -0.75 0zm3.71 0.81l0.75 0.82 -0.75 -0.82zm2.96 1.6l7.39 1.6 -7.39 -1.6zm18.49 -285.31c-1.47,0 -3.06,1.6 -4.78,4.82 -1.73,3.22 -3.32,6.84 -4.82,10.84 -1.47,4.03 -2.83,7.92 -4.07,11.66 -1.24,3.74 -1.86,6.42 -1.86,8.05l1.11 1.6 0 -0.82 1.11 -2.41c0.98,-3.74 2.09,-7.1 3.32,-10.06 1.24,-2.93 2.35,-6.02 3.32,-9.24 -0.49,-1.08 0.62,-3.35 3.32,-6.84 2.71,-3.48 4.07,-5.76 4.07,-6.84l-0.75 -0.82 0.02 0.06zm54.02 -33.76l-4.43 -1.6c-0.98,-0.52 -2.71,-0.68 -5.18,-0.39 -2.48,0.26 -4.43,0.39 -5.93,0.39 -8.36,0 -16.64,2.02 -24.78,6.02 -8.14,4.03 -15.3,9.37 -21.46,16.08 -6.15,6.71 -11.23,14.32 -15.17,22.89 -3.94,8.56 -5.93,17.42 -5.93,26.53l0.75 2.41 0.75 -2.41 0.75 -6.45c0.49,-4.3 1.99,-8.98 4.43,-14.06 2.48,-5.08 4.92,-9.5 7.39,-13.26 3.45,-4.3 8.27,-8.56 14.42,-12.86 6.15,-4.3 10.25,-8.05 12.21,-11.27 4.43,-2.15 8.75,-3.87 12.96,-5.21 4.2,-1.34 8.75,-2.54 13.68,-3.61l14.06 -1.6 2.22 -0.82 -0.75 -0.82 0.02 0.03zm8.88 262.03c-0.49,0 -0.88,0.68 -1.11,2.02 -0.26,1.34 -0.36,2.28 -0.36,2.8 -4.43,9.11 -8.49,16.08 -12.21,20.9 -3.68,4.82 -9.02,10.45 -15.92,16.87 -0.98,0 -1.96,0.55 -2.96,1.6l-1.47 0.82 0 0.82c3.45,0 7.26,-1.6 11.46,-4.82 4.2,-3.22 7.92,-7.23 11.1,-12.05 3.19,-4.82 5.93,-9.77 8.14,-14.84 2.22,-5.08 3.32,-9.5 3.32,-13.26l0 -0.82 0.01 -0.04zm27.38 -33.76l0 -0.82 -2.22 -5.63 0 -0.82c-1.47,-3.22 -4.56,-9.37 -9.24,-18.5 -4.69,-9.11 -9.86,-18.76 -15.53,-28.91 -5.67,-10.19 -11.23,-19.56 -16.64,-28.13 -5.44,-8.56 -9.37,-13.93 -11.85,-16.08l1.47 4c0.98,0.55 4.07,5.5 9.24,14.88 5.18,9.37 10.84,19.69 17,30.93 6.15,11.27 11.95,21.98 17.39,32.13 5.44,10.19 8.88,16.34 10.35,18.5l0.75 0 -0.75 -1.6 0.03 0.03zm-39.23 -92.43c0,-1.08 -0.23,-1.6 -0.75,-1.6 -0.49,0 -0.75,-0.55 -0.75,-1.6 0,1.08 0.49,2.15 1.47,3.22l0.03 -0.03zm-76.94 180.04c0.49,0.52 1.24,0.82 2.22,0.82l-2.22 0 0 -0.82zm530.45 -265.22c-13.8,39.1 -26.01,78.63 -36.63,118.55 -10.61,39.92 -22.3,79.71 -35.13,119.36 -2.48,8.56 -5.67,17.29 -9.6,26.11 -3.94,8.85 -8.4,17 -13.32,24.52l-8.88 2.41 0 0.82c-0.98,1.63 -2.35,2.67 -4.07,3.22 -1.73,0.52 -3.32,0.82 -4.78,0.82 -4.43,0 -9.86,-1.08 -16.28,-3.22 -6.42,-2.15 -12.57,-4.82 -18.5,-8.05 -5.93,-3.22 -11.46,-6.97 -16.64,-11.27 -5.18,-4.3 -8.75,-8.56 -10.71,-12.86 -7.92,-15.53 -14.81,-36.17 -20.7,-61.9 -5.93,-25.72 -10.87,-52.51 -14.81,-80.38 -3.94,-27.87 -7.17,-55.19 -9.6,-81.98 -2.48,-26.79 -3.94,-49.29 -4.43,-67.5l5.93 -7.23 2.22 0c2.96,0 7.04,0.68 12.21,2.02 5.18,1.34 10.35,3.22 15.53,5.63 5.18,2.41 9.86,5.24 14.06,8.43 4.17,3.22 6.77,6.45 7.79,9.63 8.88,36.43 16.9,74.21 24.06,113.33 7.17,39.1 13.45,77.16 18.86,114.12 0.98,-5.37 3.32,-16.34 7.04,-32.95 3.68,-16.61 8.14,-35.91 13.32,-57.89 5.18,-21.98 10.84,-45 17.03,-69.12 6.15,-24.1 12.34,-46.34 18.5,-66.71 6.15,-20.35 12.08,-37.11 17.75,-50.24 5.67,-13.13 10.48,-19.69 14.42,-19.69 2.96,0 7.52,0.82 13.71,2.41 6.15,1.6 12.21,3.87 18.11,6.84 5.93,2.93 11.23,6.15 15.92,9.63 4.69,3.48 7.04,7.1 7.04,10.84l-19.25 52.26 -0.13 0.04zm-192.35 85.21c0,5.89 0.49,12.99 1.47,21.29 0.98,8.3 1.99,15.4 2.96,21.29l5.93 28.13c0,0.55 0.23,1.89 0.75,4.03 0.49,2.15 0.98,3.19 1.47,3.19l0 -1.6 -0.75 -4.03 -0.75 -0.82c-0.49,-6.97 -1.37,-14.06 -2.61,-21.29 -1.24,-7.23 -2.35,-14.32 -3.32,-21.29 -0.98,-4.3 -1.6,-8.43 -1.86,-12.47 -0.26,-4.03 -0.62,-8.18 -1.11,-12.47 0,-0.55 -0.13,-1.89 -0.36,-4.03 -0.26,-2.15 -0.62,-3.22 -1.11,-3.22l-0.75 3.22 0.03 0.06zm27.38 155.93c-4.43,-25.2 -10.22,-49.98 -17.39,-74.34 -7.17,-24.39 -12.44,-49.42 -15.89,-75.14l-9.63 -94.85 -0.72 12.05c0,15.53 0.98,34.16 2.96,55.87 1.96,21.72 4.92,43.53 8.88,65.51 3.94,21.98 8.53,43.01 13.68,63.1 5.18,20.09 11.23,36.3 18.14,48.64l0 -0.82 -0.03 -0.02zm113.2 -265.23c-5.93,9.11 -10.97,20.51 -15.17,34.16 -4.2,13.65 -8.01,28.13 -11.46,43.4 -3.45,15.27 -6.77,30.41 -9.99,45.42 -3.19,15.01 -6.55,28.39 -9.99,40.18 -2.48,8.05 -4.56,16.47 -6.29,25.29 -1.73,8.85 -3.58,17.29 -5.54,25.33l-3.71 20.09 -2.22 10.45 0 0.82 0.75 -0.82 0.75 -4.03c0.98,-5.89 2.22,-11.66 3.68,-17.29 1.5,-5.63 2.96,-11.4 4.43,-17.29l9.63 -38.58c4.43,-18.2 9.37,-36.69 14.78,-55.45 0,-0.55 0.26,-1.08 0.75,-1.6 3.45,-8.56 6.02,-17.42 7.75,-26.53 1.73,-9.11 3.45,-18.24 5.18,-27.32 1.73,-9.11 3.71,-18.11 5.93,-26.92 2.22,-8.82 5.54,-17.81 9.99,-26.92l1.47 -2.41 -0.75 0 0.03 0.01zm14.06 -34.55c-0.98,0 -2.22,2.41 -3.68,7.23 -1.5,4.82 -2.22,7.79 -2.22,8.85l0 3.22c0,1.08 0,1.6 0,1.6l0.75 0 0 -1.6 0.75 -2.41c0.98,-2.67 1.96,-5.21 2.96,-7.66 0.98,-2.41 1.47,-4.69 1.47,-6.84l0 -2.41 -0.03 0zm64.37 -135.02c0,-10.71 1.99,-21.72 5.93,-32.95 2.58,-3.22 5.8,-5.37 9.73,-6.45 11.46,0 23.18,2.67 35.13,8.05 11.98,5.34 20.7,14.19 26.14,26.53 -1.47,13.93 -3.32,29.21 -5.54,45.81 -2.35,16.61 -6.42,31.06 -12.34,43.4l-9.73 0.82c-2.96,0 -6.42,-0.95 -10.12,-2.8 -3.68,-1.89 -7.39,-4.3 -10.84,-7.23 -3.45,-2.93 -6.64,-5.89 -9.73,-8.82 -2.96,-2.96 -5.18,-5.5 -6.68,-7.66l1.5 0.82c-2.96,-2.15 -5.44,-5.76 -7.52,-10.84 -1.99,-5.08 -3.32,-10.58 -4.07,-16.47 -0.75,-5.89 -1.24,-11.79 -1.47,-17.68 -0.26,-5.89 -0.39,-10.71 -0.39,-14.45l0 -0.07zm20.7 13.68l0.75 15.27 0.75 1.6 0.75 0 0 -0.82 0 -3.22c0,-7.52 0.49,-14.84 1.47,-22.11 0.98,-7.23 1.5,-14.62 1.5,-22.11 0,-2.15 -0.26,-3.22 -0.75,-3.22 0,0 0,0.55 0,1.63 -0.98,2.15 -1.47,4 -1.47,5.63l-2.96 20.9 0 6.45 -0.03 0.01zm65.12 502.32c-0.98,0.55 -2.71,1.21 -5.18,2.02 -2.48,0.82 -4.2,1.21 -5.18,1.21 -9.86,0 -19.47,-2.15 -28.85,-6.42 -0.98,-0.52 -3.09,-1.73 -6.29,-3.61 -3.22,-1.89 -5.31,-2.54 -6.29,-2.02 -3.45,-2.15 -6.9,-4.43 -10.35,-6.84 -3.45,-2.41 -6.64,-4.95 -9.6,-7.66l-5.93 -10.45c-2.45,-18.24 -3.19,-37.24 -2.22,-57.08 0.98,-19.82 1.47,-39.1 1.47,-57.89 0,-24.1 -0.98,-48.09 -2.96,-71.92 -1.99,-23.84 -2.96,-47.83 -2.96,-71.96l1.47 -10.45 -0.75 4.82c0,-3.22 0.13,-8.43 0.36,-15.69 0.23,-7.23 0.75,-14.75 1.6,-22.5 0.75,-7.79 1.6,-14.88 2.71,-21.29 0.98,-6.42 2.35,-10.97 3.81,-13.65l7.79 5.63 0 -3.22 4.43 -6.42 2.96 0c6.42,0 14.42,2.54 24.03,7.66 9.63,5.08 15.92,10.84 18.86,17.29 4.43,9.63 8.01,25.2 10.74,46.63 2.71,21.42 4.69,44.61 5.93,69.51 1.24,24.9 2.09,49.16 2.58,72.74 0.49,23.58 0.75,41.8 0.75,54.67 0,17.16 0.49,34.71 1.47,52.64 0.98,17.94 0.26,34.97 -2.22,51.05l-2.22 3.22 0.06 -0.03zm-55.48 -75.57c0,-38.03 -0.26,-75.66 -0.75,-112.92 -0.49,-37.24 -0.75,-74.88 -0.75,-112.92l-0.75 -3.22c-2.48,13.93 -3.84,28 -4.07,42.19 -0.26,14.19 -0.36,28.26 -0.36,42.19 0,26.79 0.26,53.98 0.75,81.59 0.49,27.58 2.22,54.53 5.18,80.77l0.75 -0.82 0 -16.87 0 -0.01zm8.14 -163.96c-1.47,0 -2.22,0.55 -2.22,1.63 0,0.52 0.26,0.82 0.75,0.82 -0.49,2.67 -1.11,5.37 -1.86,8.05 -0.75,2.67 -1.11,5.37 -1.11,8.05l0 14.45 2.96 15.27 1.47 4.82 0.75 0 0 -0.82 -0.75 -3.22c-1.47,-8.05 -1.73,-16.21 -0.75,-24.52 0.98,-8.3 1.47,-16.21 1.47,-23.71l-0.75 -0.82 0.03 0zm366.91 204.89c-1.5,2.15 -4.2,5.37 -8.14,9.63 -3.94,1.08 -7.26,1.6 -10.22,1.6 -5.93,0 -12.21,-1.34 -19.12,-4 -6.77,-2.67 -13.19,-6.29 -19.34,-10.84 -6.02,-4.56 -11.36,-9.77 -15.79,-15.69 -4.33,-5.89 -7.04,-12.31 -8.01,-19.28 -4.2,-32.13 -7.17,-64.69 -9.02,-97.64 -1.86,-32.95 -3.06,-65.77 -3.58,-98.46 -1.47,8.05 -3.58,18.89 -6.29,32.56 -2.71,13.65 -6.02,28.65 -9.99,45 -3.94,16.34 -8.4,33.08 -13.32,50.24 -4.92,17.16 -10.22,32.95 -15.89,47.43 -5.67,14.45 -11.72,26.79 -18.14,36.98 -6.42,10.16 -13.06,16.34 -19.95,18.46l0.75 -0.82c-3.94,2.67 -6.64,4.3 -8.14,4.82 -1.47,0.55 -4.43,1.34 -8.88,2.41l2.96 0c0,0.52 -1.24,0.82 -3.71,0.82 -2.48,0 -3.94,0 -4.43,0 -14.29,0 -28.13,-2.8 -41.44,-8.43 -13.32,-5.63 -25.03,-13.39 -35.13,-23.31 -10.09,-9.9 -18.24,-21.72 -24.42,-35.36 -6.15,-13.68 -9.24,-28.26 -9.24,-43.82 0,-21.94 3.71,-46.47 11.1,-73.55 7.39,-27.06 17.88,-52.39 31.45,-75.96 13.58,-23.58 29.96,-43.27 49.2,-59.09 19.25,-15.79 40.44,-23.71 63.62,-23.71l1.47 -0.82 5.18 0c5.4,0 11.72,0.82 18.86,2.41 7.17,1.63 13.19,3.48 18.11,5.63 2.48,-1.08 5.05,-1.08 7.79,0 2.74,1.08 5.31,2.15 7.79,3.22l0.75 0c0,-18.76 0.13,-39.53 0.36,-62.29 0.26,-22.79 1.37,-45.81 3.32,-69.12 1.96,-23.31 4.69,-46.07 8.14,-68.31 3.45,-22.24 8.14,-42.19 14.06,-59.87 2.48,-2.15 4.82,-3.87 7.04,-5.21 2.22,-1.34 4.82,-2.02 7.79,-2.02 12.83,0 22.34,2.8 28.49,8.43 6.15,5.63 13.68,12.18 22.56,19.69l2.22 6.42 0.75 19.28c0,45.55 -2.35,91.75 -7.04,138.64 -4.69,46.89 -7.04,93.9 -7.04,141.04 0,27.32 0.23,54.93 0.75,82.8 0.49,27.87 1.96,55.45 4.43,82.76 0.98,13.93 2.61,28.65 4.82,44.22 2.22,15.53 3.32,30.28 3.32,44.22l-0.75 8.85 -0.05 0.03zm-249.69 -238.72c3.94,-10.71 10.61,-20.9 19.82,-30.54 9.24,-9.63 18.14,-17.68 26.4,-24.13 0.49,-0.52 1.86,-1.6 4.07,-3.22 2.22,-1.6 3.32,-2.67 3.32,-3.22l-0.75 0 -6.64 3.22c0,0.55 -0.26,0.82 -0.75,0.82 -0.49,0 -0.75,0.26 -0.75,0.82l-8.01 5.63c-3.45,2.67 -6.64,5.5 -9.5,8.43 -2.96,2.96 -5.89,5.76 -8.88,8.43 -8.27,8.05 -15.66,18.24 -22.07,30.54 -6.29,12.34 -11.72,23.84 -16.15,34.58l-1.47 1.6c-5.31,15.01 -10.48,30.54 -15.43,46.63 -4.78,16.08 -8.49,32.13 -10.97,48.22l0.75 0c0.49,-5.34 2.61,-14.32 6.29,-26.92 3.58,-12.6 7.79,-25.72 12.47,-39.4 4.69,-13.65 9.5,-26.37 14.68,-38.16 5.18,-11.79 9.6,-19.56 13.58,-23.31l-0.02 -0.02zm18.13 37.76l0.75 0 0 -0.82 0.75 -1.6 2.22 -6.42c0.49,-1.08 1.6,-2.83 3.32,-5.24 1.73,-2.41 2.58,-3.87 2.58,-4.43 0,-0.52 -0.49,-0.82 -1.47,-0.82 -0.98,0 -2.61,2.28 -4.82,6.84 -2.22,4.56 -3.32,7.66 -3.32,9.24l0 3.22 0 0.02zm8.89 -56.26c-6.42,4.82 -11.95,11.66 -16.64,20.48 -4.69,8.85 -8.75,17.03 -12.21,24.52l0 0.82c-3.45,5.37 -6.02,12.18 -7.79,20.51 -1.73,8.3 -3.09,15.66 -4.07,22.11 0.49,-0.55 1.6,-3.35 3.32,-8.43 1.73,-5.08 3.58,-10.58 5.54,-16.47 1.99,-5.89 4.07,-11.79 6.29,-17.68 2.22,-5.89 4.07,-10.45 5.54,-13.65l0.75 -0.82c1.99,-4.3 4.2,-8.18 6.64,-11.66 2.48,-3.48 4.92,-7.36 7.39,-11.66l4.43 -6.42 0.75 -0.82 0 -0.82 0.06 -0.02zm2.22 229.86l-8.88 -1.6c0,0 -0.26,-0.26 -0.75,-0.82l-3.71 -1.6c-0.98,-0.55 -2.09,-1.47 -3.32,-2.8 -1.24,-1.34 -2.35,-2.02 -3.32,-2.02l0 0.82c0,2.67 2.22,5.08 6.64,7.23 4.43,2.15 7.39,3.48 8.88,4l4.43 0c0.98,0 2.96,-0.68 5.93,-2.02 2.96,-1.34 4.43,-2.54 4.43,-3.61 0,0 -0.49,0 -1.47,0 -0.98,0.52 -1.6,0.82 -1.86,0.82 -0.26,0 -0.88,0.55 -1.86,1.6l-5.18 0 0.04 0zm93.21 -265.22c-12.83,7.49 -25.16,19.82 -36.98,36.98 -11.85,17.16 -22.43,36.04 -31.81,56.66 -9.37,20.64 -16.9,41.54 -22.56,62.71 -5.67,21.16 -8.49,39.53 -8.49,55.06 0,13.39 1.73,25.46 5.18,36.17 7.92,-2.15 15.53,-8.98 22.96,-20.48 7.39,-11.53 14.29,-25.59 20.7,-42.19 6.42,-16.61 12.34,-34.71 17.75,-54.24 5.4,-19.56 10.35,-38.16 14.78,-55.87 4.43,-17.68 8.27,-33.21 11.46,-46.63 3.22,-13.39 5.54,-22.76 7.04,-28.13l-0.02 -0.04zm63.62 -204.96c-0.49,3.74 -1.73,8.05 -3.71,12.86l0.75 0c-5.05,31.06 -8.01,62.68 -8.62,94.85 -0.75,32.13 -1.47,64.04 -2.48,95.66 -0.49,7.49 -0.62,15.14 -0.36,22.92 0.26,7.79 0.36,15.4 0.36,22.89 0,16.08 0.13,33.76 0.39,53.03 0.13,19.28 1.34,36.98 3.58,53.03l1.96 15.27 0 0.82 0.75 -0.82c-0.75,-9.11 -1.24,-18.89 -1.6,-29.34 -0.36,-10.45 -0.62,-20.22 -0.62,-29.34 0,-41.26 0.88,-82.37 2.58,-123.37 1.73,-41 2.61,-82.11 2.61,-123.37 0,-10.71 0.88,-21.72 2.58,-32.95 1.73,-11.27 2.61,-22.24 2.61,-32.95l-0.75 0.82 -0.01 -0.02zm12.57 342.39c0,-5.89 0,-15.4 0,-28.56 0,-13.13 -0.13,-27.74 -0.36,-43.79 -0.26,-16.08 -0.49,-32.82 -0.75,-50.24 -0.26,-17.42 -0.62,-33.5 -1.11,-48.22 -0.49,-14.75 -0.98,-27.06 -1.47,-36.98 -0.49,-9.9 -0.98,-15.66 -1.47,-17.29l-0.75 28.95 0 49.82c0,20.35 0.62,40.73 1.86,61.08 1.24,20.35 2.09,40.73 2.58,61.08l0.75 18.5 0 9.63 0 0.82 0.75 -0.82 0 -4 -0.03 0.03zm4.42 51.44c0,-2.15 -0.26,-4.3 -0.75,-6.42 -0.49,-2.15 -0.75,-4.3 -0.75,-6.42l-0.75 -4.82 0 -3.22 -0.75 0c-0.49,0 -0.88,0.55 -1.11,1.6 -0.23,1.08 -0.36,1.89 -0.36,2.41l0 9.63 0.75 3.22 2.22 10.45c0,2.15 0.26,3.22 0.75,3.22l0.75 0 0 -3.22 0 -6.42 0 -0.01zm-110.24 -236.31l1.47 0 -1.47 0zm1.47 0c0.49,-0.52 1.24,-0.82 2.22,-0.82 -0.49,0 -0.98,0.26 -1.5,0.82l-0.75 0 0.03 0zm318.84 0c0.49,-0.52 1.24,-0.82 2.22,-0.82 -0.49,0 -0.98,0.26 -1.47,0.82l-0.75 0zm112.47 20.9l0.75 0 -0.75 0zm-113.92 -20.9l1.47 0 -1.47 0zm163.47 354.44c0,3.22 -1.6,5.24 -4.78,6.02 -3.22,0.82 -6.06,1.21 -8.53,1.21 -21.72,0 -39.2,-4.69 -52.51,-14.06 -13.32,-9.37 -23.8,-21.59 -31.45,-36.56 -7.66,-15.01 -13.06,-31.74 -16.28,-50.24 -3.22,-18.5 -5.8,-36.85 -7.79,-55.06 -1.96,7.52 -5.05,18.11 -9.24,31.74 -4.2,13.68 -9.24,27.45 -15.17,41.39 -5.93,13.93 -12.08,26.37 -18.5,37.38 -6.42,10.97 -12.83,17.55 -19.25,19.69l0.75 -0.82c-3.94,2.67 -6.64,4.3 -8.14,4.82 -1.47,0.55 -4.43,1.34 -8.88,2.41l2.96 0c0,0.52 -1.24,0.82 -3.71,0.82 -2.48,0 -3.94,0 -4.43,0 -14.29,0 -28.13,-2.8 -41.44,-8.43 -13.32,-5.63 -25.03,-13.39 -35.13,-23.31 -10.12,-9.9 -18.24,-21.72 -24.42,-35.36 -6.15,-13.68 -9.24,-28.26 -9.24,-43.82 0,-21.94 3.71,-46.47 11.1,-73.55 7.39,-27.06 17.88,-52.39 31.45,-75.96 13.58,-23.58 29.96,-43.27 49.2,-59.09 19.25,-15.79 40.44,-23.71 63.62,-23.71l1.5 -0.82 5.18 0c5.44,0 11.72,0.68 18.86,2.02 7.17,1.34 13.19,3.35 18.14,6.02l7.39 0 2.96 -8.05 5.93 -7.23c-0.98,-1.08 0.13,-2.02 3.32,-2.8 3.19,-0.82 5.05,-1.21 5.54,-1.21 8.4,0 16.15,2.28 23.31,6.84 7.17,4.56 12.7,10.58 16.64,18.11l-2.22 -3.22 3.68 11.27 0 -0.82 0.75 3.22 0 -0.82 0 -0.82c2.48,20.35 4.07,41 4.78,61.9 0.75,20.9 1.24,41.8 1.5,62.71 0.23,20.9 0.75,41.64 1.47,62.29 0.75,20.64 2.58,41.39 5.54,62.29 1.47,9.11 3.45,19.56 5.93,31.35 2.48,11.79 5.93,21.72 10.35,29.73 0.49,1.08 1.73,2.28 3.71,3.61 1.96,1.34 4.07,2.93 6.29,4.82 2.22,1.89 4.3,4.03 6.29,6.45 1.96,2.41 2.96,4.95 2.96,7.62l0.01 0.05zm-250.81 -268.44c0,-3.22 2.09,-7.36 6.29,-12.47 4.2,-5.08 8.88,-10.06 14.06,-14.88 5.18,-4.82 10.35,-9.37 15.53,-13.68 5.18,-4.3 8.75,-7.49 10.74,-9.63l1.47 -2.41 -0.75 -0.82c-9.99,3.22 -18.76,8.43 -26.5,15.66 -7.66,7.23 -14.68,15.27 -20.84,24.13 -6.15,8.82 -11.85,18.24 -16.77,28.13 -4.92,9.9 -9.5,19.69 -13.45,29.34 -2.48,5.89 -4.56,12.05 -6.29,18.5 -1.73,6.42 -3.81,12.86 -6.42,19.28 -0.98,2.67 -1.86,5.24 -2.58,7.66 -0.75,2.41 -1.37,4.95 -1.86,7.66l-1.47 8.05 0 0.82c0.75,0 1.37,-0.55 1.73,-1.6 0.39,-1.08 0.49,-1.89 0.49,-2.41 0.98,-4.3 2.35,-8.56 4.07,-12.86 1.73,-4.3 3.32,-8.56 4.82,-12.86 1.47,-3.74 3.81,-9.37 7.04,-16.87 3.22,-7.52 6.64,-15.14 10.35,-22.92 3.68,-7.79 7.39,-15.01 11.1,-21.72 3.71,-6.71 6.77,-11.4 9.24,-14.06l-0.02 -0.03zm51.06 -34.58c0.49,0 0.98,-0.26 1.47,-0.82 0.49,-0.55 0.49,-1.08 0,-1.6 -6.9,0.55 -13.55,3.61 -19.95,9.24 -6.42,5.63 -12.44,12.31 -18.14,20.09 -5.67,7.79 -10.71,15.95 -15.17,24.52 -4.43,8.56 -7.88,16.08 -10.35,22.5l-11.85 29.76c-1.96,5.34 -3.19,9.37 -3.68,12.05l-1.47 6.42 0 0.82c2.48,0 3.68,-1.47 3.68,-4.43 0,-2.93 0.49,-5.5 1.47,-7.66 2.48,-5.89 4.95,-11.4 7.39,-16.47 2.48,-5.11 4.92,-10.58 7.39,-16.47 2.48,-5.89 5.93,-12.99 10.35,-21.29 4.43,-8.3 9.24,-16.34 14.42,-24.1 5.18,-7.79 10.71,-14.75 16.64,-20.9 5.93,-6.15 11.85,-10.06 17.75,-11.66l0.06 0zm-21.46 38.58c-2.96,0 -6.06,2.96 -9.24,8.85 -3.22,5.89 -5.31,10.19 -6.29,12.86 -0.49,1.08 -0.85,2.41 -1.11,4.03 -0.26,1.6 -0.62,2.93 -1.11,4.03 0,1.6 0,2.41 0,2.41 0.49,0 0.98,-0.68 1.47,-2.02 0.49,-1.34 0.75,-2.28 0.75,-2.8 0.98,-2.67 2.71,-5.63 5.18,-8.82 2.48,-3.22 4.43,-6.15 5.93,-8.85l5.93 -7.23 0.75 -2.41 -2.22 0 -0.04 -0.05zm0 220.22c0,-0.55 -0.49,-0.82 -1.5,-0.82 -0.98,0 -1.73,0 -2.22,0 -1.99,-1.08 -3.81,-1.86 -5.54,-2.41 -1.73,-0.55 -3.32,-1.34 -4.82,-2.41l-0.75 -1.6c-2.48,-1.6 -3.94,-4.43 -4.43,-8.43 -0.49,-4.03 -1.99,-6.02 -4.43,-6.02l-0.75 1.6c0,6.97 2.71,12.86 8.14,17.68 0.49,0 2.35,0.55 5.54,1.6 3.19,1.08 5.31,1.6 6.29,1.6l3.68 0 0.75 -0.82 0.04 0.03zm87.29 -262.81c-12.83,7.49 -25.16,19.82 -36.98,36.98 -11.85,17.16 -22.43,36.04 -31.81,56.66 -9.37,20.64 -16.9,41.54 -22.56,62.71 -5.67,21.16 -8.49,39.53 -8.49,55.06 0,13.39 1.73,25.46 5.18,36.17 7.88,-2.15 15.53,-8.98 22.92,-20.48 7.39,-11.53 14.29,-25.59 20.7,-42.19 6.42,-16.61 12.34,-34.71 17.75,-54.24 5.44,-19.56 10.35,-38.16 14.81,-55.87 4.43,-17.68 8.27,-33.21 11.46,-46.63 3.22,-13.39 5.54,-22.76 7.04,-28.13l-0.01 -0.04zm43.66 113.34c-1.96,-11.27 -2.58,-23.31 -1.86,-36.17 0.75,-12.86 1.11,-25.2 1.11,-36.98l-0.75 -1.6 0 -0.82 -0.75 0 0 0.82 -0.75 2.41c-0.49,2.67 -0.98,5.63 -1.47,8.85 -0.49,3.22 -0.72,6.15 -0.72,8.85l0 25.72c0,3.19 0.23,7.1 0.72,11.66 0.49,4.56 1.24,8.43 2.22,11.66 0.49,1.08 0.62,2.41 0.36,4 -0.26,1.6 0.13,2.41 1.11,2.41l0.75 0 0 -0.82 0.03 0.01zm0 -133.43c-5.4,16.08 -9.5,31.87 -12.21,47.4 -2.71,15.53 -4.07,31.91 -4.07,49.03 0,4.3 -0.13,8.43 -0.39,12.47 -0.23,4.03 -0.13,8.18 0.39,12.47 0.98,11.79 1.86,23.31 2.58,34.58 0.75,11.27 1.86,22.76 3.32,34.55l1.5 17.68 1.47 8.82 0 0.82c0.98,0 1.37,-0.55 1.11,-1.6 -0.26,-1.08 -0.36,-1.89 -0.36,-2.41l-0.75 -14.45c-0.98,-12.34 -1.73,-25.07 -2.22,-38.19 -0.49,-13.13 -0.75,-25.85 -0.75,-38.19l0 -38.58c0,-13.39 1.11,-27.19 3.32,-41.39 2.22,-14.19 4.56,-27.74 7.04,-40.6 0.49,0 0.75,-0.82 0.75,-2.41l-0.75 0 0.02 -0.01zm19.25 32.13l-0.75 -2.41 0 0.82 -0.75 2.41 -1.37 4.82c-0.85,7.52 -1.86,15.4 -2.96,23.71 -1.11,8.3 -1.6,16.47 -1.6,24.52l0 18.5c0,4.82 0.13,11.53 0.36,20.09 0.26,8.56 0.62,17.42 1.37,26.53 0.62,9.11 1.6,17.68 2.71,25.72 1.11,8.05 2.35,13.93 3.68,17.68l0 -3.22 -0.75 -159.15 0.06 -0.01z"/>
  </g>
 </g>
</svg>
